<?xml version="1.0" encoding="utf-8"?><svg xmlns="http://www.w3.org/2000/svg"  height="48" viewBox="0 0 48 48" width="48"><path d="M0 0h48v48H0z" fill="none"/>
<g id="Shopicon">
	<path d="M8,44h24.43c3.3,0,6.723-2.7,7.608-6l3.751-14c0.884-3.3-1.092-6-4.392-6c0,0-4.397,0-7.397,0s-2.128-3-2.128-3
		l0.924-3.448c0.854-3.188-1.055-6.494-4.243-7.348C26.039,4.066,25.52,4,25.01,4c-2.649,0-5.089,1.774-5.805,4.446L15.841,21
		c0,0-0.841,3-3.841,3c-2,0-4,0-4,0c-2.2,0-4,1.8-4,4v12C4,42.2,5.8,44,8,44z M8,28h4c4.145,0,6.893-3.069,7.705-5.965l3.364-12.554
		C23.299,8.623,24.115,8,25.01,8c0.17,0,0.341,0.023,0.508,0.068c0.688,0.184,1.052,0.665,1.208,0.935
		c0.156,0.27,0.39,0.826,0.206,1.514l-0.919,3.43c-0.187,0.68-0.787,3.425,0.929,5.712C27.598,20.533,29.128,22,32,22h7.397
		c0.322,0,0.5,0.076,0.536,0.124c0.042,0.055,0.13,0.326-0.008,0.841l-3.751,14C35.763,38.497,33.909,40,32.43,40H8V28z"/>
</g>
</svg>
