<?xml version="1.0" encoding="utf-8"?><svg xmlns="http://www.w3.org/2000/svg"  height="48" viewBox="0 0 48 48" width="48"><path d="M0 0h48v48H0z" fill="none"/>
<g id="Shopicon">
	<circle cx="24" cy="34" r="2"/>
	<circle cx="24" cy="24" r="2"/>
	<circle cx="14" cy="24" r="2"/>
	<path d="M37.478,19.117l-0.597-1.272l-1.399,0.131C35.322,17.99,35.162,18,35,18c-2.757,0-5-2.243-5-5
		c0-0.162,0.01-0.322,0.024-0.479l0.131-1.399l-1.271-0.598C27.132,9.701,26,7.926,26,6V4h-2C12.972,4,4,12.972,4,24s8.972,20,20,20
		c11.028,0,20-8.972,20-20v-2h-2C40.074,22,38.299,20.868,37.478,19.117z M24,40c-8.822,0-16-7.178-16-16
		c0-8.231,6.249-15.03,14.25-15.905c0.53,2.188,1.875,4.126,3.762,5.389c0.243,4.579,3.926,8.261,8.505,8.504
		c1.262,1.888,3.199,3.231,5.388,3.762C39.03,33.752,32.231,40,24,40z"/>
</g>
</svg>
