<?xml version="1.0" encoding="utf-8"?>
<svg version="1.1" xmlns="http://www.w3.org/2000/svg" xmlns:xlink="http://www.w3.org/1999/xlink" x="0px" y="0px"
	 viewBox="0 0 48 48" style="enable-background:new 0 0 48 48;" xml:space="preserve">
<g id="Your_Icons">
	<path d="M8.083,32c-2.2,0-4,1.8-4,4v4c0,2.2,1.8,4,4,4h4c2.2,0,4-1.8,4-4v-4c0-2.2-1.8-4-4-4H8.083z M12.083,40h-4v-4h4V40z"/>
	<path d="M22.083,22c-2.2,0-4,1.8-4,4v14c0,2.2,1.8,4,4,4h4c2.2,0,4-1.8,4-4V26c0-2.2-1.8-4-4-4H22.083z M26.083,40h-4V26h4V40z"/>
	<path d="M44.083,8c0-2.2-1.8-4-4-4h-4c-2.2,0-4,1.8-4,4v32c0,2.2,1.8,4,4,4h4c2.2,0,4-1.8,4-4V8z M40.083,40h-4V8h4V40z"/>
</g>
</svg>
