<?xml version="1.0" encoding="utf-8"?><svg version="1.1" id="Shopicons" xmlns="http://www.w3.org/2000/svg" x="0" y="0" viewBox="0 0 48 48" xml:space="preserve"><style>.st1{fill:#fff}.st2,.st3{fill:none;stroke:#666;stroke-width:4;stroke-miterlimit:10}.st3{stroke-width:6}</style><g id="twitter_00000081639297921749249010000005939990909492395964_"><path d="M0-.006h48v48H0v-48z" fill="none"/><path d="M17.937 43.491h-.146c-5.887-.032-10.764-2.012-13.381-5.431a6.403 6.403 0 0 1-.295-.43l-.081-.125a2 2 0 0 1 1.649-3.132c1.732 0 5.238-.705 8.8-3.139C3.042 23.726 3.941 13.646 6.211 9.105a2.001 2.001 0 0 1 3.203-.519c4.763 4.762 10.347 6.378 12.734 6.689C22.969 10.58 27.074 7 32 7c1.937 0 3.788.548 5.403 1.593l5.11-.613a2.001 2.001 0 0 1 2.058 2.816L42 16.435V17c0 9.862-2.955 17.125-8.784 21.588-4.074 3.12-9.636 4.903-15.279 4.903zm-7.887-5.795c2.014 1.134 4.723 1.778 7.763 1.795h.119c4.715 0 9.512-1.521 12.853-4.079C35.572 31.746 38 25.551 38 17v-1c0-.286.062-.569.181-.83l1.274-2.795-2.338.28a1.99 1.99 0 0 1-1.46-.402A5.943 5.943 0 0 0 32 11c-3.309 0-6 2.691-6 6 0 .905-.55 1.696-1.436 2.062-2.212.918-9.455-.666-15.606-5.538-.719 4.252.785 10.758 9.99 15.715a1.998 1.998 0 0 1 .394 3.244c-3.048 2.761-6.403 4.392-9.292 5.213z"/></g></svg>