<?xml version="1.0" encoding="utf-8"?><svg xmlns="http://www.w3.org/2000/svg" viewBox="0 0 48 48" style="enable-background:new 0 0 48 48" xml:space="preserve"><path style="fill:none" d="M0 0h48v48H0z"/><path d="M36 28c-.438 0-.866.045-1.285.113l-4.447-10.108A7.976 7.976 0 0 0 33 12c0-4.411-3.589-8-8-8s-8 3.589-8 8c0 1.8.605 3.457 1.612 4.795l-3.893 5.69A7.968 7.968 0 0 0 12 22c-4.411 0-8 3.589-8 8s3.589 8 8 8 8-3.589 8-8a7.961 7.961 0 0 0-1.982-5.254l3.726-5.446a7.944 7.944 0 0 0 4.95.516l4.36 9.909A7.983 7.983 0 0 0 28 36c0 4.411 3.589 8 8 8s8-3.589 8-8-3.589-8-8-8zm-24 6c-2.206 0-4-1.794-4-4s1.794-4 4-4 4 1.794 4 4-1.794 4-4 4zm9-22c0-2.206 1.794-4 4-4s4 1.794 4 4-1.794 4-4 4-4-1.794-4-4zm15 28c-2.206 0-4-1.794-4-4s1.794-4 4-4 4 1.794 4 4-1.794 4-4 4z"/></svg>