<?xml version="1.0" encoding="utf-8"?><svg xmlns="http://www.w3.org/2000/svg"  height="48" viewBox="0 0 48 48" width="48"><path d="M0 0h48v48H0z" fill="none"/>
<g id="Shopicon">
	<path d="M41.674,22.776C41.885,22.225,42,21.625,42,21c0-2.757-2.243-5-5-5h-0.076c0.666-0.805,1.063-1.795,1.063-2.869
		c0-4.869-5.5-9.042-5.5-9.042s-5.5,4.173-5.5,9.042c0,1.074,0.398,2.064,1.063,2.869h-5.827l3.342-6.685l-5.687-3.791L8.751,14.439
		l-0.164,0.146c-0.211,0.211-0.423,0.41-0.632,0.607C5.64,17.379,4,19.433,4,26v8c0,5.514,4.486,10,10,10h19c2.757,0,5-2.243,5-5
		c0-0.37-0.04-0.73-0.117-1.078C40.221,37.504,42,35.456,42,33c0-0.625-0.115-1.225-0.326-1.776C43.071,30.336,44,28.774,44,27
		S43.071,23.664,41.674,22.776z M32.49,9.745c0.826,1.078,1.498,2.308,1.498,3.386c0,0.346-0.598,0.869-1.5,0.869
		s-1.5-0.523-1.5-0.869C30.987,12.054,31.659,10.826,32.49,9.745z M39,28h-2H24v4h13c0.542,0,1,0.458,1,1s-0.458,1-1,1h-4h-9v4h9
		c0.542,0,1,0.458,1,1s-0.458,1-1,1H14c-3.309,0-6-2.691-6-6v-8c0-5.35,1.133-6.418,2.701-7.897
		c0.209-0.198,0.422-0.398,0.634-0.608l8.761-7.019l0.313,0.209L15.751,20H37c0.542,0,1,0.458,1,1s-0.458,1-1,1H24v4h13h2
		c0.542,0,1,0.458,1,1S39.542,28,39,28z"/>
</g>
</svg>
