<?xml version="1.0" encoding="utf-8"?><svg xmlns="http://www.w3.org/2000/svg"  height="48" viewBox="0 0 48 48" width="48"><path d="M0 0h48v48H0z" fill="none"/>
<g id="Shopicon">
	<path d="M36.991,18.81l3.598-2.077l-2-3.465l-3.604,2.081c-0.684-0.867-1.466-1.649-2.333-2.333l2.081-3.604l-3.465-2l-2.077,3.598
		C28.18,10.604,27.11,10.32,26,10.16V6h-4v4.16c-1.11,0.16-2.18,0.444-3.19,0.849l-2.077-3.598l-3.465,2l2.081,3.604
		c-0.867,0.684-1.649,1.466-2.333,2.333l-3.604-2.081l-2,3.465l3.598,2.077C10.604,19.82,10.32,20.89,10.16,22H6v4h4.16
		c0.16,1.11,0.444,2.18,0.849,3.19l-3.598,2.077l2,3.465l3.604-2.081c0.684,0.867,1.466,1.649,2.333,2.333l-2.081,3.604l3.465,2
		l2.077-3.598c1.011,0.405,2.08,0.689,3.19,0.849V42h4v-4.16c1.11-0.16,2.18-0.444,3.19-0.849l2.077,3.598l3.465-2l-2.081-3.604
		c0.867-0.684,1.649-1.466,2.333-2.333l3.604,2.081l2-3.465l-3.598-2.077c0.405-1.011,0.689-2.08,0.849-3.19H42v-4h-4.16
		C37.68,20.89,37.396,19.82,36.991,18.81z M34,24c0,5.514-4.486,10-10,10s-10-4.486-10-10s4.486-10,10-10S34,18.486,34,24z"/>
	<path d="M27,18c-1.654,0-3,1.346-3,3s1.346,3,3,3s3-1.346,3-3S28.654,18,27,18z"/>
	<path d="M24,27c0-1.654-1.346-3-3-3s-3,1.346-3,3s1.346,3,3,3S24,28.654,24,27z"/>
</g>
</svg>
