<?xml version="1.0" encoding="utf-8"?><svg xmlns="http://www.w3.org/2000/svg" viewBox="0 0 48 48" style="enable-background:new 0 0 48 48" xml:space="preserve"><style>.st0{fill:none}.st1,.st2,.st3,.st4{fill:none;stroke:#666;stroke-miterlimit:10}.st1{stroke-width:4;stroke-linecap:round;stroke-linejoin:round}.st2,.st3,.st4{stroke-width:5}.st3,.st4{stroke-width:4}.st4{stroke-width:2}.st7{fill:#6f6}.st8{fill:none;stroke:#6f6;stroke-width:.1;stroke-miterlimit:10}</style><g id="Your_Icons"><circle cx="16" cy="26" r="2"/><circle cx="32" cy="26" r="2"/><path d="M42 18h-3.798c-.459-4.538-4.301-8.091-8.957-8.091H18.75c-4.657 0-8.499 3.553-8.958 8.091H6a2 2 0 0 0 0 4h2.35A5.971 5.971 0 0 0 8 24v10c0 .138.014.273.041.404C8.247 36.418 9.933 38 12 38s3.753-1.582 3.959-3.596c.027-.131.041-.266.041-.404h16c0 .138.014.273.041.404C32.246 36.418 33.932 38 36 38s3.754-1.582 3.959-3.596c.027-.131.041-.266.041-.404V24c0-.702-.128-1.373-.35-2H42a2 2 0 0 0 0-4zm-23.25-4.091h10.495A5.013 5.013 0 0 1 34.165 18H13.83a5.012 5.012 0 0 1 4.92-4.091zM14 30c-1.103 0-2-.897-2-2v-4c0-1.103.897-2 2-2h20c1.103 0 2 .897 2 2v4c0 1.103-.897 2-2 2H14z"/></g></svg>