<?xml version="1.0" encoding="utf-8"?><svg xmlns="http://www.w3.org/2000/svg"  height="48" viewBox="0 0 48 48" width="48"><path d="M0 0h48v48H0z" fill="none"/>
<g id="Shopicon">
	<path d="M36,12.089c0,0-5.243,4.173-5.243,9.042C30.757,23.82,33.104,26,36,26c2.896,0,5.243-2.18,5.243-4.869
		C41.243,16.263,36,12.089,36,12.089z M36,22c-0.733,0-1.243-0.458-1.243-0.869c0-1.009,0.541-2.141,1.243-3.163
		c0.702,1.023,1.243,2.154,1.243,3.163C37.243,21.542,36.732,22,36,22z"/>
	<path d="M14,44h8c3.309,0,6-2.691,6-6V24c0-2.291-1.292-4.285-3.185-5.295C24.924,18.319,25,17.92,25,17.5v-1
		c0-2.481-2.019-4.5-4.5-4.5H20V8h18V4H10v4h6v4h-0.5c-2.481,0-4.5,2.019-4.5,4.5v1c0,0.42,0.076,0.819,0.185,1.205
		C9.292,19.715,8,21.709,8,24v14C8,41.309,10.691,44,14,44z M12,24c0-1.103,0.897-2,2-2h1.5h5H22c1.103,0,2,0.897,2,2v14
		c0,1.103-0.897,2-2,2h-8c-1.103,0-2-0.897-2-2V24z M15,16.5c0-0.271,0.229-0.5,0.5-0.5h5c0.271,0,0.5,0.229,0.5,0.5v1
		c0,0.271-0.229,0.5-0.5,0.5h-5c-0.271,0-0.5-0.229-0.5-0.5V16.5z"/>
</g>
</svg>
