<?xml version="1.0" encoding="utf-8"?><svg xmlns="http://www.w3.org/2000/svg"  height="48" viewBox="0 0 48 48" width="48"><path d="M0 0h48v48H0z" fill="none"/>
<g id="Shopicon">
	<path d="M4,16v24c0,2.2,1.8,4,4,4h32c2.2,0,4-1.8,4-4V16c0-2.2-1.8-4-4-4h-4.349C35.873,11.374,36,10.702,36,10
		c0-3.314-2.686-6-6-6s-6,2.686-6,6c0,0.455,0.055,0.897,0.151,1.323L24,11.172l-0.151,0.151C23.945,10.897,24,10.455,24,10
		c0-3.314-2.686-6-6-6s-6,2.686-6,6c0,0.702,0.127,1.374,0.349,2H8C5.8,12,4,13.8,4,16z M40,40H8v-5h32V40z M30,8
		c1.103,0,2,0.897,2,2s-0.897,2-2,2s-2-0.897-2-2S28.897,8,30,8z M18,8c1.103,0,2,0.897,2,2s-0.897,2-2,2s-2-0.897-2-2
		S16.897,8,18,8z M19.172,16l-6,6L16,24.828l8-8l8,8L34.828,22l-6-6H40v13H8V16H19.172z"/>
</g>
</svg>
