<?xml version="1.0" encoding="utf-8"?><svg xmlns="http://www.w3.org/2000/svg" viewBox="0 0 48 48" style="enable-background:new 0 0 48 48" xml:space="preserve"><style>.st1,.st2,.st3,.st4{fill:none;stroke:#666;stroke-miterlimit:10}.st1{stroke-width:4;stroke-linecap:round;stroke-linejoin:round}.st2,.st3,.st4{stroke-width:5}.st3,.st4{stroke-width:4}.st4{stroke-width:2}.st7{fill:#6f6}.st8{fill:none;stroke:#6f6;stroke-width:.1;stroke-miterlimit:10}</style><g id="Your_Icons"><path d="m36.565 14.114-3.145 2.471a12.02 12.02 0 0 1 2.058 10.912c-.934 3.066-3.005 5.586-5.833 7.095s-6.076 1.824-9.141.893c-6.33-1.927-9.913-8.644-7.987-14.974a11.924 11.924 0 0 1 5.832-7.095 11.914 11.914 0 0 1 6.767-1.361l-3.531 3.531 2.828 2.828L32.828 10l-8.414-8.414-2.828 2.828 3.645 3.645a15.876 15.876 0 0 0-8.764 1.828 15.89 15.89 0 0 0-7.775 9.46C6.123 27.786 10.9 36.742 19.341 39.31a16.03 16.03 0 0 0 4.678.701c2.591 0 5.159-.637 7.51-1.891a15.895 15.895 0 0 0 7.776-9.46 16.015 16.015 0 0 0-2.74-14.546z"/><path style="fill:none" d="M0 0h48v48H0z"/></g></svg>