<?xml version="1.0" encoding="utf-8"?><svg xmlns="http://www.w3.org/2000/svg"  height="48" viewBox="0 0 48 48" width="48"><path d="M0 0h48v48H0z" fill="none"/>
<g id="Shopicon">
	<path d="M30,25c-2.761,0-5,2.239-5,5c0,2.761,2.239,5,5,5s5-2.239,5-5C35,27.239,32.761,25,30,25z M30,31c-0.551,0-1-0.449-1-1
		s0.449-1,1-1s1,0.449,1,1S30.551,31,30,31z"/>
	<path d="M23,18c0-2.761-2.239-5-5-5s-5,2.239-5,5c0,2.761,2.239,5,5,5S23,20.761,23,18z M17,18c0-0.551,0.449-1,1-1s1,0.449,1,1
		s-0.449,1-1,1S17,18.551,17,18z"/>
	<circle cx="42" cy="6" r="2"/>
	<rect x="13.515" y="22" transform="matrix(0.7071 -0.7071 0.7071 0.7071 -9.9411 23.9994)" width="20.97" height="4"/>
	<path d="M42,11c0-2.757-2.243-5-5-5c-1.006,0-1.965,0.3-2.773,0.841C26.395,2.143,16.366,3.302,9.799,9.856
		C6.014,13.635,3.929,18.657,3.929,24s2.085,10.365,5.87,14.144c3.906,3.898,9.036,5.848,14.167,5.847
		c5.129,0,10.261-1.949,14.166-5.847c6.564-6.552,7.729-16.558,3.031-24.375C41.702,12.962,42,12.005,42,11z M35.305,35.312
		c-6.253,6.243-16.427,6.242-22.681,0C9.596,32.29,7.929,28.272,7.929,24s1.667-8.29,4.696-11.312
		c3.113-3.108,7.199-4.699,11.315-4.699c3.259,0,6.537,0.997,9.367,3.029l1.717,1.233l1.136-1.782C36.347,10.176,36.661,10,37,10
		c0.551,0,1,0.448,1,1c0,0.339-0.175,0.652-0.468,0.84l-1.781,1.139l1.234,1.715C41.582,21.081,40.875,29.753,35.305,35.312z"/>
</g>
</svg>
