<?xml version="1.0" encoding="utf-8"?><svg xmlns="http://www.w3.org/2000/svg"  height="48" viewBox="0 0 48 48" width="48"><path d="M0 0h48v48H0z" fill="none"/>
<g id="Guidelines">
	<g id="material_x5F_system_x5F_icon_x5F_border">
	</g>
	<path d="M40,15h4c0-6.065-4.935-11-11-11c-3.72,0-7.008,1.861-9,4.695C22.008,5.861,18.72,4,15,4C8.935,4,4,8.935,4,15h4
		c0-3.859,3.14-7,7-7c1.337,0,2.583,0.383,3.646,1.036C18.434,9.013,18.219,9,18,9c-3.309,0-6,2.691-6,6h4c0-1.103,0.897-2,2-2
		c1.082,0,1.96,0.865,1.994,1.938l-1.778,15.108C17.937,30.019,17.645,30,17.328,30c-2.22,0-3.458,0.743-4.362,1.285
		C12.224,31.73,11.775,32,10.663,32c-1.111,0-1.56-0.269-2.302-0.715C7.458,30.743,6.22,30,4,30v4c1.111,0,1.56,0.269,2.302,0.715
		C7.206,35.257,8.443,36,10.663,36s3.458-0.743,4.362-1.285C15.768,34.27,16.216,34,17.328,34c1.111,0,1.559,0.269,2.301,0.715
		C20.532,35.257,21.77,36,23.989,36c2.221,0,3.459-0.743,4.363-1.285C29.096,34.27,29.544,34,30.656,34
		c1.114,0,1.563,0.27,2.308,0.716C33.868,35.258,35.106,36,37.328,36s3.46-0.742,4.364-1.284C42.437,34.27,42.886,34,44,34v-4
		c-2.222,0-3.46,0.742-4.364,1.284C38.892,31.73,38.442,32,37.328,32s-1.563-0.27-2.308-0.716C34.116,30.742,32.878,30,30.656,30
		c-0.311,0-0.598,0.017-0.873,0.044l-1.777-15.106C28.04,13.865,28.919,13,30,13c1.103,0,2,0.897,2,2h4c0-3.309-2.691-6-6-6
		c-0.218,0-0.434,0.013-0.646,0.036C30.418,8.383,31.663,8,33,8C36.859,8,40,11.141,40,15z M22.071,31.51L23.778,17h0.443
		l1.706,14.5c-0.552,0.314-1.019,0.5-1.938,0.5C23.082,32,22.615,31.819,22.071,31.51z"/>
	<path d="M37.328,40c-1.114,0-1.563-0.27-2.308-0.716C34.116,38.742,32.878,38,30.656,38c-2.221,0-3.458,0.742-4.362,1.285
		C25.551,39.73,25.103,40,23.989,40c-1.111,0-1.559-0.269-2.301-0.715C20.785,38.743,19.548,38,17.328,38
		c-2.22,0-3.458,0.743-4.362,1.285C12.224,39.73,11.775,40,10.663,40c-1.111,0-1.56-0.269-2.302-0.715C7.458,38.743,6.22,38,4,38v4
		c1.111,0,1.56,0.269,2.302,0.715C7.206,43.257,8.443,44,10.663,44s3.458-0.743,4.362-1.285C15.768,42.27,16.216,42,17.328,42
		c1.111,0,1.559,0.269,2.301,0.715C20.532,43.257,21.77,44,23.989,44c2.221,0,3.459-0.743,4.363-1.285
		C29.096,42.27,29.544,42,30.656,42c1.114,0,1.563,0.27,2.308,0.716C33.868,43.258,35.106,44,37.328,44s3.46-0.742,4.364-1.284
		C42.437,42.27,42.886,42,44,42v-4c-2.222,0-3.46,0.742-4.364,1.284C38.892,39.73,38.442,40,37.328,40z"/>
</g>
<g id="Shopicon">
</g>
</svg>
