<?xml version="1.0" encoding="utf-8"?><svg version="1.1" id="Shopicons" xmlns="http://www.w3.org/2000/svg" x="0" y="0" viewBox="0 0 48 48" xml:space="preserve"><style>.st1{fill:#fff}.st2,.st3{fill:none;stroke:#666;stroke-width:4;stroke-miterlimit:10}.st3{stroke-width:6}</style><g id="youtube"><path d="M0 .011h48v48H0v-48z" fill="none"/><path d="M24 38.519c-1.171 0-11.525-.022-14.481-.815a6.474 6.474 0 0 1-4.574-4.574c-.807-3.007-.815-8.872-.815-9.12s.009-6.113.815-9.12a6.484 6.484 0 0 1 4.575-4.575c2.955-.793 13.309-.816 14.48-.816s11.525.022 14.482.815a6.481 6.481 0 0 1 4.574 4.574v.001h.001c.805 3.007.813 8.871.813 9.119s-.009 6.113-.814 9.12a6.48 6.48 0 0 1-4.576 4.575c-2.955.793-13.309.816-14.48.816zm0-25.02c-4.22 0-11.602.185-13.446.679a2.47 2.47 0 0 0-1.745 1.745c-.557 2.075-.68 6.54-.68 8.086s.123 6.012.679 8.086c.228.85.896 1.519 1.744 1.744 1.848.495 9.229.68 13.448.68s11.603-.185 13.447-.679a2.473 2.473 0 0 0 1.746-1.744c.555-2.075.678-6.541.678-8.087s-.123-6.012-.678-8.085l-.001-.001a2.473 2.473 0 0 0-1.744-1.745c-1.845-.494-9.228-.679-13.448-.679z"/><path d="M20.887 30.986a2 2 0 0 1-2-2v-9.953a1.999 1.999 0 0 1 3-1.732l8.619 4.977a2 2 0 0 1 0 3.464l-8.619 4.977c-.31.178-.655.267-1 .267zm2-8.49v3.025l2.619-1.513-2.619-1.512z"/></g></svg>