<?xml version="1.0" encoding="utf-8"?><svg xmlns="http://www.w3.org/2000/svg"  height="48" viewBox="0 0 48 48" width="48"><path d="M0 0h48v48H0z" fill="none"/>
<g id="Shopicon">
	<path d="M40,18c0-3.309-2.691-6-6-6h-6c-1.538,0-2.937,0.586-4,1.541C22.937,12.586,21.538,12,20,12h-6c-3.309,0-6,2.691-6,6v6H4v4
		v2v10h4v4h4v-4h24v4h4v-4h4V30v-2v-4h-4V18z M28,16h6c1.103,0,2,0.897,2,2v8c0,1.103-0.897,2-2,2h-6c-1.103,0-2-0.897-2-2v-8
		C26,16.897,26.897,16,28,16z M12,18c0-1.103,0.897-2,2-2h6c1.103,0,2,0.897,2,2v8c0,1.103-0.897,2-2,2h-6c-1.103,0-2-0.897-2-2V18z
		 M40,36H8v-4h6h6h8h6h6V36z"/>
</g>
</svg>
