<?xml version="1.0" encoding="utf-8"?><svg xmlns="http://www.w3.org/2000/svg"  height="48" viewBox="0 0 48 48" width="48"><path d="M0 0h48v48H0z" fill="none"/>
<g id="Shopicon">
	<path d="M40.228,21.494L30,11.267V8c0-2.2-1.8-4-4-4H10C7.8,4,6,5.8,6,8v23.955c0,2.2,1.8,4,4,4h3.992l0.121,0.799
		c0.621,4.105,4.012,7.201,7.888,7.201h20v-17C42,23.483,40.656,21.907,40.228,21.494z M26,9.185c-0.198-0.019-0.398-0.03-0.6-0.03
		c-1.605,0-3.112,0.623-4.24,1.751c-1.132,1.125-1.758,2.629-1.76,4.234c-0.003,1.611,0.621,3.123,1.756,4.259L26,24.243v7.712h-7V8
		h7V9.185z M10,8h3v23.955h-3V8z M38,39.955H22c-1.915,0-3.605-1.633-3.933-3.799l-0.03-0.201H26c2.2,0,4-1.8,4-4v-3.712l2.12,2.12
		l2.829-2.828l-4.663-4.663L25,17.587l-1.016-1.016c-0.378-0.378-0.585-0.884-0.584-1.424c0.001-0.534,0.207-1.033,0.584-1.408
		c0.423-0.423,1.024-0.6,1.604-0.548c0.455,0.04,0.897,0.217,1.228,0.548L31,17.923l6.416,6.416l-0.072-0.022l0.109,0.072
		C37.584,24.586,38,25.337,38,26.955V39.955z"/>
</g>
</svg>
