<?xml version="1.0" encoding="utf-8"?><svg version="1.1" id="Shopicons" xmlns="http://www.w3.org/2000/svg" x="0" y="0" viewBox="0 0 48 48" xml:space="preserve"><style>.st1{fill:#fff}.st2,.st3{fill:none;stroke:#666;stroke-width:4;stroke-miterlimit:10}.st3{stroke-width:6}</style><g id="facebook_00000008112799362506850770000006163283146650373774_"><path d="M0 .006h48v48H0v-48z" fill="none"/><path d="M24 4C12.954 4 4 12.954 4 24s8.954 20 20 20 20-8.954 20-20S35.046 4 24 4zm2 35.861V28h5v-4h-5v-3c0-1.103.897-2 2-2h3v-4h-3c-3.309 0-6 2.691-6 6v3h-5v4h5v11.861C14.12 38.872 8 32.144 8 24c0-8.823 7.178-16 16-16s16 7.177 16 16c0 8.144-6.12 14.872-14 15.861z"/></g></svg>