<?xml version="1.0" encoding="utf-8"?><svg xmlns="http://www.w3.org/2000/svg"  height="48" viewBox="0 0 48 48" width="48"><path d="M0 0h48v48H0z" fill="none"/>
<g id="Shopicon">
	<path d="M3.67,38.252c1.039,2.218,3.383,3.651,5.972,3.651h13.963c2.508,0,4.758-1.588,5.6-3.95c0.638-1.791,1.5-3.405,2.564-4.798
		c1.646-2.156,3.285-3.168,4.871-4.147c0.487-0.301,0.978-0.609,1.457-0.943v13.839h3.807V20.782c0-0.038,0-0.075,0-0.113v-0.573
		h-0.027c-0.191-3.277-1.697-7.269-4.552-12.069l-2.324-3.906l-1.153,4.396c-1.097,4.181-3.566,10.187-9.105,15.054
		c-3.096,2.72-5.541,4.869-9.315,5.557c-1.278,0.232-2.615,0.3-3.908,0.365c-2.908,0.146-5.656,0.283-7.228,2.357
		c-1.308,1.727-1.239,3.743-1.188,4.317C3.168,36.885,3.358,37.586,3.67,38.252z M7.326,34.149c0.5-0.66,2.564-0.764,4.385-0.855
		c1.349-0.067,2.878-0.145,4.4-0.422c4.811-0.877,7.888-3.58,11.146-6.442c4.524-3.976,7.231-8.604,8.85-12.637
		c1.971,4.167,2.492,7.363,1.5,9.36c-0.537,1.081-1.386,1.641-2.966,2.616c-1.703,1.052-3.823,2.36-5.896,5.075
		c-1.303,1.707-2.354,3.668-3.125,5.831c-0.303,0.85-1.112,1.421-2.014,1.421H9.642c-1.119,0-2.11-0.573-2.525-1.459
		c-0.124-0.266-0.196-0.529-0.221-0.809C6.892,35.789,6.812,34.828,7.326,34.149z"/>
</g>
</svg>
