<?xml version="1.0" encoding="utf-8"?><svg xmlns="http://www.w3.org/2000/svg"  height="48" viewBox="0 0 48 48" width="48"><path d="M0 0h48v48H0z" fill="none"/>
<g id="Shopicon">
	<polygon points="39.999,37.172 29.414,26.587 26.586,29.415 37.171,40 29.999,40 29.999,44 43.999,44 43.999,30 39.999,30 	"/>
	<polygon points="30,8.001 37.172,8.001 26.586,18.587 29.414,21.415 40,10.829 40,18.001 44,18.001 44,4.001 30,4.001 	"/>
	<polygon points="7.999,10.828 18.586,21.415 21.414,18.587 10.827,8 17.999,8 17.999,4 3.999,4 3.999,18 7.999,18 	"/>
	<polygon points="18,40.001 10.907,40.001 21.414,29.494 18.585,26.666 8,37.252 8,30.003 4,30.003 4,44.001 18,44.001 	"/>
</g>
</svg>
