<?xml version="1.0" encoding="utf-8"?><svg xmlns="http://www.w3.org/2000/svg"  height="48" viewBox="0 0 48 48" width="48"><path d="M0 0h48v48H0z" fill="none"/>
<g id="Shopicon">
	<path d="M36.802,19.497C38.161,18.063,39,16.131,39,14c0-4.418-3.582-8-8-8s-8,3.582-8,8c0,2.131,0.839,4.063,2.198,5.497
		c-0.962,0.532-1.842,1.192-2.619,1.957C21.515,18.286,18.527,16,15,16c-4.418,0-8,3.582-8,8c0,2.131,0.839,4.063,2.198,5.497
		C5.503,31.542,3,35.476,3,40h24c0-4.177-2.134-7.851-5.37-10H43C43,25.476,40.497,21.542,36.802,19.497z M27,14
		c0-2.206,1.794-4,4-4c2.206,0,4,1.794,4,4s-1.794,4-4,4C28.794,18,27,16.206,27,14z M11,24c0-2.206,1.794-4,4-4s4,1.794,4,4
		s-1.794,4-4,4S11,26.206,11,24z M8.074,36c1.385-2.39,3.971-4,6.926-4s5.541,1.61,6.926,4H8.074z M24.074,26
		c1.385-2.39,3.971-4,6.926-4c2.955,0,5.541,1.61,6.926,4H24.074z"/>
</g>
</svg>
