<?xml version="1.0" encoding="utf-8"?><svg xmlns="http://www.w3.org/2000/svg"  height="48" viewBox="0 0 48 48" width="48"><path d="M0 0h48v48H0z" fill="none"/>
<g id="Shopicon">
	<path d="M24,44c5.343,0,10.365-2.08,14.143-5.858l-2.829-2.828C32.292,38.336,28.274,40,24,40c-8.822,0-16-7.178-16-16
		S15.178,8,24,8s16,7.178,16,16c0,2.206-1.794,4-4,4s-4-1.794-4-4v-8h-4v1.079C26.822,16.397,25.459,16,24,16c-4.418,0-8,3.582-8,8
		s3.582,8,8,8c2.394,0,4.536-1.057,6.003-2.723C31.47,30.942,33.611,32,36,32c4.411,0,8-3.589,8-8c0-11.028-8.972-20-20-20
		S4,12.972,4,24S12.972,44,24,44z M24,28c-2.206,0-4-1.794-4-4s1.794-4,4-4s4,1.794,4,4S26.206,28,24,28z"/>
</g>
</svg>
