<?xml version="1.0" encoding="utf-8"?><svg xmlns="http://www.w3.org/2000/svg"  height="48" viewBox="0 0 48 48" width="48"><path d="M0 0h48v48H0z" fill="none"/>
<g id="Shopicon">
	<path d="M30.18,17.167L24,4l-6.18,13.167L4,19.279l10,10.249L11.639,44L24,37.167L36.361,44L34,29.528l10-10.249L30.18,17.167z
		 M31.137,26.734l-1.41,1.445l0.325,1.992l1.035,6.342l-5.152-2.848L24,32.597l-1.935,1.07l-5.152,2.848l1.035-6.342l0.325-1.992
		l-1.41-1.445l-4.564-4.677l6.125-0.936l2.11-0.322l0.907-1.932L24,13.414l2.559,5.453l0.907,1.932l2.11,0.322l6.125,0.936
		L31.137,26.734z"/>
</g>
</svg>
