<?xml version="1.0" encoding="utf-8"?><svg xmlns="http://www.w3.org/2000/svg"  height="48" viewBox="0 0 48 48" width="48"><path d="M0 0h48v48H0z" fill="none"/>
<g id="Shopicon">
	<path d="M39.16,19.003l-5.826-0.833C31.767,15.401,28.969,14,25,14H14C8.486,14,4,18.486,4,24s4.486,10,10,10h11
		c3.969,0,6.767-1.401,8.333-4.17l5.826-0.833C41.843,28.913,44,26.703,44,24S41.843,19.087,39.16,19.003z M30.582,26.183
		l-0.433,1.062C29.592,28.607,28.545,30,25,30H14c-3.309,0-6-2.691-6-6s2.691-6,6-6h11c3.545,0,4.592,1.393,5.148,2.756l0.433,1.062
		L35,22.448v3.113L30.582,26.183z"/>
	<circle cx="14" cy="24" r="3"/>
	<rect x="20" y="22" width="8" height="4"/>
</g>
</svg>
