<?xml version="1.0" encoding="utf-8"?><svg xmlns="http://www.w3.org/2000/svg"  height="48" viewBox="0 0 48 48" width="48"><path d="M0 0h48v48H0z" fill="none"/>
<g id="Shopicon">
	<path d="M37.602,8c-5.108,0-17.423,0.821-24.812,8.21c-4.765,4.765-5.187,12.211-1.297,17.469l-5.833,5.833l2.828,2.828
		l5.833-5.833c2.363,1.748,5.163,2.638,7.969,2.638c3.438,0,6.877-1.312,9.5-3.935c9.5-9.5,8.143-27.143,8.143-27.143
		S39.062,8,37.602,8z M12.855,25.71c0-2.52,0.981-4.89,2.763-6.672c4.7-4.7,12.013-6.295,17.323-6.808L14.358,30.814
		C13.383,29.305,12.855,27.549,12.855,25.71z M28.962,32.381c-1.782,1.782-4.151,2.763-6.672,2.763
		c-1.839,0-3.595-0.528-5.104-1.503l18.578-18.578C35.248,20.388,33.651,27.692,28.962,32.381z"/>
</g>
</svg>
