<?xml version="1.0" encoding="utf-8"?>
<svg version="1.1" xmlns="http://www.w3.org/2000/svg" xmlns:xlink="http://www.w3.org/1999/xlink" x="0px" y="0px"
	 viewBox="0 0 48 48" style="enable-background:new 0 0 48 48;" xml:space="preserve">
<g id="Your_Icons">
	<path d="M24,10C12,10,4,24,4,24s8,14,20,14s20-14,20-14S36,10,24,10z M24,34c-7.072,0-12.741-6.584-15.201-9.992
		C11.272,20.604,16.976,14,24,14c7.072,0,12.741,6.584,15.201,9.992C36.728,27.396,31.024,34,24,34z"/>
	<path d="M24,16c-4.418,0-8,3.582-8,8s3.582,8,8,8s8-3.582,8-8S28.418,16,24,16z M24,28c-2.206,0-4-1.794-4-4c0-2.206,1.794-4,4-4
		s4,1.794,4,4C28,26.206,26.206,28,24,28z"/>
</g>
</svg>
