<?xml version="1.0" encoding="utf-8"?><svg xmlns="http://www.w3.org/2000/svg"  height="48" viewBox="0 0 48 48" width="48"><path d="M0 0h48v48H0z" fill="none"/>
<g id="Shopicon">
	<polygon points="10,26 6,26 6,34 6,38 6,44 10,44 10,38 14,38 14,44 18,44 18,34 10,34 	"/>
	<polygon points="38,34 30,34 30,44 34,44 34,38 38,38 38,44 42,44 42,38 42,34 42,26 38,26 	"/>
	<path d="M32,30v-4h-6v-6h18.241L26,6.971V4h-4v2.971L3.759,20H22v6h-6v4h6v14h4V30H32z M16.241,16L24,10.458L31.759,16H26h-4
		H16.241z"/>
</g>
</svg>
