<?xml version="1.0" encoding="utf-8"?><svg xmlns="http://www.w3.org/2000/svg" viewBox="0 0 48 48" style="enable-background:new 0 0 48 48" xml:space="preserve"><style>.st1,.st2,.st3,.st4{fill:none;stroke:#666;stroke-miterlimit:10}.st1{stroke-width:4;stroke-linecap:round;stroke-linejoin:round}.st2,.st3,.st4{stroke-width:5}.st3,.st4{stroke-width:4}.st4{stroke-width:2}.st7{fill:#6f6}.st8{fill:none;stroke:#6f6;stroke-width:.1;stroke-miterlimit:10}</style><g id="Your_Icons"><path style="fill:none" d="M0 .008h48v48H0z"/><path d="M39.114 34.332C37.38 31.449 32.326 23.487 31 21.402V10h1a2 2 0 0 0 0-4H16a2 2 0 0 0 0 4h1v11.402c-1.326 2.085-6.38 10.047-8.114 12.93-.512.851-.772 1.749-.772 2.668 0 2.757 2.243 5 4.999 5h21.773c2.757 0 5-2.243 5-5 0-.919-.26-1.817-.772-2.668zM34.884 38h-21.77c-.551 0-1-.448-1-1 0-.183.067-.386.199-.605 1.935-3.217 8.31-13.235 8.374-13.336.205-.322.313-.694.313-1.075V10.003h6v11.981a2 2 0 0 0 .312 1.074c.064.101 6.439 10.119 8.374 13.336.132.22.199.423.199.605A1 1 0 0 1 34.884 38z"/></g></svg>