<?xml version="1.0" encoding="utf-8"?><svg xmlns="http://www.w3.org/2000/svg"  height="48" viewBox="0 0 48 48" width="48"><path d="M0 0h48v48H0z" fill="none"/>
<g id="Shopicon">
	<path d="M42,12h-0.349C41.873,11.374,42,10.702,42,10c0-3.314-2.686-6-6-6s-6,2.686-6,6c0,0.702,0.127,1.374,0.349,2h-0.698
		C29.873,11.374,30,10.702,30,10c0-3.314-2.686-6-6-6s-6,2.686-6,6c0,0.702,0.127,1.374,0.349,2H18c-1.469,0-2.746,0.812-3.441,2H14
		C7.4,14,2,19.4,2,26v12h4c0,3.314,2.686,6,6,6s6-2.686,6-6h8c0,3.314,2.686,6,6,6s6-2.686,6-6h4c2.2,0,4-1.8,4-4V16
		C46,13.8,44.2,12,42,12z M34,10c0-1.103,0.897-2,2-2c1.103,0,2,0.897,2,2s-0.897,2-2,2C34.897,12,34,11.103,34,10z M22,10
		c0-1.103,0.897-2,2-2c1.103,0,2,0.897,2,2s-0.897,2-2,2C22.897,12,22,11.103,22,10z M12,40c-1.103,0-2-0.897-2-2s0.897-2,2-2
		c1.103,0,2,0.897,2,2S13.103,40,12,40z M14,18v6H6.263C7.155,20.555,10.28,18,14,18z M6,34v-6h8v4.349
		C13.374,32.127,12.702,32,12,32c-1.775,0-3.365,0.775-4.463,2H6z M32,40c-1.103,0-2-0.897-2-2s0.897-2,2-2c1.103,0,2,0.897,2,2
		S33.103,40,32,40z M42,34h-5.537c-1.099-1.225-2.688-2-4.463-2s-3.365,0.775-4.463,2H18V16h8.172l-5,5L24,23.828l6-6l6,6L38.828,21
		l-5-5H42V34z"/>
</g>
</svg>
