<?xml version="1.0" encoding="utf-8"?><svg xmlns="http://www.w3.org/2000/svg"  height="48" viewBox="0 0 48 48" width="48"><path d="M0 0h48v48H0z" fill="none"/>
<g id="Shopicon">
	<path d="M29.657,35.314l-2.828-2.828L24,35.314c-3.119,3.119-8.195,3.119-11.314,0c-3.119-3.119-3.119-8.195,0-11.314l2.828-2.828
		l-2.828-2.828l-2.828,2.828c-4.679,4.679-4.679,12.292,0,16.971s12.292,4.679,16.971,0L29.657,35.314z"/>
	<path d="M21.172,9.858l-2.828,2.828l2.828,2.828L24,12.686c3.119-3.119,8.195-3.119,11.314,0c3.119,3.119,3.119,8.195,0,11.314
		l-2.828,2.828l2.828,2.828l2.828-2.828c4.679-4.679,4.679-12.292,0-16.971S25.851,5.179,21.172,9.858z"/>
	<rect x="16" y="22" transform="matrix(0.7071 -0.7071 0.7071 0.7071 -9.9411 24)" width="16" height="4"/>
</g>
</svg>
