<?xml version="1.0" encoding="utf-8"?><svg xmlns="http://www.w3.org/2000/svg"  height="48" viewBox="0 0 48 48" width="48"><path d="M0 0h48v48H0z" fill="none"/>
<g id="Shopicon">
	<path d="M26,30.555v-9.436h-4v9.436c-1.191,0.693-2,1.969-2,3.445c0,2.209,1.791,4,4,4s4-1.791,4-4
		C28,32.523,27.191,31.248,26,30.555z"/>
	<path d="M24,4c-4.411,0-8,3.589-8,8v16.011c-1.287,1.717-2,3.818-2,5.989c0,5.514,4.486,10,10,10s10-4.486,10-10
		c0-2.171-0.713-4.272-2-5.989V12C32,7.589,28.411,4,24,4z M24,40c-3.314,0-6-2.686-6-6c0-1.775,0.775-3.365,2-4.463V12
		c0-2.2,1.8-4,4-4s4,1.8,4,4v17.537c1.225,1.098,2,2.688,2,4.463C30,37.314,27.314,40,24,40z"/>
</g>
</svg>
