<?xml version="1.0" encoding="utf-8"?><svg xmlns="http://www.w3.org/2000/svg"  height="48" viewBox="0 0 48 48" width="48"><path d="M0 0h48v48H0z" fill="none"/>
<g id="Shopicon">
	<path d="M37,4c-0.342,0-0.677,0.035-1,0.101V4h-5c-7.598,0-14.004,4.032-17.064,10H12.5c-1.375,0-2.5,1.125-2.5,2.5v7
		c0,0.332,0.068,0.649,0.188,0.94C8.805,26.805,8,29.429,8,32c0,7.732,7.163,12,16,12s16-4.268,16-12
		c0-2.571-0.805-5.195-2.188-7.56C37.932,24.149,38,23.832,38,23.5v-7c0-1.204-0.862-2.216-2-2.449v-0.152
		C36.323,13.965,36.658,14,37,14c2.757,0,5-2.243,5-5S39.757,4,37,4z M24,40c-5.536,0-12-2.095-12-8c0-1.975,0.714-4.096,1.932-6
		h1.126c0.498,4.499,4.309,8,8.941,8s8.443-3.501,8.941-8h1.126C35.286,27.904,36,30.025,36,32C36,37.905,29.536,40,24,40z
		 M28.899,26c-0.465,2.279-2.484,4-4.899,4s-4.434-1.721-4.899-4H28.899z M34,18v4H14v-4H34z M18.626,14
		C21.307,10.353,25.802,8,31,8h1v6H18.626z M37,10c-0.552,0-1-0.448-1-1s0.448-1,1-1s1,0.448,1,1S37.552,10,37,10z"/>
</g>
</svg>
