<?xml version="1.0" encoding="utf-8"?><svg xmlns="http://www.w3.org/2000/svg"  height="48" viewBox="0 0 48 48" width="48"><path d="M0 0h48v48H0z" fill="none"/>
<g id="Shopicon">
	<polygon points="26,4 26,8.001 21.999,8.001 21.999,12.001 26,12.001 26,16.001 30,16.001 30,12.001 34,12.001 34,8.001 30,8.001 
		30,4 	"/>
	<path d="M22.585,25.415c-4.559-4.56-5.938-11.366-3.512-17.342l-2.605-2.605C3.431,10.489-0.255,28.434,9.858,38.143
		c9.864,10.092,27.519,6.511,32.674-6.609l-2.605-2.606C33.951,31.353,27.145,29.975,22.585,25.415z M35.314,35.314
		c-6.238,6.238-16.388,6.238-22.628,0c-6.75-6.66-6.076-18.023,1.382-23.861c-1.912,12.79,9.689,24.4,22.479,22.479
		C36.165,34.413,35.754,34.874,35.314,35.314z"/>
	<rect x="33.172" y="19.172" transform="matrix(0.7071 -0.7071 0.7071 0.7071 -5.0127 31.8997)" width="5.657" height="5.657"/>
</g>
</svg>
