<?xml version="1.0" encoding="utf-8"?><svg xmlns="http://www.w3.org/2000/svg"  height="48" viewBox="0 0 48 48" width="48"><path d="M0 0h48v48H0z" fill="none"/>
<g id="Shopicon">
	<path d="M42.828,16L40,13.172l-6.539,6.539c-1.042-0.959-2.227-1.76-3.522-2.37C31.216,15.923,32,14.054,32,12c0-4.411-3.589-8-8-8
		s-8,3.589-8,8c0,2.054,0.784,3.923,2.061,5.341c-1.295,0.61-2.48,1.411-3.522,2.37L8,13.172L5.172,16l6.827,6.827
		C10.739,24.928,10,27.377,10,30c0,7.72,6.28,14,14,14s14-6.28,14-14c0-2.623-0.739-5.072-1.999-7.173L42.828,16z M20,12
		c0-2.206,1.794-4,4-4s4,1.794,4,4s-1.794,4-4,4S20,14.206,20,12z M24,40c-5.514,0-10-4.486-10-10s4.486-10,10-10s10,4.486,10,10
		S29.514,40,24,40z"/>
</g>
</svg>
