<?xml version="1.0" encoding="utf-8"?><svg xmlns="http://www.w3.org/2000/svg"  height="48" viewBox="0 0 48 48" width="48"><path d="M0 0h48v48H0z" fill="none"/>
<g id="Shopicon">
	<path d="M14,27.789V40c0,2.2,1.8,4,4,4h12c2.2,0,4-1.8,4-4v-4v-4v-4.211c2.472-2.525,4-5.977,4-9.789c0-7.732-6.268-14-14-14
		s-14,6.268-14,14C10,21.812,11.528,25.264,14,27.789z M30,40H18v-4h12V40z M24,8c5.514,0,10,4.486,10,10
		c0,2.625-1.015,5.108-2.858,6.991L30,26.157V32h-4V16h-4v16h-4v-5.843l-1.142-1.166C15.015,23.108,14,20.625,14,18
		C14,12.486,18.486,8,24,8z"/>
</g>
</svg>
