<?xml version="1.0" encoding="utf-8"?><svg xmlns="http://www.w3.org/2000/svg"  height="48" viewBox="0 0 48 48" width="48"><path d="M0 0h48v48H0z" fill="none"/>
<g id="Shopicon">
	<path d="M10,33.36l-3.394,0.679l0.785,3.922l4.497-0.899C13.511,37.556,18.701,39,24,39c5.298,0,10.488-1.444,12.111-1.938
		l4.497,0.899l0.785-3.922L38,33.361V19.318l5.787-2.481l-1.576-3.676l-6.566,2.815c-1.431-0.118-3.024-0.909-4.705-1.753
		C28.762,13.13,26.509,12,24,12s-4.762,1.13-6.939,2.223c-1.682,0.844-3.275,1.636-4.706,1.754l-6.566-2.814l-1.576,3.676L10,19.318
		V33.36z M14,19.767c1.697-0.384,3.295-1.186,4.854-1.969C20.697,16.873,22.438,16,24,16s3.303,0.873,5.146,1.798
		c1.56,0.783,3.157,1.585,4.854,1.969V22H14V19.767z M14,24h20v4H14V24z M14,30h20v3.505C31.963,34.062,27.947,35,24,35
		s-7.963-0.938-10-1.495V30z"/>
</g>
</svg>
