<?xml version="1.0" encoding="utf-8"?><svg xmlns="http://www.w3.org/2000/svg"  height="48" viewBox="0 0 48 48" width="48"><path d="M0 0h48v48H0z" fill="none"/>
<g id="Shopicon">
	<path d="M36,14h-0.167C33.317,0.735,14.678,0.744,12.167,14C1.455,14.204,1.3,29.58,12,30c0,0,8.764,0,8.764,0l-4,8h8l-2.553,5.105
		l3.578,1.789L31.236,34h-8l2-4H36C46.599,29.598,46.595,14.4,36,14z M36,26H12c-2.206,0-4-1.794-4-4s1.794-4,4-4h4v-2
		c0-4.411,3.589-8,8-8s8,3.589,8,8v2h4C41.287,18.167,41.285,25.834,36,26z"/>
</g>
</svg>
