<?xml version="1.0" encoding="utf-8"?>
<svg version="1.1" xmlns="http://www.w3.org/2000/svg" xmlns:xlink="http://www.w3.org/1999/xlink" x="0px" y="0px"
	 viewBox="0 0 48 48" style="enable-background:new 0 0 48 48;" xml:space="preserve">
<g id="Shopicon">
	<circle cx="16" cy="24" r="2"/>
	<circle cx="24" cy="24" r="2"/>
	<circle cx="32" cy="24" r="2"/>
	<circle cx="16" cy="32" r="2"/>
	<circle cx="24" cy="32" r="2"/>
	<circle cx="32" cy="32" r="2"/>
	<path d="M8,44h32c2.2,0,4-1.8,4-4V12c0-2.2-1.8-4-4-4h-6V4h-4v4H18V4h-4v4H8c-2.2,0-4,1.8-4,4v28C4,42.2,5.8,44,8,44z M8,12h6v4h4
		v-4h12v4h4v-4h6v28H8V12z"/>
</g>
</svg>
