<?xml version="1.0" encoding="utf-8"?><svg xmlns="http://www.w3.org/2000/svg"  height="48" viewBox="0 0 48 48" width="48"><path d="M0 0h48v48H0z" fill="none"/>
<g id="Shopicon">
	<path d="M24,32c5.514,0,10-3.589,10-8s-4.486-8-10-8c-5.514,0-10,3.589-10,8S18.486,32,24,32z M24,20c3.252,0,6,1.832,6,4
		s-2.748,4-6,4c-3.252,0-6-1.832-6-4S20.748,20,24,20z"/>
	<path d="M4,34c0,2.2,1.8,4,4,4h32c2.2,0,4-1.8,4-4V14c0-2.2-1.8-4-4-4H8c-2.2,0-4,1.8-4,4V34z M40,34h-3.65
		c0.604-1.7,1.95-3.046,3.65-3.65V34z M40,14v3.65c-1.7-0.604-3.046-1.95-3.65-3.65H40z M8,14h3.65C11.046,15.7,9.7,17.046,8,17.65
		V14z M8,21.798c3.912-0.797,7.001-3.886,7.798-7.798h16.403c0.797,3.912,3.886,7.001,7.798,7.798v4.403
		c-3.912,0.797-7.001,3.886-7.798,7.798H15.798c-0.797-3.912-3.886-7.001-7.798-7.798V21.798z M8,30.35
		c1.7,0.604,3.046,1.95,3.65,3.65H8V30.35z"/>
</g>
</svg>
