<?xml version="1.0" encoding="utf-8"?><svg xmlns="http://www.w3.org/2000/svg"  height="48" viewBox="0 0 48 48" width="48"><path d="M0 0h48v48H0z" fill="none"/>
<g id="Shopicon">
	<path d="M38,26H22c-3.002,0-5.488,2.218-5.925,5.099C14.258,29.946,11.666,29,8.002,29H8v-9H4v24h4v-4h8h24v4h4v-4v-4v-4
		C44,28.691,41.309,26,38,26z M8,33c0.001,0,0.002,0,0.002,0c4.652,0,6.8,1.895,7.661,3H8V33z M20,36v-4c0-1.103,0.897-2,2-2h16
		c1.103,0,2,0.897,2,2v4H20z"/>
	<circle cx="14" cy="24" r="4"/>
	<polygon points="28,18 32,18 32,14 36,14 36,10 32,10 32,6 28,6 28,10 24,10 24,14 28,14 	"/>
</g>
</svg>
