<?xml version="1.0" encoding="utf-8"?><svg xmlns="http://www.w3.org/2000/svg"  height="48" viewBox="0 0 48 48" width="48"><path d="M0 0h48v48H0z" fill="none"/>
<g id="Shopicon">
	<path d="M40,6h-8h-3.003C28.997,6.011,29,6.021,29,6.032c0,2.761-2.239,5-5,5s-5-2.239-5-5C19,6.021,19.003,6.011,19.003,6H16H8
		c-2.2,0-4,1.8-4,4v8c0,2.2,1.8,4,4,4l1.978,0v16c0,2.2,1.8,4,4,4L34,42c2.2,0,4-1.8,4-4V22h2c2.2,0,4-1.8,4-4v-8
		C44,7.8,42.2,6,40,6z M40,18h-6v4v16l-20.022,0V22v-4L8,18v-8h7.923c1.469,2.978,4.538,5.032,8.077,5.032s6.608-2.053,8.077-5.032
		H40V18z"/>
</g>
</svg>
