<?xml version="1.0" encoding="utf-8"?><svg xmlns="http://www.w3.org/2000/svg"  height="48" viewBox="0 0 48 48" width="48"><path d="M0 0h48v48H0z" fill="none"/>
<g id="Shopicon">
	<polygon points="41,31.001 41,27.001 27,27.001 27,41.001 31,41.001 31,33.829 40.585,43.414 43.413,40.586 33.828,31.001 	"/>
	<polygon points="31,14.173 31,7.001 27,7.001 27,21.001 41,21.001 41,17.001 33.828,17.001 43.414,7.415 40.586,4.587 	"/>
	<polygon points="7,17.001 7,21.001 21,21.001 21,7.001 17,7.001 17,14.173 7.413,4.586 4.585,7.414 14.172,17.001 	"/>
	<polygon points="7.416,43.417 17,33.833 17,41.001 21,41.001 21,27.001 7,27.001 7,31.001 14.175,31.001 4.588,40.589 	"/>
</g>
</svg>
