<?xml version="1.0" encoding="utf-8"?><svg xmlns="http://www.w3.org/2000/svg"  height="48" viewBox="0 0 48 48" width="48"><path d="M0 0h48v48H0z" fill="none"/>
<g id="Shopicon">
	<circle cx="34" cy="4" r="2"/>
	<circle cx="14" cy="4" r="2"/>
	<polygon points="26,22 22,22 22,18 18,18 18,30 22,30 22,26 26,26 26,30 30,30 30,18 26,18 	"/>
	<path d="M30,10V2H18v8H2v28h10v8h24v-8h10V10H30z M42,34h-4V14h4V34z M16,38h6v4h-6V38z M32,42h-6v-4h6V42z M14,34V14h4h12h4v20H14
		z M22,6h4v4h-4V6z M10,34H6V14h4V34z"/>
</g>
</svg>
