<?xml version="1.0" encoding="utf-8"?><svg xmlns="http://www.w3.org/2000/svg"  height="48" viewBox="0 0 48 48" width="48"><path d="M0 0h48v48H0z" fill="none"/>
<g id="Shopicon">
	<path d="M37.263,17.224c-4.669-3.804-11.762-4.29-17.248-1.19c-3.34,1.89-5.265,4.693-6.3,6.741H11.81
		c-4.858,0-8.81,3.952-8.81,8.81v4.19h5.349c0.825,2.329,3.04,4,5.651,4s4.827-1.671,5.651-4h8.698c0.825,2.329,3.04,4,5.651,4
		s4.827-1.671,5.651-4H45v-13h-3.614C40.444,20.567,39.037,18.668,37.263,17.224z M21.985,19.516
		c4.085-2.311,9.329-1.979,12.752,0.81c0.921,0.75,1.615,1.605,2.145,2.451L18.38,22.788C19.218,21.629,20.379,20.423,21.985,19.516
		z M14,35.774c-1.103,0-2-0.897-2-2s0.897-2,2-2s2,0.897,2,2S15.103,35.774,14,35.774z M34,35.774c-1.103,0-2-0.897-2-2s0.897-2,2-2
		c1.103,0,2,0.897,2,2S35.103,35.774,34,35.774z M41,31.774h-1.349c-0.825-2.329-3.04-4-5.651-4s-4.827,1.671-5.651,4h-8.698
		c-0.825-2.329-3.04-4-5.651-4s-4.827,1.671-5.651,4H7v-0.19c0-2.652,2.158-4.81,4.81-4.81h2.86v0.016l25.332-0.016H41V31.774z"/>
</g>
</svg>
