<?xml version="1.0" encoding="utf-8"?><svg xmlns="http://www.w3.org/2000/svg"  height="48" viewBox="0 0 48 48" width="48"><path d="M0 0h48v48H0z" fill="none"/>
<g id="Shopicon">
	<path d="M8.083,32c-2.2,0-4,1.8-4,4v4c0,2.2,1.8,4,4,4h4c2.2,0,4-1.8,4-4v-4c0-2.2-1.8-4-4-4H8.083z M12.083,40h-4v-4h4V40z"/>
	<path d="M22.083,22c-2.2,0-4,1.8-4,4v14c0,2.2,1.8,4,4,4h4c2.2,0,4-1.8,4-4V26c0-2.2-1.8-4-4-4H22.083z M26.083,40h-4V26h4V40z"/>
	<path d="M44.083,8c0-2.2-1.8-4-4-4h-4c-2.2,0-4,1.8-4,4v32c0,2.2,1.8,4,4,4h4c2.2,0,4-1.8,4-4V8z M40.083,40h-4V8h4V40z"/>
</g>
</svg>
