<?xml version="1.0" encoding="utf-8"?><svg xmlns="http://www.w3.org/2000/svg"  height="48" viewBox="0 0 48 48" width="48"><path d="M0 0h48v48H0z" fill="none"/>
<g id="Shopicon">
	<path d="M42.006,18.923h-3.934C37.251,14.976,33.746,12,29.559,12h-11.11c-4.187,0-7.692,2.976-8.513,6.923h-3.93
		c-1.104,0-2,0.896-2,2s0.896,2,2,2h2.3c-0.205,0.579-0.322,1.199-0.322,1.848v5.678c0,0.232,0.019,0.459,0.046,0.684
		c-0.01,0.124-0.037,0.242-0.037,0.368v3.812c0,2.589,2.106,4.695,4.695,4.695h0.018c2.348,0,4.281-1.738,4.624-3.991h13.069
		C30.771,38.271,32.72,40,35.079,40h0.162C37.865,40,40,37.865,40,35.241V31.57c0-0.132-0.028-0.256-0.039-0.385
		c0.032-0.242,0.055-0.486,0.055-0.737v-5.678c0-0.648-0.117-1.269-0.322-1.848h2.312c1.104,0,2-0.896,2-2
		S43.11,18.923,42.006,18.923z M16.99,27.549c-0.074,0.472-0.328,0.885-0.713,1.165c0,0,0,0,0,0c-0.386,0.282-0.857,0.4-1.329,0.319
		c-0.471-0.074-0.885-0.328-1.165-0.714c-0.579-0.797-0.402-1.916,0.394-2.494c0.316-0.229,0.684-0.341,1.048-0.341
		c0.552,0,1.098,0.255,1.446,0.735C16.952,26.605,17.065,27.078,16.99,27.549z M18.572,31.984c0.018-0.013,0.038-0.021,0.056-0.034
		c1.25-0.908,2.072-2.249,2.314-3.776c0.241-1.526-0.126-3.056-1.034-4.306c-0.167-0.229-0.351-0.437-0.543-0.634h9.722
		c-0.836,0.852-1.397,1.929-1.588,3.132c-0.242,1.526,0.126,3.056,1.034,4.306c0.38,0.523,0.85,0.951,1.363,1.312H18.572z
		 M14.069,19c0.682-1.754,2.388-3,4.379-3h11.11c1.992,0,3.698,1.246,4.38,3H14.069z M34.977,27.55
		c-0.074,0.471-0.328,0.885-0.714,1.165c-0.386,0.281-0.857,0.398-1.329,0.319c-0.471-0.074-0.885-0.328-1.165-0.714
		c-0.281-0.386-0.395-0.857-0.319-1.329c0.074-0.471,0.328-0.885,0.714-1.165c0.316-0.229,0.684-0.341,1.048-0.341
		c0.552,0,1.098,0.256,1.446,0.735C34.938,26.606,35.052,27.079,34.977,27.55z"/>
</g>
</svg>
