<?xml version="1.0" encoding="utf-8"?>
<svg version="1.1" xmlns="http://www.w3.org/2000/svg" xmlns:xlink="http://www.w3.org/1999/xlink" x="0px" y="0px"
	 viewBox="0 0 48 48" style="enable-background:new 0 0 48 48;" xml:space="preserve">
<g id="Your_Icons">
	<path d="M24,6.726C22.533,5.059,20.39,4,18,4H4v34h14c2.206,0,4,1.794,4,4v2h4v-2c0-2.206,1.794-4,4-4h14V4H30
		C27.61,4,25.467,5.059,24,6.726z M18,34H8V8h10c2.206,0,4,1.794,4,4v23.082C20.822,34.398,19.458,34,18,34z M40,34H30
		c-1.458,0-2.822,0.398-4,1.082V12c0-2.206,1.794-4,4-4h10V34z"/>
</g>
</svg>
