<?xml version="1.0" encoding="utf-8"?><svg xmlns="http://www.w3.org/2000/svg"  height="48" viewBox="0 0 48 48" width="48"><path d="M0 0h48v48H0z" fill="none"/>
<g id="Shopicon">
	<path d="M16,12.001v8c0,4.411,3.589,8,8,8s8-3.589,8-8v-8c0-4.411-3.589-8-8-8S16,7.59,16,12.001z M28,12.001v8
		c0,2.206-1.794,4-4,4s-4-1.794-4-4v-8c0-2.206,1.794-4,4-4S28,9.795,28,12.001z"/>
	<path d="M36,20c0,6.617-5.383,12-12,12s-12-5.383-12-12v-2H8v2c0,8.144,6.12,14.872,14,15.861v4.14h-6.02v4H22h4h6v-4h-6v-4.14
		C33.88,34.872,40,28.144,40,20v-2h-4V20z"/>
</g>
</svg>
