<?xml version="1.0" encoding="utf-8"?><svg xmlns="http://www.w3.org/2000/svg"  height="48" viewBox="0 0 48 48" width="48"><path d="M0 0h48v48H0z" fill="none"/>
<g id="Shopicon">
	<path d="M36.495,20.071c1.623-1.74,2.625-4.066,2.625-6.626c0-5.365-4.366-9.731-9.731-9.731c-4.406,0-8.133,2.947-9.326,6.971
		c-1.368-1.473-3.315-2.401-5.479-2.401c-4.129,0-7.488,3.359-7.488,7.488c0,1.337,0.357,2.591,0.973,3.679H8.026v22.455h28.469
		v-5.138l8.601,2.833V19.584l-8.601,2.943V20.071z M21.361,18.933c0.122,0.177,0.253,0.347,0.386,0.516h-0.649
		C21.193,19.282,21.279,19.109,21.361,18.933z M14.583,12.092c2.028,0,3.678,1.65,3.678,3.679s-1.65,3.679-3.678,3.679
		s-3.679-1.65-3.679-3.679S12.555,12.092,14.583,12.092z M32.686,38.095h-20.85V23.26h20.85V38.095z M29.389,19.365
		c-3.265,0-5.921-2.656-5.921-5.921s2.656-5.921,5.921-5.921s5.922,2.656,5.922,5.921S32.654,19.365,29.389,19.365z M36.936,26.351
		l4.399-1.505v9.556l-4.399-1.449V26.351z"/>
</g>
</svg>
