<?xml version="1.0" encoding="utf-8"?>
<svg version="1.1" xmlns="http://www.w3.org/2000/svg" xmlns:xlink="http://www.w3.org/1999/xlink" x="0px" y="0px"
	 viewBox="0 0 48 48" style="enable-background:new 0 0 48 48;" xml:space="preserve">
<g id="Your_Icons">
	<rect x="18" y="20" width="4" height="16"/>
	<rect x="26" y="20" width="4" height="16"/>
	<path d="M30,4H18c-2.2,0-4,1.8-4,4v4H6v4h4v24c0,2.2,1.8,4,4,4h20c2.2,0,4-1.8,4-4V16h4v-4h-8V8C34,5.8,32.2,4,30,4z M34,40H14V16
		h4h12h4V40z M18,12V8h12v4H18z"/>
</g>
</svg>
