<?xml version="1.0" encoding="utf-8"?><svg xmlns="http://www.w3.org/2000/svg"  height="48" viewBox="0 0 48 48" width="48"><path d="M0 0h48v48H0z" fill="none"/>
<g id="Shopicon">
	<path d="M16,29.48L16,44l8-4l8,4l0-14.52c3.624-2.53,6-6.725,6-11.48c0-7.732-6.268-14-14-14s-14,6.268-14,14
		C10,22.755,12.376,26.95,16,29.48z M28,37.528l-2.211-1.105L24,35.528l-1.789,0.894L20,37.528l0-6.115
		C21.268,31.79,22.609,32,24,32s2.732-0.21,4-0.587L28,37.528z M24,8c5.514,0,10,4.486,10,10c0,5.514-4.486,10-10,10
		c-5.514,0-10-4.486-10-10C14,12.486,18.486,8,24,8z"/>
	<path d="M24,24c3.314,0,6-2.686,6-6s-2.686-6-6-6s-6,2.686-6,6S20.686,24,24,24z M24,16c1.103,0,2,0.897,2,2c0,1.103-0.897,2-2,2
		c-1.103,0-2-0.897-2-2C22,16.897,22.897,16,24,16z"/>
</g>
</svg>
