<?xml version="1.0" encoding="utf-8"?>
<svg version="1.1" xmlns="http://www.w3.org/2000/svg" xmlns:xlink="http://www.w3.org/1999/xlink" x="0px" y="0px" width="48px"
	 height="48px" viewBox="0 0 48 48" style="enable-background:new 0 0 48 48;" xml:space="preserve">
<g id="Shopicon">
	<path d="M24,4C14.843,4,8,16.143,8,27c0,10.168,6.43,17,16,17s16-6.832,16-17C40,16.143,33.157,4,24,4z M24,8
		c4.934,0,9.792,6.248,11.423,13.749L33,24.172l-3-3l-3,3l-3-3l-3,3l-3-3l-3,3l-2.423-2.423C14.208,14.248,19.066,8,24,8z M24,40
		c-5.801,0-12-3.415-12-13c0-0.055,0.006-0.11,0.006-0.166L15,29.828l3-3l3,3l3-3l3,3l3-3l3,3l2.994-2.994
		C35.994,26.89,36,26.945,36,27C36,36.585,29.801,40,24,40z"/>
</g>
</svg>
