<?xml version="1.0" encoding="utf-8"?>
<!-- Generator: Adobe Illustrator 25.1.0, SVG Export Plug-In . SVG Version: 6.00 Build 0)  -->
<svg version="1.1" xmlns="http://www.w3.org/2000/svg" xmlns:xlink="http://www.w3.org/1999/xlink" x="0px" y="0px" width="48px"
	 height="48px" viewBox="0 0 48 48" style="enable-background:new 0 0 48 48;" xml:space="preserve">
<g id="Guidelines">
	<g id="material_x5F_system_x5F_icon_x5F_border">
	</g>
</g>
<g id="Shopicon">
	<g>
		<polygon points="17.425,33.403 22.452,28.376 21.68,26.32 19.623,25.548 14.597,30.575 		"/>
		<polygon points="30.597,14.575 25.569,19.602 26.341,21.659 28.397,22.431 33.425,17.403 		"/>
		<polygon points="32.011,26.99 24.011,23.99 27.011,31.99 		"/>
		<polygon points="21.011,15.99 16.011,20.99 24.011,23.99 		"/>
		<path d="M24.546,34.768l-2.828,2.829c-3.119,3.119-8.195,3.119-11.314,0s-3.119-8.195,0-11.314l2.829-2.828l-0.484-0.484
			l-1.481-1.481l-0.864-0.864l-2.829,2.828c-2.267,2.267-3.515,5.28-3.515,8.485s1.248,6.219,3.515,8.485s5.28,3.515,8.485,3.515
			s6.219-1.248,8.485-3.515l2.828-2.829l-0.863-0.863l-1.481-1.481L24.546,34.768z"/>
		<path d="M40.425,7.575c-2.267-2.267-5.28-3.515-8.485-3.515s-6.219,1.248-8.485,3.515l-2.828,2.829l0.864,0.864l1.527,1.527
			l0.437,0.438l2.828-2.829c3.119-3.119,8.195-3.119,11.314,0s3.119,8.195,0,11.314l-2.829,2.828l0.438,0.438l1.527,1.527
			l0.863,0.863l2.829-2.828c2.267-2.267,3.515-5.28,3.515-8.485S42.691,9.842,40.425,7.575z"/>
	</g>
</g>
</svg>
