<?xml version="1.0" encoding="utf-8"?>
<svg version="1.1" xmlns="http://www.w3.org/2000/svg" xmlns:xlink="http://www.w3.org/1999/xlink" x="0px" y="0px"
	 viewBox="0 0 48 48" style="enable-background:new 0 0 48 48;" xml:space="preserve">
<g id="Your_Icons">
	<path d="M40,12h-4.349C35.873,11.374,36,10.702,36,10c0-3.314-2.686-6-6-6s-6,2.686-6,6c0,0.455,0.055,0.897,0.151,1.323L24,11.172
		l-0.151,0.151C23.945,10.897,24,10.455,24,10c0-3.314-2.686-6-6-6s-6,2.686-6,6c0,0.702,0.127,1.374,0.349,2H8c-2.2,0-4,1.8-4,4v24
		c0,2.2,1.8,4,4,4h32c2.2,0,4-1.8,4-4V16C44,13.8,42.2,12,40,12z M30,8c1.103,0,2,0.897,2,2s-0.897,2-2,2s-2-0.897-2-2
		S28.897,8,30,8z M16,10c0-1.103,0.897-2,2-2s2,0.897,2,2s-0.897,2-2,2S16,11.103,16,10z M19.172,16l-6,6L16,24.828l8-8l8,8
		L34.828,22l-6-6H40v13H8V16H19.172z M8,40v-5h32v5H8z"/>
</g>
</svg>
