<?xml version="1.0" encoding="utf-8"?><svg xmlns="http://www.w3.org/2000/svg"  height="48" viewBox="0 0 48 48" width="48"><path d="M0 0h48v48H0z" fill="none"/>
<g id="Shopicon">
	<path d="M37.23,21.497c1.359-1.434,2.198-3.366,2.198-5.497c0-4.418-3.582-8-8-8c-4.418,0-8,3.582-8,8
		c0,2.131,0.839,4.063,2.198,5.497c-0.262,0.145-0.517,0.302-0.766,0.465L7.423,4.526L4.595,7.354l10.655,10.655
		C10.914,18.105,7.428,21.642,7.428,26c0,2.131,0.839,4.063,2.198,5.497C5.931,33.542,3.428,37.476,3.428,42h24
		c0-4.177-2.134-7.851-5.37-10h7.182l11.183,11.183l2.829-2.828L34.897,32h8.531C43.428,27.476,40.925,23.542,37.23,21.497z
		 M27.428,16c0-2.206,1.794-4,4-4c2.206,0,4,1.794,4,4s-1.794,4-4,4C29.222,20,27.428,18.206,27.428,16z M11.428,26
		c0-2.206,1.794-4,4-4c2.206,0,4,1.794,4,4s-1.794,4-4,4C13.222,30,11.428,28.206,11.428,26z M8.502,38c1.385-2.39,3.971-4,6.926-4
		c2.955,0,5.541,1.61,6.926,4H8.502z M24.502,28c0.089-0.154,0.197-0.295,0.296-0.443L25.24,28H24.502z M30.897,28l-3.106-3.106
		C28.885,24.332,30.116,24,31.428,24c2.955,0,5.541,1.61,6.926,4H30.897z"/>
</g>
</svg>
