<?xml version="1.0" encoding="utf-8"?><svg xmlns="http://www.w3.org/2000/svg" viewBox="0 0 48 48" style="enable-background:new 0 0 48 48" xml:space="preserve"><style>.st3{display:none}</style><g id="Your_Icons"><path d="M0 0h48v48H0V0z" style="fill:none"/><path d="M36 9.009h-2v-3a2 2 0 0 0-2-2H22a2 2 0 0 0-2 2v3h-2a2 2 0 0 0-2 2v8.18c-5.673.954-10 5.876-10 11.82 0 6.627 5.373 12 12 12 4.012 0 7.555-1.976 9.733-5H36a2 2 0 0 0 2-2v-25a2 2 0 0 0-2-2zm-12-1h6v1h-6v-1zm-6 31c-4.411 0-8-3.589-8-8s3.589-8 8-8 8 3.589 8 8-3.588 8-8 8zm16-5h-4.393c.248-.96.393-1.962.393-3 0-5.945-4.327-10.866-10-11.82v-6.18h14v21z"/><path d="M13 29.009h10v4H13z"/></g></svg>