<?xml version="1.0" encoding="UTF-8"?><svg id="Shopicons" xmlns="http://www.w3.org/2000/svg" viewBox="0 0 48 48"><defs><style>.cls-1{fill:none;}</style></defs><rect class="cls-1" width="48" height="48"/><rect x="12" y="22" width="4" height="4"/><path d="m20,4v12h-7v-4h-4v4h-3v28h36V4h-22Zm-10,36v-20h14v20h-14Zm28-30h-8v4h8v2h-8v4h8v2h-8v4h8v2h-8v4h8v2h-8v4h8v2h-10v-24h-4v-8h14v2Z"/><rect x="18" y="22" width="4" height="4"/><rect x="12" y="28" width="4" height="4"/><rect x="18" y="28" width="4" height="4"/><rect x="12" y="34" width="4" height="4"/><rect x="18" y="34" width="4" height="4"/></svg>