<?xml version="1.0" encoding="utf-8"?><svg xmlns="http://www.w3.org/2000/svg"  height="48" viewBox="0 0 48 48" width="48"><path d="M0 0h48v48H0z" fill="none"/>
<g id="Shopicon">
	<path d="M8,40h32c2.2,0,4-1.8,4-4V18c0-2.2-1.8-4-4-4h-7.34l-3.464-6H18.804l-3.464,6H8c-2.2,0-4,1.8-4,4v18C4,38.2,5.8,40,8,40z
		 M8,18h7.34h2.309l1.155-2l2.309-4h5.774l2.309,4l1.155,2h2.309H40v18H8V18z"/>
	<path d="M24,20c-3.314,0-6,2.686-6,6s2.686,6,6,6s6-2.686,6-6S27.314,20,24,20z M24,28c-1.103,0-2-0.897-2-2s0.897-2,2-2
		s2,0.897,2,2S25.103,28,24,28z"/>
</g>
</svg>
