<?xml version="1.0" encoding="utf-8"?><svg xmlns="http://www.w3.org/2000/svg"  height="48" viewBox="0 0 48 48" width="48"><path d="M0 0h48v48H0z" fill="none"/>
<g id="Shopicon">
	<path d="M25.506,4.065c-0.878-0.23-1.804,0.162-2.25,0.956L11.974,25.131c-0.348,0.619-0.341,1.376,0.019,1.989
		c0.358,0.612,1.016,0.989,1.726,0.989H22V42c0,0.944,0.66,1.76,1.584,1.956c0.14,0.03,0.279,0.044,0.417,0.044
		c0.776,0,1.5-0.454,1.826-1.187c2.148-4.83,4.26-9.767,6.273-14.672c1.271-3.099,2.538-6.267,3.764-9.416
		c0.239-0.616,0.159-1.31-0.214-1.854C35.278,16.326,34.66,16,34,16h-7V6C27,5.09,26.386,4.295,25.506,4.065z M31.067,20
		c-0.878,2.222-1.771,4.439-2.668,6.622c-0.786,1.916-1.587,3.836-2.399,5.753v-6.266c0-1.104-0.896-2-2-2h-6.867L23,13.652V18
		c0,1.104,0.896,2,2,2H31.067z"/>
</g>
</svg>
