<?xml version="1.0" encoding="utf-8"?><svg xmlns="http://www.w3.org/2000/svg"  height="48" viewBox="0 0 48 48" width="48"><path d="M0 0h48v48H0z" fill="none"/>
<g id="Shopicon">
	<polygon points="36.197,19.268 41.702,21.989 43.476,18.403 38.206,15.798 38.585,9.933 34.593,9.675 34.197,15.803 26,20.535 
		26,11.07 31.109,7.664 28.891,4.336 24,7.597 19.109,4.336 16.891,7.664 22,11.07 22,20.536 13.802,15.803 13.408,9.675 
		9.416,9.933 9.794,15.798 4.525,18.403 6.298,21.989 11.802,19.268 19.999,24 11.802,28.732 6.298,26.011 4.525,29.597 
		9.794,32.202 9.416,38.067 13.408,38.325 13.802,32.197 22,27.464 22,36.93 16.891,40.336 19.109,43.664 24,40.403 28.891,43.664 
		31.109,40.336 26,36.93 26,27.465 34.197,32.197 34.593,38.325 38.585,38.067 38.206,32.202 43.476,29.597 41.702,26.011 
		36.197,28.732 28,24 	"/>
</g>
</svg>
