<?xml version="1.0" encoding="utf-8"?><svg xmlns="http://www.w3.org/2000/svg"  height="48" viewBox="0 0 48 48" width="48"><path d="M0 0h48v48H0z" fill="none"/>
<g id="Guidelines">
	<g id="material_x5F_system_x5F_icon_x5F_border">
	</g>
	<path d="M31,13c1.103,0,2,0.897,2,2h4c0-3.309-2.691-6-6-6c-0.787,0-1.537,0.156-2.226,0.433C29.95,8.538,31.412,8,33,8V4
		c-3.72,0-7.008,1.861-9,4.695C22.008,5.861,18.72,4,15,4v4c1.588,0,3.05,0.538,4.226,1.433C18.537,9.156,17.787,9,17,9
		c-3.309,0-6,2.691-6,6h4c0-1.103,0.897-2,2-2c0.668,0,1.257,0.333,1.621,0.837C14.765,16.566,12,22.02,12,28c0,7.5,0,16,12,16
		s12-8.5,12-16c0-5.98-2.765-11.434-6.621-14.163C29.743,13.332,30.332,13,31,13z M30,26.172L26.828,23l2.945-2.945
		c0.809,1.28,1.457,2.805,1.841,4.503L30,26.172z M16.387,24.559c0.383-1.698,1.032-3.223,1.841-4.503L21.172,23L18,26.172
		L16.387,24.559z M24,25.828L27.172,29L24,32.172L20.828,29L24,25.828z M24,20.172l-3.063-3.063C21.937,16.402,22.99,16,24,16
		s2.063,0.402,3.063,1.108L24,20.172z M18,31.828L21.172,35l-3.262,3.262c-1.019-1.032-1.502-2.549-1.721-4.623L18,31.828z
		 M24,37.828l2.058,2.058C25.434,39.956,24.763,40,24,40s-1.434-0.044-2.058-0.114L24,37.828z M30.09,38.262L26.828,35L30,31.828
		l1.811,1.811C31.592,35.713,31.11,37.23,30.09,38.262z"/>
</g>
<g id="Shopicon">
</g>
</svg>
