<?xml version="1.0" encoding="UTF-8"?><svg id="Shopicons" xmlns="http://www.w3.org/2000/svg" viewBox="0 0 48 48"><defs><style>.cls-1{fill:none;}</style></defs><polyline class="cls-1" points="48 48 0 48 0 0 48 0"/><path d="m34,34c-4.22,0-6.91-3.26-9.27-6.13-.25-.31-.5-.61-.74-.9-.36.42-.71.84-1.05,1.25-2.35,2.84-4.77,5.78-8.94,5.78-5.51,0-10-4.49-10-10s4.49-10,10-10c4.17,0,6.59,2.94,8.94,5.78.34.42.69.84,1.05,1.25.24-.29.49-.59.74-.9,2.37-2.87,5.05-6.13,9.27-6.13,5.51,0,10,4.49,10,10s-4.49,10-10,10Zm-7.29-10c.38.44.74.88,1.11,1.33,1.98,2.4,3.85,4.67,6.18,4.67,3.31,0,6-2.69,6-6s-2.69-6-6-6c-2.34,0-4.2,2.27-6.18,4.67-.36.44-.73.89-1.11,1.33Zm-12.71-6c-3.31,0-6,2.69-6,6s2.69,6,6,6c2.17,0,3.64-1.64,5.86-4.32.46-.55.92-1.12,1.41-1.68-.49-.56-.96-1.12-1.41-1.68-2.22-2.68-3.68-4.32-5.86-4.32Z"/></svg>