<?xml version="1.0" encoding="utf-8"?><svg xmlns="http://www.w3.org/2000/svg"  height="48" viewBox="0 0 48 48" width="48"><path d="M0 0h48v48H0z" fill="none"/>
<g id="Shopicon">
	<path d="M29,4H18.113l1.014,2.702c0.022,0.059,0.129,0.333,0.311,0.736c-0.445,0.367-0.872,0.758-1.273,1.174
		c-1.133,1.175-2.057,2.522-2.749,3.975L9.414,6.586L6.586,9.414l7.529,7.529c-0.021,0.147-0.05,0.292-0.067,0.439L10,24.469V25
		c0,2.393,1.206,4,3,4h1v3c0,3.309,2.691,6,6,6h5v6h17V26.461c1.31-2.276,2-4.843,2-7.461C44,10.729,37.271,4,29,4z M21.044,11.389
		c0.141-0.146,0.299-0.275,0.448-0.413c1.474,2.026,3.65,4.145,6.59,4.811c0.455,5.129,2.917,12.499,9.918,13.149v6.236
		L23.914,21.086L26,19l-3-3l-2.086,2.086l-2.421-2.421C19.004,14.078,19.868,12.608,21.044,11.389z M20,34c-1.103,0-2-0.897-2-2h0.5
		c1.375,0,2.5-1.125,2.5-2.5S19.875,27,18.5,27H18v-2h-3.696l2.861-5.007L37.172,40H29v-6H20z M38.307,24.842l-0.079,0.125
		c-1.38-0.143-3.729-0.911-5.186-5.043C32.021,17.028,32,14.026,32,14v-2h-2c-2.57,0-4.511-2.139-5.713-4H29c6.065,0,11,4.935,11,11
		C40,21.061,39.415,23.08,38.307,24.842z"/>
	<rect x="4.586" y="26.586" transform="matrix(0.7071 -0.7071 0.7071 0.7071 -18.0416 12.4437)" width="2.828" height="2.828"/>
	<rect x="4.586" y="34.586" transform="matrix(0.7071 -0.7071 0.7071 0.7071 -23.6985 14.7868)" width="2.828" height="2.828"/>
	<rect x="8.586" y="30.586" transform="matrix(0.7071 -0.7071 0.7071 0.7071 -19.6986 16.4437)" width="2.828" height="2.828"/>
</g>
</svg>
