<?xml version="1.0" encoding="utf-8"?><svg xmlns="http://www.w3.org/2000/svg"  height="48" viewBox="0 0 48 48" width="48"><path d="M0 0h48v48H0z" fill="none"/>
<g id="Shopicon">
	<path d="M11.957,33.215L7.172,38L10,40.828l5.305-5.305C17.867,36.992,20.788,38,24,38c12,0,20-14,20-14s-2.954-5.16-7.957-9.215
		L40.828,10L38,7.172l-5.305,5.305C30.133,11.008,27.212,10,24,10C12,10,4,24,4,24S6.954,29.16,11.957,33.215z M33.204,17.624
		c2.668,2.091,4.747,4.638,5.996,6.369C36.728,27.396,31.024,34,24,34c-2.048,0-3.973-0.563-5.742-1.43l1.684-1.684
		C21.133,31.589,22.517,32,24,32c4.418,0,8-3.582,8-8c0-1.483-0.411-2.867-1.114-4.058L33.204,17.624z M20.149,25.023
		C20.062,24.694,20,24.356,20,24c0-2.206,1.794-4,4-4c0.356,0,0.694,0.062,1.023,0.149L20.149,25.023z M27.851,22.977
		C27.938,23.306,28,23.644,28,24c0,2.206-1.794,4-4,4c-0.356,0-0.694-0.062-1.023-0.149L27.851,22.977z M24,14
		c2.048,0,3.973,0.563,5.742,1.43l-1.684,1.684C26.867,16.411,25.483,16,24,16c-4.418,0-8,3.582-8,8
		c0,1.483,0.411,2.867,1.114,4.058l-2.318,2.318c-2.668-2.091-4.747-4.638-5.997-6.369C11.272,20.604,16.976,14,24,14z"/>
</g>
</svg>
