<?xml version="1.0" encoding="utf-8"?><svg xmlns="http://www.w3.org/2000/svg"  height="48" viewBox="0 0 48 48" width="48"><path d="M0 0h48v48H0z" fill="none"/>
<g id="Shopicon">
	<circle cx="18" cy="28.978" r="2"/>
	<circle cx="30" cy="28.978" r="2"/>
	<path d="M32.974,20.864C34.809,19.36,36,16.462,36,12.978c0-5.131-2.58-9-6-9s-6,3.869-6,9c0,1.903,0.356,3.631,0.977,5.054
		c-0.325-0.021-0.647-0.054-0.977-0.054s-0.652,0.033-0.977,0.054C23.644,16.609,24,14.881,24,12.978c0-5.131-2.58-9-6-9
		s-6,3.869-6,9c0,3.484,1.191,6.383,3.026,7.886C10.752,23.834,8,28.626,8,32.978c0,6.683,6.28,11,16,11s16-4.317,16-11
		C40,28.626,37.248,23.834,32.974,20.864z M30,7.978c0.581,0,2,1.752,2,5s-1.419,5-2,5s-2-1.752-2-5S29.419,7.978,30,7.978z
		 M18,7.978c0.581,0,2,1.752,2,5s-1.419,5-2,5s-2-1.752-2-5S17.419,7.978,18,7.978z M26,39.9v-3.922h2v-4h-8v4h2V39.9
		c-5.14-0.391-10-2.353-10-6.922c0-4.982,5.353-11,12-11s12,6.018,12,11C36,37.547,31.14,39.509,26,39.9z"/>
</g>
</svg>
