<?xml version="1.0" encoding="utf-8"?><svg xmlns="http://www.w3.org/2000/svg"  height="48" viewBox="0 0 48 48" width="48"><path d="M0 0h48v48H0z" fill="none"/>
<g id="Guidelines">
	<g id="material_x5F_system_x5F_icon_x5F_border">
	</g>
	<path d="M19,33.91v5.59c0,2.481,2.019,4.5,4.5,4.5h1c2.481,0,4.5-2.019,4.5-4.5v-5.59c2.833-0.478,5-2.942,5-5.91V13
		c0-1.148-0.328-2.26-0.949-3.228C31.4,6.26,27.867,4,24,4s-7.4,2.26-9.051,5.772C14.328,10.74,14,11.852,14,13v15
		C14,30.967,16.167,33.431,19,33.91z M24.5,40h-1c-0.271,0-0.5-0.229-0.5-0.5V34h2v5.5C25,39.771,24.771,40,24.5,40z M18,13
		c0-0.398,0.121-0.785,0.351-1.119l0.176-0.313C19.5,9.4,21.648,8,24,8s4.5,1.4,5.474,3.567l0.176,0.313
		C29.879,12.215,30,12.602,30,13v15c0,1.103-0.897,2-2,2h-8c-1.103,0-2-0.897-2-2V13z"/>
</g>
<g id="Shopicon">
</g>
</svg>
