<?xml version="1.0" encoding="utf-8"?><svg xmlns="http://www.w3.org/2000/svg"  height="48" viewBox="0 0 48 48" width="48"><path d="M0 0h48v48H0z" fill="none"/>
<g id="Shopicon">
	<path d="M40,12h-1.172l4-4L40,5.172L33.172,12H32.66l-3.464-6H18.804l-3.464,6H8c-2.2,0-4,1.8-4,4v18
		c0,1.943,1.405,3.569,3.248,3.924L5.172,40L8,42.828L12.828,38H40c2.2,0,4-1.8,4-4V16C44,13.8,42.2,12,40,12z M8,16h7.34h2.309
		l1.155-2l2.309-4h5.774l2.309,4l0.723,1.253l-3.338,3.338C25.799,18.216,24.926,18,24,18c-3.314,0-6,2.686-6,6
		c0,0.926,0.216,1.799,0.59,2.582L11.172,34H8V16z M21.418,29.41C22.201,29.784,23.074,30,24,30c3.314,0,6-2.686,6-6
		c0-0.926-0.216-1.799-0.59-2.582L34.828,16H40v18H16.828L21.418,29.41z"/>
</g>
</svg>
