<?xml version="1.0" encoding="utf-8"?><svg xmlns="http://www.w3.org/2000/svg"  height="48" viewBox="0 0 48 48" width="48"><path d="M0 0h48v48H0z" fill="none"/>
<g id="Shopicon">
	<path d="M31.661,17.505l-2.356,1.36c-0.907-0.896-2.041-1.558-3.305-1.906v-2.722h-4v2.722c-1.264,0.348-2.397,1.01-3.305,1.906
		l-2.356-1.36l-2,3.465l2.358,1.361c-0.16,0.61-0.253,1.247-0.253,1.906s0.094,1.296,0.253,1.906l-2.358,1.361l2,3.465l2.356-1.36
		c0.907,0.896,2.041,1.558,3.305,1.906v2.722h4v-2.722c1.264-0.348,2.397-1.01,3.305-1.906l2.356,1.36l2-3.465l-2.358-1.361
		c0.16-0.61,0.253-1.247,0.253-1.906s-0.094-1.296-0.253-1.906l2.358-1.361L31.661,17.505z M27.556,24.237
		c0,1.961-1.595,3.556-3.556,3.556s-3.556-1.595-3.556-3.556S22.04,20.682,24,20.682S27.556,22.276,27.556,24.237z"/>
	<path d="M40.661,14.618c-1.706-2.953-4.825-4.834-8.218-4.984C30.66,6.815,27.525,5,24.001,5c-3.525,0-6.659,1.816-8.442,4.634
		c-3.393,0.151-6.513,2.031-8.218,4.984c-1.761,3.049-1.757,6.667-0.213,9.619c-1.545,2.952-1.548,6.57,0.213,9.619
		c1.708,2.956,4.829,4.839,8.222,4.991c1.784,2.815,4.916,4.627,8.438,4.627c3.522,0,6.654-1.812,8.438-4.627
		c3.394-0.152,6.515-2.035,8.222-4.991c1.761-3.049,1.757-6.667,0.213-9.619C42.418,21.285,42.422,17.667,40.661,14.618z
		 M37.197,31.856c-1.111,1.925-3.128,3.001-5.202,3.001c-0.7,0-1.404-0.132-2.084-0.386c-0.476,2.838-2.937,5.003-5.911,5.003
		s-5.435-2.165-5.911-5.003c-0.68,0.254-1.384,0.386-2.084,0.386c-2.074,0-4.09-1.076-5.202-3.001
		c-1.486-2.574-0.843-5.788,1.376-7.619c-2.219-1.832-2.863-5.045-1.376-7.619c1.111-1.923,3.124-2.994,5.195-2.994
		c0.701,0,1.409,0.123,2.091,0.377C18.567,11.164,21.028,9,24.001,9c2.972,0,5.433,2.164,5.91,5.001
		c0.682-0.254,1.39-0.377,2.091-0.377c2.071,0,4.084,1.071,5.195,2.994c1.486,2.574,0.843,5.788-1.376,7.619
		C38.039,26.069,38.683,29.282,37.197,31.856z"/>
</g>
</svg>
