<?xml version="1.0" encoding="utf-8"?><svg xmlns="http://www.w3.org/2000/svg"  height="48" viewBox="0 0 48 48" width="48"><path d="M0 0h48v48H0z" fill="none"/>
<g id="Shopicon">
	<circle cx="34" cy="20" r="2"/>
	<path d="M38.965,12c-2.737-4.087-7.108-6.972-12.175-7.762c-0.239-0.041-0.478-0.08-0.721-0.11
		c-0.15-0.017-0.301-0.033-0.452-0.046C25.112,4.033,24.602,4,24.083,4c-0.014,0-0.028,0.002-0.042,0.002
		C24.028,4.002,24.014,4,24,4c-4.76,0-9.076,1.861-12.295,4.878l-3.12-3.12L5.757,8.586l3.331,3.331C7.139,14.794,6,18.264,6,22
		c0,3.327,0.918,6.432,2.492,9.106l-1.718,1.718c-1.556,1.556-1.556,4.101,0,5.657l2.828,2.828c0.778,0.778,1.803,1.167,2.828,1.167
		c1.025,0,2.051-0.389,2.828-1.167l2.458-2.458C19.676,39.581,21.787,40,24,40c2.259,0,4.412-0.434,6.404-1.194l2.503,2.503
		c0.778,0.778,1.803,1.167,2.828,1.167c1.025,0,2.051-0.389,2.828-1.167l2.828-2.828c1.556-1.556,1.556-4.101,0-5.657l-1.821-1.821
		c0.571-0.985,1.047-2.027,1.425-3.118c1.762-0.417,3.087-1.999,3.087-3.884c0,0-0.083-8,0-8C41,16,38.965,12,38.965,12z
		 M40.074,23.992l-2.139,0.507l-0.719,2.077c-0.292,0.844-0.665,1.659-1.107,2.422l-1.541,2.66l2.174,2.174l1.821,1.821
		l-2.828,2.828l-2.503-2.503L31.4,34.145l-2.421,0.924C27.358,35.687,25.683,36,24,36c-1.645,0-3.288-0.302-4.884-0.897
		l-2.409-0.899l-1.818,1.818l-2.458,2.458l-2.828-2.828l1.718-1.718l2.189-2.189l-1.57-2.668C10.671,26.921,10,24.474,10,22
		c0-7.677,6.211-13.93,13.872-13.999l0.03,0.002l0.157-0.001l0.13-0.001c0.306,0.004,0.645,0.024,1.073,0.065
		c0.118,0.01,0.235,0.023,0.313,0.031c0.182,0.023,0.361,0.053,0.54,0.083l0.029,0.005l0.029,0.005
		c3.792,0.592,7.195,2.733,9.366,5.886c0.485,0.875,2.008,3.336,4.505,4.796c-0.001,1.305,0.016,2.97,0.038,5.119H40.074z"/>
	<path d="M19.198,11.006l1.604,3.664c2.033-0.889,4.363-0.889,6.396,0l1.604-3.664C25.751,9.67,22.249,9.67,19.198,11.006z"/>
</g>
</svg>
