<?xml version="1.0" encoding="utf-8"?><svg xmlns="http://www.w3.org/2000/svg"  height="48" viewBox="0 0 48 48" width="48"><path d="M0 0h48v48H0z" fill="none"/>
<g id="Shopicon">
	<path d="M7.091,21c0,0.634-0.267,0.972-1.03,1.776c-0.832,0.876-1.97,2.077-1.97,4.081V38c0,3.309,2.691,6,6,6h12
		c3.309,0,6-2.691,6-6V26.857c0-2.945-2.544-4.17-4.588-5.155c-2.735-1.316-4.412-2.272-4.412-5.202v-0.43L19.059,16h0.594
		l1.601-0.978l5.392,5.392l2.828-2.828l-4.709-4.709L26,12.122V4H10.537L4.111,7.855L3.963,16h3.178
		c-0.019,0.166-0.051,0.329-0.051,0.5V21z M8.07,10.145L11.645,8H22v1.878L18.528,12h-3.938h-3H8.037L8.07,10.145z M14.374,16
		c0.199,0.174,0.498,0.585,0.728,0.998c0.231,5.21,4.087,7.066,6.665,8.309c1.036,0.498,2.324,1.119,2.324,1.551V38
		c0,1.103-0.897,2-2,2h-12c-1.103,0-2-0.897-2-2V26.857c0-0.358,0.186-0.604,0.873-1.329c0.847-0.894,2.127-2.243,2.127-4.528v-4.5
		c0-0.271,0.229-0.5,0.5-0.5H14.374z"/>
	<polygon points="10.091,34 14.091,34 14.091,38 18.091,38 18.091,34 22.091,34 22.091,30 18.091,30 18.091,26 14.091,26 14.091,30 
		10.091,30 	"/>
	<circle cx="30.091" cy="8" r="2"/>
	<circle cx="36.091" cy="8" r="2"/>
	<circle cx="42.091" cy="8" r="2"/>
	<circle cx="33.091" cy="13" r="2"/>
	<circle cx="37.091" cy="17" r="2"/>
</g>
</svg>
