<?xml version="1.0" encoding="utf-8"?>
<svg version="1.1" xmlns="http://www.w3.org/2000/svg" xmlns:xlink="http://www.w3.org/1999/xlink" x="0px" y="0px"
	 viewBox="0 0 48 48" style="enable-background:new 0 0 48 48;" xml:space="preserve">
<g id="Your_Icons">
	<path d="M34,24c0-4.411-4.486-8-10-8c-5.514,0-10,3.589-10,8s4.486,8,10,8C29.514,32,34,28.411,34,24z M24,28c-3.252,0-6-1.832-6-4
		s2.748-4,6-4c3.252,0,6,1.832,6,4S27.252,28,24,28z"/>
	<path d="M40,10H8c-2.2,0-4,1.8-4,4v20c0,2.2,1.8,4,4,4h32c2.2,0,4-1.8,4-4V14C44,11.8,42.2,10,40,10z M40,17.65
		c-1.7-0.604-3.046-1.95-3.65-3.65H40V17.65z M11.65,14C11.046,15.7,9.7,17.046,8,17.65V14H11.65z M8,30.35
		c1.7,0.604,3.046,1.95,3.65,3.65H8V30.35z M15.798,34c-0.797-3.912-3.886-7.001-7.798-7.798v-4.403
		c3.912-0.797,7.001-3.886,7.798-7.798h16.403c0.797,3.912,3.886,7.001,7.798,7.798v4.403c-3.912,0.797-7.001,3.886-7.798,7.798
		H15.798z M36.35,34c0.604-1.7,1.95-3.046,3.65-3.65V34H36.35z"/>
</g>
</svg>
