<?xml version="1.0" encoding="utf-8"?><svg xmlns="http://www.w3.org/2000/svg"  height="48" viewBox="0 0 48 48" width="48"><path d="M0 0h48v48H0z" fill="none"/>
<g id="Shopicon">
	<path d="M24,44c6.547,0,12.341-3.16,15.989-8.022L34,24L24,4L14,24L8.011,35.978C11.659,40.84,17.453,44,24,44z M28,35
		c0-0.551,0.449-1,1-1s1,0.449,1,1s-0.449,1-1,1S28,35.551,28,35z M19,26c0.551,0,1,0.449,1,1s-0.449,1-1,1s-1-0.449-1-1
		S18.449,26,19,26z M15.303,30.339C16.218,31.352,17.528,32,19,32c2.761,0,5-2.239,5-5c0-2.607-2.003-4.724-4.551-4.955L24,12.944
		l2.575,5.15C26.392,18.039,26.201,18,26,18c-1.105,0-2,0.895-2,2c0,1.105,0.895,2,2,2c0.862,0,1.59-0.549,1.871-1.313l2.551,5.102
		l4.797,9.594c-0.485,0.481-1.004,0.915-1.538,1.326C33.876,36.173,34,35.603,34,35c0-2.761-2.239-5-5-5s-5,2.239-5,5
		c0,2.142,1.353,3.954,3.245,4.667C26.191,39.883,25.106,40,24,40c-1.281,0-2.531-0.167-3.742-0.457C20.707,39.176,21,38.625,21,38
		c0-1.105-0.895-2-2-2s-2,0.895-2,2c0,0.134,0.014,0.265,0.039,0.391c-1.559-0.759-3.002-1.76-4.259-3.008L15.303,30.339z"/>
</g>
</svg>
