<?xml version="1.0" encoding="utf-8"?><svg xmlns="http://www.w3.org/2000/svg"  height="48" viewBox="0 0 48 48" width="48"><path d="M0 0h48v48H0z" fill="none"/>
<g id="Guidelines">
	<g id="material_x5F_system_x5F_icon_x5F_border">
	</g>
	<path d="M14.035,20.472L24,45.385l9.965-24.913C35.243,19.352,36,17.748,36,16c0-1.398-0.479-2.725-1.36-3.796
		C33.383,7.418,28.997,4,24,4s-9.383,3.418-10.64,8.204C12.479,13.275,12,14.602,12,16C12,17.748,12.757,19.352,14.035,20.472z
		 M18.954,22h10.092L24,34.615L18.954,22z M16.596,14.585l0.429-0.425l0.122-0.59C17.816,10.343,20.698,8,24,8
		s6.184,2.343,6.854,5.57l0.122,0.59l0.429,0.425C31.788,14.966,32,15.468,32,16c0,0.76-0.438,1.444-1.143,1.788L30.424,18H17.576
		l-0.433-0.212C16.437,17.444,16,16.76,16,16C16,15.468,16.212,14.966,16.596,14.585z"/>
</g>
<g id="Shopicon">
</g>
</svg>
