<?xml version="1.0" encoding="utf-8"?><svg xmlns="http://www.w3.org/2000/svg"  height="48" viewBox="0 0 48 48" width="48"><path d="M0 0h48v48H0z" fill="none"/>
<g id="Shopicon">
	<path d="M42,6H18c-2.2,0-4,1.8-4,4v4C7.4,14,2,19.4,2,26v12h4c0,3.314,2.686,6,6,6s6-2.686,6-6h8c0,3.314,2.686,6,6,6s6-2.686,6-6
		h4c2.2,0,4-1.8,4-4V10C46,7.8,44.2,6,42,6z M12,40c-1.103,0-2-0.897-2-2s0.897-2,2-2s2,0.897,2,2S13.103,40,12,40z M14,32.349
		C13.374,32.127,12.702,32,12,32c-1.775,0-3.365,0.775-4.463,2H6v-6h8V32.349z M14,24H6.263c0.892-3.445,4.017-6,7.737-6V24z M32,40
		c-1.103,0-2-0.897-2-2s0.897-2,2-2s2,0.897,2,2S33.103,40,32,40z M42,34h-5.537c-1.099-1.225-2.688-2-4.463-2s-3.365,0.775-4.463,2
		H18V10h24V34z"/>
</g>
</svg>
