<?xml version="1.0" encoding="utf-8"?><svg xmlns="http://www.w3.org/2000/svg"  height="48" viewBox="0 0 48 48" width="48"><path d="M0 0h48v48H0z" fill="none"/>
<g id="Shopicon">
	<path d="M8,44h14h4h14c2.2,0,4-1.8,4-4V16c0-2.2-1.8-4-4-4h-4.349C35.873,11.374,36,10.702,36,10c0-3.314-2.686-6-6-6s-6,2.686-6,6
		c0,0.455,0.055,0.897,0.151,1.323L24,11.172l-0.151,0.151C23.945,10.897,24,10.455,24,10c0-3.314-2.686-6-6-6s-6,2.686-6,6
		c0,0.702,0.127,1.374,0.349,2H8c-2.2,0-4,1.8-4,4v11v4v9C4,42.2,5.8,44,8,44z M30,8c1.103,0,2,0.897,2,2s-0.897,2-2,2
		c-1.103,0-2-0.897-2-2S28.897,8,30,8z M26,18.828l6,6L34.828,22l-6-6H40v11H26V18.828z M26,31h14v9H26V31z M18,8
		c1.103,0,2,0.897,2,2s-0.897,2-2,2c-1.103,0-2-0.897-2-2S16.897,8,18,8z M8,16h11.172l-6,6L16,24.828l6-6V27H8V16z M8,31h14v9H8V31
		z"/>
</g>
</svg>
