<?xml version="1.0" encoding="utf-8"?><svg version="1.1" id="Shopicons" xmlns="http://www.w3.org/2000/svg" x="0" y="0" viewBox="0 0 48 48" xml:space="preserve"><style>.st1{fill:#fff}.st2,.st3{fill:none;stroke:#666;stroke-width:4;stroke-miterlimit:10}.st3{stroke-width:6}</style><g id="pinterest_00000068677408528611730020000009142074092675021982_"><path d="M0 .019h48v48H0v-48z" fill="none"/><path d="M24 4C12.972 4 4 12.972 4 24s8.972 20 20 20 20-8.972 20-20S35.028 4 24 4zm0 36c-1.314 0-2.584-.177-3.806-.477l1.722-6.545c.14.167.287.326.443.479 1.678 1.64 4.144 2.183 6.594 1.451C33.102 33.671 36 29.185 36 24c0-6.617-5.383-12-12-12-6.51 0-10.005 3.922-11.02 7.281-1.534 5.078 1.324 8.798 1.446 8.954l3.158-2.455c-.069-.092-1.694-2.303-.776-5.343C17.428 18.391 19.682 16 24 16c4.411 0 8 3.589 8 8 0 2.895-1.439 6.255-4.19 7.075-.389.115-1.731.423-2.655-.479-.62-.605-1.861-2.626-.382-8.471l.162-.616-3.864-1.035c-.059.217-.115.433-.17.645l-4.467 16.974C11.418 35.388 8 30.086 8 24c0-8.822 7.178-16 16-16s16 7.178 16 16-7.178 16-16 16z"/></g></svg>