<?xml version="1.0" encoding="utf-8"?><svg xmlns="http://www.w3.org/2000/svg"  height="48" viewBox="0 0 48 48" width="48"><path d="M0 0h48v48H0z" fill="none"/>
<g id="Shopicon">
	<path d="M38.5,4h-28c-0.373,0-0.746,0.038-1.019,0.097C6.305,4.604,4,7.298,4,10.5v5.875c0,3.584,2.916,6.5,6.5,6.5
		c1.745,0,3.331-0.691,4.5-1.813c1.169,1.122,2.755,1.813,4.5,1.813s3.331-0.691,4.5-1.813c1.169,1.122,2.755,1.813,4.5,1.813
		s3.331-0.691,4.5-1.813c1.169,1.122,2.755,1.813,4.5,1.813c3.584,0,6.5-2.916,6.5-6.5V10.5c0-0.153-0.012-0.304-0.033-0.49
		C43.986,9.843,44,9.673,44,9.5C44,6.468,41.532,4,38.5,4z M40,16.375c0,1.379-1.121,2.5-2.5,2.5s-2.5-1.121-2.5-2.5V12h-4v4.375
		c0,1.379-1.121,2.5-2.5,2.5s-2.5-1.121-2.5-2.5V12h-4v4.375c0,1.379-1.122,2.5-2.5,2.5s-2.5-1.121-2.5-2.5V12h-4v4.375
		c0,1.379-1.122,2.5-2.5,2.5S8,17.754,8,16.375V10.5c0-1.206,0.908-2.261,2.201-2.47C10.298,8.01,10.398,8,10.5,8h28
		c0.825,0,1.497,0.67,1.5,1.494c-0.004,0.061-0.016,0.121-0.029,0.212L40,16.375z"/>
	<path d="M6,26v18h36v-8v-4v-6h-4v6H22v-6h-4v6v4v4h-8V26H6z M22,36h16v4H22V36z"/>
</g>
</svg>
