<?xml version="1.0" encoding="utf-8"?><svg xmlns="http://www.w3.org/2000/svg"  height="48" viewBox="0 0 48 48" width="48"><path d="M0 0h48v48H0z" fill="none"/>
<g id="Shopicon">
	<rect x="4" y="26" width="6" height="4"/>
	<rect x="4" y="18" width="6" height="4"/>
	<rect x="4" y="10" width="6" height="4"/>
	<path d="M44,24l-4-8h-4v-3.885c0-2.2-1.8-4-4-4H16c-2.2,0-4,1.8-4,4V32c0,2.2,1.8,4,4,4h2c0,2.209,1.791,4,4,4c2.209,0,4-1.791,4-4
		h7c0,2.209,1.791,4,4,4c2.209,0,4-1.791,4-4h3V24z M32,32H16V12.115h16V32z M40,32h-4V20h1.528L40,24.944V32z"/>
</g>
</svg>
