<?xml version="1.0" encoding="utf-8"?><svg xmlns="http://www.w3.org/2000/svg"  height="48" viewBox="0 0 48 48" width="48"><path d="M0 0h48v48H0z" fill="none"/>
<g id="Shopicon">
	<path d="M24.053,28.539c2.761,0,5-2.239,5-5c0-2.761-2.239-5-5-5c-2.761,0-5,2.239-5,5C19.053,26.3,21.292,28.539,24.053,28.539z
		 M24.053,22.539c0.551,0,1,0.449,1,1s-0.449,1-1,1c-0.551,0-1-0.449-1-1S23.502,22.539,24.053,22.539z"/>
	<path d="M37.053,28.539c2.761,0,5-2.239,5-5c0-2.761-2.239-5-5-5s-5,2.239-5,5C32.053,26.3,34.292,28.539,37.053,28.539z
		 M37.053,22.539c0.551,0,1,0.449,1,1s-0.449,1-1,1s-1-0.449-1-1S36.502,22.539,37.053,22.539z"/>
	<path d="M11.053,28.539c2.761,0,5-2.239,5-5c0-2.761-2.239-5-5-5c-2.761,0-5,2.239-5,5C6.053,26.3,8.292,28.539,11.053,28.539z
		 M11.053,22.539c0.551,0,1,0.449,1,1s-0.449,1-1,1c-0.551,0-1-0.449-1-1S10.502,22.539,11.053,22.539z"/>
</g>
</svg>
