<?xml version="1.0" encoding="utf-8"?><svg xmlns="http://www.w3.org/2000/svg"  height="48" viewBox="0 0 48 48" width="48"><path d="M0 0h48v48H0z" fill="none"/>
<g id="Shopicon">
	<path d="M30,8c0-2.2-1.8-4-4-4h-4c-2.2,0-4,1.8-4,4v4H8v32h32V12H30V8z M36,16v24H12V16h10h4H36z M22,12V8h4v4H22z"/>
	<polygon points="19.757,20.929 16.929,23.757 21.172,28 16.929,32.243 19.757,35.071 24,30.828 28.243,35.071 31.071,32.243 
		26.828,28 31.071,23.757 28.243,20.929 24,25.172 	"/>
	<circle cx="32.485" cy="28" r="2"/>
	<circle cx="24" cy="36.485" r="2"/>
	<circle cx="15.515" cy="28" r="2"/>
	<circle cx="24" cy="19.515" r="2"/>
</g>
</svg>
