<?xml version="1.0" encoding="utf-8"?><svg xmlns="http://www.w3.org/2000/svg"  height="48" viewBox="0 0 48 48" width="48"><path d="M0 0h48v48H0z" fill="none"/>
<g id="Shopicon">
	<path d="M36,28h-0.167c-0.73-4.334-3.795-7.879-7.849-9.311c-0.056-1.64-0.551-3.167-1.374-4.471l4.41-4.41l-2.828-2.828
		l-4.41,4.41c-0.844-0.532-1.781-0.929-2.782-1.158V4h-4v6.232c-1.002,0.229-1.938,0.625-2.782,1.158l-4.41-4.41L6.979,9.808
		l4.41,4.41c-0.533,0.844-0.929,1.781-1.158,2.782H4v4h6.234c0.399,1.745,1.311,3.336,2.627,4.567
		c-0.31,0.776-0.551,1.587-0.694,2.433C1.461,28.201,1.294,43.577,12,44c0,0,24,0,24,0C46.591,43.601,46.603,28.403,36,28z M14,19
		c0.096-6.006,8.646-6.806,9.899-0.995c-3.521,0.029-6.679,1.586-8.857,4.035C14.38,21.176,14,20.114,14,19z M36,40H12
		c-2.206,0-4-1.794-4-4s1.794-4,4-4h4v-2c0-4.411,3.589-8,8-8s8,3.589,8,8v2h4C41.287,32.167,41.285,39.834,36,40z"/>
</g>
</svg>
