<?xml version="1.0" encoding="utf-8"?><svg xmlns="http://www.w3.org/2000/svg" viewBox="0 0 48 48" style="enable-background:new 0 0 48 48" xml:space="preserve"><circle cx="16" cy="26" r="2"/><circle cx="32" cy="26" r="2"/><path d="M42 18h-3.8c-.5-4.5-4.3-8.1-9-8.1H18.8c-4.7 0-8.5 3.6-9 8.1H6c-1.1 0-2 .9-2 2s.9 2 2 2h2.4c-.3.6-.4 1.3-.4 2v10.4c.2 2 1.9 3.6 4 3.6s3.8-1.6 4-3.6V34h16v.4c.2 2 1.9 3.6 4 3.6s3.8-1.6 4-3.6V24c0-.7-.1-1.4-.3-2H42c1.1 0 2-.9 2-2s-.9-2-2-2zm-23.2-4.1h10.5c2.4 0 4.5 1.7 4.9 4.1H13.8c.5-2.4 2.5-4.1 5-4.1zM14 30c-1.1 0-2-.9-2-2v-4c0-1.1.9-2 2-2h20c1.1 0 2 .9 2 2v4c0 1.1-.9 2-2 2H14z"/><path d="M0 0h48v48H0V0z" style="fill:none"/></svg>