<?xml version="1.0" encoding="utf-8"?><svg xmlns="http://www.w3.org/2000/svg"  height="48" viewBox="0 0 48 48" width="48"><path d="M0 0h48v48H0z" fill="none"/>
<g id="Shopicon">
	<path d="M24,18c-3.314,0-6,2.686-6,6s2.686,6,6,6s6-2.686,6-6S27.314,18,24,18z M24,26c-1.103,0-2-0.897-2-2s0.897-2,2-2
		s2,0.897,2,2S25.103,26,24,26z"/>
	<path d="M39.294,10.973c-2.363,0.585-4.798,1.243-6.545,1.243c-0.683,0-1.261-0.101-1.688-0.345
		c-1.474-0.845-2.318-4.268-3.245-7.502C26.579,4.134,25.306,4,24,4c-1.306,0-2.579,0.134-3.816,0.368
		c-0.926,3.234-1.771,6.657-3.245,7.501c-0.427,0.245-1.005,0.345-1.688,0.345c-1.747,0-4.183-0.658-6.545-1.243
		C7.101,12.821,5.841,14.962,5,17.306C7.344,19.712,9.872,22.196,9.872,24c0,1.804-2.527,4.288-4.872,6.694
		c0.841,2.343,2.101,4.485,3.706,6.333c2.363-0.585,4.798-1.243,6.545-1.243c0.683,0,1.261,0.101,1.688,0.345
		c1.474,0.845,2.318,4.268,3.245,7.502C21.421,43.866,22.694,44,24,44s2.579-0.134,3.816-0.368c0.926-3.234,1.771-6.657,3.244-7.501
		c0.427-0.245,1.005-0.345,1.688-0.345c1.747,0,4.183,0.658,6.546,1.243c1.605-1.848,2.865-3.99,3.706-6.333
		c-2.344-2.406-4.872-4.891-4.872-6.694c0-1.804,2.528-4.288,4.872-6.694C42.159,14.962,40.899,12.821,39.294,10.973z M34.128,24
		c0,2.747,1.855,5.131,4.126,7.542c-0.178,0.33-0.368,0.654-0.57,0.971c-1.719-0.403-3.421-0.728-4.937-0.728
		c-1.447,0-2.65,0.286-3.677,0.875c-2.36,1.353-3.412,4.07-4.373,7.324C24.464,39.995,24.231,40,24,40
		c-0.231,0-0.464-0.005-0.699-0.016c-0.961-3.254-2.013-5.971-4.373-7.324c-1.027-0.589-2.23-0.875-3.678-0.875
		c-1.516,0-3.217,0.325-4.936,0.728c-0.201-0.317-0.391-0.64-0.569-0.971c2.271-2.411,4.126-4.794,4.126-7.542
		c0-2.747-1.855-5.131-4.126-7.542c0.178-0.33,0.368-0.654,0.569-0.971c1.719,0.403,3.421,0.728,4.937,0.728
		c1.447,0,2.65-0.286,3.677-0.875c2.36-1.353,3.412-4.07,4.373-7.324C23.536,8.005,23.769,8,24,8c0.231,0,0.464,0.005,0.699,0.016
		c0.961,3.254,2.012,5.971,4.373,7.324c1.027,0.589,2.23,0.875,3.678,0.875c1.516,0,3.217-0.325,4.936-0.728
		c0.201,0.317,0.391,0.64,0.569,0.971C35.983,18.869,34.128,21.253,34.128,24z"/>
</g>
</svg>
