<?xml version="1.0" encoding="utf-8"?><svg xmlns="http://www.w3.org/2000/svg"  height="48" viewBox="0 0 48 48" width="48"><path d="M0 0h48v48H0z" fill="none"/>
<g id="Shopicon">
	<path d="M41.606,27.098l0.086-0.127C43.202,24.571,44,21.815,44,19c0-8.271-6.729-15-15-15H18.113l1.014,2.702
		c0.022,0.059,0.129,0.333,0.311,0.736c-0.445,0.367-0.872,0.758-1.273,1.174c-2.308,2.393-3.759,5.492-4.116,8.771L10,24.469V25
		c0,1.307,0.369,2.367,0.989,3.071C7.054,28.571,4,31.932,4,36c0,4.411,3.589,8,8,8h20v-2.36l2.212-0.442
		C35.184,42.122,36.763,43,39,43c3.591,0,5.423-3.464,5.939-5.511l0.277-1.101l-6.029-6.029L41.606,27.098z M39,39
		c-1.624,0-2.186-0.859-2.214-0.9L36.1,36.74l-4.1,0.82V32h3.171l5.499,5.498C40.328,38.194,39.766,39,39,39z M8,36
		c0-2.206,1.794-4,4-4h16v8H12C9.794,40,8,38.206,8,36z M29,8c6.065,0,11,4.935,11,11c0,2.036-0.572,4.033-1.654,5.779l-0.138,0.186
		c-1.382-0.148-3.716-0.929-5.166-5.041C32.021,17.028,32,14.026,32,14v-2h-2c-2.57,0-4.511-2.139-5.713-4H29z M17.959,18.602
		l0.035-0.447c0.195-2.525,1.278-4.928,3.05-6.766c0.141-0.146,0.299-0.275,0.448-0.413c1.474,2.026,3.65,4.145,6.59,4.811
		c0.374,4.216,2.108,9.941,6.596,12.213H32h-4H18v-3h-3.697L17.959,18.602z"/>
	<rect x="20.879" y="16.879" transform="matrix(0.7071 -0.7071 0.7071 0.7071 -6.6985 21.8284)" width="4.243" height="4.243"/>
	<rect x="4.586" y="22.586" transform="matrix(0.7071 -0.7071 0.7071 0.7071 -15.2134 11.2719)" width="2.828" height="2.828"/>
	<rect x="6.586" y="16.519" transform="matrix(0.7071 -0.7071 0.7071 0.7071 -10.3379 10.9093)" width="2.828" height="2.828"/>
</g>
</svg>
