<?xml version="1.0" encoding="utf-8"?><svg xmlns="http://www.w3.org/2000/svg"  height="48" viewBox="0 0 48 48" width="48"><path d="M0 0h48v48H0z" fill="none"/>
<g id="Shopicon">
	<path d="M36,20c3.314,0,6-2.686,6-6s-2.686-6-6-6c-3.207,0-5.819,2.518-5.984,5.684l-13.808,6.041C15.125,18.659,13.64,18,12,18
		c-3.314,0-6,2.686-6,6s2.686,6,6,6c1.641,0,3.126-0.66,4.209-1.727l13.807,6.041c0.169,3.163,2.779,5.677,5.984,5.677
		c3.314,0,6-2.686,6-6s-2.686-6-6-6c-1.988,0-3.744,0.971-4.836,2.459L17.96,24.674C17.985,24.452,18,24.228,18,24
		c0-0.229-0.016-0.453-0.04-0.675l13.208-5.779C32.26,19.032,34.015,20,36,20z M36,12c1.103,0,2,0.897,2,2s-0.897,2-2,2
		s-2-0.897-2-2S34.897,12,36,12z M10,24c0-1.103,0.897-2,2-2s2,0.897,2,2s-0.897,2-2,2S10,25.103,10,24z M38,33.991
		c0,1.103-0.897,2-2,2s-2-0.897-2-2s0.897-2,2-2S38,32.889,38,33.991z"/>
</g>
</svg>
