<?xml version="1.0" encoding="utf-8"?><svg xmlns="http://www.w3.org/2000/svg"  height="48" viewBox="0 0 48 48" width="48"><path d="M0 0h48v48H0z" fill="none"/>
<g id="Shopicon">
	<path d="M31.778,5.57C19.011-0.101,3.713,9.985,4,24c-0.286,14.012,15.01,24.104,27.778,18.429
		C47.975,35.677,47.974,12.321,31.778,5.57z M24,40c-8.822,0-16-7.178-16-16C7.936,14.519,16.447,6.958,25.85,8.105
		c-10.394,7.727-10.392,24.064,0,31.789C25.24,39.965,24.623,40,24,40z M31.01,38.387c-11.949-5.74-11.944-23.038,0-28.774
		C42.925,15.307,42.92,32.696,31.01,38.387z"/>
</g>
</svg>
