<?xml version="1.0" encoding="utf-8"?><svg xmlns="http://www.w3.org/2000/svg"  height="48" viewBox="0 0 48 48" width="48"><path d="M0 0h48v48H0z" fill="none"/>
<g id="Shopicon">
	<path d="M9.694,27.135l0.701-0.701L20,31.236L20,11c0-0.542,0.458-1,1-1s1,0.458,1,1v9h4v-9h0.001V9c0-0.542,0.457-1,0.999-1
		s1,0.458,1,1v2v9h4v-9c0-0.542,0.458-1,1-1s1,0.458,1,1v4v5h4v-5c0-0.542,0.458-1,1-1s1,0.458,1,1v9h4v-9c0-2.757-2.243-5-5-5
		c-0.37,0-0.73,0.04-1.078,0.117C37.504,7.779,35.456,6,33,6c-0.625,0-1.225,0.115-1.776,0.326C30.336,4.929,28.774,4,27,4
		s-3.335,0.929-4.223,2.326C22.225,6.115,21.626,6,21,6c-2.757,0-5,2.243-5,5l0,13.764l-6.395-3.197l-5.299,5.299l10.146,12.4
		l0.14,0.153C16.844,41.671,19.172,44,22,44v-4c-1.153,0-3.003-1.833-4.515-3.345L9.694,27.135z"/>
	<circle cx="33" cy="34" r="2"/>
	<circle cx="43" cy="34" r="2"/>
	<circle cx="33" cy="24" r="2"/>
	<circle cx="33" cy="44" r="2"/>
	<path d="M38.995,39.279C40.239,37.869,41,36.024,41,34s-0.761-3.869-2.005-5.279c0.766,0.447,1.763,0.35,2.419-0.307
		c0.781-0.781,0.781-2.047,0-2.828c-0.781-0.781-2.047-0.781-2.828,0c-0.657,0.657-0.754,1.653-0.306,2.419
		C36.869,26.761,35.024,26,33,26s-3.869,0.761-5.279,2.005c0.447-0.766,0.35-1.763-0.306-2.419c-0.781-0.781-2.047-0.781-2.828,0
		c-0.781,0.781-0.781,2.047,0,2.828c0.657,0.657,1.653,0.754,2.419,0.307C25.762,30.131,25,31.975,25,33.998
		C24.999,32.895,24.104,32,23,32c-1.105,0-2,0.895-2,2c0,1.104,0.895,2,2,2c1.104,0,1.999-0.895,2-1.998
		c0,2.023,0.762,3.868,2.005,5.278c-0.766-0.447-1.763-0.35-2.419,0.306c-0.781,0.781-0.781,2.047,0,2.828
		c0.781,0.781,2.047,0.781,2.828,0c0.657-0.657,0.754-1.653,0.306-2.419C29.131,41.239,30.976,42,33,42s3.869-0.761,5.279-2.005
		c-0.447,0.766-0.35,1.763,0.306,2.419c0.781,0.781,2.047,0.781,2.828,0c0.781-0.781,0.781-2.047,0-2.828
		C40.758,38.929,39.761,38.832,38.995,39.279z M33,38c-2.206,0-4-1.794-4-4s1.794-4,4-4s4,1.794,4,4S35.206,38,33,38z"/>
</g>
</svg>
