<?xml version="1.0" encoding="utf-8"?><svg xmlns="http://www.w3.org/2000/svg"  height="48" viewBox="0 0 48 48" width="48"><path d="M0 0h48v48H0z" fill="none"/>
<g id="Shopicon">
	<path d="M34.009,3.991H19.991v5.022l-4-0.046v10.214C10.322,20.139,6,25.059,6,31c0,6.627,5.373,12,12,12
		c4.008,0,7.547-1.972,9.727-4.991h10.283V8.968l-4,0.046V3.991z M18,38.636c-4.211,0-7.636-3.426-7.636-7.636
		s3.426-7.636,7.636-7.636s7.636,3.426,7.636,7.636S22.211,38.636,18,38.636z M33.991,33.991h-4.382C29.855,33.033,30,32.035,30,31
		c0-5.941-4.322-10.861-9.991-11.819v-6.149l4,0.046V8.009h5.981v5.069l4-0.046V33.991z"/>
	<rect x="13" y="28.991" width="10" height="4.018"/>
</g>
</svg>
