<?xml version="1.0" encoding="utf-8"?><svg version="1.1" id="Shopicons" xmlns="http://www.w3.org/2000/svg" x="0" y="0" viewBox="0 0 48 48" xml:space="preserve"><style>.st1{fill:#fff}.st2,.st3{fill:none;stroke:#666;stroke-width:4;stroke-miterlimit:10}.st3{stroke-width:6}</style><g id="github"><path d="M0 .011h48v48H0v-48z" fill="none"/><path d="M39.155 13.946c-.214-.604-.538-1.212-.999-1.869.848-3.154.253-5.792.225-5.915l-.365-1.564-1.606.019c-.15.002-3.48.063-6.724 1.955a29.635 29.635 0 0 0-11.371 0c-3.243-1.892-6.573-1.953-6.724-1.955l-1.607-.02-.365 1.564c-.028.123-.623 2.761.225 5.915-.461.657-.785 1.266-.999 1.869-1.187 3.356-1.187 6.76.001 10.117 1.07 3.023 4.697 6.116 7.225 6.862.851.251 1.704.422 2.558.545A5.236 5.236 0 0 0 18 34.004v1.281c-.062.036-.127.065-.187.108-.289.211-2.869 1.967-5.505.09-.93-.946-1.386-1.639-1.826-2.309-.988-1.5-1.841-2.586-4.588-3.96a2 2 0 1 0-1.789 3.579c1.991.995 2.341 1.525 3.035 2.581.515.781 1.155 1.754 2.445 3.044l.215.186c1.692 1.27 3.447 1.723 5.053 1.723A9.286 9.286 0 0 0 18 39.76v4.253h4V34.004c0-1.103.897-2 2-2s2 .897 2 2v10h4v-10c0-.955-.23-1.803-.628-2.534a18.287 18.287 0 0 0 2.558-.545c2.527-.746 6.154-3.839 7.226-6.863 1.187-3.357 1.187-6.76-.001-10.116zm-3.77 8.781c-.591 1.667-3.167 3.942-4.588 4.362-4.509 1.331-9.083 1.332-13.594 0-1.421-.42-3.997-2.695-4.587-4.361-.875-2.472-.853-4.969-.001-7.447.485-1.41 1.724-2.427 1.724-2.427l-.398-1.08a9.24 9.24 0 0 1-.548-2.886c.992.233 2.247.664 3.416 1.459l.716.487.845-.188a25.659 25.659 0 0 1 11.262 0l.845.188.716-.487c1.167-.794 2.423-1.225 3.415-1.458a9.169 9.169 0 0 1-.547 2.885l-.398 1.08s1.093.81 1.724 2.427c.951 2.441.872 4.976-.002 7.446z"/></g></svg>