<?xml version="1.0" encoding="utf-8"?><svg xmlns="http://www.w3.org/2000/svg"  height="48" viewBox="0 0 48 48" width="48"><path d="M0 0h48v48H0z" fill="none"/>
<g id="Shopicon">
	<path d="M30.129,44.129h6V32.733c3.078-1.8,5-5.089,5-8.733v-3.13l-11.51,0.006c-0.756-2.34-2.329-4.346-4.49-5.61V3.871H14.871
		v11.396c-3.078,1.8-5,5.089-5,8.733v20.129h16H30.129z M36.762,25.131c-0.374,1.923-1.689,3.551-3.562,4.309l-1.33,0.539v9.893
		h-1.741v-9.893l-1.33-0.539c-1.871-0.758-3.186-2.382-3.561-4.303L36.762,25.131z M14.129,24c0-2.401,1.44-4.536,3.67-5.439
		l1.33-0.539V8.129h1.741v9.893l1.33,0.539c1.175,0.476,2.122,1.299,2.763,2.318l-4.093,0.002V24c0,3.645,1.922,6.934,5,8.733v7.138
		H14.129V24z"/>
</g>
</svg>
