<?xml version="1.0" encoding="utf-8"?><svg xmlns="http://www.w3.org/2000/svg"  height="48" viewBox="0 0 48 48" width="48"><path d="M0 0h48v48H0z" fill="none"/>
<g id="Shopicon">
	<path d="M24,42.161V5.836L11.303,16H4v16h7.303L24,42.161z M8,20h4.707L20,14.162v19.675L12.707,28H8V20z"/>
	<path d="M28,28v4c4.411,0,8-3.589,8-8s-3.589-8-8-8v4c2.206,0,4,1.794,4,4S30.206,28,28,28z"/>
	<path d="M44,24c0-9.374-7.626-17-17-17v4c7.168,0,13,5.832,13,13s-5.832,13-13,13v4C36.374,41,44,33.374,44,24z"/>
</g>
</svg>
