<?xml version="1.0" encoding="utf-8"?>
<svg version="1.1" xmlns="http://www.w3.org/2000/svg" xmlns:xlink="http://www.w3.org/1999/xlink" x="0px" y="0px"
	 viewBox="0 0 48 48" style="enable-background:new 0 0 48 48;" xml:space="preserve">
<g id="Your_Icons">
	<path d="M24,4C12.954,4,4,12.954,4,24s8.954,20,20,20s20-8.954,20-20S35.046,4,24,4z M24,40c-8.822,0-16-7.178-16-16S15.178,8,24,8
		s16,7.178,16,16S32.822,40,24,40z"/>
	<path d="M24,12c-3.309,0-6,2.691-6,6h4c0-1.103,0.897-2,2-2c1.103,0,2,0.897,2,2c0,0.954-0.298,1.244-1.094,2.021
		C23.68,21.216,22,22.853,22,26.999h4c0-2.459,0.712-3.153,1.698-4.114C28.669,21.938,30,20.642,30,18C30,14.691,27.309,12,24,12z"
		/>
	<circle cx="24" cy="34" r="2"/>
</g>
</svg>
