<?xml version="1.0" encoding="utf-8"?><svg xmlns="http://www.w3.org/2000/svg"  height="48" viewBox="0 0 48 48" width="48"><path d="M0 0h48v48H0z" fill="none"/>
<g id="Shopicon">
	<path d="M22,43.899V44h4v-0.101C36.092,42.892,44,34.353,44,24c0-11.028-8.972-20-20-20C13.647,4,5.108,11.907,4.101,22H4v4h0.101
		C5.043,35.434,12.566,42.958,22,43.899z M8.139,22C9.128,14.12,15.856,8,24,8c8.822,0,16,7.178,16,16
		c0,8.144-6.12,14.872-14,15.861V34h-4v5.861C14.777,38.954,9.046,33.223,8.139,26H14v-4H8.139z"/>
	<polygon points="34,22 26,22 26,14 22,14 22,22 22,24 22,26 34,26 	"/>
</g>
</svg>
