<?xml version="1.0" encoding="utf-8"?><svg xmlns="http://www.w3.org/2000/svg"  height="48" viewBox="0 0 48 48" width="48"><path d="M0 0h48v48H0z" fill="none"/>
<g id="Shopicon">
	<path d="M25.662,19.651C26.402,19.877,27.187,20,28,20c4.418,0,8-3.582,8-8s-3.582-8-8-8c-2.212,0-4.214,0.898-5.662,2.349
		C21.598,6.123,20.814,6,20,6c-4.418,0-8,3.582-8,8s3.582,8,8,8C22.212,22,24.214,21.102,25.662,19.651z M28,8c2.206,0,4,1.794,4,4
		s-1.794,4-4,4c-2.206,0-4-1.794-4-4S25.795,8,28,8z M16,14c0-2.206,1.794-4,4-4c0.088,0,0.169,0.02,0.256,0.026
		C20.095,10.658,20,11.317,20,12c0,2.079,0.8,3.967,2.1,5.389C21.488,17.77,20.773,18,20,18C17.795,18,16,16.206,16,14z"/>
	<path d="M30,24c-5.952,0-10.813,1.913-12.9,4.777c-1.05-0.914-1.862-1.813-2.3-2.379c-1.986-2.643-5.754-3.181-8.4-1.198
		c-2.646,1.984-3.185,5.753-1.199,8.4C5.519,34.025,13.131,44,24,44h20V32C44,27.439,37.981,24,30,24z M8.4,31.2
		c-0.662-0.882-0.482-2.139,0.397-2.8c0.36-0.27,0.783-0.399,1.201-0.399c0.608,0,1.207,0.274,1.596,0.791
		C11.647,28.864,17.026,36,24,36h8v-2l0,0v-2h-8c-1.229,0-2.46-0.385-3.61-0.962C21.518,29.573,25.025,28,30,28
		c6.104,0,10,2.369,10,4v8h-2H24C15.107,40,8.669,31.559,8.4,31.2z"/>
</g>
</svg>
