<svg xmlns="http://www.w3.org/2000/svg" height="48" width="48" viewBox="0 0 48 48">
  <title>Shopicons_Regular_Link_Off</title>
  <path d="M0,0H48V48H0Z" transform="translate(0 0)" style="fill: none"/>
  <g>
    <polygon points="17.4 33.4 22.5 28.4 21.7 26.3 19.6 25.5 14.6 30.6 17.4 33.4"/>
    <polygon points="30.6 14.6 25.6 19.6 26.3 21.7 28.4 22.4 33.4 17.4 30.6 14.6"/>
    <polygon points="32 27 24 24 27 32 32 27"/>
    <polygon points="21 16 16 21 24 24 21 16"/>
    <path d="M24.5,34.8l-2.8,2.8A8,8,0,0,1,10.4,26.3l2.8-2.8-.5-.5-1.5-1.5-.9-.9L7.5,23.4A12,12,0,0,0,16,43.9a11.87,11.87,0,0,0,8.5-3.5l2.8-2.8-.9-.9L25,35.3Z" transform="translate(0 0)"/>
    <path d="M40.4,7.6a12.07,12.07,0,0,0-17,0l-2.8,2.8.9.9L23,12.8l.4.4,2.8-2.8A8,8,0,0,1,37.5,21.7l-2.8,2.8.4.4,1.5,1.5.9.9,2.8-2.8A11.87,11.87,0,0,0,43.8,16,11.39,11.39,0,0,0,40.4,7.6Z" transform="translate(0 0)"/>
  </g>
</svg>
