<?xml version="1.0" encoding="utf-8"?><svg xmlns="http://www.w3.org/2000/svg"  height="48" viewBox="0 0 48 48" width="48"><path d="M0 0h48v48H0z" fill="none"/>
<g id="Shopicon">
	<path d="M24,44c11.046,0,20-8.954,20-20S35.046,4,24,4S4,12.954,4,24S12.954,44,24,44z M24,8c8.822,0,16,7.178,16,16
		s-7.178,16-16,16S8,32.822,8,24S15.178,8,24,8z"/>
	<path d="M24,16c1.103,0,2,0.897,2,2c0,0.954-0.298,1.244-1.094,2.021C23.68,21.216,22,22.853,22,26.999h4
		c0-2.459,0.712-3.153,1.698-4.114C28.669,21.938,30,20.642,30,18c0-3.309-2.691-6-6-6s-6,2.691-6,6h4C22,16.897,22.897,16,24,16z"
		/>
	<circle cx="24" cy="34" r="2"/>
</g>
</svg>
