<?xml version="1.0" encoding="utf-8"?><svg xmlns="http://www.w3.org/2000/svg"  height="48" viewBox="0 0 48 48" width="48"><path d="M0 0h48v48H0z" fill="none"/>
<g id="Shopicon">
	<path d="M43.302,14.126l-20.771,7.74l-4.258-1.587C20.526,18.641,22,15.993,22,13c0-4.963-4.038-9-9-9s-9,4.037-9,9
		c0,3.663,2.202,6.815,5.349,8.219l-0.001,0.003l0.031,0.012c0.331,0.146,0.67,0.274,1.02,0.38L16.803,24l-6.411,2.389
		c-0.344,0.104-0.678,0.231-1.004,0.374l-0.04,0.015l0.001,0.004C6.202,28.185,4,31.337,4,35c0,4.963,4.038,9,9,9s9-4.037,9-9
		c0-2.993-1.474-5.642-3.729-7.279l4.259-1.587l20.771,7.74l1.396-3.748L28.258,24l16.44-6.126L43.302,14.126z M13,8
		c2.757,0,5,2.243,5,5s-2.243,5-5,5c-0.588,0-1.145-0.121-1.67-0.308l-0.373-0.139C9.218,16.769,8,15.028,8,13
		C8,10.243,10.243,8,13,8z M13,30c2.757,0,5,2.243,5,5s-2.243,5-5,5s-5-2.243-5-5c0-2.03,1.221-3.773,2.963-4.556l0.352-0.131
		C11.844,30.122,12.406,30,13,30z"/>
</g>
</svg>
