<?xml version="1.0" encoding="utf-8"?><svg xmlns="http://www.w3.org/2000/svg"  height="48" viewBox="0 0 48 48" width="48"><path d="M0 0h48v48H0z" fill="none"/>
<g id="Shopicon">
	<path d="M24,28c2.206,0,4,1.794,4,4h4c0-4.411-3.589-8-8-8s-8,3.589-8,8h4C20,29.794,21.794,28,24,28z"/>
	<path d="M24,42c9.941,0,18-8.059,18-18S33.941,6,24,6S6,14.059,6,24S14.059,42,24,42z M24,10c7.72,0,14,6.28,14,14
		c0,7.719-6.28,14-14,14c-7.72,0-14-6.281-14-14C10,16.28,16.28,10,24,10z"/>
	<path d="M27.105,19.789l2,1C29.393,20.933,29.698,21,29.998,21c0.734,0,1.44-0.404,1.791-1.105
		c0.494-0.988,0.094-2.189-0.895-2.684l-2-1c-0.991-0.494-2.189-0.093-2.684,0.895C25.717,18.094,26.117,19.295,27.105,19.789z"/>
	<path d="M18.001,21c0.301,0,0.606-0.067,0.893-0.211l2-1c0.988-0.494,1.388-1.695,0.895-2.684c-0.495-0.989-1.697-1.39-2.684-0.895
		l-2,1c-0.988,0.494-1.388,1.695-0.895,2.684C16.562,20.596,17.268,21,18.001,21z"/>
</g>
</svg>
