<?xml version="1.0" encoding="utf-8"?><svg xmlns="http://www.w3.org/2000/svg" viewBox="0 0 48 48" style="enable-background:new 0 0 48 48" xml:space="preserve"><style>.st1,.st2,.st3,.st4{fill:none;stroke:#666;stroke-miterlimit:10}.st1{stroke-width:4;stroke-linecap:round;stroke-linejoin:round}.st2,.st3,.st4{stroke-width:5}.st3,.st4{stroke-width:4}.st4{stroke-width:2}.st7{fill:#6f6}.st8{fill:none;stroke:#6f6;stroke-width:.1;stroke-miterlimit:10}</style><g id="Your_Icons"><path style="fill:none" d="M0 0h48v48H0z"/><path d="m37.409 16.141-3.145 2.471a12.023 12.023 0 0 1 2.058 10.912 11.93 11.93 0 0 1-5.833 7.095 11.922 11.922 0 0 1-9.142.893c-6.329-1.927-9.912-8.644-7.987-14.974a11.93 11.93 0 0 1 5.833-7.095 11.92 11.92 0 0 1 6-1.4l-2.872 2.873 2.828 2.828 7.717-7.718-7.717-7.716-2.828 2.828 2.905 2.905a15.893 15.893 0 0 0-7.916 1.871 15.895 15.895 0 0 0-7.776 9.46c-2.567 8.439 2.21 17.396 10.649 19.964 1.547.471 3.11.695 4.649.695 6.858-.001 13.218-4.451 15.315-11.345a16.013 16.013 0 0 0-2.738-14.547z"/></g></svg>