<?xml version="1.0" encoding="utf-8"?>
<svg version="1.1" xmlns="http://www.w3.org/2000/svg" xmlns:xlink="http://www.w3.org/1999/xlink" x="0px" y="0px"
	 viewBox="0 0 48 48" style="enable-background:new 0 0 48 48;" xml:space="preserve">
<g id="Your_Icons">
	<path d="M18,32c3.144,0,6.036-1.049,8.373-2.799L40,42.829L42.828,40L29.201,26.373C30.951,24.036,32,21.144,32,18
		c0-7.732-6.268-14-14-14S4,10.268,4,18S10.268,32,18,32z M18,8c5.514,0,10,4.486,10,10c0,5.514-4.486,10-10,10
		c-5.514,0-10-4.486-10-10C8,12.486,12.486,8,18,8z"/>
</g>
</svg>
