<?xml version="1.0" encoding="utf-8"?><svg xmlns="http://www.w3.org/2000/svg"  height="48" viewBox="0 0 48 48" width="48"><path d="M0 0h48v48H0z" fill="none"/>
<g id="Shopicon">
	<path d="M28.783,23.536c1.846-0.252,3.498-1.38,4.431-3.068c0.93-1.681,1.02-3.717,0.299-5.468
		c0.721-1.751,0.631-3.787-0.299-5.468V9.531c-0.937-1.691-2.589-2.806-4.423-3.057C27.672,4.939,25.902,4,24,4
		s-3.672,0.939-4.792,2.475c-1.835,0.251-3.488,1.365-4.423,3.058c-0.929,1.681-1.019,3.717-0.298,5.468
		c-0.72,1.751-0.63,3.787,0.299,5.468c0.934,1.688,2.586,2.816,4.431,3.068c0.711,0.97,1.683,1.699,2.783,2.104V44h4V25.64
		C27.1,25.235,28.073,24.506,28.783,23.536z M18.287,18.532c-0.415-0.75-0.37-1.696,0.114-2.409L19.162,15L18.4,13.877
		c-0.484-0.713-0.529-1.659-0.114-2.41c0.396-0.715,1.119-1.106,1.893-1.038l1.44,0.141l0.583-1.324C22.541,8.478,23.23,8,24,8
		c0.77,0,1.458,0.478,1.797,1.245l0.584,1.324l1.439-0.141c0.771-0.082,1.497,0.324,1.894,1.04c0.414,0.75,0.369,1.695-0.114,2.408
		L28.838,15l0.762,1.123c0.484,0.713,0.528,1.659,0.113,2.41c-0.365,0.661-1.007,1.057-1.711,1.057l-1.622-0.153l-0.583,1.319
		C25.458,21.523,24.769,22,24,22s-1.458-0.477-1.796-1.243l-0.63-1.318l-1.57,0.151C19.295,19.59,18.653,19.194,18.287,18.532z"/>
	<circle cx="24" cy="15" r="2"/>
	<path d="M39.157,30c-2,0-6.82,0.322-9.712,3.214c-2.054,2.054-2.054,5.383,0,7.437c1.027,1.027,2.373,1.54,3.719,1.54
		c1.346,0,2.692-0.513,3.719-1.54c3.719-3.719,3.187-10.624,3.187-10.624S39.728,30,39.157,30z M34.054,37.822
		c-0.321,0.321-0.695,0.369-0.89,0.369s-0.569-0.048-0.89-0.369c-0.491-0.491-0.491-1.29,0-1.78
		c0.816-0.816,2.081-1.347,3.442-1.663C35.417,35.676,34.905,36.971,34.054,37.822z"/>
	<path d="M8.843,30.069c-0.572,0-0.912,0.026-0.912,0.026S7.4,37.001,11.118,40.72c1.027,1.027,2.373,1.54,3.719,1.54
		c1.346,0,2.692-0.513,3.719-1.54c2.054-2.054,2.054-5.383,0-7.437C15.663,30.391,10.843,30.069,8.843,30.069z M15.727,37.891
		c-0.321,0.321-0.695,0.369-0.89,0.369c-0.195,0-0.569-0.048-0.89-0.369c-0.852-0.852-1.364-2.147-1.663-3.443
		c1.361,0.315,2.627,0.847,3.443,1.663C16.218,36.602,16.218,37.4,15.727,37.891z"/>
</g>
</svg>
