<?xml version="1.0" encoding="utf-8"?>
<!-- Generator: Adobe Illustrator 24.0.3, SVG Export Plug-In . SVG Version: 6.00 Build 0)  -->
<svg version="1.1" id="Ebene_1" xmlns="http://www.w3.org/2000/svg" xmlns:xlink="http://www.w3.org/1999/xlink" x="0px" y="0px"
	 viewBox="0 0 48 48" style="enable-background:new 0 0 48 48;" xml:space="preserve">
<style type="text/css">
	.st0{fill:none;}
</style>
<path class="st0" d="M0,0h48v48H0V0z"/>
<g id="Guidelines">
	<g id="material_x5F_system_x5F_icon_x5F_border">
	</g>
</g>
<g id="Shopicon">
	<g>
		<polygon points="17.4,33.4 22.5,28.4 21.7,26.3 19.6,25.5 14.6,30.6 		"/>
		<polygon points="30.6,14.6 25.6,19.6 26.3,21.7 28.4,22.4 33.4,17.4 		"/>
		<polygon points="32,27 24,24 27,32 		"/>
		<polygon points="21,16 16,21 24,24 		"/>
		<path d="M24.5,34.8l-2.8,2.8c-3.1,3.1-8.2,3.1-11.3,0s-3.1-8.2,0-11.3l2.8-2.8L12.7,23l-1.5-1.5l-0.9-0.9l-2.8,2.8
			c-2.3,2.3-3.5,5.3-3.5,8.5s1.2,6.2,3.5,8.5s5.3,3.5,8.5,3.5s6.2-1.2,8.5-3.5l2.8-2.8l-0.9-0.9L25,35.3L24.5,34.8z"/>
		<path d="M40.4,7.6c-2.3-2.3-5.3-3.5-8.5-3.5s-6.2,1.2-8.5,3.5l-2.8,2.8l0.9,0.9l1.5,1.5l0.4,0.4l2.8-2.8c3.1-3.1,8.2-3.1,11.3,0
			s3.1,8.2,0,11.3l-2.8,2.8l0.4,0.4l1.5,1.5l0.9,0.9l2.8-2.8c2.3-2.3,3.5-5.3,3.5-8.5S42.7,9.8,40.4,7.6z"/>
	</g>
</g>
</svg>
