<?xml version="1.0" encoding="utf-8"?><svg xmlns="http://www.w3.org/2000/svg"  height="48" viewBox="0 0 48 48" width="48"><path d="M0 0h48v48H0z" fill="none"/>
<g id="Shopicon">
	<path d="M29.089,24.747C32.6,22.909,35,19.238,35,15c0-6.075-4.925-11-11-11S13,8.925,13,15c0,4.238,2.4,7.909,5.911,9.747
		C10.89,27.09,5,34.809,5,44h38C43,34.809,37.11,27.09,29.089,24.747z M15,15c0-4.963,4.037-9,9-9s9,4.037,9,9c0,4.963-4.037,9-9,9
		S15,19.963,15,15z M24,26c8.735,0,15.953,7.013,16.896,16H7.104C8.047,33.013,15.265,26,24,26z"/>
</g>
</svg>
