<?xml version="1.0" encoding="utf-8"?><svg xmlns="http://www.w3.org/2000/svg"  height="48" viewBox="0 0 48 48" width="48"><path d="M0 0h48v48H0z" fill="none"/>
<g id="Shopicon">
	<path d="M40,27.483V8c0-2.2-1.8-4-4-4h-6H18h-6C9.8,4,8,5.8,8,8v17.431C7.653,25.582,7.316,25.764,7,26
		c-2.206,1.654-2.654,4.794-1,7.001C6.307,33.409,13.625,43,24,43h19V32C43,30.263,41.879,28.694,40,27.483z M41,41H24
		c-9.387,0-16.118-8.824-16.4-9.199c-0.992-1.324-0.723-3.208,0.6-4.2c0.539-0.404,1.171-0.599,1.798-0.599
		c0.912,0,1.813,0.413,2.4,1.193C12.448,28.264,17.627,35,24,35h8v-1l0,0v-1h-7h-1c-1.004,0-1.981-0.216-2.909-0.558
		c-0.705-0.26-1.383-0.592-2.018-0.97C19.68,29.26,23.997,27,30,27c6.482,0,11,2.635,11,5V41z M28,6v8h-8V6H28z M12,6h6v10h12V6h6
		c1.103,0,2,0.897,2,2v18.453C35.807,25.542,33.046,25,30,25c-6.198,0-11.255,2.224-12.63,5.302c-2.03-1.58-3.348-3.273-3.37-3.303
		c-0.98-1.304-2.481-1.975-4-1.977V8C10,6.897,10.897,6,12,6z"/>
</g>
</svg>
