<?xml version="1.0" encoding="utf-8"?><svg xmlns="http://www.w3.org/2000/svg"  height="48" viewBox="0 0 48 48" width="48"><path d="M0 0h48v48H0z" fill="none"/>
<g id="Shopicon">
	<path d="M24,4C12.954,4,4,12.954,4,24s8.954,20,20,20s20-8.954,20-20S35.046,4,24,4z M24,42c-9.925,0-18-8.075-18-18S14.075,6,24,6
		s18,8.075,18,18S33.925,42,24,42z"/>
	<path d="M24,13c-2.757,0-5,2.243-5,5h2c0-1.654,1.346-3,3-3s3,1.346,3,3c0,1.376-0.556,1.917-1.396,2.736
		C24.444,21.867,23,23.274,23,26.999h2c0-2.881,0.972-3.828,2-4.83c0.937-0.914,2-1.949,2-4.169C29,15.243,26.757,13,24,13z"/>
	<circle cx="24" cy="34" r="2"/>
</g>
</svg>
