<?xml version="1.0" encoding="utf-8"?><svg xmlns="http://www.w3.org/2000/svg"  height="48" viewBox="0 0 48 48" width="48"><path d="M0 0h48v48H0z" fill="none"/>
<g id="Shopicon">
	<path d="M8.444,27L24,42l15.556-15c2.7-2.033,4.444-5.256,4.444-8.889C44,11.978,39.022,7,32.889,7
		C29.256,7,26.022,8.756,24,11.456C21.978,8.756,18.744,7,15.111,7C8.978,7,4,11.978,4,18.111C4,21.744,5.744,24.967,8.444,27z
		 M15.111,9c2.85,0,5.574,1.366,7.288,3.654L24,14.792l1.601-2.137C27.315,10.366,30.039,9,32.889,9C37.913,9,42,13.087,42,18.111
		c0,2.888-1.329,5.546-3.648,7.291l-0.097,0.073l-0.088,0.085L24,39.222L9.833,25.56l-0.088-0.085l-0.097-0.073
		C7.33,23.657,6,20.999,6,18.111C6,13.087,10.087,9,15.111,9z"/>
</g>
</svg>
