<?xml version="1.0" encoding="utf-8"?>
<!-- Generator: Adobe Illustrator 25.1.0, SVG Export Plug-In . SVG Version: 6.00 Build 0)  -->
<svg version="1.1" xmlns="http://www.w3.org/2000/svg" xmlns:xlink="http://www.w3.org/1999/xlink" x="0px" y="0px" width="48px"
	 height="48px" viewBox="0 0 48 48" style="enable-background:new 0 0 48 48;" xml:space="preserve">
<g id="Guidelines">
	<g id="material_x5F_system_x5F_icon_x5F_border">
	</g>
</g>
<g id="Shopicon">
	<polygon points="20.901,25.685 15.364,31.222 16.778,32.636 22.315,27.099 21.801,26.199 	"/>
	<polygon points="27.099,22.315 32.778,16.636 31.364,15.222 25.685,20.901 26.199,21.801 	"/>
	<polygon points="20,17 17,20 24,24 	"/>
	<polygon points="24,24 28,31 31,28 	"/>
	<path d="M22.485,38.243c-3.51,3.51-9.219,3.51-12.729,0c-3.509-3.51-3.509-9.219,0-12.729l2.829-2.828l-1.414-1.414l-2.829,2.828
		c-4.289,4.289-4.289,11.268,0,15.557c2.145,2.145,4.961,3.217,7.778,3.217s5.634-1.072,7.778-3.217l2.828-2.829l-1.414-1.414
		L22.485,38.243z"/>
	<path d="M39.778,8.222c-4.289-4.289-11.268-4.289-15.557,0l-2.828,2.829l1.414,1.414l2.828-2.829c3.51-3.51,9.219-3.51,12.729,0
		c3.509,3.51,3.509,9.219,0,12.729l-2.829,2.828l1.414,1.414l2.829-2.828C44.067,19.489,44.067,12.511,39.778,8.222z"/>
</g>
</svg>
