<?xml version="1.0" encoding="utf-8"?><svg xmlns="http://www.w3.org/2000/svg"  height="48" viewBox="0 0 48 48" width="48"><path d="M0 0h48v48H0z" fill="none"/>
<g id="Shopicon">
	<path d="M24,17c-4.963,0-9,3.141-9,7s4.037,7,9,7s9-3.141,9-7S28.963,17,24,17z M24,29c-3.859,0-7-2.243-7-5s3.141-5,7-5
		s7,2.243,7,5S27.859,29,24,29z"/>
	<path d="M40,10H8c-2.2,0-4,1.8-4,4v20c0,2.2,1.8,4,4,4h32c2.2,0,4-1.8,4-4V14C44,11.8,42.2,10,40,10z M42,14v5
		c-3.859,0-7-3.141-7-7h5C41.103,12,42,12.897,42,14z M6,14c0-1.103,0.897-2,2-2h5c0,3.859-3.141,7-7,7V14z M6,34v-5
		c3.859,0,7,3.141,7,7H8C6.897,36,6,35.103,6,34z M6,27v-6c4.963,0,9-4.037,9-9h18c0,4.963,4.037,9,9,9v6c-4.963,0-9,4.037-9,9H15
		C15,31.037,10.963,27,6,27z M42,34c0,1.103-0.897,2-2,2h-5c0-3.859,3.141-7,7-7V34z"/>
</g>
</svg>
