<?xml version="1.0" encoding="utf-8"?><svg xmlns="http://www.w3.org/2000/svg"  height="48" viewBox="0 0 48 48" width="48"><path d="M0 0h48v48H0z" fill="none"/>
<g id="Shopicon">
	<path d="M4.487,38.868C5.379,40.771,7.402,42,9.642,42h13.963c2.127,0,4.036-1.347,4.749-3.35c0.669-1.88,1.577-3.576,2.698-5.044
		c1.748-2.288,3.536-3.393,5.114-4.367c1.025-0.633,2.012-1.247,2.835-2.097V42h2V22h-0.004c0.07-3.256-1.399-7.386-4.447-12.511
		l-1.221-2.053l-0.606,2.31c-1.129,4.304-3.672,10.486-9.383,15.504c-3.074,2.701-5.729,5.034-9.749,5.767
		c-1.336,0.243-2.703,0.312-4.025,0.378c-2.692,0.136-5.235,0.263-6.553,2.002c-1.111,1.468-1.052,3.198-1.008,3.691
		C4.058,37.7,4.221,38.299,4.487,38.868z M6.606,34.604c0.754-0.995,2.75-1.096,5.059-1.211c1.321-0.066,2.819-0.142,4.283-0.409
		c4.565-0.831,7.55-3.454,10.712-6.232c5.137-4.514,7.867-9.898,9.316-14.218c2.902,5.398,3.723,9.437,2.439,12.021
		c-0.677,1.363-1.835,2.078-3.301,2.983c-1.64,1.013-3.681,2.272-5.653,4.855c-1.246,1.632-2.253,3.511-2.992,5.585
		C26.039,39.188,24.888,40,23.604,40H9.642c-1.467,0-2.779-0.777-3.343-1.979c-0.167-0.357-0.269-0.73-0.303-1.11
		C5.983,36.773,5.896,35.542,6.606,34.604z"/>
</g>
</svg>
