<?xml version="1.0" encoding="utf-8"?><svg xmlns="http://www.w3.org/2000/svg"  height="48" viewBox="0 0 48 48" width="48"><path d="M0 0h48v48H0z" fill="none"/>
<g id="Shopicon">
    <path d="M42.555,15.168l-12-8c-.028-.018-.059-.021-.087-.036a1.083,1.083,0,0,0-.179-.073.977.977,0,0,0-.206-.041A.763.763,0,0,0,30,7H18a.9.9,0,0,0-.09.018,1.021,1.021,0,0,0-.2.039.922.922,0,0,0-.186.077.868.868,0,0,0-.084.034l-12,8A1,1,0,0,0,6,17H17v6.765L9.105,39.554A1,1,0,0,0,10.43,40.9L24,34.442,37.57,40.9a1,1,0,0,0,1.325-1.35L31,23.765V17H42a1,1,0,0,0,.555-1.832ZM29,9v6H19V9ZM9.3,15,17,9.869V15ZM29.382,25l2.061,4.123a.987.987,0,0,0-.873-.026L24,32.227,17.43,29.1a.987.987,0,0,0-.873.025L18.618,25ZM12.194,37.849l3.839-7.678a.984.984,0,0,0,.537.733l5.1,2.43Zm14.132-4.515,5.1-2.43a.984.984,0,0,0,.537-.733l3.839,7.678ZM29,23H19V17H29Zm2-8V9.868L38.7,15Z"/>
  </g>
</svg>
