<?xml version="1.0" encoding="utf-8"?><svg xmlns="http://www.w3.org/2000/svg"  height="48" viewBox="0 0 48 48" width="48"><path d="M0 0h48v48H0z" fill="none"/>
<g id="Shopicon">
	<path d="M35.249,14.165L39.414,10L38,8.586l-4.423,4.423C30.812,11.255,27.587,10,24,10C12,10,4,24,4,24s3.267,5.708,8.751,9.835
		L8.586,38L10,39.414l4.423-4.423C17.188,36.745,20.413,38,24,38c12,0,20-14,20-14S40.733,18.292,35.249,14.165z M6.362,23.998
		C8.373,20.958,15.058,12,24,12c2.987,0,5.718,1.017,8.116,2.47L28.9,17.686C27.546,16.633,25.848,16,24,16c-4.418,0-8,3.582-8,8
		c0,1.848,0.633,3.546,1.686,4.9l-3.496,3.496C10.316,29.547,7.537,25.768,6.362,23.998z M30,24c0,3.308-2.692,6-6,6
		c-1.294,0-2.49-0.416-3.471-1.115l8.356-8.356C29.584,21.51,30,22.706,30,24z M18,24c0-3.308,2.692-6,6-6
		c1.294,0,2.49,0.416,3.471,1.115l-8.356,8.356C18.416,26.49,18,25.294,18,24z M24,36c-2.987,0-5.718-1.017-8.116-2.47l3.216-3.216
		C20.454,31.367,22.152,32,24,32c4.418,0,8-3.582,8-8c0-1.848-0.633-3.546-1.686-4.9l3.496-3.496
		c3.873,2.849,6.652,6.628,7.827,8.399C39.627,27.042,32.942,36,24,36z"/>
</g>
</svg>
