<?xml version="1.0" encoding="utf-8"?><svg xmlns="http://www.w3.org/2000/svg"  height="48" viewBox="0 0 48 48" width="48"><path d="M0 0h48v48H0z" fill="none"/>
<g id="Shopicon">
	<path d="M43.651,15.062l-21.12,7.87l-6.649-2.478C18.871,19.294,21,16.395,21,13c0-4.411-3.589-8-8-8s-8,3.589-8,8
		c0,3.234,1.932,6.019,4.7,7.279l-0.002,0.006l0.067,0.025c0.304,0.135,0.618,0.254,0.94,0.35L19.665,24l-8.969,3.342
		c-0.317,0.095-0.624,0.212-0.923,0.344l-0.076,0.028L9.7,27.721C6.932,28.981,5,31.766,5,35c0,4.411,3.589,8,8,8s8-3.589,8-8
		c0-3.395-2.129-6.295-5.12-7.455l6.65-2.478l21.12,7.87l0.698-1.875L25.396,24l18.954-7.062L43.651,15.062z M7,13
		c0-3.309,2.691-6,6-6s6,2.691,6,6s-2.691,6-6,6c-0.579,0-1.137-0.087-1.667-0.24l-0.817-0.304C8.445,17.508,7,15.422,7,13z M13,29
		c3.309,0,6,2.691,6,6s-2.691,6-6,6s-6-2.691-6-6c0-2.426,1.449-4.514,3.525-5.459l0.8-0.298C11.857,29.087,12.418,29,13,29z"/>
</g>
</svg>
