<?xml version="1.0" encoding="utf-8"?><svg xmlns="http://www.w3.org/2000/svg"  height="48" viewBox="0 0 48 48" width="48"><path d="M0 0h48v48H0z" fill="none"/>
<g id="Shopicon">
	<path d="M37.615,15.442C37.871,14.654,38,13.837,38,13c0-4.411-3.589-8-8-8c-3.271,0-6.133,1.95-7.363,4.879
		C21.516,9.301,20.279,9,19,9c-3.741,0-6.968,2.622-7.791,6.21C7.622,16.031,5,19.259,5,23c0,4.411,3.589,8,8,8h22
		c4.411,0,8-3.589,8-8C43,19.546,40.797,16.537,37.615,15.442z M35,29H13c-3.309,0-6-2.691-6-6c0-2.991,2.236-5.545,5.201-5.939
		l0.859-0.859C13.456,13.236,16.009,11,19,11c1.3,0,2.542,0.416,3.59,1.202l1.574-0.572C24.802,8.904,27.201,7,30,7
		c3.309,0,6,2.691,6,6c0,0.93-0.213,1.829-0.635,2.672l0.715,1.431C38.931,17.621,41,20.102,41,23C41,26.309,38.309,29,35,29z"/>
	<rect x="8.757" y="38" transform="matrix(0.7071 -0.7071 0.7071 0.7071 -23.7696 20.6152)" width="8.485" height="2"/>
	<rect x="19.757" y="38" transform="matrix(0.7071 -0.7071 0.7071 0.7071 -20.5477 28.3934)" width="8.485" height="2"/>
	<rect x="30.757" y="38" transform="matrix(0.7071 -0.7071 0.7071 0.7071 -17.3259 36.1716)" width="8.485" height="2"/>
</g>
</svg>
