<?xml version="1.0" encoding="utf-8"?><svg xmlns="http://www.w3.org/2000/svg"  height="48" viewBox="0 0 48 48" width="48"><path d="M0 0h48v48H0z" fill="none"/>
<g id="Shopicon">
	<path d="M41.414,16L40,14.586l-6.533,6.533c-1.464-1.56-3.303-2.76-5.378-3.45C29.849,16.396,31,14.332,31,12c0-3.859-3.141-7-7-7
		s-7,3.141-7,7c0,2.332,1.151,4.396,2.911,5.669c-2.075,0.69-3.913,1.89-5.378,3.45L8,14.586L6.586,16l6.68,6.68
		C11.838,24.767,11,27.287,11,30c0,7.168,5.832,13,13,13s13-5.832,13-13c0-2.713-0.838-5.233-2.266-7.32L41.414,16z M19,12
		c0-2.757,2.243-5,5-5s5,2.243,5,5s-2.243,5-5,5S19,14.757,19,12z M24,41c-6.065,0-11-4.935-11-11s4.935-11,11-11s11,4.935,11,11
		S30.065,41,24,41z"/>
</g>
</svg>
