<?xml version="1.0" encoding="utf-8"?><svg xmlns="http://www.w3.org/2000/svg"  height="48" viewBox="0 0 48 48" width="48"><path d="M0 0h48v48H0z" fill="none"/>
<g id="Shopicon">
	<polygon points="27,4 27,9.001 21.999,9.001 21.999,11.001 27,11.001 27,16.001 29,16.001 29,11.001 34,11.001 34,9.001 29,9.001 
		29,4 	"/>
	<path d="M21.878,26.122c-4.844-4.844-6.309-12.076-3.731-18.425l-1.303-1.303c-12.385,4.77-15.887,21.818-6.279,31.041
		c9.371,9.587,26.144,6.185,31.04-6.279l-1.302-1.303C33.956,32.432,26.723,30.966,21.878,26.122z M36.021,36.021
		c-6.627,6.629-17.413,6.629-24.042,0C4.082,28.35,5.936,14.616,15.521,9.26c-3.818,13.854,9.372,27.032,23.219,23.22
		C38,33.767,37.089,34.952,36.021,36.021z"/>
	<rect x="34.585" y="20.586" transform="matrix(0.7071 -0.7071 0.7071 0.7071 -5.0128 31.8991)" width="2.829" height="2.829"/>
</g>
</svg>
