<?xml version="1.0" encoding="utf-8"?><svg xmlns="http://www.w3.org/2000/svg"  height="48" viewBox="0 0 48 48" width="48"><path d="M0 0h48v48H0z" fill="none"/>
<g id="Shopicon">
	<path d="M40,4H16c-2.2,0-4,1.8-4,4v4H8c-2.2,0-4,1.8-4,4v28l8-8h20c2.2,0,4-1.8,4-4v-4l8,8V8C44,5.8,42.2,4,40,4z M16,26
		c-1.103,0-2-0.897-2-2V8c0-1.103,0.897-2,2-2h24c1.103,0,2,0.897,2,2v23.172l-4.586-4.586L36.828,26H16z M34,32
		c0,1.103-0.897,2-2,2H11.172l-0.586,0.586L6,39.172V16c0-1.103,0.897-2,2-2h4v10c0,2.2,1.8,4,4,4h18V32z"/>
</g>
</svg>
