<?xml version="1.0" encoding="utf-8"?>
<svg version="1.1" xmlns="http://www.w3.org/2000/svg" xmlns:xlink="http://www.w3.org/1999/xlink" x="0px" y="0px"
	 viewBox="0 0 48 48" style="enable-background:new 0 0 48 48;" xml:space="preserve">
<g id="Your_Icons">
	<circle cx="16" cy="24" r="2"/>
	<circle cx="24" cy="24" r="2"/>
	<circle cx="32" cy="24" r="2"/>
	<circle cx="16" cy="32" r="2"/>
	<circle cx="24" cy="32" r="2"/>
	<circle cx="32" cy="32" r="2"/>
	<path d="M40,8h-7V5h-2v3H17V5h-2v3H8c-2.2,0-4,1.8-4,4v28c0,2.2,1.8,4,4,4h32c2.2,0,4-1.8,4-4V12C44,9.8,42.2,8,40,8z M42,40
		c0,1.103-0.897,2-2,2H8c-1.103,0-2-0.897-2-2V12c0-1.103,0.897-2,2-2h7v5h2v-5h14v5h2v-5h7c1.103,0,2,0.897,2,2V40z"/>
</g>
</svg>
