<?xml version="1.0" encoding="utf-8"?>
<!-- Generator: Adobe Illustrator 24.0.3, SVG Export Plug-In . SVG Version: 6.00 Build 0)  -->
<svg version="1.1" id="Ebene_1" xmlns="http://www.w3.org/2000/svg" xmlns:xlink="http://www.w3.org/1999/xlink" x="0px" y="0px"
	 viewBox="0 0 48 48" style="enable-background:new 0 0 48 48;" xml:space="preserve">
<style type="text/css">
	.st0{fill:none;}
</style>
<path class="st0" d="M0.5,0.4h48v48h-48V0.4z"/>
<g id="Guidelines">
	<g id="material_x5F_system_x5F_icon_x5F_border">
	</g>
</g>
<g id="Shopicon">
	<path d="M16,35h4v-2h-4c-5,0-9-4-9-9s4-9,9-9h4v-2h-4C9.9,13,5,17.9,5,24S9.9,35,16,35z"/>
	<path d="M32,13h-4v2h4c5,0,9,4,9,9s-4,9-9,9h-4v2h4c6.1,0,11-4.9,11-11S38.1,13,32,13z"/>
	<rect x="16" y="23" width="16" height="2"/>
</g>
</svg>
