<?xml version="1.0" encoding="utf-8"?><svg xmlns="http://www.w3.org/2000/svg"  height="48" viewBox="0 0 48 48" width="48"><path d="M0 0h48v48H0z" fill="none"/>
<g id="Shopicon">
	<path d="M8.091,21c0,1.089-0.576,1.695-1.304,2.464c-0.755,0.797-1.696,1.788-1.696,3.394V38c0,2.757,2.243,5,5,5h12
		c2.757,0,5-2.243,5-5V26.857c0-2.316-2.045-3.302-4.022-4.254c-2.447-1.179-4.978-2.397-4.978-6.104v-0.215l-0.088-0.195
		c-0.081-0.179-0.287-0.608-0.6-1.09h1.969l2.032-1.242l5.949,5.949l1.414-1.414l-5.608-5.608L25,11.561V5H10.814L5.101,8.428
		L4.981,15h3.46c-0.219,0.456-0.351,0.961-0.351,1.5V21z M7.081,9.572L11.368,7H23v3.439L18.81,13h-4.219h-3H7.019L7.081,9.572z
		 M10.091,21v-4.5c0-0.827,0.673-1.5,1.5-1.5h3c0.341,0,1.054,0.832,1.502,1.731c0.108,4.784,3.569,6.451,6.107,7.674
		c1.846,0.89,2.89,1.441,2.89,2.452V38c0,1.654-1.346,3-3,3h-12c-1.654,0-3-1.346-3-3V26.857c0-0.771,0.415-1.244,1.147-2.017
		C9.063,23.97,10.091,22.887,10.091,21z"/>
	<polygon points="15.091,38 17.091,38 17.091,33 22.091,33 22.091,31 17.091,31 17.091,26 15.091,26 15.091,31 10.091,31 10.091,33 
		15.091,33 	"/>
	<circle cx="30.091" cy="8" r="2"/>
	<circle cx="36.091" cy="8" r="2"/>
	<circle cx="42.091" cy="8" r="2"/>
	<circle cx="33.091" cy="13" r="2"/>
	<circle cx="37.091" cy="17" r="2"/>
</g>
</svg>
