<?xml version="1.0" encoding="utf-8"?><svg xmlns="http://www.w3.org/2000/svg"  height="48" viewBox="0 0 48 48" width="48"><path d="M0 0h48v48H0z" fill="none"/>
<g id="Shopicon">
	<path d="M24,29c2.761,0,5-2.239,5-5s-2.239-5-5-5s-5,2.239-5,5S21.239,29,24,29z M24,21c1.654,0,3,1.346,3,3c0,1.654-1.346,3-3,3
		s-3-1.346-3-3C21,22.346,22.346,21,24,21z"/>
	<path d="M37,29c2.761,0,5-2.239,5-5s-2.239-5-5-5s-5,2.239-5,5S34.239,29,37,29z M37,21c1.654,0,3,1.346,3,3c0,1.654-1.346,3-3,3
		c-1.654,0-3-1.346-3-3C34,22.346,35.346,21,37,21z"/>
	<path d="M11,29c2.761,0,5-2.239,5-5s-2.239-5-5-5s-5,2.239-5,5S8.239,29,11,29z M11,21c1.654,0,3,1.346,3,3c0,1.654-1.346,3-3,3
		c-1.654,0-3-1.346-3-3C8,22.346,9.346,21,11,21z"/>
</g>
</svg>
