<?xml version="1.0" encoding="utf-8"?><svg version="1.1" id="Shopicons" xmlns="http://www.w3.org/2000/svg" x="0" y="0" viewBox="0 0 48 48" xml:space="preserve"><style>.st1{fill:#fff}.st2,.st3{fill:none;stroke:#666;stroke-width:4;stroke-miterlimit:10}.st3{stroke-width:6}</style><g id="facebook_00000066516403761617055960000016756353926399751044_"><path d="M0 0h48v48H0V0z" fill="none"/><path d="M24 4C12.954 4 4 12.954 4 24s8.954 20 20 20 20-8.954 20-20S35.046 4 24 4zm1 37.949V27h6v-2h-6v-4c0-1.654 1.346-3 3-3h3v-2h-3c-2.757 0-5 2.243-5 5v4h-6v2h6v14.949C13.541 41.426 6 33.588 6 24c0-9.925 8.075-18 18-18s18 8.075 18 18c0 9.588-7.541 17.426-17 17.949z"/></g></svg>