<?xml version="1.0" encoding="utf-8"?>
<svg version="1.1" xmlns="http://www.w3.org/2000/svg" xmlns:xlink="http://www.w3.org/1999/xlink" x="0px" y="0px"
	 viewBox="0 0 48 48" style="enable-background:new 0 0 48 48;" xml:space="preserve">
<g id="Your_Icons">
	<path d="M4,36c0,2.2,1.8,4,4,4h32c2.2,0,4-1.8,4-4V12c0-2.2-1.8-4-4-4h-8H16H8c-2.2,0-4,1.8-4,4V36z M30,10v12H18V10H30z M6,12
		c0-1.103,0.897-2,2-2h8v14h16V10h8c1.103,0,2,0.897,2,2v24c0,1.103-0.897,2-2,2H8c-1.103,0-2-0.897-2-2V12z"/>
</g>
</svg>
