<?xml version="1.0" encoding="utf-8"?><svg xmlns="http://www.w3.org/2000/svg"  height="48" viewBox="0 0 48 48" width="48"><path d="M0 0h48v48H0z" fill="none"/>
<g id="Shopicon">
	<path d="M41,25.999c-1.501-1.122-3.425-1.252-5.028-0.542C35.692,21.293,32.235,18,28,18c-0.814,0-1.598,0.123-2.338,0.349
		C24.214,16.898,22.212,16,20,16c-4.418,0-8,3.582-8,8c0,0.592,0.069,1.167,0.191,1.721C7.898,26.852,5,29.208,5,32v11h19
		c10.375,0,17.693-9.591,18-10C43.654,30.794,43.206,27.654,41,25.999z M24,41H7v-9c0-2.365,4.518-5,11-5
		c6.003,0,10.32,2.26,10.927,4.472c-0.635,0.378-1.312,0.709-2.018,0.97l-2.994,0.428c0.069,0.041,0.135,0.086,0.206,0.125
		C24.081,32.995,24.041,33,24,33h-1h-7v1l0,0v1h8c6.373,0,11.552-6.736,11.6-6.8c0.992-1.321,2.875-1.59,4.201-0.601
		c1.322,0.993,1.592,2.877,0.6,4.2C40.118,32.176,33.387,41,24,41z M14,24c0-3.308,2.692-6,6-6c1.605,0,3.113,0.626,4.247,1.762
		l0.849,0.851l1.15-0.351C26.815,20.088,27.405,20,28,20c3.308,0,6,2.692,6,6c0,0.389-0.04,0.768-0.111,1.137
		c-0.351,0.43-1.547,1.832-3.259,3.165C29.255,27.223,24.198,25,18,25c-1.348,0-2.64,0.106-3.854,0.302
		C14.053,24.883,14,24.448,14,24z"/>
	<circle cx="9.182" cy="14" r="2"/>
	<circle cx="15.182" cy="10" r="2"/>
	<circle cx="36.182" cy="16" r="2"/>
</g>
</svg>
