<?xml version="1.0" encoding="utf-8"?><svg xmlns="http://www.w3.org/2000/svg"  height="48" viewBox="0 0 48 48" width="48"><path d="M0 0h48v48H0z" fill="none"/>
<g id="Shopicon">
	<path d="M24,5C13.861,5,5.576,12.989,5.051,23H5v2h0.051C5.558,34.677,13.323,42.442,23,42.949V43h2v-0.051
		C35.011,42.424,43,34.139,43,24C43,13.523,34.477,5,24,5z M25,40.949V34h-2v6.949C14.425,40.447,7.553,33.575,7.051,25H14v-2H7.051
		C7.573,14.092,14.964,7,24,7c9.374,0,17,7.626,17,17C41,33.037,33.908,40.427,25,40.949z"/>
	<polygon points="25,14 23,14 23,23 23,25 34,25 34,23 25,23 	"/>
</g>
</svg>
