<?xml version="1.0" encoding="utf-8"?><svg xmlns="http://www.w3.org/2000/svg"  height="48" viewBox="0 0 48 48" width="48"><path d="M0 0h48v48H0z" fill="none"/>
<g id="Shopicon">
	<path d="M40,12h-8.023C32.61,11.162,33,10.131,33,9c0-2.761-2.239-5-5-5c-1.643,0-3.089,0.804-4,2.027C23.089,4.804,21.643,4,20,4
		c-2.761,0-5,2.239-5,5c0,1.131,0.39,2.162,1.023,3H8c-2.2,0-4,1.8-4,4v24c0,2.2,1.8,4,4,4h32c2.2,0,4-1.8,4-4V16
		C44,13.8,42.2,12,40,12z M28,6c1.654,0,3,1.346,3,3s-1.346,3-3,3s-3-1.346-3-3S26.346,6,28,6z M17,9c0-1.654,1.346-3,3-3
		s3,1.346,3,3s-1.346,3-3,3S17,10.654,17,9z M42,40c0,1.103-0.897,2-2,2H8c-1.103,0-2-0.897-2-2v-6h36V40z M42,30H6V16
		c0-1.103,0.897-2,2-2h14.586l-8,8L16,23.414l8-8l8,8L33.414,22l-8-8H40c1.103,0,2,0.897,2,2V30z"/>
</g>
</svg>
