<?xml version="1.0" encoding="utf-8"?><svg xmlns="http://www.w3.org/2000/svg"  height="48" viewBox="0 0 48 48" width="48"><path d="M0 0h48v48H0z" fill="none"/>
<g id="Shopicon">
	<path d="M41.083,19c-0.252,0-0.493,0.041-0.727,0.1C38.247,12.108,31.753,7,24.083,7c-0.014,0-0.028,0.002-0.042,0.002
		C24.028,7.002,24.014,7,24,7C16.338,7,9.85,12.097,7.733,19.076C7.523,19.029,7.307,19,7.083,19c-1.65,0-3,1.35-3,3v4
		c0,1.65,1.35,3,3,3c0.224,0,0.44-0.029,0.65-0.076c0.335-0.075,0.646-0.209,0.929-0.387c0.325-0.204,0.607-0.467,0.834-0.776
		c-0.186-0.715-0.335-1.443-0.414-2.195C9.029,25.052,9,24.529,9,24s0.029-1.052,0.083-1.567c0.078-0.751,0.228-1.48,0.414-2.195
		C11.172,13.785,17.03,9,24,9c0.014,0,0.028,0.002,0.042,0.002c7.015,0.019,12.897,4.883,14.507,11.413
		C38.833,21.566,39,22.762,39,24s-0.167,2.434-0.451,3.585c-1.316,5.338-5.488,9.549-10.804,10.922C26.546,38.818,25.295,39,24,39
		c-1.255,0-2.467-0.172-3.632-0.463c-0.319,0.221-0.592,0.502-0.805,0.826c-0.184,0.28-0.317,0.593-0.399,0.926
		c-0.056,0.229-0.095,0.465-0.095,0.711c0,1.65,1.35,3,3,3h4.014c1.65,0,3-1.35,3-3c0-0.252-0.041-0.493-0.1-0.727
		c5.439-1.641,9.732-5.934,11.373-11.373c0.234,0.059,0.475,0.1,0.727,0.1c1.65,0,3-1.35,3-3v-4C44.083,20.35,42.733,19,41.083,19z"
		/>
	<circle cx="20.083" cy="17.997" r="2"/>
	<circle cx="28.002" cy="17.997" r="2"/>
	<path d="M31,24h-2c0,2.709-2.206,4.913-4.917,4.913S19.166,26.709,19.166,24h-2c0,3.812,3.103,6.913,6.917,6.913S31,27.812,31,24z"
		/>
</g>
</svg>
