<?xml version="1.0" encoding="utf-8"?><svg xmlns="http://www.w3.org/2000/svg"  height="48" viewBox="0 0 48 48" width="48"><path d="M0 0h48v48H0z" fill="none"/>
<g id="Shopicon">
	<path d="M14,44h20c4.4,0,8-3.6,8-8V8c0-2.2-1.8-4-4-4H26c-2.2,0-4,1.8-4,4v20h-8c-4.4,0-8,3.6-8,8C6,40.4,9.6,44,14,44z M34,42
		h-1.312C32.245,41.07,32,40.048,32,39c0-3.859,3.14-7,7-7c0.332,0,0.666,0.031,1,0.078V36C40,39.308,37.308,42,34,42z M24,8
		c0-1.103,0.897-2,2-2h12c1.103,0,2,0.897,2,2v5H24V8z M22,30h2v-2V15h16v15.062C39.666,30.025,39.332,30,39,30
		c-4.962,0-9,4.037-9,9c0,1.031,0.193,2.042,0.531,3H19V30H22z M14,30h3v12h-3c-3.308,0-6-2.692-6-6S10.692,30,14,30z"/>
</g>
</svg>
