<?xml version="1.0" encoding="utf-8"?><svg xmlns="http://www.w3.org/2000/svg"  height="48" viewBox="0 0 48 48" width="48"><path d="M0 0h48v48H0z" fill="none"/>
<g id="Shopicon">
	<path d="M31,12c1.654,0,3,1.346,3,3h2c0-2.757-2.243-5-5-5c-2.183,0-4.024,1.415-4.704,3.369c-0.349-0.11-0.703-0.196-1.062-0.256
		C26.086,9.611,29.24,7,33,7V5c-3.962,0-7.382,2.322-9,5.67C22.382,7.322,18.962,5,15,5v2c3.76,0,6.914,2.611,7.766,6.113
		c-0.359,0.06-0.713,0.146-1.062,0.256C21.024,11.415,19.183,10,17,10c-2.757,0-5,2.243-5,5h2c0-1.654,1.346-3,3-3
		c1.37,0,2.517,0.929,2.874,2.187C15.924,16.511,13,21.975,13,28c0,7.714,0,15,11,15s11-7.286,11-15
		c0-6.025-2.924-11.489-6.874-13.813C28.484,12.929,29.63,12,31,12z M24,15c1.539,0,3.142,0.738,4.563,2.022L24,21.586l-4.563-4.563
		C20.858,15.738,22.461,15,24,15z M33,28c0,0.895-0.002,1.75-0.015,2.571L31.414,29l1.564-1.564C32.984,27.625,33,27.809,33,28z
		 M30,27.586L25.414,23l4.505-4.505c1.299,1.674,2.312,3.864,2.784,6.388L30,27.586z M15,28c0-0.191,0.016-0.375,0.022-0.564
		L16.586,29l-1.571,1.571C15.002,29.75,15,28.895,15,28z M15.297,24.883c0.472-2.524,1.485-4.714,2.784-6.388L22.586,23L18,27.586
		L15.297,24.883z M24,24.414L28.586,29L24,33.586L19.414,29L24,24.414z M18,30.414L22.586,35l-4.598,4.598
		c-1.918-1.311-2.606-3.491-2.851-6.321L18,30.414z M24,36.414l4.08,4.08C26.981,40.823,25.644,41,24,41s-2.981-0.177-4.08-0.506
		L24,36.414z M30.012,39.598L25.414,35L30,30.414l2.863,2.863C32.619,36.107,31.93,38.287,30.012,39.598z"/>
</g>
</svg>
