<?xml version="1.0" encoding="utf-8"?><svg xmlns="http://www.w3.org/2000/svg"  height="48" viewBox="0 0 48 48" width="48"><path d="M0 0h48v48H0z" fill="none"/>
<g id="Shopicon">
	<path d="M40.847,26.438C42.255,24.198,43,21.627,43,19c0-7.72-6.28-14-14-14h-9.444l0.507,1.352
		c0.032,0.085,0.241,0.628,0.63,1.403c-0.64,0.472-1.255,0.978-1.808,1.552c-2.202,2.284-3.568,5.255-3.863,8.39L11,24.734V25
		c0,1.384,0.524,3,2,3h2v1h-3c-3.86,0-7,3.141-7,7s3.14,7,7,7h19v-2.18l3.563-0.712C35.203,40.863,36.569,42,39,42
		c3.728,0,4.921-4.562,4.97-4.756l0.139-0.55l-6.238-6.238L40.847,26.438z M29,7c6.617,0,12,5.383,12,12
		c0,2.249-0.639,4.453-1.803,6.311l-0.494,0.666c-3.089-0.119-5.32-2.045-6.618-5.763C31.017,17.159,31,14.03,31,13.999L30.999,13
		H30c-3.815,0-6.342-3.876-7.44-6H29z M13.172,26c-0.071-0.162-0.134-0.464-0.16-0.756l3.967-6.943l0.017-0.224
		c0.212-2.756,1.395-5.378,3.328-7.383c0.42-0.436,0.882-0.827,1.362-1.195c1.445,2.269,3.865,4.998,7.338,5.439
		c0.234,4.595,2.209,11.774,8.302,12.896l-0.885,1.194L36.414,29H31h-2H17v-3H13.172z M39,40c-2.293,0-3.082-1.403-3.107-1.45
		l-0.343-0.68L31,38.78V31h4.586l6.273,6.273C41.514,38.191,40.627,40,39,40z M12,41c-2.757,0-5-2.243-5-5s2.243-5,5-5h17v10H12z"/>
	<rect x="21.586" y="16.586" transform="matrix(0.7071 -0.7071 0.7071 0.7071 -5.9913 21.5358)" width="2.828" height="2.828"/>
	<rect x="4.585" y="22.586" transform="matrix(0.7071 -0.7071 0.7071 0.7071 -15.2134 11.2719)" width="2.828" height="2.828"/>
	<rect x="6.585" y="16.519" transform="matrix(0.7071 -0.7071 0.7071 0.7071 -10.3379 10.9092)" width="2.828" height="2.828"/>
</g>
</svg>
