<?xml version="1.0" encoding="utf-8"?><svg xmlns="http://www.w3.org/2000/svg" viewBox="0 0 48 48" style="enable-background:new 0 0 48 48" xml:space="preserve"><style>.st1{fill:none;stroke:#6f6;stroke-width:.1;stroke-miterlimit:10}</style><symbol id="Shopicons-Grid" viewBox="-22.745 -34.684 48 48"><path d="M25.155 13.216v-47.8h-47.8v47.8h47.8m.1.1h-48v-48h48v48z" style="fill:#6f6" id="XMLID_00000105400654839925421050000018315208264575551887_"/><path id="XMLID_00000024688220513227089890000013085234451001463177_" class="st1" d="M1.255 13.316v-48"/><path id="XMLID_00000102533929669153596810000007734548596057797027_" class="st1" d="M25.255-10.684h-48"/><path id="XMLID_00000132059502994885997840000014627399858779583632_" class="st1" d="M25.255-2.684h-48"/><path id="XMLID_00000057831610967033900710000015474808596887659698_" class="st1" d="M25.255-18.684h-48"/><path id="XMLID_00000041992709915725208680000011476046180342736038_" class="st1" d="M9.255-34.684v48"/><path id="XMLID_00000084523091567543825440000011498605845151394457_" class="st1" d="M-6.745-34.684v48"/><path id="XMLID_00000006683429203779327820000011890912226935375787_" class="st1" d="m25.005 13.066-47.5-47.5"/><path id="XMLID_00000005983013323817973470000000555777391571511172_" class="st1" d="m-22.495 13.066 47.5-47.5"/><circle id="XMLID_00000042008922316232439380000006089832895525128326_" transform="rotate(-45.001 1.256 -10.684)" class="st1" cx="1.255" cy="-10.684" r="10"/><circle id="XMLID_00000092442712374267472790000010952607141227911836_" class="st1" cx="1.255" cy="-10.684" r="20"/><path id="XMLID_00000127730152516812894070000014989998871075924378_" class="st1" d="M15.255 7.316h-28c-2.211 0-4-1.791-4-4v-28c0-2.209 1.789-4 4-4h28c2.211 0 4 1.791 4 4v28c0 2.209-1.789 4-4 4z"/><path id="XMLID_00000008842115703775271660000007166610627138159549_" class="st1" d="M17.255 5.316h-32a4 4 0 0 1-4-4v-24a4 4 0 0 1 4-4h32a4 4 0 0 1 4 4v24a4 4 0 0 1-4 4z"/><path id="XMLID_00000134223764381809317900000012496469460916222136_" class="st1" d="M17.255-26.684v32a4 4 0 0 1-4 4h-24a4 4 0 0 1-4-4v-32a4 4 0 0 1 4-4h24a4 4 0 0 1 4 4z"/></symbol><g id="Your_Icons"><path d="M42 19h-4.752v-.088c0-4.413-3.59-8.003-8.003-8.003H18.75c-4.414 0-8.004 3.59-8.004 8.003V19H6a1 1 0 1 0 0 2h4.026A4.948 4.948 0 0 0 9 24v10c0 1.654 1.346 3 3 3s3-1.346 3-3v-1h18v1c0 1.654 1.346 3 3 3s3-1.346 3-3V24a4.905 4.905 0 0 0-1.028-3H42a1 1 0 1 0 0-2zm-29.254-.088a6.01 6.01 0 0 1 6.004-6.003h10.495a6.01 6.01 0 0 1 6.003 6.003V19H12.746v-.088zM14 31c-1.654 0-3-1.346-3-3v-4c0-1.654 1.346-3 3-3h20c1.654 0 3 1.346 3 3v4c0 1.654-1.346 3-3 3H14z"/><circle cx="16" cy="26" r="2"/><circle cx="32" cy="26" r="2"/></g></svg>