<?xml version="1.0" encoding="utf-8"?><svg xmlns="http://www.w3.org/2000/svg"  height="48" viewBox="0 0 48 48" width="48"><path d="M0 0h48v48H0z" fill="none"/>
<g id="Shopicon">
	<path d="M42,12h-4.023C38.61,11.162,39,10.131,39,9c0-2.761-2.239-5-5-5c-1.643,0-3.089,0.804-4,2.027C29.089,4.804,27.643,4,26,4
		c-2.761,0-5,2.239-5,5c0,1.131,0.39,2.162,1.023,3H18c-1.469,0-2.746,0.812-3.441,2H14C7.4,14,2,19.4,2,26v12h4
		c0,3.314,2.686,6,6,6s6-2.686,6-6h8c0,3.314,2.686,6,6,6s6-2.686,6-6h4c2.2,0,4-1.8,4-4V16C46,13.8,44.2,12,42,12z M44,34
		c0,1.103-0.897,2-2,2h-4.349c-0.825-2.329-3.04-4-5.651-4s-4.827,1.671-5.651,4H18c-0.124,0-0.244-0.015-0.362-0.037
		c-0.34-0.941-0.907-1.771-1.638-2.427V27v-2v-9c0-1.103,0.897-2,2-2h11.586l-1,1l-6,6L24,22.414l6-6l6,6L37.414,21l-6-6l0,0l-1-1
		H42c1.103,0,2,0.897,2,2V34z M36,38c0,2.206-1.794,4-4,4c-2.206,0-4-1.794-4-4s1.794-4,4-4C34.206,34,36,35.794,36,38z M16,38
		c0,2.206-1.794,4-4,4c-2.206,0-4-1.794-4-4s1.794-4,4-4C14.206,34,16,35.794,16,38z M29.977,12
		c0.007-0.009,0.016-0.018,0.023-0.027c0.007,0.01,0.016,0.018,0.023,0.027H29.977z M34,6c1.654,0,3,1.346,3,3s-1.346,3-3,3
		c-1.654,0-3-1.346-3-3S32.346,6,34,6z M23,9c0-1.654,1.346-3,3-3c1.654,0,3,1.346,3,3s-1.346,3-3,3C24.346,12,23,10.654,23,9z
		 M14,16v9H4.051C4.554,19.954,8.824,16,14,16z M4,36v-9h10v5.349C13.374,32.127,12.702,32,12,32c-2.611,0-4.827,1.671-5.651,4H4z"
		/>
</g>
</svg>
