<?xml version="1.0" encoding="utf-8"?><svg xmlns="http://www.w3.org/2000/svg"  height="48" viewBox="0 0 48 48" width="48"><path d="M0 0h48v48H0z" fill="none"/>
<g id="Shopicon">
	<path d="M24,33c4.963,0,9-4.037,9-9s-4.037-9-9-9c-4.962,0-9,4.037-9,9S19.038,33,24,33z M31,24c0,3.859-3.141,7-7,7
		c-3.86,0-7-3.141-7-7s3.14-7,7-7C27.859,17,31,20.141,31,24z"/>
	<rect x="23" y="4" width="2" height="6"/>
	<rect x="23" y="38" width="2" height="6"/>
	<rect x="4" y="23" width="6" height="2"/>
	<rect x="38" y="23" width="6" height="2"/>
	<rect x="14.5" y="6.278" transform="matrix(0.8661 -0.4999 0.4999 0.8661 -2.5623 8.9913)" width="2" height="6"/>
	<rect x="31.5" y="35.722" transform="matrix(0.866 -0.5 0.5 0.866 -15.0067 21.4372)" width="2" height="6"/>
	<rect x="6.277" y="31.5" transform="matrix(0.8661 -0.4999 0.4999 0.8661 -15.0049 8.9906)" width="6" height="2"/>
	<rect x="35.722" y="14.5" transform="matrix(0.8661 -0.4999 0.4999 0.8661 -2.5628 21.4339)" width="6" height="2"/>
	<rect x="8.277" y="12.5" transform="matrix(0.5 -0.866 0.866 0.5 -8.7847 15.7846)" width="2" height="6"/>
	<rect x="37.722" y="29.5" transform="matrix(0.5 -0.866 0.866 0.5 -8.7845 49.7849)" width="2" height="6"/>
	<rect x="12.5" y="37.722" transform="matrix(0.4999 -0.8661 0.8661 0.4999 -25.7851 32.7881)" width="6" height="2"/>
	<rect x="29.5" y="8.277" transform="matrix(0.4999 -0.8661 0.8661 0.4999 8.2178 32.7868)" width="5.999" height="2"/>
</g>
</svg>
