<?xml version="1.0" encoding="utf-8"?><svg version="1.1" id="Shopicons" xmlns="http://www.w3.org/2000/svg" x="0" y="0" viewBox="0 0 48 48" xml:space="preserve"><style>.st1{fill:#fff}.st2,.st3{fill:none;stroke:#666;stroke-width:4;stroke-miterlimit:10}.st3{stroke-width:6}</style><g id="pinterest_00000069359597500058293860000016678614404254125717_"><path d="M0 .013h48v48H0v-48z" fill="none"/><path d="M24 5C13.523 5 5 13.523 5 24s8.523 19 19 19 19-8.523 19-19S34.477 5 24 5zm0 36c-1.75 0-3.439-.267-5.029-.76l2.612-9.927c.375 1.107.918 1.885 1.475 2.429 1.415 1.383 3.514 1.835 5.609 1.209C32.396 32.838 35 28.746 35 24c0-6.065-4.935-11-11-11-5.962 0-9.146 3.539-10.063 6.57-1.386 4.586 1.167 7.908 1.276 8.048l1.575-1.232c-.082-.107-2.014-2.674-.938-6.237C16.569 17.773 19.134 15 24 15c4.963 0 9 4.037 9 9 0 3.868-2.017 7.172-4.905 8.034-.521.155-2.325.562-3.64-.724-1.578-1.542-1.803-4.889-.645-9.461l.156-.595-1.932-.518c-.057.209-.111.414-.162.616l-4.78 18.166C11.155 36.865 7 30.914 7 24c0-9.374 7.626-17 17-17s17 7.626 17 17-7.626 17-17 17z"/></g></svg>