<?xml version="1.0" encoding="utf-8"?><svg version="1.1" id="Shopicons" xmlns="http://www.w3.org/2000/svg" x="0" y="0" viewBox="0 0 48 48" xml:space="preserve"><style>.st1{fill:#fff}.st2,.st3{fill:none;stroke:#666;stroke-width:4;stroke-miterlimit:10}.st3{stroke-width:6}</style><g id="linkedin_00000087382446600847674280000001369359922852768920_"><path d="M0 .013h48v48H0v-48z" fill="none"/><path d="M34.019 43H13.981C9.029 43 5 38.971 5 34.019V13.981C5 9.029 9.029 5 13.981 5h20.037C38.971 5 43 9.029 43 13.981v20.037C43 38.971 38.971 43 34.019 43zM13.981 7A6.99 6.99 0 0 0 7 13.981v20.037C7 37.868 10.132 41 13.981 41h20.037C37.868 41 41 37.868 41 34.019V13.981A6.99 6.99 0 0 0 34.019 7H13.981z"/><circle cx="15" cy="15" r="2"/><path d="M14 20h2v15h-2zM34 35h-2v-7.471c0-3.841-2.175-4.646-4-4.646l-5 .098V35h-2V21.02l6.98-.137h.001c1.428 0 6.019.48 6.019 6.646V35z"/></g></svg>