<?xml version="1.0" encoding="utf-8"?><svg xmlns="http://www.w3.org/2000/svg"  height="48" viewBox="0 0 48 48" width="48"><path d="M0 0h48v48H0z" fill="none"/>
<g id="Shopicon">
	<path d="M24,10C12,10,4,24,4,24s8,14,20,14s20-14,20-14S36,10,24,10z M24,36c-8.914,0-15.622-8.966-17.638-12.002
		C8.373,20.958,15.058,12,24,12c8.914,0,15.622,8.966,17.638,12.002C39.627,27.042,32.942,36,24,36z"/>
	<path d="M24,16c-4.418,0-8,3.582-8,8s3.582,8,8,8s8-3.582,8-8S28.418,16,24,16z M24,30c-3.308,0-6-2.692-6-6s2.692-6,6-6
		s6,2.692,6,6S27.308,30,24,30z"/>
</g>
</svg>
