<?xml version="1.0" encoding="utf-8"?><svg xmlns="http://www.w3.org/2000/svg"  height="48" viewBox="0 0 48 48" width="48"><path d="M0 0h48v48H0z" fill="none"/>
<g id="Shopicon">
	<path d="M24,33c4.963,0,9-4.037,9-9s-4.037-9-9-9c-4.962,0-9,4.037-9,9S19.038,33,24,33z M31,24c0,3.859-3.141,7-7,7
		c-3.86,0-7-3.141-7-7s3.14-7,7-7C27.859,17,31,20.141,31,24z"/>
	<rect x="23" y="4" width="2" height="6"/>
	<rect x="4" y="23" width="6" height="2"/>
	<rect x="38" y="23" width="6" height="2"/>
	<rect x="14.5" y="6.278" transform="matrix(0.866 -0.5 0.5 0.866 -2.5623 8.9928)" width="2" height="6"/>
	<rect x="35.722" y="14.5" transform="matrix(0.8661 -0.4999 0.4999 0.8661 -2.5628 21.4339)" width="6" height="2"/>
	<rect x="8.277" y="12.5" transform="matrix(0.5 -0.866 0.866 0.5 -8.7847 15.7846)" width="2" height="6"/>
	<rect x="29.5" y="8.277" transform="matrix(0.4999 -0.8661 0.8661 0.4999 8.2178 32.7868)" width="5.999" height="2"/>
	<path d="M10,37H8c0,3.309,2.691,6,6,6c2.084,0,3.924-1.068,5-2.687C20.076,41.932,21.916,43,24,43c2.085,0,3.924-1.068,5-2.687
		C30.076,41.932,31.915,43,34,43c3.309,0,6-2.691,6-6h-2c0,2.206-1.794,4-4,4s-4-1.794-4-4h-2c0,2.206-1.794,4-4,4
		c-2.206,0-4-1.794-4-4h-2c0,2.206-1.794,4-4,4S10,39.206,10,37z"/>
</g>
</svg>
