<?xml version="1.0" encoding="utf-8"?><svg xmlns="http://www.w3.org/2000/svg"  height="48" viewBox="0 0 48 48" width="48"><path d="M0 0h48v48H0z" fill="none"/>
<g id="Shopicon">
	<path d="M24,27c2.757,0,5,2.243,5,5h2c0-3.859-3.141-7-7-7c-3.86,0-7,3.141-7,7h2C19,29.243,21.243,27,24,27z"/>
	<path d="M24,42c9.941,0,18-8.059,18-18S33.941,6,24,6C14.059,6,6,14.059,6,24S14.059,42,24,42z M24,8c8.822,0,16,7.178,16,16
		s-7.178,16-16,16S8,32.822,8,24S15.178,8,24,8z"/>
	<path d="M27.553,18.895l2,1C29.696,19.966,29.849,20,29.999,20c0.367,0,0.72-0.202,0.896-0.553
		c0.247-0.494,0.047-1.095-0.447-1.342l-2-1c-0.495-0.246-1.094-0.047-1.342,0.447C26.858,18.047,27.059,18.647,27.553,18.895z"/>
	<path d="M18.001,20c0.15,0,0.303-0.034,0.446-0.105l2-1c0.494-0.247,0.694-0.848,0.447-1.342s-0.847-0.692-1.342-0.447l-2,1
		c-0.494,0.247-0.694,0.848-0.447,1.342C17.281,19.798,17.634,20,18.001,20z"/>
</g>
</svg>
