<?xml version="1.0" encoding="utf-8"?><svg xmlns="http://www.w3.org/2000/svg"  height="48" viewBox="0 0 48 48" width="48"><path d="M0 0h48v48H0z" fill="none"/>
<g id="Shopicon">
	<path d="M40.348,18.502l0.044-0.044L28.371,6.438c-1.693-1.693-3.954-2.626-6.364-2.626c-2.411,0-4.67,0.933-6.364,2.626
		l-3.829,3.829L7.946,6.397L6.532,7.812l3.869,3.869l-1.828,1.828c-3.266,3.266-3.488,8.436-0.675,11.965l-0.043,0.043
		c-1.56,1.56-1.56,4.098,0,5.657c0.582,0.581,1.299,0.946,2.051,1.094c-0.256,0.533-0.391,1.123-0.391,1.734
		c0,1.07,0.415,2.075,1.168,2.828c1.183,1.183,3.095,1.481,4.563,0.777c0.147,0.752,0.512,1.47,1.094,2.052
		c1.56,1.559,4.097,1.56,5.656,0l0.38-0.38c0.175,0.657,0.52,1.279,1.034,1.794c0.78,0.779,1.804,1.169,2.829,1.169
		c1.024,0,2.048-0.39,2.828-1.169l5.364-5.364l5.515,5.515l1.414-1.414l-5.515-5.515l3.828-3.828
		C42.939,27.202,43.161,22.032,40.348,18.502z M17.058,7.852c1.316-1.315,3.074-2.04,4.95-2.04s3.634,0.725,4.95,2.04l5.645,5.645
		l0,0l2.055,2.055c-2.405,1.973-4.182,1.378-4.437,1.276l-8.365-5.312l-4.395,4.395l-4.231-4.231L17.058,7.852z M9.986,14.923
		l1.828-1.828l4.231,4.231l-6.72,6.72C7.287,21.306,7.502,17.408,9.986,14.923z M27.652,39.66c-0.779,0.779-2.048,0.779-2.829,0
		c-0.777-0.778-0.779-2.039-0.008-2.821l3.543-3.543l-1.414-1.414l-3.535,3.535l0,0l-2.829,2.829c-0.779,0.779-2.049,0.779-2.828,0
		c-0.78-0.78-0.78-2.049,0-2.829l6.364-6.364l-1.414-1.414l-6.364,6.364l-1.415,1.414c-0.751,0.752-2.078,0.75-2.829,0
		c-0.375-0.375-0.582-0.878-0.582-1.414c0-0.537,0.207-1.039,0.582-1.414l1.415-1.414l6.364-6.364l-1.414-1.414l-6.364,6.364
		c-0.78,0.779-2.049,0.779-2.829,0c-0.78-0.78-0.78-2.049,0-2.829l8.192-8.192l15.556,15.556L27.652,39.66z M34.43,32.882
		L18.874,17.326l3.262-3.262l7.072,4.49l0.089,0.051c0.134,0.068,3.114,1.495,6.783-1.63l2.179,2.178c2.729,2.729,2.729,7.171,0,9.9
		L34.43,32.882z"/>
</g>
</svg>
