<?xml version="1.0" encoding="utf-8"?><svg xmlns="http://www.w3.org/2000/svg"  height="48" viewBox="0 0 48 48" width="48"><path d="M0 0h48v48H0z" fill="none"/>
<g id="Shopicon">
	<path d="M24.916,5.61c-0.357-0.619-1.375-0.619-1.732,0L4.728,37.577c-0.179,0.31-0.179,0.69,0,1s0.509,0.5,0.866,0.5h36.912
		c0.357,0,0.688-0.19,0.866-0.5s0.179-0.69,0-1L24.916,5.61z M7.326,37.077L24.05,8.11l16.724,28.967H7.326z"/>
	<rect x="23.008" y="16.11" transform="matrix(1 -0.0039 0.0039 1 -0.0881 0.094)" width="2" height="13"/>
	<path d="M22.279,32.987c0,0.969,0.786,1.755,1.755,1.755s1.755-0.785,1.755-1.755c0-0.969-0.786-1.754-1.755-1.754
		S22.279,32.018,22.279,32.987z"/>
</g>
</svg>
