<?xml version="1.0" encoding="utf-8"?><svg xmlns="http://www.w3.org/2000/svg"  height="48" viewBox="0 0 48 48" width="48"><path d="M0 0h48v48H0z" fill="none"/>
<g id="Shopicon">
	<g>
		<polygon points="41,30 41,28 28,28 28,41 30,41 30,31.414 41.292,42.706 42.706,41.292 31.414,30 		"/>
		<polygon points="30,16.586 30,7 28,7 28,20 41,20 41,18 31.414,18 42.707,6.707 41.293,5.293 		"/>
		<polygon points="7,18 7,20 20,20 20,7 18,7 18,16.586 6.706,5.292 5.292,6.706 16.586,18 		"/>
		<polygon points="18,41 20,41 20,28 7,28 7,30 16.589,30 5.295,41.295 6.709,42.709 18,31.417 		"/>
	</g>
</g>
</svg>
