<?xml version="1.0" encoding="utf-8"?><svg xmlns="http://www.w3.org/2000/svg"  height="48" viewBox="0 0 48 48" width="48"><path d="M0 0h48v48H0z" fill="none"/>
<g id="Shopicon">
	<path d="M36,20c3.314,0,6-2.686,6-6s-2.686-6-6-6s-6,2.686-6,6c0,0.112,0.011,0.222,0.017,0.333l-13.461,5.769
		C15.456,18.817,13.824,18,12,18c-3.314,0-6,2.686-6,6s2.686,6,6,6c1.824,0,3.456-0.817,4.556-2.102l13.46,5.769
		C30.011,33.775,30,33.882,30,33.991c0,3.314,2.686,6,6,6s6-2.686,6-6s-2.686-6-6-6c-2.495,0-4.633,1.523-5.538,3.69l-12.871-5.516
		C17.851,25.493,18,24.764,18,24s-0.149-1.493-0.409-2.165l12.874-5.518C31.372,18.48,33.508,20,36,20z M36,29.991
		c2.206,0,4,1.794,4,4s-1.794,4-4,4s-4-1.794-4-4c0-0.505,0.104-0.984,0.276-1.43l0.037-0.087l-0.009-0.004
		C32.904,31.018,34.333,29.991,36,29.991z M12,28c-2.206,0-4-1.794-4-4s1.794-4,4-4s4,1.794,4,4S14.206,28,12,28z M36,10
		c2.206,0,4,1.794,4,4s-1.794,4-4,4c-1.664,0-3.092-1.023-3.694-2.472l0.007-0.003l-0.028-0.064C32.106,15.007,32,14.517,32,14
		C32,11.794,33.794,10,36,10z"/>
</g>
</svg>
