<?xml version="1.0" encoding="utf-8"?><svg xmlns="http://www.w3.org/2000/svg" viewBox="0 0 48 48" style="enable-background:new 0 0 48 48" xml:space="preserve"><path transform="rotate(-180 24 24)" style="fill:none" d="M0 0h48v48H0z"/><path d="M37 17.586 35.586 19l4 4H30v2h9.586l-4 4L37 30.414 43.414 24zM23 8.414V18h2V8.414l4 4L30.414 11 24 4.586 17.586 11 19 12.414zM18 25v-2H8.414l4-4L11 17.586 4.586 24 11 30.414 12.414 29l-4-4zM25 39.586V30h-2v9.586l-4-4L17.586 37 24 43.414 30.414 37 29 35.586z"/></svg>