<?xml version="1.0" encoding="utf-8"?><svg xmlns="http://www.w3.org/2000/svg"  height="48" viewBox="0 0 48 48" width="48"><path d="M0 0h48v48H0z" fill="none"/>
<g id="Shopicon">
	<path d="M14.872,19.871L24,42.692l9.128-22.821C34.3,18.935,35,17.533,35,16c0-1.236-0.449-2.405-1.272-3.323
		C32.663,8.211,28.618,5,24,5s-8.663,3.211-9.728,7.677C13.449,13.595,13,14.764,13,16C13,17.533,13.7,18.935,14.872,19.871z
		 M17.477,21h13.047L24,37.308L17.477,21z M15.893,13.874l0.214-0.212l0.062-0.295C16.934,9.678,20.228,7,24,7
		s7.066,2.678,7.832,6.367l0.062,0.295l0.214,0.212C32.684,14.444,33,15.199,33,16c0,1.145-0.653,2.175-1.704,2.688l-0.269,0.131
		L30.92,19H17.08l-0.108-0.182l-0.269-0.131C15.653,18.175,15,17.145,15,16C15,15.199,15.316,14.444,15.893,13.874z"/>
</g>
</svg>
