<?xml version="1.0" encoding="utf-8"?><svg xmlns="http://www.w3.org/2000/svg"  height="48" viewBox="0 0 48 48" width="48"><path d="M0 0h48v48H0z" fill="none"/>
<g id="Shopicon">
	<path d="M32.485,14.101l-14.85,14.849l1.414,1.414l14.85-14.849c1.559-1.558,4.097-1.56,5.657,0c1.56,1.56,1.56,4.098,0,5.657
		l-3.536,3.535l-0.001-0.001l-6.033,6.034l-5.28,5.279l0.001,0.001c-3.51,3.51-9.218,3.509-12.728,0.001
		c-3.509-3.509-3.508-9.218,0.001-12.728L27.535,7.736l-1.414-1.414L10.566,21.88c-4.289,4.289-4.289,11.268-0.001,15.556
		c2.145,2.145,4.961,3.216,7.777,3.216s5.634-1.072,7.778-3.217l5.279-5.28l9.57-9.569c2.339-2.34,2.339-6.146,0-8.485
		C38.63,11.762,34.824,11.763,32.485,14.101z"/>
</g>
</svg>
