<?xml version="1.0" encoding="utf-8"?><svg xmlns="http://www.w3.org/2000/svg"  height="48" viewBox="0 0 48 48" width="48"><path d="M0 0h48v48H0z" fill="none"/>
<g id="Shopicon">
	<path d="M16.634,32.78l3.021-3.021c1.232,0.921,2.695,1.39,4.162,1.39c1.783,0,3.566-0.68,4.926-2.04
		c4.926-4.926,4.222-14.074,4.222-14.074S32.514,15,31.757,15c-2.649,0-9.034,0.426-12.866,4.257c-2.48,2.48-2.692,6.36-0.651,9.088
		l-3.021,3.021L16.634,32.78z M20.305,20.671c2.992-2.992,8.012-3.574,10.68-3.659c-0.086,2.685-0.672,7.698-3.656,10.682
		c-0.938,0.938-2.185,1.455-3.512,1.455c-0.987,0-1.928-0.288-2.732-0.82l0.163-0.163l-1.414-1.414l-0.163,0.163
		c-0.532-0.804-0.82-1.746-0.82-2.732C18.851,22.856,19.367,21.609,20.305,20.671z"/>
	<path d="M14.634,16.751l-0.776-1.844l-5.409,2.28C11.136,11.064,17.276,7,24,7c9.374,0,17,7.626,17,17h2c0-10.477-8.523-19-19-19
		C16.615,5,9.853,9.382,6.77,16.027l-1.719-5.085l-1.895,0.641l2.96,8.756L14.634,16.751z M7.333,17.657l-0.011,0.005l-0.003-0.01
		L7.333,17.657z"/>
	<path d="M33.366,31.248l0.776,1.844l5.41-2.28C36.864,36.936,30.724,41,24,41c-9.374,0-17-7.626-17-17H5c0,10.477,8.523,19,19,19
		c7.385,0,14.147-4.382,17.23-11.028l1.719,5.085l1.895-0.641l-2.96-8.756L33.366,31.248z M40.667,30.342l0.011-0.005l0.003,0.01
		L40.667,30.342z"/>
</g>
</svg>
