<?xml version="1.0" encoding="utf-8"?><svg xmlns="http://www.w3.org/2000/svg"  height="48" viewBox="0 0 48 48" width="48"><path d="M0 0h48v48H0z" fill="none"/>
<g id="Shopicon">
	<rect x="4" y="27" width="6" height="2"/>
	<rect x="4" y="19" width="6" height="2"/>
	<rect x="4" y="11" width="6" height="2"/>
	<path d="M44,24l-4-8h-4v-3.885c0-2.2-1.8-4-4-4H16c-2.2,0-4,1.8-4,4V32c0,2.2,1.8,4,4,4h2c0,2.209,1.791,4,4,4c2.209,0,4-1.791,4-4
		h6h1c0,2.209,1.791,4,4,4c2.209,0,4-1.791,4-4h3V24z M39,36c0,1.103-0.897,2-2,2c-1.103,0-2-0.897-2-2c0-1.103,0.897-2,2-2
		C38.103,34,39,34.897,39,36z M24,36c0,1.103-0.897,2-2,2c-1.103,0-2-0.897-2-2c0-1.103,0.897-2,2-2C23.103,34,24,34.897,24,36z
		 M22,32c-1.477,0-2.752,0.809-3.445,2H16c-1.103,0-2-0.897-2-2V12.115c0-1.103,0.897-2,2-2h16c1.103,0,2,0.897,2,2V18v14
		c0,1.103-0.897,2-2,2h-6.555C24.752,32.809,23.477,32,22,32z M42,34h-1.555c-0.693-1.191-1.968-2-3.445-2
		c-0.353,0-0.689,0.06-1.015,0.146C35.987,32.096,36,32.05,36,32V18h2.764L42,24.472V34z"/>
</g>
</svg>
