<?xml version="1.0" encoding="utf-8"?><svg xmlns="http://www.w3.org/2000/svg"  height="48" viewBox="0 0 48 48" width="48"><path d="M0 0h48v48H0z" fill="none"/>
<g id="Shopicon">
	<path d="M29,40c2.761,0,5-2.239,5-5s-2.239-5-5-5s-5,2.239-5,5S26.239,40,29,40z M29,32c1.654,0,3,1.346,3,3s-1.346,3-3,3
		s-3-1.346-3-3S27.346,32,29,32z"/>
	<circle cx="26" cy="20" r="2"/>
	<circle cx="19" cy="38" r="2"/>
	<path d="M24,44c6.547,0,12.341-3.16,15.989-8.022L34,24L24,4L14,24L8.011,35.978C11.659,40.84,17.453,44,24,44z M19,24
		c1.654,0,3,1.346,3,3s-1.346,3-3,3s-3-1.346-3-3S17.346,24,19,24z M14.152,28.169C14.68,30.364,16.643,32,19,32
		c2.761,0,5-2.239,5-5s-2.239-5-5-5c-0.698,0-1.362,0.145-1.966,0.404L24,8.472l8.211,16.422l5.416,10.833
		C34.197,39.729,29.295,42,24,42s-10.197-2.271-13.628-6.273L14.152,28.169z"/>
</g>
</svg>
