<?xml version="1.0" encoding="utf-8"?><svg xmlns="http://www.w3.org/2000/svg"  height="48" viewBox="0 0 48 48" width="48"><path d="M0 0h48v48H0z" fill="none"/>
<g id="Shopicon">
	<path d="M39.076,20.001l-6.389-0.913C31.345,16.339,28.824,15,25,15H14c-4.962,0-9,4.037-9,9s4.038,9,9,9h11
		c3.824,0,6.345-1.339,7.687-4.088l6.389-0.913C41.247,27.959,43,26.18,43,24S41.247,20.041,39.076,20.001z M31.291,27.091
		l-0.217,0.531C30.121,29.958,28.248,31,25,31H14c-3.86,0-7-3.141-7-7s3.14-7,7-7h11c3.248,0,5.121,1.042,6.074,3.378l0.217,0.531
		L37,21.725v4.558L31.291,27.091z"/>
	<circle cx="14" cy="24" r="2"/>
	<rect x="20" y="21" width="2" height="6"/>
	<rect x="26" y="21" width="2" height="6"/>
</g>
</svg>
