<?xml version="1.0" encoding="utf-8"?><svg xmlns="http://www.w3.org/2000/svg"  height="48" viewBox="0 0 48 48" width="48"><path d="M0 0h48v48H0z" fill="none"/>
<g id="Shopicon">
	<path d="M24,4C12.954,4,4,12.954,4,24s8.954,20,20,20c11.046,0,20-8.954,20-20S35.046,4,24,4z M6.051,25h9.97
		c0.142,7.167,1.783,13.348,4.165,16.584C12.405,39.898,6.503,33.167,6.051,25z M41.949,23h-9.97
		c-0.142-7.167-1.783-13.348-4.165-16.584C35.595,8.102,41.497,14.833,41.949,23z M24,42c-2.37,0-5.77-6.595-5.98-17h11.96
		C29.77,35.405,26.37,42,24,42z M24,6c2.37,0,5.77,6.595,5.98,17H18.02C18.23,12.595,21.63,6,24,6z M20.186,6.416
		C17.803,9.652,16.162,15.833,16.02,23h-9.97C6.503,14.833,12.405,8.102,20.186,6.416z M27.814,41.584
		c2.382-3.237,4.023-9.417,4.165-16.584h9.97C41.497,33.167,35.595,39.898,27.814,41.584z"/>
</g>
</svg>
