<?xml version="1.0" encoding="utf-8"?><svg xmlns="http://www.w3.org/2000/svg"  height="48" viewBox="0 0 48 48" width="48"><path d="M0 0h48v48H0z" fill="none"/>
<g id="Shopicon">
	<path d="M13,24c0,5.917,4.699,10.744,10.56,10.978l-6.318,7.372l1.518,1.301L24,37.536l5.241,6.114l1.518-1.301l-6.318-7.372
		C30.301,34.744,35,29.917,35,24v-1h3v-2H10v2h3V24z M33,24c0,4.963-4.037,9-9,9s-9-4.037-9-9v-1h18V24z"/>
	<path d="M28,16h2c0-1.803-0.647-2.774-1.168-3.555C28.367,11.748,28,11.197,28,10s0.367-1.748,0.832-2.445
		C29.353,6.774,30,5.803,30,4h-2c0,1.197-0.367,1.748-0.832,2.445C26.647,7.226,26,8.197,26,10s0.647,2.774,1.168,3.555
		C27.633,14.252,28,14.803,28,16z"/>
	<path d="M20,16h2c0-1.803-0.647-2.774-1.168-3.555C20.367,11.748,20,11.197,20,10s0.367-1.748,0.832-2.445
		C21.353,6.774,22,5.803,22,4h-2c0,1.197-0.367,1.748-0.832,2.445C18.647,7.226,18,8.197,18,10s0.647,2.774,1.168,3.555
		C19.633,14.252,20,14.803,20,16z"/>
</g>
</svg>
