<?xml version="1.0" encoding="utf-8"?><svg xmlns="http://www.w3.org/2000/svg"  height="48" viewBox="0 0 48 48" width="48"><path d="M0 0h48v48H0z" fill="none"/>
<g id="Shopicon">
	<path d="M20,33v6.5c0,1.93,1.57,3.5,3.5,3.5h1c1.93,0,3.5-1.57,3.5-3.5V33c2.757,0,5-2.243,5-5V13c0-0.977-0.285-1.923-0.826-2.741
		C30.7,7.062,27.502,5,24,5s-6.7,2.062-8.174,5.259C15.285,11.077,15,12.023,15,13v15C15,30.757,17.243,33,20,33z M26,39.5
		c0,0.827-0.673,1.5-1.5,1.5h-1c-0.827,0-1.5-0.673-1.5-1.5V33h4V39.5z M17,13c0-0.602,0.182-1.185,0.526-1.686l0.088-0.157
		C18.749,8.632,21.255,7,24,7s5.251,1.632,6.386,4.157l0.088,0.157C30.818,11.815,31,12.398,31,13v15c0,1.654-1.346,3-3,3h-8
		c-1.654,0-3-1.346-3-3V13z"/>
</g>
</svg>
