<?xml version="1.0" encoding="utf-8"?><svg xmlns="http://www.w3.org/2000/svg"  height="48" viewBox="0 0 48 48" width="48"><path d="M0 0h48v48H0z" fill="none"/>
<g id="Shopicon">
	<circle cx="24" cy="28" r="2"/>
	<path d="M12,44h24c2.2,0,4-1.8,4-4V22c0-2.2-1.8-4-4-4H17v-4c0-3.86,3.141-7,7-7s7,3.14,7,7h2c0-4.962-4.037-9-9-9s-9,4.038-9,9v4
		h-3c-2.2,0-4,1.8-4,4v18C8,42.2,9.8,44,12,44z M10,22c0-1.103,0.897-2,2-2h24c1.103,0,2,0.897,2,2v18c0,1.103-0.897,2-2,2H12
		c-1.103,0-2-0.897-2-2V22z"/>
</g>
</svg>
