<?xml version="1.0" encoding="utf-8"?><svg xmlns="http://www.w3.org/2000/svg"  height="48" viewBox="0 0 48 48" width="48"><path d="M0 0h48v48H0z" fill="none"/>
<g id="Shopicon">
	<path d="M30,5c-1.308,0-2.411,0.846-3.247,2h-5.507C20.411,5.846,19.308,5,18,5s-2.411,0.846-3.247,2H9v36h30V7h-5.753
		C32.411,5.846,31.308,5,30,5z M11,19h26v22H11V19z M37,17H11V9h26V17z"/>
	<path d="M17,25v10h14V25H17z M29,33H19v-6h10V33z"/>
	<circle cx="16" cy="13" r="2"/>
	<circle cx="24" cy="13" r="2"/>
	<circle cx="32" cy="13" r="2"/>
</g>
</svg>
