<?xml version="1.0" encoding="utf-8"?>
<svg version="1.1" xmlns="http://www.w3.org/2000/svg" xmlns:xlink="http://www.w3.org/1999/xlink" x="0px" y="0px"
	 viewBox="0 0 48 48" style="enable-background:new 0 0 48 48;" xml:space="preserve">
<g id="Shopicon">
	<path d="M30.18,17.167L24,4l-6.18,13.167L4,19.279l10,10.249L11.639,44L24,37.167L36.361,44L34,29.528l10-10.249L30.18,17.167z
		 M32.026,29.85l1.698,10.407l-8.756-4.84L24,34.882l-0.968,0.535l-8.756,4.84l1.698-10.407l0.162-0.996l-0.705-0.722L8.15,20.668
		l9.972-1.524l1.055-0.161l0.453-0.966L24,8.707l4.37,9.31l0.453,0.966l1.055,0.161l9.972,1.524l-7.282,7.463l-0.705,0.722
		L32.026,29.85z"/>
</g>
</svg>
