<?xml version="1.0" encoding="utf-8"?><svg xmlns="http://www.w3.org/2000/svg"  height="48" viewBox="0 0 48 48" width="48"><path d="M0 0h48v48H0z" fill="none"/>
<g id="Shopicon">
	<path d="M25,30.184V11.162h-2v19.022c-1.722,0.446-3,1.997-3,3.859c0,2.209,1.791,4,4,4c2.209,0,4-1.791,4-4
		C28,32.181,26.722,30.63,25,30.184z"/>
	<path d="M24,6.043c-3.308,0-6,2.692-6,6v16.719c-1.28,1.454-2,3.333-2,5.281c0,4.411,3.589,8,8,8c4.411,0,8-3.589,8-8
		c0-1.949-0.72-3.827-2-5.281V12.043C30,8.734,27.308,6.043,24,6.043z M24,40.043c-3.314,0-6-2.686-6-6c0-1.775,0.775-3.365,2-4.463
		V12.043c0-2.2,1.8-4,4-4s4,1.8,4,4V29.58c1.225,1.098,2,2.688,2,4.463C30,37.356,27.314,40.043,24,40.043z"/>
</g>
</svg>
