<?xml version="1.0" encoding="utf-8"?><svg xmlns="http://www.w3.org/2000/svg"  height="48" viewBox="0 0 48 48" width="48"><path d="M0 0h48v48H0z" fill="none"/>
<g id="Shopicon">
	<path d="M35.821,16.989c-1.701-0.059-3.465-0.937-5.329-1.872C28.417,14.076,26.272,13,24,13s-4.417,1.076-6.491,2.117
		c-1.866,0.935-3.629,1.813-5.33,1.872l-6.785-2.908l-0.787,1.838L11,18.659V34.18L6.803,35.02l0.393,1.961l4.747-0.949
		C13.153,36.413,18.521,38,24,38c5.478,0,10.846-1.587,12.058-1.969l4.746,0.949l0.393-1.961L37,34.18V18.658l6.393-2.74
		l-0.787-1.838L35.821,16.989z M35,34.261C33.284,34.765,28.608,36,24,36s-9.284-1.235-11-1.739V30h22V34.261z M35,28H13v-4h22V28z
		 M35,22H13v-3.068c1.867-0.252,3.661-1.152,5.405-2.027C20.357,15.925,22.201,15,24,15s3.642,0.925,5.594,1.904
		c1.744,0.875,3.539,1.775,5.406,2.027V22z"/>
</g>
</svg>
