<?xml version="1.0" encoding="utf-8"?><svg xmlns="http://www.w3.org/2000/svg"  height="48" viewBox="0 0 48 48" width="48"><path d="M0 0h48v48H0z" fill="none"/>
<g id="Shopicon">
	<path d="M39,10c0-2.757-2.243-5-5-5s-5,2.243-5,5v3h-3v2h8v-2h-3v-3c0-1.654,1.346-3,3-3s3,1.346,3,3v15H9H4v2h5v3
		c0,3.862,2.449,7.153,5.872,8.428V44h2v-5.079C17.242,38.968,17.617,39,18,39h12c0.338,0,0.671-0.022,1-0.059V44h2v-5.525
		c3.49-1.239,6-4.565,6-8.475v-3h5v-2h-5V10z M37,30c0,3.859-3.14,7-7,7H18c-3.86,0-7-3.141-7-7v-3h26V30z"/>
</g>
</svg>
