<?xml version="1.0" encoding="utf-8"?><svg xmlns="http://www.w3.org/2000/svg"  height="48" viewBox="0 0 48 48" width="48"><path d="M0 0h48v48H0z" fill="none"/>
<g id="Shopicon">
	<path d="M37.602,8c-5.108,0-17.423,0.821-24.812,8.21c-5.008,5.008-5.224,12.979-0.671,18.257L6.366,40.22l1.414,1.414l5.753-5.753
		c2.513,2.168,5.632,3.264,8.757,3.264c3.438,0,6.877-1.312,9.5-3.935c9.5-9.5,8.143-27.143,8.143-27.143S39.062,8,37.602,8z
		 M13.532,33.054c-1.73-2.056-2.677-4.626-2.677-7.345c0-3.054,1.189-5.926,3.349-8.086c6.428-6.428,17.123-7.499,22.37-7.612
		L13.532,33.054z M30.376,33.795c-2.16,2.16-5.031,3.349-8.086,3.349c-2.718,0-5.288-0.947-7.344-2.676l23.033-23.033
		C37.858,16.744,36.771,27.4,30.376,33.795z"/>
</g>
</svg>
