<?xml version="1.0" encoding="utf-8"?>
<!-- Generator: Adobe Illustrator 24.0.3, SVG Export Plug-In . SVG Version: 6.00 Build 0)  -->
<svg version="1.1" id="Ebene_1" xmlns="http://www.w3.org/2000/svg" xmlns:xlink="http://www.w3.org/1999/xlink" x="0px" y="0px"
	 viewBox="0 0 48 48" style="enable-background:new 0 0 48 48;" xml:space="preserve">
<style type="text/css">
	.st0{fill:none;}
</style>
<path class="st0" d="M0,0h48v48H0V0z"/>
<g id="Guidelines">
	<g id="material_x5F_system_x5F_icon_x5F_border">
	</g>
</g>
<g id="Shopicon">
	<polygon points="20.9,25.7 15.4,31.2 16.8,32.6 22.3,27.1 21.8,26.2 	"/>
	<polygon points="27.1,22.3 32.8,16.6 31.4,15.2 25.7,20.9 26.2,21.8 	"/>
	<polygon points="20,17 17,20 24,24 	"/>
	<polygon points="24,24 28,31 31,28 	"/>
	<path d="M22.5,38.2c-3.5,3.5-9.2,3.5-12.7,0c-3.5-3.5-3.5-9.2,0-12.7l2.8-2.8l-1.4-1.4l-2.8,2.8c-4.3,4.3-4.3,11.3,0,15.6
		c2.1,2.1,5,3.2,7.8,3.2s5.6-1.1,7.8-3.2l2.8-2.8l-1.4-1.4L22.5,38.2z"/>
	<path d="M39.8,8.2c-4.3-4.3-11.3-4.3-15.6,0l-2.8,2.8l1.4,1.4l2.8-2.8c3.5-3.5,9.2-3.5,12.7,0c3.5,3.5,3.5,9.2,0,12.7l-2.8,2.8
		l1.4,1.4l2.8-2.8C44.1,19.5,44.1,12.5,39.8,8.2z"/>
</g>
</svg>
