<?xml version="1.0" encoding="utf-8"?><svg xmlns="http://www.w3.org/2000/svg"  height="48" viewBox="0 0 48 48" width="48"><path d="M0 0h48v48H0z" fill="none"/>
<g id="Shopicon">
	<path d="M42.16,21.215c-2.19,0.749-4.38,1.498-6.569,2.247v-4.108H15.583h-4.653V38h24.66v-4.164
		c2.19,0.721,4.38,1.443,6.569,2.164C42.16,31.072,42.16,26.144,42.16,21.215z M40.16,33.236l-1.54-0.507L36,31.865v-6.429
		l2.727-0.933l1.432-0.49V33.236z M12.931,21.354h20.66V36h-20.66V21.354z"/>
	<path d="M21.167,13.771c0-3.083-2.5-5.583-5.583-5.583c-3.084,0-5.583,2.5-5.583,5.583c0,3.084,2.5,5.583,5.583,5.583
		C18.667,19.354,21.167,16.854,21.167,13.771z M12,13.771c0-1.976,1.607-3.583,3.583-3.583c1.976,0,3.583,1.607,3.583,3.583
		s-1.607,3.583-3.583,3.583C13.607,17.354,12,15.747,12,13.771z"/>
	<path d="M38.215,11.444c0-4.322-3.504-7.826-7.826-7.826c-4.322,0-7.826,3.504-7.826,7.826c0,4.323,3.504,7.826,7.826,7.826
		C34.711,19.271,38.215,15.767,38.215,11.444z M30.389,5.618c3.213,0,5.826,2.614,5.826,5.826s-2.614,5.826-5.826,5.826
		c-3.213,0-5.826-2.614-5.826-5.826S27.176,5.618,30.389,5.618z"/>
</g>
</svg>
