<?xml version="1.0" encoding="utf-8"?><svg xmlns="http://www.w3.org/2000/svg"  height="48" viewBox="0 0 48 48" width="48"><path d="M0 0h48v48H0z" fill="none"/>
<g id="Shopicon">
	<path d="M33,5H21v5.034l-4-0.046v9.062C10.842,19.56,6,24.71,6,31c0,6.627,5.373,12,12,12c4.439,0,8.306-2.417,10.382-6H37V9.988
		l-4,0.046V5z M18,41c-5.514,0-10-4.486-10-10s4.486-10,10-10s10,4.486,10,10S23.514,41,18,41z M35,12.012V35h-5.697
		C29.746,33.747,30,32.405,30,31c0-6.29-4.842-11.44-11-11.949v-7.039l4,0.046V7h8v5.058L35,12.012z"/>
	<rect x="13" y="30" width="10" height="2"/>
</g>
</svg>
