<?xml version="1.0" encoding="utf-8"?><svg xmlns="http://www.w3.org/2000/svg"  height="48" viewBox="0 0 48 48" width="48"><path d="M0 0h48v48H0z" fill="none"/>
<g id="Shopicon">
	<path d="M8,32c0,2.2,1.8,4,4,4h2c0,2.209,1.791,4,4,4c2.209,0,4-1.791,4-4h6h1c0,2.209,1.791,4,4,4c2.209,0,4-1.791,4-4h3V24l-4-8
		h-4v-3.885c0-2.2-1.8-4-4-4H12c-2.2,0-4,1.8-4,4V32z M10,12.115c0-1.103,0.897-2,2-2h16c1.103,0,2,0.897,2,2V18v14
		c0,1.103-0.897,2-2,2h-6.555c-0.693-1.191-1.968-2-3.445-2s-2.752,0.809-3.445,2H12c-1.103,0-2-0.897-2-2V12.115z M35,36
		c0,1.103-0.897,2-2,2c-1.103,0-2-0.897-2-2c0-1.103,0.897-2,2-2C34.103,34,35,34.897,35,36z M20,36c0,1.103-0.897,2-2,2
		c-1.103,0-2-0.897-2-2c0-1.103,0.897-2,2-2C19.103,34,20,34.897,20,36z M34.764,18L38,24.472V34h-1.555
		c-0.693-1.191-1.968-2-3.445-2c-0.353,0-0.689,0.06-1.015,0.146C31.987,32.096,32,32.05,32,32V18H34.764z"/>
</g>
</svg>
