<?xml version="1.0" encoding="utf-8"?><svg version="1.1" id="Shopicons" xmlns="http://www.w3.org/2000/svg" x="0" y="0" viewBox="0 0 48 48" xml:space="preserve"><style>.st1{fill:#fff}.st2,.st3{fill:none;stroke:#666;stroke-width:4;stroke-miterlimit:10}.st3{stroke-width:6}</style><g id="github_00000070830369554616873160000013042098440380312982_"><path d="M0-.033h48v48H0v-48z" fill="none"/><path d="M38.212 14.235c-.219-.618-.599-1.279-1.153-2.008.974-3.106.375-5.765.348-5.883l-.182-.783-.804.01c-.145.002-3.442.063-6.552 2.013a28.62 28.62 0 0 0-11.738 0c-3.11-1.949-6.407-2.011-6.552-2.013l-.804-.01-.182.783c-.027.117-.627 2.777.348 5.883-.556.73-.935 1.391-1.153 2.008-1.109 3.135-1.109 6.314 0 9.45.941 2.659 4.361 5.586 6.565 6.236 1.284.379 2.572.661 3.863.848A4.809 4.809 0 0 0 19 33.959v1.844c-.012.008-.027.01-.039.019-.17.126-4.195 3.08-7.306.382-1.238-1.073-1.742-1.867-2.23-2.635-.727-1.143-1.412-2.221-3.978-3.504a1 1 0 0 0-.895 1.789c2.069 1.034 2.537 1.771 3.185 2.788.512.806 1.149 1.808 2.607 3.073 1.358 1.178 2.868 1.605 4.316 1.605 1.628 0 3.173-.543 4.339-1.169v5.816h2V33.959c0-1.654 1.346-2.903 3-2.903s3 1.249 3 2.903v10h2v-10a4.807 4.807 0 0 0-1.216-3.19 27.616 27.616 0 0 0 3.863-.848c2.204-.65 5.624-3.577 6.565-6.236 1.11-3.136 1.11-6.316.001-9.45zm-1.885 8.782c-.7 1.978-3.55 4.485-5.247 4.986-4.7 1.387-9.464 1.387-14.16 0-1.697-.501-4.547-3.009-5.247-4.986-.952-2.692-1.115-5.486 0-8.114a7.493 7.493 0 0 1 1.529-2.288l-.199-.54c-.657-1.778-.659-3.456-.577-4.424 1.115.15 3.12.584 4.945 1.825l.358.243.422-.095a26.747 26.747 0 0 1 11.697 0l.422.095.358-.243c1.827-1.242 3.835-1.676 4.948-1.826.084.964.082 2.632-.58 4.426l-.199.539s1.029.887 1.529 2.288c.961 2.688.953 5.421.001 8.114z"/></g></svg>