<?xml version="1.0" encoding="utf-8"?><svg xmlns="http://www.w3.org/2000/svg"  height="48" viewBox="0 0 48 48" width="48"><path d="M0 0h48v48H0z" fill="none"/>
<g id="Shopicon">
	<g>
		<path d="M23,40.079V7.917l-11.346,9.082L5,16.998v14l6.654,0.001L23,40.079z M7,18.998l5.355,0.001L21,12.079v23.838l-8.645-6.918
			L7,28.998V18.998z"/>
		<path d="M28,28.999v2c3.859,0,7-3.141,7-7s-3.141-7-7-7v2c2.757,0,5,2.243,5,5S30.757,28.999,28,28.999z"/>
		<path d="M43,23.999c0-8.822-7.178-16-16-16v2c7.72,0,14,6.28,14,14s-6.28,14-14,14v2C35.822,39.999,43,32.821,43,23.999z"/>
	</g>
</g>
</svg>
