<?xml version="1.0" encoding="utf-8"?>
<svg version="1.1" xmlns="http://www.w3.org/2000/svg" xmlns:xlink="http://www.w3.org/1999/xlink" x="0px" y="0px"
	 viewBox="0 0 48 48" style="enable-background:new 0 0 48 48;" xml:space="preserve">
<g id="Your_Icons">
	<rect x="21" y="10" width="6" height="2"/>
	<circle cx="24" cy="36" r="2"/>
	<path d="M32,44c2.2,0,4-1.8,4-4V8c0-2.2-1.8-4-4-4H16c-2.2,0-4,1.8-4,4v32c0,2.2,1.8,4,4,4H32z M14,40V8c0-1.103,0.897-2,2-2h16
		c1.103,0,2,0.897,2,2v32c0,1.103-0.897,2-2,2H16C14.897,42,14,41.103,14,40z"/>
</g>
</svg>
