<?xml version="1.0" encoding="utf-8"?><svg xmlns="http://www.w3.org/2000/svg"  height="48" viewBox="0 0 48 48" width="48"><path d="M0 0h48v48H0z" fill="none"/>
<g id="Shopicon">
	<path d="M40,6H28.997C28.997,6.011,29,6.021,29,6.032c0,2.761-2.239,5-5,5s-5-2.239-5-5C19,6.021,19.003,6.011,19.003,6H8
		c-2.2,0-4,1.8-4,4v8c0,2.2,1.8,4,4,4l1.978,0v16c0,2.2,1.8,4,4,4L34,42c2.2,0,4-1.8,4-4V22h2c2.2,0,4-1.8,4-4v-8
		C44,7.8,42.2,6,40,6z M42,18c0,1.103-0.897,2-2,2h-4v2v16c0,1.103-0.897,2-2,2l-20.022,0c-1.103,0-2-0.897-2-2V22v-2L8,20
		c-1.103,0-2-0.897-2-2v-8c0-1.103,0.897-2,2-2h9.282c0.852,2.905,3.542,5.032,6.718,5.032c3.177,0,5.866-2.127,6.718-5.032H40
		c1.103,0,2,0.897,2,2V18z"/>
</g>
</svg>
