<?xml version="1.0" encoding="utf-8"?><svg xmlns="http://www.w3.org/2000/svg"  height="48" viewBox="0 0 48 48" width="48"><path d="M0 0h48v48H0z" fill="none"/>
<g id="Shopicon">
	<path d="M37.328,41c-1.392,0-2.022-0.379-2.821-0.857C33.613,39.606,32.601,39,30.656,39c-1.943,0-2.955,0.606-3.848,1.143
		C26.01,40.621,25.38,41,23.989,41c-1.388,0-2.018-0.378-2.816-0.857C20.282,39.607,19.271,39,17.328,39
		c-1.943,0-2.955,0.607-3.847,1.143C12.683,40.622,12.052,41,10.663,41c-1.389,0-2.019-0.378-2.817-0.857
		C6.954,39.607,5.943,39,4,39v2c1.389,0,2.019,0.378,2.817,0.857C7.709,42.393,8.72,43,10.663,43c1.943,0,2.955-0.607,3.847-1.143
		C15.309,41.378,15.939,41,17.328,41c1.388,0,2.018,0.378,2.816,0.857C21.036,42.393,22.047,43,23.989,43
		c1.944,0,2.956-0.607,3.849-1.143C28.636,41.378,29.267,41,30.656,41c1.392,0,2.022,0.379,2.821,0.857
		C34.371,42.394,35.384,43,37.328,43s2.957-0.606,3.851-1.143C41.978,41.379,42.608,41,44,41v-2c-1.944,0-2.957,0.606-3.851,1.143
		C39.351,40.621,38.72,41,37.328,41z"/>
	<path d="M37.328,33c-1.392,0-2.022-0.379-2.821-0.857C33.613,31.606,32.601,31,30.656,31c-0.687,0-1.253,0.078-1.743,0.2
		l-1.909-16.233C27.022,13.328,28.357,12,30,12c1.654,0,3,1.346,3,3h2c0-2.757-2.243-5-5-5c-2.414,0-4.434,1.721-4.899,4h-0.032
		c0.495-3.94,3.859-7,7.931-7c4.411,0,8,3.589,8,8h2c0-5.514-4.486-10-10-10c-3.961,0-7.382,2.322-9,5.67
		C22.382,7.322,18.962,5,15,5C9.486,5,5,9.486,5,15h2c0-4.411,3.589-8,8-8c4.072,0,7.436,3.06,7.931,7h-0.032
		c-0.465-2.279-2.484-4-4.899-4c-2.757,0-5,2.243-5,5h2c0-1.654,1.346-3,3-3c1.644,0,2.98,1.329,2.997,2.969l-1.91,16.235
		C18.593,31.08,18.022,31,17.328,31c-1.943,0-2.955,0.607-3.847,1.143C12.683,32.622,12.052,33,10.663,33
		c-1.389,0-2.019-0.378-2.817-0.857C6.954,31.607,5.943,31,4,31v2c1.389,0,2.019,0.378,2.817,0.857C7.709,34.393,8.72,35,10.663,35
		c1.943,0,2.955-0.607,3.847-1.143C15.309,33.378,15.939,33,17.328,33c1.388,0,2.018,0.378,2.816,0.857
		C21.036,34.393,22.047,35,23.989,35c1.944,0,2.956-0.607,3.849-1.143C28.636,33.378,29.267,33,30.656,33
		c1.392,0,2.022,0.379,2.821,0.857C34.371,34.394,35.384,35,37.328,35s2.957-0.606,3.851-1.143C41.978,33.379,42.608,33,44,33v-2
		c-1.944,0-2.957,0.606-3.851,1.143C39.351,32.621,38.72,33,37.328,33z M23.989,33c-1.388,0-2.018-0.378-2.816-0.857
		c-0.056-0.033-0.114-0.068-0.171-0.102L22.889,16h2.221l1.886,16.031c-0.063,0.037-0.127,0.075-0.188,0.112
		C26.01,32.621,25.38,33,23.989,33z"/>
</g>
</svg>
