<?xml version="1.0" encoding="utf-8"?><svg xmlns="http://www.w3.org/2000/svg" viewBox="0 0 48 48" style="enable-background:new 0 0 48 48" xml:space="preserve"><path style="fill:none" d="M0 0h48v48H0z"/><path d="M36 29c-.649 0-1.275.096-1.872.262l-5.086-11.558A6.989 6.989 0 0 0 32 12c0-3.859-3.141-7-7-7-3.86 0-7 3.141-7 7 0 1.828.71 3.49 1.862 4.738l-4.78 6.987A6.94 6.94 0 0 0 12 23c-3.86 0-7 3.141-7 7s3.14 7 7 7 7-3.141 7-7a6.974 6.974 0 0 0-2.269-5.144l4.688-6.852A6.953 6.953 0 0 0 25 19c.791 0 1.549-.138 2.259-.381l5.039 11.451A6.996 6.996 0 0 0 29 36c0 3.859 3.141 7 7 7s7-3.141 7-7-3.141-7-7-7zm-19 1c0 2.757-2.243 5-5 5s-5-2.243-5-5 2.243-5 5-5 5 2.243 5 5zm3-18c0-2.757 2.243-5 5-5s5 2.243 5 5-2.243 5-5 5-5-2.243-5-5zm16 29c-2.757 0-5-2.243-5-5s2.243-5 5-5 5 2.243 5 5-2.243 5-5 5z"/></svg>