<?xml version="1.0" encoding="utf-8"?><svg version="1.1" id="Shopicons" xmlns="http://www.w3.org/2000/svg" x="0" y="0" viewBox="0 0 48 48" xml:space="preserve"><style>.st1{fill:#fff}.st2,.st3{fill:none;stroke:#666;stroke-width:4;stroke-miterlimit:10}.st3{stroke-width:6}</style><g id="instagram_00000074423725922853932990000001983950135935355808_"><path d="M0-.025h48v48H0v-48z" fill="none"/><path d="M36.019 6A5.988 5.988 0 0 1 42 11.981v24.038A5.988 5.988 0 0 1 36.019 42H11.981A5.988 5.988 0 0 1 6 36.019V11.981A5.988 5.988 0 0 1 11.981 6h24.038m0-2H11.981A7.98 7.98 0 0 0 4 11.981v24.038A7.98 7.98 0 0 0 11.981 44h24.038A7.98 7.98 0 0 0 44 36.019V11.981A7.98 7.98 0 0 0 36.019 4z"/><path d="M24 33c-4.962 0-9-4.037-9-9s4.038-9 9-9 9 4.037 9 9-4.038 9-9 9zm0-16c-3.86 0-7 3.141-7 7s3.14 7 7 7 7-3.141 7-7-3.14-7-7-7z"/><circle cx="35" cy="13" r="2"/></g></svg>