<?xml version="1.0" encoding="utf-8"?><svg xmlns="http://www.w3.org/2000/svg" viewBox="0 0 48 48" style="enable-background:new 0 0 48 48" xml:space="preserve"><style>.st1{fill:none;stroke:#6f6;stroke-width:.1;stroke-miterlimit:10}</style><symbol id="Shopicons-Grid" viewBox="-22.745 -34.684 48 48"><path d="M25.155 13.216v-47.8h-47.8v47.8h47.8m.1.1h-48v-48h48v48z" style="fill:#6f6" id="XMLID_00000105400654839925421050000018315208264575551887_"/><path id="XMLID_00000024688220513227089890000013085234451001463177_" class="st1" d="M1.255 13.316v-48"/><path id="XMLID_00000102533929669153596810000007734548596057797027_" class="st1" d="M25.255-10.684h-48"/><path id="XMLID_00000132059502994885997840000014627399858779583632_" class="st1" d="M25.255-2.684h-48"/><path id="XMLID_00000057831610967033900710000015474808596887659698_" class="st1" d="M25.255-18.684h-48"/><path id="XMLID_00000041992709915725208680000011476046180342736038_" class="st1" d="M9.255-34.684v48"/><path id="XMLID_00000084523091567543825440000011498605845151394457_" class="st1" d="M-6.745-34.684v48"/><path id="XMLID_00000006683429203779327820000011890912226935375787_" class="st1" d="m25.005 13.066-47.5-47.5"/><path id="XMLID_00000005983013323817973470000000555777391571511172_" class="st1" d="m-22.495 13.066 47.5-47.5"/><circle id="XMLID_00000042008922316232439380000006089832895525128326_" transform="rotate(-45.001 1.256 -10.684)" class="st1" cx="1.255" cy="-10.684" r="10"/><circle id="XMLID_00000092442712374267472790000010952607141227911836_" class="st1" cx="1.255" cy="-10.684" r="20"/><path id="XMLID_00000127730152516812894070000014989998871075924378_" class="st1" d="M15.255 7.316h-28c-2.211 0-4-1.791-4-4v-28c0-2.209 1.789-4 4-4h28c2.211 0 4 1.791 4 4v28c0 2.209-1.789 4-4 4z"/><path id="XMLID_00000008842115703775271660000007166610627138159549_" class="st1" d="M17.255 5.316h-32a4 4 0 0 1-4-4v-24a4 4 0 0 1 4-4h32a4 4 0 0 1 4 4v24a4 4 0 0 1-4 4z"/><path id="XMLID_00000134223764381809317900000012496469460916222136_" class="st1" d="M17.255-26.684v32a4 4 0 0 1-4 4h-24a4 4 0 0 1-4-4v-32a4 4 0 0 1 4-4h24a4 4 0 0 1 4 4z"/></symbol><g id="Your_Icons"><path d="m35.779 14.731-1.572 1.236a13.018 13.018 0 0 1 2.228 11.82 12.922 12.922 0 0 1-6.318 7.687 12.922 12.922 0 0 1-9.902.966 12.917 12.917 0 0 1-7.686-6.318 12.904 12.904 0 0 1-.967-9.902 12.917 12.917 0 0 1 6.317-7.687 12.888 12.888 0 0 1 7.612-1.438l-5.197 5.198 1.414 1.414L29.414 10l-7.707-7.707-1.414 1.414 5.399 5.399a14.891 14.891 0 0 0-8.755 1.663c-3.535 1.886-6.124 5.035-7.29 8.868s-.77 7.891 1.115 11.426a14.908 14.908 0 0 0 8.869 7.291c1.443.438 2.918.656 4.386.656 2.429 0 4.836-.597 7.04-1.772a14.903 14.903 0 0 0 7.291-8.868 15.02 15.02 0 0 0-2.569-13.639z"/><path style="fill:none" d="M0 0h48v48H0z"/></g></svg>