<?xml version="1.0" encoding="utf-8"?>
<svg version="1.1" xmlns="http://www.w3.org/2000/svg" xmlns:xlink="http://www.w3.org/1999/xlink" x="0px" y="0px"
	 viewBox="0 0 48 48" style="enable-background:new 0 0 48 48;" xml:space="preserve">
<g id="Your_Icons">
	<path d="M23,40l7,4v-5h9V5H14c-2.757,0-5,2.243-5,5v24c0,2.757,2.243,5,5,5h2v5L23,40z M28,40.554l-5-2.857l-5,2.857V31h10
		L28,40.554z M37,37h-7l0-6h7V37z M14,7h23v22H14c-1.13,0-2.162,0.391-3,1.026V10C11,8.346,12.346,7,14,7z M14,37
		c-1.654,0-3-1.346-3-3s1.346-3,3-3h1h1v6H14z"/>
</g>
</svg>
