<?xml version="1.0" encoding="utf-8"?>
<svg version="1.1" xmlns="http://www.w3.org/2000/svg" xmlns:xlink="http://www.w3.org/1999/xlink" x="0px" y="0px"
	 viewBox="0 0 48 48" style="enable-background:new 0 0 48 48;" xml:space="preserve">
<g id="Your_Icons">
	<polygon points="37.721,30 43.265,13.368 41.367,12.735 36.279,28 17.721,28 10.721,7 5,7 5,9 9.279,9 15.929,28.948 11.461,39 
		39,39 39,37 14.539,37 17.65,30 	"/>
	<circle cx="20" cy="42" r="2"/>
	<circle cx="32" cy="42" r="2"/>
	<polygon points="26,5 26,11 20,11 20,13 26,13 26,19 28,19 28,13 34,13 34,11 28,11 28,5 	"/>
</g>
</svg>
