<?xml version="1.0" encoding="utf-8"?><svg xmlns="http://www.w3.org/2000/svg"  height="48" viewBox="0 0 48 48" width="48"><path d="M0 0h48v48H0z" fill="none"/>
<g id="Shopicon">
	<path d="M28.163,22.611c1.706-0.079,3.271-1.061,4.121-2.602c0.851-1.537,0.864-3.43,0.075-4.983
		c0.79-1.553,0.775-3.445-0.075-4.983v-0.001c-0.854-1.543-2.42-2.51-4.114-2.589c-0.907-1.493-2.502-2.427-4.225-2.427
		c-1.723,0-3.317,0.934-4.225,2.427c-1.695,0.079-3.262,1.046-4.114,2.59c-0.851,1.538-0.865,3.43-0.074,4.983
		c-0.79,1.554-0.776,3.446,0.074,4.984c0.852,1.54,2.417,2.521,4.121,2.601c0.729,1.192,1.898,2.015,3.218,2.299v19.116h2V24.91
		C26.265,24.627,27.436,23.803,28.163,22.611z M23.945,23.026c-1.153,0-2.217-0.722-2.711-1.839l-0.318-0.657l-0.718,0.068
		c-1.143,0.104-2.263-0.51-2.842-1.556c-0.595-1.076-0.531-2.433,0.162-3.455l0.38-0.562l-0.38-0.562
		c-0.693-1.022-0.757-2.378-0.162-3.455c0.582-1.053,1.712-1.659,2.865-1.549l0.72,0.07l0.292-0.662
		c0.493-1.119,1.558-1.843,2.712-1.843c1.155,0,2.219,0.724,2.712,1.843l0.292,0.662l0.72-0.07c1.153-0.111,2.281,0.496,2.865,1.55
		c0.595,1.076,0.531,2.433-0.161,3.454l-0.381,0.562l0.38,0.562c0.693,1.022,0.757,2.379,0.162,3.455
		c-0.536,0.971-1.53,1.573-2.593,1.573c-0.083,0-0.165-0.01-0.277-0.02l-0.718-0.068l-0.291,0.659
		C26.162,22.305,25.099,23.026,23.945,23.026z"/>
	<circle cx="23.945" cy="15.027" r="2"/>
	<path d="M39.102,30.027c-2,0-6.82,0.322-9.712,3.214c-2.054,2.054-2.054,5.383,0,7.437c1.027,1.027,2.373,1.54,3.719,1.54
		s2.692-0.513,3.719-1.54c3.719-3.719,3.187-10.624,3.187-10.624S39.673,30.027,39.102,30.027z M35.413,39.263
		c-0.616,0.615-1.434,0.954-2.304,0.954c-0.87,0-1.689-0.339-2.304-0.954c-1.271-1.271-1.271-3.338,0-4.609
		c1.964-1.964,5.284-2.469,7.197-2.591C37.876,34.095,37.355,37.321,35.413,39.263z"/>
	<path d="M8.788,30.096c-0.572,0-0.912,0.026-0.912,0.026s-0.531,6.906,3.187,10.624c1.027,1.027,2.373,1.54,3.719,1.54
		s2.692-0.513,3.719-1.54c2.054-2.054,2.054-5.383,0-7.437C15.608,30.417,10.788,30.096,8.788,30.096z M17.086,39.332
		c-0.615,0.615-1.434,0.954-2.304,0.954s-1.689-0.339-2.304-0.954c-1.957-1.957-2.473-5.173-2.594-7.2
		c1.912,0.122,5.237,0.626,7.202,2.591C18.357,35.994,18.357,38.062,17.086,39.332z"/>
</g>
</svg>
