<?xml version="1.0" encoding="utf-8"?><svg xmlns="http://www.w3.org/2000/svg"  height="48" viewBox="0 0 48 48" width="48"><path d="M0 0h48v48H0z" fill="none"/>
<g id="Shopicon">
	<polygon points="19.945,27.026 27.945,27.026 27.945,30.44 32.359,26.026 27.945,21.612 27.945,25.026 19.945,25.026 
		19.945,21.612 15.531,26.026 19.945,30.44 	"/>
	<path d="M39.945,14c1.64,0,2.974-1.334,2.974-2.974c0-1.639-1.334-2.973-2.974-2.973c-1.639,0-2.973,1.334-2.973,2.973
		C36.972,12.666,38.306,14,39.945,14z M39.945,10.054c0.537,0,0.974,0.437,0.974,0.973c0,0.537-0.437,0.974-0.974,0.974
		s-0.973-0.437-0.973-0.974C38.972,10.49,39.408,10.054,39.945,10.054z"/>
	<path d="M40,16.026c-2.206,0-4,1.794-4,4V28c0,1.838,1.253,3.375,2.945,3.841v9.186h2v-9.151C42.694,31.448,44,29.879,44,28v-7.974
		C44,17.82,42.206,16.026,40,16.026z M42,28c0,1.103-0.897,2-2,2s-2-0.897-2-2v-7.974c0-1.103,0.897-2,2-2s2,0.897,2,2V28z"/>
	<path d="M8.945,41.026v-9.151C10.694,31.448,12,29.879,12,28v-8c0-2.206-1.794-4-4-4s-4,1.794-4,4v8
		c0,1.838,1.253,3.375,2.945,3.841v9.186H8.945z M6,28v-8c0-1.103,0.897-2,2-2s2,0.897,2,2v8c0,1.103-0.897,2-2,2S6,29.103,6,28z"/>
	<path d="M7.945,14c1.64,0,2.974-1.334,2.974-2.974c0-1.639-1.334-2.973-2.974-2.973c-1.639,0-2.973,1.334-2.973,2.973
		C4.972,12.666,6.306,14,7.945,14z M7.945,10.054c0.537,0,0.974,0.437,0.974,0.973C8.918,11.563,8.481,12,7.945,12
		s-0.973-0.437-0.973-0.974C6.972,10.49,7.408,10.054,7.945,10.054z"/>
</g>
</svg>
