<?xml version="1.0" encoding="utf-8"?><svg xmlns="http://www.w3.org/2000/svg"  height="48" viewBox="0 0 48 48" width="48"><path d="M0 0h48v48H0z" fill="none"/>
<g id="Shopicon">
	<path d="M32.106,18.397l-3.055,1.764c-1.004-1.246-2.454-2.113-4.105-2.368v-3.53h-2v3.53c-1.651,0.255-3.101,1.121-4.105,2.368
		l-3.055-1.764l-1,1.732l3.055,1.764c-0.287,0.736-0.45,1.533-0.45,2.37s0.163,1.634,0.45,2.37l-3.055,1.764l1,1.732l3.055-1.764
		c1.004,1.247,2.454,2.114,4.106,2.369v3.529h2v-3.529c1.652-0.255,3.102-1.122,4.105-2.369l3.055,1.764l1-1.732l-3.055-1.764
		c0.287-0.736,0.45-1.534,0.45-2.37s-0.163-1.634-0.45-2.37l3.055-1.764L32.106,18.397z M28.501,24.264
		c0,2.512-2.043,4.556-4.555,4.556c-2.512,0-4.556-2.044-4.556-4.556s2.043-4.555,4.556-4.555
		C26.458,19.709,28.501,21.752,28.501,24.264z"/>
	<path d="M38.874,15.645c-1.423-2.464-4.077-3.994-6.927-3.994c-0.246,0-0.491,0.011-0.734,0.033
		c-1.273-2.789-4.069-4.657-7.267-4.657c-3.198,0-5.995,1.869-7.267,4.657c-0.243-0.022-0.488-0.033-0.734-0.033
		c-2.85,0-5.505,1.53-6.927,3.994c-1.599,2.768-1.379,6.123,0.398,8.619c-1.776,2.496-1.996,5.851-0.398,8.619
		c1.426,2.468,4.082,4.001,6.934,4.001c0.243,0,0.487-0.012,0.73-0.035c1.274,2.786,4.068,4.652,7.265,4.652
		s5.991-1.866,7.265-4.652c0.243,0.023,0.486,0.035,0.73,0.035c2.852,0,5.509-1.533,6.934-4.001
		c1.598-2.768,1.379-6.123-0.398-8.619C40.253,21.768,40.472,18.413,38.874,15.645z M37.142,31.883
		c-1.111,1.925-3.128,3.001-5.202,3.001c-0.7,0-1.404-0.132-2.084-0.386c-0.476,2.838-2.937,5.003-5.911,5.003
		s-5.435-2.165-5.911-5.003c-0.68,0.254-1.384,0.386-2.084,0.386c-2.074,0-4.09-1.076-5.202-3.001
		c-1.486-2.574-0.843-5.788,1.376-7.619c-2.219-1.832-2.863-5.045-1.376-7.619c1.111-1.923,3.124-2.994,5.195-2.994
		c0.701,0,1.409,0.123,2.091,0.377c0.477-2.837,2.938-5.001,5.91-5.001c2.972,0,5.433,2.164,5.91,5.001
		c0.682-0.254,1.39-0.377,2.091-0.377c2.071,0,4.084,1.071,5.195,2.994c1.486,2.574,0.843,5.788-1.376,7.619
		C37.984,26.096,38.628,29.309,37.142,31.883z"/>
</g>
</svg>
