<?xml version="1.0" encoding="utf-8"?><svg xmlns="http://www.w3.org/2000/svg"  height="48" viewBox="0 0 48 48" width="48"><path d="M0 0h48v48H0z" fill="none"/>
<g id="Shopicon">
	<path d="M37,13c2.206,0,4-1.794,4-4s-1.794-4-4-4c-0.732,0-1.409,0.212-2,0.556V5h-4c-7.01,0-12.958,3.606-15.942,9H12.5
		c-1.375,0-2.5,1.125-2.5,2.5v7c0,0.332,0.068,0.649,0.188,0.94C8.805,26.805,8,29.429,8,32c0,7.732,7.163,12,16,12s16-4.268,16-12
		c0-2.571-0.805-5.195-2.188-7.56C37.932,24.149,38,23.832,38,23.5v-7c0-1.375-1.125-2.5-2.5-2.5H35v-1.556
		C35.591,12.788,36.268,13,37,13z M37,7c1.103,0,2,0.897,2,2s-0.897,2-2,2s-2-0.897-2-2S35.897,7,37,7z M33,14H17.406
		C20.205,9.769,25.19,7,31,7h2V14z M36,16.5v7c0,0.271-0.229,0.5-0.5,0.5h-23c-0.271,0-0.5-0.229-0.5-0.5v-7
		c0-0.271,0.229-0.5,0.5-0.5h23C35.771,16,36,16.229,36,16.5z M34.164,39.263C31.651,41.028,28.041,42,24,42
		s-7.651-0.972-10.164-2.737C11.291,37.475,10,35.032,10,32c0-2.035,0.606-4.174,1.68-6.15C11.938,25.941,12.211,26,12.5,26h2.559
		c0.498,4.499,4.309,8,8.941,8s8.443-3.501,8.941-8H35.5c0.289,0,0.562-0.059,0.82-0.15C37.394,27.826,38,29.965,38,32
		C38,35.032,36.709,37.475,34.164,39.263z M17.08,26h13.84c-0.488,3.387-3.401,6-6.92,6S17.568,29.387,17.08,26z"/>
</g>
</svg>
