<?xml version="1.0" encoding="utf-8"?><svg xmlns="http://www.w3.org/2000/svg"  height="48" viewBox="0 0 48 48" width="48"><path d="M0 0h48v48H0z" fill="none"/>
<g id="Shopicon">
	<path d="M42,6H18c-2.2,0-4,1.8-4,4v4C7.4,14,2,19.4,2,26v12h4c0,3.314,2.686,6,6,6s6-2.686,6-6h8c0,3.314,2.686,6,6,6s6-2.686,6-6
		h4c2.2,0,4-1.8,4-4V10C46,7.8,44.2,6,42,6z M44,34c0,1.103-0.897,2-2,2h-4.349c-0.825-2.329-3.04-4-5.651-4s-4.827,1.671-5.651,4
		H18c-0.124,0-0.244-0.015-0.362-0.037c-0.34-0.941-0.907-1.771-1.638-2.427V10c0-1.103,0.897-2,2-2h24c1.103,0,2,0.897,2,2V34z
		 M36,38c0,2.206-1.794,4-4,4c-2.206,0-4-1.794-4-4s1.794-4,4-4C34.206,34,36,35.794,36,38z M16,38c0,2.206-1.794,4-4,4
		c-2.206,0-4-1.794-4-4s1.794-4,4-4C14.206,34,16,35.794,16,38z M14,16v9H4.051C4.554,19.954,8.824,16,14,16z M4,36v-9h10v5.349
		C13.374,32.127,12.702,32,12,32c-2.611,0-4.827,1.671-5.651,4H4z"/>
</g>
</svg>
