<?xml version="1.0" encoding="utf-8"?><svg xmlns="http://www.w3.org/2000/svg"  height="48" viewBox="0 0 48 48" width="48"><path d="M0 0h48v48H0z" fill="none"/>
<g id="Shopicon">
	<path d="M38,27H22c-2.757,0-5,2.243-5,5v1.374c-1.651-1.675-4.634-3.336-9.993-3.374L7,31V20H5v24h2v-5h10h24v5h2v-5v-2v-5
		C43,29.243,40.757,27,38,27z M7,32c8.049,0.059,9.696,4.084,9.967,5H7V32z M19,37v-5c0-1.654,1.346-3,3-3h16c1.654,0,3,1.346,3,3v5
		H19z"/>
	<path d="M14,28L14,28c2.2,0,4-1.8,4-4s-1.8-4-4-4h0c-2.2,0-4,1.8-4,4S11.8,28,14,28z M14,22c1.103,0,2,0.897,2,2s-0.897,2-2,2
		c-1.103,0-2-0.897-2-2S12.897,22,14,22z"/>
	<polygon points="29,18 31,18 31,13 36,13 36,11 31,11 31,6 29,6 29,11 24,11 24,13 29,13 	"/>
</g>
</svg>
