<?xml version="1.0" encoding="utf-8"?><svg xmlns="http://www.w3.org/2000/svg"  height="48" viewBox="0 0 48 48" width="48"><path d="M0 0h48v48H0z" fill="none"/>
<g id="Shopicon">
	<path d="M13,44h2c0-4.963,4.038-9,9-9v-2c-4.962,0-9-4.037-9-9h-2c0,4.963-4.038,9-9,9v2C8.962,35,13,39.037,13,44z M14,28.581
		c1.099,2.39,3.03,4.32,5.418,5.419c-2.389,1.099-4.319,3.029-5.418,5.419c-1.099-2.39-3.03-4.32-5.418-5.419
		C10.97,32.901,12.901,30.971,14,28.581z"/>
	<polygon points="38.999,32 36.999,32 36.999,37 32,37 32,39 36.999,39 36.999,44 38.999,44 38.999,39 44,39 44,37 38.999,37 	"/>
	<path d="M35,4h-2c0,4.963-4.038,9-9,9v2c4.962,0,9,4.037,9,9h2c0-4.963,4.038-9,9-9v-2C39.038,13,35,8.963,35,4z M34,19.419
		c-1.099-2.39-3.03-4.32-5.418-5.419c2.389-1.099,4.319-3.029,5.418-5.419c1.099,2.39,3.03,4.32,5.418,5.419
		C37.03,15.099,35.099,17.029,34,19.419z"/>
	<polygon points="9.001,16 11.001,16 11.001,11 16,11 16,9 11.001,9 11.001,4 9.001,4 9.001,9 4,9 4,11 9.001,11 	"/>
</g>
</svg>
