<?xml version="1.0" encoding="utf-8"?><svg xmlns="http://www.w3.org/2000/svg"  height="48" viewBox="0 0 48 48" width="48"><path d="M0 0h48v48H0z" fill="none"/>
<g id="Shopicon">
	<polygon points="36.161,18.134 42.146,21.093 43.032,19.3 37.165,16.399 37.587,9.868 35.591,9.739 35.16,16.401 25,22.268 
		25,10.535 30.555,6.832 29.445,5.168 24,8.798 18.555,5.168 17.445,6.832 23,10.535 23,22.268 12.839,16.401 12.41,9.739 
		10.414,9.868 10.834,16.399 4.968,19.3 5.855,21.093 11.839,18.134 21.999,24 11.839,29.866 5.855,26.907 4.968,28.7 
		10.834,31.601 10.414,38.132 12.41,38.261 12.839,31.599 23,25.732 23,37.465 17.445,41.168 18.555,42.832 24,39.202 
		29.445,42.832 30.555,41.168 25,37.465 25,25.732 35.16,31.599 35.591,38.261 37.587,38.132 37.165,31.601 43.032,28.7 
		42.146,26.907 36.161,29.866 26,24 	"/>
</g>
</svg>
