<?xml version="1.0" encoding="utf-8"?><svg xmlns="http://www.w3.org/2000/svg"  height="48" viewBox="0 0 48 48" width="48"><path d="M0 0h48v48H0z" fill="none"/>
<g id="Shopicon">
	<path d="M39.965,12.368h-4.349c0.222-0.626,0.349-1.298,0.349-2c0-3.314-2.686-6-6-6s-6,2.686-6,6c0,0.702,0.127,1.374,0.349,2
		h-0.698c0.222-0.626,0.349-1.298,0.349-2c0-3.314-2.686-6-6-6s-6,2.686-6,6c0,0.702,0.127,1.374,0.349,2H7.965c-2.2,0-4,1.8-4,4v24
		c0,2.2,1.8,4,4,4h32c2.2,0,4-1.8,4-4v-24C43.965,14.168,42.165,12.368,39.965,12.368z M29.965,6.368c2.206,0,4,1.794,4,4
		s-1.794,4-4,4c-2.206,0-4-1.794-4-4S27.759,6.368,29.965,6.368z M17.965,6.368c2.206,0,4,1.794,4,4s-1.794,4-4,4
		c-2.206,0-4-1.794-4-4S15.759,6.368,17.965,6.368z M5.965,16.368c0-1.103,0.897-2,2-2h5.537c1.099,1.225,2.688,2,4.463,2
		s3.365-0.775,4.463-2h0.123l0,0l-8,8l1.414,1.414l7-7v11.586h-17V16.368z M5.965,40.368v-10h17v12h-15
		C6.862,42.368,5.965,41.471,5.965,40.368z M41.965,40.368c0,1.103-0.897,2-2,2h-15v-12h17v-2h-17V16.782l7,7l1.414-1.414l-8-8l0,0
		h0.123c1.099,1.225,2.688,2,4.463,2s3.365-0.775,4.463-2h5.537c1.103,0,2,0.897,2,2V40.368z"/>
</g>
</svg>
