<?xml version="1.0" encoding="utf-8"?><svg xmlns="http://www.w3.org/2000/svg"  height="48" viewBox="0 0 48 48" width="48"><path d="M0 0h48v48H0z" fill="none"/>
<g id="Shopicon">
	<path d="M38.932,14H21.73c-1.743,0-3.33,0.957-4.141,2.499L14.162,23H9.766H9.47c-3.14,0-5.72,2.554-5.753,5.693l-0.055,5.296
		c-0.003,0.268,0.102,0.524,0.289,0.714C4.139,34.894,4.395,35,4.662,35h2.194c0.477,2.837,2.938,5,5.91,5s5.433-2.163,5.91-5h8.18
		c0.477,2.837,2.938,5,5.91,5s5.433-2.163,5.91-5H42c0.552,0,1-0.447,1-1V18.068C43,15.825,41.175,14,38.932,14z M19.358,17.431
		C19.823,16.548,20.732,16,21.73,16h17.202C40.072,16,41,16.928,41,18.068V23H16.423L19.358,17.431z M12.766,38
		c-2.206,0-4-1.794-4-4s1.794-4,4-4s4,1.794,4,4S14.971,38,12.766,38z M32.766,38c-2.206,0-4-1.794-4-4s1.794-4,4-4s4,1.794,4,4
		S34.971,38,32.766,38z M41,33h-2.324c-0.477-2.837-2.938-5-5.91-5s-5.433,2.163-5.91,5h-8.18c-0.477-2.837-2.938-5-5.91-5
		s-5.433,2.163-5.91,5H5.672l0.044-4.285C5.738,26.666,7.422,25,9.47,25h0.295h5H41V33z"/>
</g>
</svg>
