<?xml version="1.0" encoding="utf-8"?><svg xmlns="http://www.w3.org/2000/svg"  height="48" viewBox="0 0 48 48" width="48"><path d="M0 0h48v48H0z" fill="none"/>
<g id="Shopicon">
	<path d="M23.755,43.346c0.07,0.016,0.141,0.022,0.21,0.022c0.387,0,0.748-0.226,0.912-0.589c2.145-4.762,4.251-9.628,6.262-14.464
		c1.27-3.055,2.533-6.177,3.757-9.282c0.121-0.308,0.082-0.655-0.104-0.929c-0.186-0.273-0.495-0.438-0.826-0.438H25.96
		L25.899,6.362c-0.003-0.455-0.313-0.852-0.755-0.964c-0.446-0.112-0.904,0.09-1.122,0.49l-10.936,20
		c-0.169,0.31-0.162,0.686,0.018,0.989c0.181,0.304,0.507,0.49,0.86,0.49h9v15C22.965,42.84,23.294,43.247,23.755,43.346z
		 M15.651,25.368l8.269-15.124l0.045,8.428c0.003,0.551,0.45,0.995,1,0.995h7.529c-1.05,2.641-2.124,5.285-3.203,7.881
		c-1.401,3.372-2.85,6.76-4.326,10.115V26.368c0-0.553-0.447-1-1-1H15.651z"/>
</g>
</svg>
