<?xml version="1.0" encoding="utf-8"?><svg xmlns="http://www.w3.org/2000/svg"  height="48" viewBox="0 0 48 48" width="48"><path d="M0 0h48v48H0z" fill="none"/>
<g id="Shopicon">
	<g>
		<path d="M17,12v8c0,3.859,3.141,7,7,7s7-3.141,7-7v-8c0-3.859-3.141-7-7-7S17,8.141,17,12z M29,12v8c0,2.757-2.243,5-5,5
			s-5-2.243-5-5v-8c0-2.757,2.243-5,5-5S29,9.243,29,12z"/>
		<path d="M37,19.999c0,7.168-5.832,13-13,13s-13-5.832-13-13v-2H9v2c0,7.934,6.195,14.431,14,14.949V41h-7.02v2H32v-2h-7v-6.052
			c7.805-0.518,14-7.015,14-14.949v-2h-2V19.999z"/>
	</g>
</g>
</svg>
