<?xml version="1.0" encoding="utf-8"?><svg version="1.1" id="Shopicons" xmlns="http://www.w3.org/2000/svg" x="0" y="0" viewBox="0 0 48 48" xml:space="preserve"><style>.st1{fill:#fff}.st2,.st3{fill:none;stroke:#666;stroke-width:4;stroke-miterlimit:10}.st3{stroke-width:6}</style><g id="youtube_00000061448394814170383720000016063406834123263625_"><path d="M0 .005h48v48H0v-48z" fill="none"/><path d="M24 37.519c-.462 0-11.342-.009-14.223-.781a5.476 5.476 0 0 1-3.867-3.866c-.772-2.882-.781-8.619-.781-8.862s.009-5.98.781-8.861a5.477 5.477 0 0 1 3.868-3.867c2.88-.772 13.76-.781 14.222-.781s11.342.009 14.224.781a5.478 5.478 0 0 1 3.867 3.867c.771 2.881.78 8.618.78 8.861s-.009 5.98-.78 8.862a5.478 5.478 0 0 1-3.867 3.866c-2.882.772-13.762.781-14.224.781zm0-25.02c-3.072 0-11.523.128-13.705.713a3.474 3.474 0 0 0-2.453 2.452c-.704 2.628-.713 8.288-.713 8.345s.009 5.717.713 8.345a3.475 3.475 0 0 0 2.452 2.452c2.184.585 10.634.713 13.706.713s11.523-.128 13.706-.713a3.474 3.474 0 0 0 2.453-2.452c.703-2.628.712-8.288.712-8.345s-.009-5.717-.712-8.344v-.001a3.474 3.474 0 0 0-2.453-2.452c-2.183-.585-10.634-.713-13.706-.713z"/><path d="M20.887 29.986a1 1 0 0 1-1-1v-9.953a.998.998 0 0 1 1.5-.866l8.619 4.977a1 1 0 0 1 0 1.732l-8.619 4.977a1.012 1.012 0 0 1-.5.133zm1-9.221v6.488l5.619-3.244-5.619-3.244z"/></g></svg>