<?xml version="1.0" encoding="utf-8"?><svg xmlns="http://www.w3.org/2000/svg"  height="48" viewBox="0 0 48 48" width="48"><path d="M0 0h48v48H0z" fill="none"/>
<g id="Shopicon">
	<path d="M10.5,21.875c1.858,0,3.504-0.926,4.5-2.341c0.996,1.415,2.642,2.341,4.5,2.341s3.504-0.926,4.5-2.341
		c0.996,1.415,2.642,2.341,4.5,2.341s3.504-0.926,4.5-2.341c0.996,1.415,2.642,2.341,4.5,2.341c3.032,0,5.5-2.468,5.5-5.5V10.5
		c0-0.166-0.02-0.327-0.041-0.488v-0.003C42.981,9.842,43,9.673,43,9.5C43,7.019,40.981,5,38.5,5h-28
		c-0.305,0-0.61,0.031-0.861,0.084C6.951,5.514,5,7.792,5,10.5v5.875C5,19.407,7.467,21.875,10.5,21.875z M7,10.5
		c0-1.692,1.271-3.172,2.999-3.449C10.162,7.017,10.331,7,10.5,7h28C39.879,7,41,8.121,41,9.5c0,0.11-0.02,0.216-0.04,0.353
		l-0.019,0.129l0.036,0.302C40.987,10.354,41,10.426,41,10.5v5.875c0,1.93-1.57,3.5-3.5,3.5s-3.5-1.57-3.5-3.5V13h-2v3.375
		c0,1.93-1.57,3.5-3.5,3.5s-3.5-1.57-3.5-3.5V13h-2v3.375c0,1.93-1.57,3.5-3.5,3.5s-3.5-1.57-3.5-3.5V13h-2v3.375
		c0,1.93-1.57,3.5-3.5,3.5s-3.5-1.57-3.5-3.5V10.5z"/>
	<path d="M41,35v-2v-6h-2v6H21v-6h-2v6v2v6H9V27H7v16h34V35z M21,41v-6h18v6H21z"/>
</g>
</svg>
