<?xml version="1.0" encoding="utf-8"?><svg version="1.1" id="Shopicons" xmlns="http://www.w3.org/2000/svg" x="0" y="0" viewBox="0 0 48 48" xml:space="preserve"><style>.st1{fill:#fff}.st2,.st3{fill:none;stroke:#666;stroke-width:4;stroke-miterlimit:10}.st3{stroke-width:6}</style><g id="figma_00000072245511290134310680000015238161762706481314_"><path d="M0 0h48v48H0V0z" fill="none"/><path d="M33.587 18C35.627 16.775 37 14.548 37 12c0-3.859-3.141-7-7-7H18c-3.86 0-7 3.141-7 7 0 2.548 1.373 4.775 3.413 6C12.373 19.225 11 21.452 11 24s1.373 4.775 3.413 6C12.373 31.225 11 33.452 11 36c0 3.859 3.14 7 7 7s7-3.141 7-7v-7.111A6.977 6.977 0 0 0 30 31c3.859 0 7-3.141 7-7 0-2.548-1.373-4.775-3.413-6zM35 12c0 2.757-2.243 5-5 5h-5V7h5c2.757 0 5 2.243 5 5zm-22 0c0-2.757 2.243-5 5-5h5v10h-5c-2.757 0-5-2.243-5-5zm10 24c0 2.757-2.243 5-5 5s-5-2.243-5-5 2.243-5 5-5h5v5zm0-7h-5c-2.757 0-5-2.243-5-5s2.243-5 5-5h5v10zm7 0c-2.757 0-5-2.243-5-5s2.243-5 5-5 5 2.243 5 5-2.243 5-5 5z"/></g></svg>