<?xml version="1.0" encoding="utf-8"?><svg xmlns="http://www.w3.org/2000/svg"  height="48" viewBox="0 0 48 48" width="48"><path d="M0 0h48v48H0z" fill="none"/>
<g id="Shopicon">
	<path d="M36.039,20.711C37.828,19.443,39,17.36,39,15c0-3.866-3.134-7-7-7s-7,3.134-7,7c0,2.36,1.172,4.443,2.961,5.711
		c-1.351,0.483-2.593,1.192-3.671,2.097L7.423,5.94L6.009,7.354l10.68,10.68C16.463,18.013,16.233,18,16,18c-3.866,0-7,3.134-7,7
		c0,2.36,1.172,4.443,2.961,5.711C7.323,32.37,4,36.79,4,42h24c0-4.177-2.134-7.851-5.37-10h8.025l9.769,9.769l1.414-1.414
		L33.483,32H44C44,26.79,40.677,22.37,36.039,20.711z M27,15c0-2.757,2.243-5,5-5s5,2.243,5,5s-2.243,5-5,5S27,17.757,27,15z M11,25
		c0-2.757,2.243-5,5-5s5,2.243,5,5s-2.243,5-5,5S11,27.757,11,25z M25.799,40H6.201c0.929-4.559,4.97-8,9.799-8
		S24.87,35.441,25.799,40z M20.039,30.711c0.012-0.009,0.024-0.019,0.037-0.027c-0.001,0.013-0.005,0.026-0.006,0.039
		C20.059,30.719,20.049,30.715,20.039,30.711z M22.201,30c0.333-1.633,1.071-3.119,2.096-4.358L28.655,30H22.201z M25.715,24.232
		C27.434,22.839,29.62,22,32,22c4.829,0,8.87,3.441,9.799,8H31.483L25.715,24.232z"/>
</g>
</svg>
