<?xml version="1.0" encoding="utf-8"?><svg xmlns="http://www.w3.org/2000/svg"  height="48" viewBox="0 0 48 48" width="48"><path d="M0 0h48v48H0z" fill="none"/>
<g id="Shopicon">
	<path d="M24,30c3.314,0,6-2.686,6-6s-2.686-6-6-6s-6,2.686-6,6S20.686,30,24,30z M24,20c2.206,0,4,1.794,4,4s-1.794,4-4,4
		c-2.206,0-4-1.794-4-4S21.794,20,24,20z"/>
	<path d="M8.706,37.027c2.363-0.585,4.798-1.243,6.545-1.243c0.683,0,1.261,0.101,1.688,0.345c1.474,0.845,2.318,4.268,3.245,7.502
		C21.421,43.866,22.694,44,24,44s2.579-0.134,3.816-0.368c0.926-3.234,1.771-6.657,3.244-7.501c0.427-0.245,1.005-0.345,1.688-0.345
		c1.747,0,4.183,0.658,6.545,1.243c1.605-1.848,2.865-3.99,3.706-6.333c-2.344-2.406-4.872-4.891-4.872-6.694
		c0-1.804,2.528-4.288,4.872-6.694c-0.841-2.343-2.101-4.485-3.706-6.333c-2.363,0.585-4.798,1.243-6.545,1.243
		c-0.683,0-1.261-0.101-1.688-0.345c-1.474-0.845-2.318-4.268-3.245-7.502C26.579,4.134,25.306,4,24,4
		c-1.306,0-2.579,0.134-3.816,0.368c-0.926,3.234-1.771,6.657-3.244,7.501c-0.427,0.245-1.005,0.345-1.688,0.345
		c-1.747,0-4.183-0.658-6.546-1.243C7.101,12.821,5.841,14.962,5,17.306C7.344,19.712,9.872,22.196,9.872,24
		c0,1.804-2.527,4.288-4.872,6.694C5.841,33.037,7.101,35.179,8.706,37.027z M7.337,16.837c0.564-1.288,1.273-2.499,2.119-3.617
		c2.046,0.509,4.12,0.994,5.795,0.994c1.089,0,1.966-0.2,2.683-0.61c1.981-1.136,2.859-4.05,3.825-7.461C22.517,6.048,23.267,6,24,6
		s1.483,0.048,2.241,0.143c0.966,3.412,1.844,6.326,3.825,7.462c0.716,0.411,1.594,0.61,2.683,0.61c1.675,0,3.749-0.486,5.795-0.994
		c0.846,1.118,1.555,2.328,2.119,3.617c-2.398,2.466-4.534,4.812-4.534,7.163c0,2.35,2.137,4.697,4.534,7.163
		c-0.564,1.289-1.273,2.499-2.119,3.617c-2.046-0.509-4.12-0.995-5.795-0.995c-1.089,0-1.966,0.2-2.683,0.61
		c-1.981,1.136-2.859,4.05-3.825,7.462C25.483,41.952,24.733,42,24,42c-0.733,0-1.483-0.048-2.241-0.143
		c-0.966-3.412-1.845-6.326-3.825-7.462c-0.716-0.411-1.594-0.61-2.683-0.61c-1.675,0-3.749,0.486-5.795,0.994
		c-0.846-1.118-1.555-2.328-2.119-3.617c2.398-2.466,4.534-4.812,4.534-7.162C11.872,21.649,9.735,19.303,7.337,16.837z"/>
</g>
</svg>
