<?xml version="1.0" encoding="utf-8"?><svg xmlns="http://www.w3.org/2000/svg"  height="48" viewBox="0 0 48 48" width="48"><path d="M0 0h48v48H0z" fill="none"/>
<g id="Shopicon">
	<circle cx="34" cy="20" r="2"/>
	<path d="M38.965,12c-2.737-4.087-7.108-6.972-12.175-7.762c-0.239-0.041-0.478-0.08-0.721-0.11
		c-0.15-0.017-0.301-0.033-0.452-0.046C25.112,4.033,24.602,4,24.083,4c-0.014,0-0.028,0.002-0.042,0.002
		C24.028,4.002,24.014,4,24,4c-5.12,0-9.73,2.148-13.007,5.58L7.878,6.465L6.464,7.879l3.229,3.229C7.386,14.134,6,17.901,6,22
		c0,3.327,0.918,6.432,2.492,9.106l-1.718,1.718c-1.556,1.556-1.556,4.101,0,5.657l2.828,2.828c0.778,0.778,1.803,1.167,2.828,1.167
		c1.025,0,2.051-0.389,2.828-1.167l2.458-2.458C19.676,39.581,21.787,40,24,40c2.259,0,4.412-0.434,6.404-1.194l2.503,2.503
		c0.778,0.778,1.803,1.167,2.828,1.167c1.025,0,2.051-0.389,2.828-1.167l2.828-2.828c1.556-1.556,1.556-4.101,0-5.657l-1.821-1.821
		c0.571-0.985,1.047-2.027,1.425-3.118c1.762-0.417,3.087-1.999,3.087-3.884c0,0-0.083-8,0-8C41,16,38.965,12,38.965,12z
		 M40.535,25.938l-1.069,0.253l-0.36,1.038c-0.334,0.965-0.76,1.897-1.266,2.77l-0.771,1.33l1.087,1.087l1.821,1.821
		c0.375,0.375,0.581,0.877,0.581,1.414s-0.206,1.04-0.581,1.414l-2.828,2.828c-0.375,0.375-0.877,0.581-1.414,0.581
		c-0.537,0-1.04-0.206-1.414-0.581l-2.503-2.503l-0.916-0.916l-1.211,0.462C27.842,37.642,25.927,38,24,38
		c-1.885,0-3.763-0.344-5.583-1.023l-1.204-0.449l-0.909,0.909l-2.458,2.458c-0.375,0.375-0.877,0.581-1.414,0.581
		c-0.537,0-1.04-0.206-1.414-0.581l-2.828-2.828c-0.375-0.375-0.581-0.877-0.581-1.414s0.206-1.04,0.581-1.414l1.718-1.718
		l1.095-1.095l-0.785-1.334C8.766,27.628,8,24.831,8,22c0-8.802,7.145-15.967,15.939-16l0.033,0.002l0.078,0l0.091-0.001l0.006,0
		c0.381,0.002,0.79,0.026,1.293,0.074c0.135,0.012,0.268,0.026,0.383,0.039c0.212,0.026,0.421,0.061,0.659,0.101
		c4.367,0.681,8.284,3.162,10.763,6.813c0.386,0.722,2.054,3.57,4.801,4.599c-0.015,1.32,0.005,3.309,0.037,6.374
		C42.083,24.911,41.432,25.726,40.535,25.938z"/>
	<path d="M19.599,11.922l0.802,1.832c2.287-1,4.911-1,7.198,0l0.802-1.832C25.604,10.699,22.396,10.699,19.599,11.922z"/>
</g>
</svg>
