<?xml version="1.0" encoding="utf-8"?>
<svg version="1.1" xmlns="http://www.w3.org/2000/svg" xmlns:xlink="http://www.w3.org/1999/xlink" x="0px" y="0px"
	 viewBox="0 0 48 48" style="enable-background:new 0 0 48 48;" xml:space="preserve">
<g id="Your_Icons">
	<path d="M8,36h32c2.2,0,4-1.8,4-4V16c0-2.2-1.8-4-4-4H8c-2.2,0-4,1.8-4,4v16C4,34.2,5.8,36,8,36z M6,16c0-1.103,0.897-2,2-2h32
		c1.103,0,2,0.897,2,2v16c0,1.103-0.897,2-2,2h-6v-7h-2v7h-7v-9h-2v9h-7v-7h-2v7H8c-1.103,0-2-0.897-2-2V16z"/>
</g>
</svg>
