<?xml version="1.0" encoding="utf-8"?><svg xmlns="http://www.w3.org/2000/svg"  height="48" viewBox="0 0 48 48" width="48"><path d="M0 0h48v48H0z" fill="none"/>
<g id="Shopicon">
	<path d="M37.122,19.684c-0.463-0.525-0.952-1.022-1.49-1.46c-4.255-3.466-10.673-3.969-15.753-1.286
		c-0.207,0.102-0.338,0.173-0.369,0.19c-0.003,0.002-0.006,0.004-0.01,0.006c-0.444,0.25-0.853,0.52-1.244,0.797
		c-0.342,0.243-0.653,0.497-0.956,0.755c-0.029,0.025-0.062,0.049-0.091,0.074c-2.046,1.766-3.233,3.789-3.874,5.239H10.81
		c-4.307,0-7.81,3.503-7.81,7.81v3.19h4.09c0.477,2.837,2.938,5,5.91,5s5.433-2.164,5.91-5h8.18c0.477,2.837,2.938,5,5.91,5
		s5.433-2.164,5.91-5H43v-11h-2.419C39.642,22.384,38.482,20.938,37.122,19.684z M19.37,19.594c0.341-0.248,0.704-0.484,1.091-0.704
		c0.01-0.006,0.019-0.012,0.029-0.018c0.005-0.003,0.027-0.014,0.039-0.021c0.077-0.043,0.156-0.079,0.234-0.121
		c1.096-0.542,5.289-2.347,9.917-0.782c2.303,0.779,3.842,2.101,4.668,2.812c0.178,0.153,0.329,0.331,0.5,0.49
		c0.76,0.917,1.31,1.875,1.699,2.75H15.579c0.727-1.349,1.898-3.001,3.699-4.336C19.309,19.64,19.339,19.616,19.37,19.594z
		 M13,37.999c-2.206,0-4-1.794-4-4s1.794-4,4-4c2.206,0,4,1.794,4,4S15.206,37.999,13,37.999z M33,37.999c-2.206,0-4-1.794-4-4
		s1.794-4,4-4c2.206,0,4,1.794,4,4S35.206,37.999,33,37.999z M41,32.999h-2.09c-0.477-2.836-2.938-5-5.91-5s-5.433,2.163-5.91,5
		h-8.18c-0.477-2.836-2.938-5-5.91-5s-5.433,2.163-5.91,5H5v-1.19c0-3.203,2.606-5.81,5.81-5.81h1.732h1.127h1.004h23.598H39h2
		V32.999z"/>
</g>
</svg>
