<?xml version="1.0" encoding="utf-8"?><svg xmlns="http://www.w3.org/2000/svg"  height="48" viewBox="0 0 48 48" width="48"><path d="M0 0h48v48H0z" fill="none"/>
<g id="Shopicon">
	<path d="M18.344,40.651c2.816,0,5.633-1.072,7.777-3.217l2.829-2.828l-1.414-1.414l-2.829,2.828c-3.511,3.511-9.219,3.509-12.728,0
		s-3.509-9.219,0-12.728l2.828-2.829l-1.414-1.414l-2.828,2.829c-4.289,4.289-4.289,11.267,0,15.556
		C12.71,39.579,15.526,40.651,18.344,40.651z"/>
	<path d="M23.293,11.979c3.511-3.511,9.219-3.509,12.728,0s3.509,9.219,0,12.728l-2.828,2.829l1.414,1.414l2.828-2.829
		c4.289-4.289,4.289-11.267,0-15.556c-4.289-4.288-11.267-4.29-15.556,0l-2.829,2.828l1.414,1.414L23.293,11.979z"/>
	<rect x="15.999" y="23" transform="matrix(0.7071 -0.7071 0.7071 0.7071 -9.9411 24)" width="16.001" height="2"/>
</g>
</svg>
