<?xml version="1.0" encoding="utf-8"?><svg xmlns="http://www.w3.org/2000/svg"  height="48" viewBox="0 0 48 48" width="48"><path d="M0 0h48v48H0z" fill="none"/>
<g id="Shopicon">
	<path d="M35.945,12.116c0,0-5.243,4.173-5.243,9.042c0,2.689,2.347,4.869,5.243,4.869s5.243-2.18,5.243-4.869
		C41.188,16.289,35.945,12.116,35.945,12.116z M35.945,24.027c-1.788,0-3.243-1.287-3.243-2.869c0-2.372,1.807-4.812,3.243-6.314
		c1.436,1.502,3.243,3.942,3.243,6.314C39.188,22.74,37.733,24.027,35.945,24.027z"/>
	<path d="M13.945,43.026h8c2.757,0,5-2.243,5-5v-14c0-2.228-1.475-4.098-3.492-4.742c0.304-0.519,0.491-1.114,0.491-1.758v-1
		c0-1.93-1.57-3.5-3.5-3.5h-5c-1.93,0-3.5,1.57-3.5,3.5v1c0,0.644,0.187,1.239,0.491,1.758c-2.017,0.644-3.491,2.514-3.491,4.742v14
		C8.945,40.783,11.188,43.026,13.945,43.026z M10.945,24.026c0-1.654,1.346-3,3-3h1.5h5h1.5c1.654,0,3,1.346,3,3v14
		c0,1.654-1.346,3-3,3h-8c-1.654,0-3-1.346-3-3V24.026z M13.945,16.526c0-0.827,0.673-1.5,1.5-1.5h5c0.827,0,1.5,0.673,1.5,1.5v1
		c0,0.827-0.673,1.5-1.5,1.5h-5c-0.827,0-1.5-0.673-1.5-1.5V16.526z"/>
	<polygon points="16.945,13 18.945,13 18.945,7.026 37.945,7.026 37.945,5.026 9.945,5.026 9.945,7.026 16.945,7.026 	"/>
</g>
</svg>
