<?xml version="1.0" encoding="utf-8"?><svg xmlns="http://www.w3.org/2000/svg"  height="48" viewBox="0 0 48 48" width="48"><path d="M0 0h48v48H0z" fill="none"/>
<g id="Shopicon">
	<path d="M40.323,23.225C40.75,22.588,41,21.823,41,21c0-2.206-1.794-4-4-4h-1.183c1.317-0.89,2.171-2.289,2.171-3.869
		c0-4.869-5.5-9.042-5.5-9.042s-5.5,4.173-5.5,9.042c0,1.58,0.854,2.979,2.171,3.869h-8.552l3.671-7.343l-4.343-2.896L9.375,15.22
		l-0.082,0.073c-0.218,0.218-0.437,0.424-0.651,0.627C6.769,17.688,5,19.356,5,26v8c0,4.963,4.037,9,9,9h19c2.206,0,4-1.794,4-4
		c0-0.728-0.195-1.411-0.537-2H37c2.206,0,4-1.794,4-4c0-0.823-0.25-1.588-0.677-2.225C41.88,30.228,43,28.742,43,27
		S41.88,23.772,40.323,23.225z M32.487,6.748c1.521,1.49,3.5,3.977,3.5,6.383c0,1.582-1.57,2.869-3.5,2.869
		c-1.93,0-3.5-1.287-3.5-2.869C28.987,10.724,30.967,8.237,32.487,6.748z M39,29h-2H24v2h13c1.103,0,2,0.897,2,2s-0.897,2-2,2h-4h-9
		v2h9c1.103,0,2,0.897,2,2s-0.897,2-2,2H14c-3.859,0-7-3.141-7-7v-8c0-5.781,1.33-7.036,3.014-8.626
		c0.217-0.203,0.436-0.41,0.654-0.628l9.373-7.508l1.657,1.104L17.369,19H37c1.103,0,2,0.897,2,2s-0.897,2-2,2H24v2h13h2
		c1.103,0,2,0.897,2,2S40.103,29,39,29z"/>
</g>
</svg>
