<?xml version="1.0" encoding="utf-8"?><svg xmlns="http://www.w3.org/2000/svg"  height="48" viewBox="0 0 48 48" width="48"><path d="M0 0h48v48H0z" fill="none"/>
<g id="Shopicon">
	<circle cx="17.945" cy="29.004" r="2"/>
	<circle cx="29.945" cy="29.004" r="2"/>
	<path d="M30.964,20.845c2.299-0.734,3.98-3.915,3.98-7.84c0-4.486-2.196-8-5-8s-5,3.514-5,8c0,2.592,0.736,4.855,1.896,6.307
		c-0.935-0.195-1.901-0.307-2.896-0.307s-1.961,0.112-2.896,0.307c1.16-1.453,1.896-3.715,1.896-6.307c0-4.486-2.196-8-5-8
		s-5,3.514-5,8c0,3.926,1.682,7.106,3.98,7.84c-4.791,2.629-7.98,7.646-7.98,12.16c0,6.168,5.748,10,15,10s15-3.832,15-10
		C38.945,28.491,35.755,23.475,30.964,20.845z M29.945,7.005c1.419,0,3,2.464,3,6s-1.581,6-3,6s-3-2.464-3-6
		S28.526,7.005,29.945,7.005z M14.945,13.005c0-3.536,1.581-6,3-6s3,2.464,3,6s-1.581,6-3,6S14.945,16.541,14.945,13.005z
		 M24.945,40.984v-5.979h2v-2h-2V33h-2v0.005h-2v2h2v5.979c-5.976-0.215-12-2.392-12-7.979c0-5.436,5.799-12,13-12s13,6.564,13,12
		C36.945,38.591,30.921,40.769,24.945,40.984z"/>
</g>
</svg>
