<?xml version="1.0" encoding="UTF-8"?><svg id="Shopicons" xmlns="http://www.w3.org/2000/svg" viewBox="0 0 48 48"><defs><style>.cls-1{fill:none;}</style></defs><rect class="cls-1" width="48" height="48"/><rect x="12" y="23" width="4" height="2"/><rect x="18" y="23" width="4" height="2"/><rect x="12" y="29" width="4" height="2"/><rect x="18" y="29" width="4" height="2"/><rect x="12" y="35" width="4" height="2"/><rect x="18" y="35" width="4" height="2"/><path d="m41,43V5h-20v12h-9v-4h-2v4h-3v26h34Zm-16-24v22H9v-22h16Zm14-8h-9v2h9v4h-9v2h9v4h-9v2h9v4h-9v2h9v4h-9v2h9v4h-12v-24h-4V7h16v4Z"/></svg>