<svg xmlns="http://www.w3.org/2000/svg" height="48" width="48" viewBox="0 0 48 48">
  <title>Shopicons_Light_LinkOff</title>
  <path d="M0,0H48V48H0Z" transform="translate(0 0)" style="fill: none"/>
  <g>
    <polygon points="20.9 25.7 15.4 31.2 16.8 32.6 22.3 27.1 21.8 26.2 20.9 25.7"/>
    <polygon points="27.1 22.3 32.8 16.6 31.4 15.2 25.7 20.9 26.2 21.8 27.1 22.3"/>
    <polygon points="20 17 17 20 24 24 20 17"/>
    <polygon points="24 24 28 31 31 28 24 24"/>
    <path d="M22.5,38.2A9,9,0,0,1,9.8,25.5l2.8-2.8-1.4-1.4L8.4,24.1a11,11,0,0,0,7.8,18.8A11.32,11.32,0,0,0,24,39.7l2.8-2.8-1.4-1.4Z" transform="translate(0 0)"/>
    <path d="M39.8,8.2a11,11,0,0,0-15.6,0L21.4,11l1.4,1.4,2.8-2.8A9,9,0,1,1,38.3,22.3l-2.8,2.8,1.4,1.4,2.8-2.8A10.84,10.84,0,0,0,39.8,8.2Z" transform="translate(0 0)"/>
  </g>
</svg>
