<?xml version="1.0" encoding="utf-8"?><svg xmlns="http://www.w3.org/2000/svg"  height="48" viewBox="0 0 48 48" width="48"><path d="M0 0h48v48H0z" fill="none"/>
<g id="Shopicon">
	<rect x="17.048" y="22" width="13.952" height="2"/>
	<rect x="17.048" y="26" width="13.952" height="2"/>
	<rect x="19" y="30" width="10" height="2"/>
	<path d="M15,35v-0.094C17.201,37.409,20.417,39,24.005,39c3.582,0,6.794-1.586,8.994-4.083V35C34.821,35,43,28.37,43,24
		c0-3.12-2.816-4.928-7.729-4.994l-11.267-6.145l-11.266,6.145c-4.92,0.063-7.74,1.872-7.74,4.994C4.999,28.37,13.178,35,15,35z
		 M41,24c0,2.289-3.463,5.681-5.91,7.587c0.587-1.414,0.915-2.963,0.915-4.587v-5.971C38.211,21.152,41,21.751,41,24z
		 M14.005,20.594l10-5.455l10,5.455V27c0,5.514-4.486,10-10,10c-5.514,0-10-4.486-10-10V20.594z M12.005,21.028V27
		c0,1.629,0.329,3.181,0.92,4.599C10.476,29.695,6.999,26.294,6.999,24C6.999,21.747,9.797,21.15,12.005,21.028z"/>
</g>
</svg>
