<?xml version="1.0" encoding="utf-8"?><svg xmlns="http://www.w3.org/2000/svg"  height="48" viewBox="0 0 48 48" width="48"><path d="M0 0h48v48H0z" fill="none"/>
<g id="Shopicon">
	<path d="M30,42.023h6v-10.94c3.059-1.514,5-4.607,5-8.06v-2.001l-11.243,0.005c-0.591-2.615-2.305-4.851-4.757-6.064V4.023h-8
		v10.94c-3.059,1.514-5,4.607-5,8.06v19h16H30z M39,23.024c0,2.862-1.718,5.408-4.375,6.485L34,29.763v10.261h-4V29.763
		l-0.625-0.253C26.72,28.434,25.003,25.891,25,23.03L39,23.024z M14,40.023v-17c0-2.863,1.717-5.409,4.375-6.486L19,16.284V6.023h4
		v10.261l0.625,0.253c2.018,0.818,3.489,2.484,4.083,4.492L23,21.031v1.992c0,3.452,1.941,6.546,5,8.06v8.94H14z"/>
</g>
</svg>
