<?xml version="1.0" encoding="utf-8"?><svg xmlns="http://www.w3.org/2000/svg"  height="48" viewBox="0 0 48 48" width="48"><path d="M0 0h48v48H0z" fill="none"/>
<g id="Shopicon">
	<path d="M25.076,30.141v-9.022h-2v9.022c-1.722,0.446-3,1.997-3,3.859c0,2.209,1.791,4,4,4c2.209,0,4-1.791,4-4
		C28.076,32.138,26.798,30.587,25.076,30.141z"/>
	<path d="M24.076,6c-3.308,0-6,2.692-6,6v16.719c-1.281,1.454-2,3.333-2,5.281c0,4.411,3.589,8,8,8c4.411,0,8-3.589,8-8
		c0-1.949-0.72-3.827-2-5.281V12C30.076,8.692,27.385,6,24.076,6z M24.076,40c-3.314,0-6-2.686-6-6c0-1.775,0.775-3.365,2-4.463V12
		c0-2.2,1.8-4,4-4s4,1.8,4,4v17.537c1.225,1.098,2,2.688,2,4.463C30.076,37.314,27.39,40,24.076,40z"/>
</g>
</svg>
