<?xml version="1.0" encoding="utf-8"?><svg xmlns="http://www.w3.org/2000/svg"  height="48" viewBox="0 0 48 48" width="48"><path d="M0 0h48v48H0z" fill="none"/>
<g id="Shopicon">
	<path d="M24,19c-2.761,0-5,2.239-5,5s2.239,5,5,5s5-2.239,5-5S26.761,19,24,19z M24,27c-1.654,0-3-1.346-3-3c0-1.654,1.346-3,3-3
		s3,1.346,3,3C27,25.654,25.654,27,24,27z"/>
	<path d="M24,6c-2.761,0-5,2.239-5,5s2.239,5,5,5s5-2.239,5-5S26.761,6,24,6z M24,14c-1.654,0-3-1.346-3-3c0-1.654,1.346-3,3-3
		s3,1.346,3,3C27,12.654,25.654,14,24,14z"/>
	<path d="M24,32c-2.761,0-5,2.239-5,5s2.239,5,5,5s5-2.239,5-5S26.761,32,24,32z M24,40c-1.654,0-3-1.346-3-3s1.346-3,3-3
		s3,1.346,3,3S25.654,40,24,40z"/>
</g>
</svg>
