<?xml version="1.0" encoding="utf-8"?>
<svg version="1.1" xmlns="http://www.w3.org/2000/svg" xmlns:xlink="http://www.w3.org/1999/xlink" x="0px" y="0px"
	 viewBox="0 0 48 48" style="enable-background:new 0 0 48 48;" xml:space="preserve">
<g id="Shopicon">
	<path d="M25,22.053v-3.125c3.388-0.486,6-3.408,6-6.929c0-3.859-3.14-7-7-7s-7,3.141-7,7h2c0-2.757,2.243-5,5-5s5,2.243,5,5
		s-2.243,5-5,5h-1v5.053C12.971,22.604,5,31.306,5,42h38C43,31.306,35.029,22.604,25,22.053z M24,24c8.735,0,15.953,7.013,16.896,16
		H7.104C8.047,31.013,15.265,24,24,24z"/>
</g>
</svg>
