<?xml version="1.0" encoding="utf-8"?><svg xmlns="http://www.w3.org/2000/svg"  height="48" viewBox="0 0 48 48" width="48"><path d="M0 0h48v48H0z" fill="none"/>
<g id="Shopicon">
	<path d="M36,29h-1.045c-0.416-4.592-3.668-8.374-7.984-9.587c0.157-1.951-0.539-3.867-1.659-5.311l5.002-5.002l-1.414-1.414
		l-5.002,5.002c-1.106-0.86-2.44-1.436-3.898-1.619V4h-2v7.069c-1.458,0.183-2.792,0.759-3.898,1.619L9.101,7.687L7.687,9.101
		l5.002,5.002c-0.86,1.106-1.436,2.44-1.619,3.898H4v2h7.065c0.263,2.081,1.346,3.978,3.007,5.284
		c-0.546,1.145-0.908,2.396-1.027,3.716C3.083,28.276,2.064,42.444,12,43c0,0,24,0,24,0C45.257,42.674,45.269,29.33,36,29z M13,19
		c0.284-7.974,11.788-7.92,11.997,0.048c-3.922-0.389-7.741,1.491-9.895,4.505C13.779,22.418,13,20.76,13,19z M36,41H12
		c-2.757,0-5-2.243-5-5s2.243-5,5-5h3c-0.481-13.266,18.485-13.258,18,0h3C42.608,31.21,42.606,40.791,36,41z"/>
</g>
</svg>
