<?xml version="1.0" encoding="utf-8"?><svg version="1.1" id="Shopicons" xmlns="http://www.w3.org/2000/svg" x="0" y="0" viewBox="0 0 48 48" xml:space="preserve"><style>.st1{fill:#fff}.st2,.st3{fill:none;stroke:#666;stroke-width:4;stroke-miterlimit:10}.st3{stroke-width:6}</style><g id="twitter_00000027596267693224073670000002714103320573697683_"><path d="M0-.013h48v48H0v-48z" fill="none"/><path d="M17.937 42.491h-.141c-5.575-.03-10.165-1.867-12.593-5.039a4.616 4.616 0 0 1-.245-.358l-.101-.154a1.001 1.001 0 0 1 .824-1.566c2.534 0 6.696-1.122 10.578-4.208C4.126 23.96 4.901 13.96 7.105 9.553c.144-.287.417-.488.734-.54a.996.996 0 0 1 .867.28c5.558 5.558 12.348 7.113 14.316 7.052C23.36 11.688 27.258 8 32 8c1.86 0 3.633.562 5.152 1.63l5.48-.658a.996.996 0 0 1 .927.403c.213.292.252.676.103 1.005L41 16.217V17c0 9.534-2.823 16.53-8.392 20.794-3.903 2.989-9.244 4.697-14.671 4.697zm-10.26-5.286c2.211 2.055 5.883 3.263 10.131 3.286h.124c4.927 0 9.95-1.598 13.46-4.285C36.44 32.341 39 25.879 39 17v-1a.99.99 0 0 1 .09-.415l2.014-4.415-4.105.493a.992.992 0 0 1-.73-.201A6.936 6.936 0 0 0 32 10c-3.859 0-7 3.141-7 7 0 .501-.306.927-.818 1.139-1.927.801-9.614-.878-15.809-6.411-1.443 4.42-.834 12.503 10.101 18.391a1.002 1.002 0 0 1 .199 1.622c-3.718 3.367-7.886 4.975-10.996 5.464z"/></g></svg>