<?xml version="1.0" encoding="utf-8"?><svg xmlns="http://www.w3.org/2000/svg"  height="48" viewBox="0 0 48 48" width="48"><path d="M0 0h48v48H0z" fill="none"/>
<g id="Shopicon">
	<g>
		<polygon points="40.999,39.585 28.707,27.293 27.293,28.707 39.585,40.999 29.999,40.999 29.999,42.999 42.999,42.999 
			42.999,29.999 40.999,29.999 		"/>
		<polygon points="30,7 39.586,7 27.293,19.293 28.707,20.707 41,8.414 41,18 43,18 43,5 30,5 		"/>
		<polygon points="6.999,8.413 19.293,20.707 20.707,19.293 8.413,6.999 17.999,6.999 17.999,4.999 4.999,4.999 4.999,17.999 
			6.999,17.999 		"/>
		<polygon points="18,41 8.493,41 20.707,28.786 19.292,27.372 7,39.665 7,30.002 5,30.002 5,43 18,43 		"/>
	</g>
</g>
</svg>
