<?xml version="1.0" encoding="utf-8"?><svg xmlns="http://www.w3.org/2000/svg"  height="48" viewBox="0 0 48 48" width="48"><path d="M0 0h48v48H0z" fill="none"/>
<g id="Shopicon">
	<path d="M30,8c0-2.2-1.8-4-4-4h-4c-2.2,0-4,1.8-4,4v4H8v32h32V12H30V8z M38,42H10V14h12h4h12V42z M20,12V8c0-1.103,0.897-2,2-2h4
		c1.103,0,2,0.897,2,2v4H20z"/>
	<polygon points="28.95,21.636 24,26.586 19.05,21.636 17.636,23.05 22.586,28 17.636,32.95 19.05,34.364 24,29.414 28.95,34.364 
		30.364,32.95 25.414,28 30.364,23.05 	"/>
	<circle cx="32.485" cy="28" r="2"/>
	<circle cx="24" cy="36.485" r="2"/>
	<circle cx="15.515" cy="28" r="2"/>
	<circle cx="24" cy="19.515" r="2"/>
</g>
</svg>
