<?xml version="1.0" encoding="UTF-8"?><svg id="Shopicons" xmlns="http://www.w3.org/2000/svg" viewBox="0 0 48 48"><defs><style>.cls-1{fill:none;}</style></defs><polyline class="cls-1" points="48 48 0 48 0 0 48 0"/><path d="m34,33c-3.75,0-6.27-3.06-8.5-5.77-.51-.62-1.01-1.23-1.51-1.78-.64.7-1.24,1.43-1.83,2.13-2.3,2.78-4.47,5.41-8.17,5.41-4.96,0-9-4.04-9-9s4.04-9,9-9c3.69,0,5.87,2.63,8.17,5.41.59.71,1.19,1.44,1.83,2.13.5-.55.99-1.15,1.51-1.78,2.22-2.7,4.75-5.77,8.5-5.77,4.96,0,9,4.04,9,9s-4.04,9-9,9Zm-8.62-9c.57.63,1.12,1.3,1.67,1.96,2.13,2.59,4.15,5.04,6.96,5.04,3.86,0,7-3.14,7-7s-3.14-7-7-7c-2.81,0-4.82,2.45-6.96,5.04-.54.66-1.1,1.33-1.67,1.96Zm-11.38-7c-3.86,0-7,3.14-7,7s3.14,7,7,7c2.75,0,4.55-2.17,6.63-4.69.63-.76,1.28-1.55,1.99-2.31-.71-.76-1.35-1.55-1.99-2.31-2.08-2.52-3.88-4.69-6.63-4.69Z"/></svg>