<?xml version="1.0" encoding="utf-8"?><svg xmlns="http://www.w3.org/2000/svg"  height="48" viewBox="0 0 48 48" width="48"><path d="M0 0h48v48H0z" fill="none"/>
<g id="Shopicon">
	<path d="M40,12h-2.586l4-4L40,6.586L34.586,12H32.66l-3.464-6H18.804l-3.464,6H8c-2.2,0-4,1.8-4,4v18c0,2.2,1.8,4,4,4h0.586l-2,2
		L8,41.414L11.414,38H40c2.2,0,4-1.8,4-4V16C44,13.8,42.2,12,40,12z M42,34c0,1.103-0.897,2-2,2H13.414l7.113-7.113
		C21.508,29.585,22.704,30,24,30c3.314,0,6-2.686,6-6c0-1.296-0.415-2.492-1.113-3.473L35.414,14H40c1.103,0,2,0.897,2,2V34z M6,34
		V16c0-1.103,0.897-2,2-2h7.34h1.155l0.577-1l2.887-5h8.083l2.887,5l0.577,1h1.08l-5.113,5.113C26.492,18.415,25.296,18,24,18
		c-3.314,0-6,2.686-6,6c0,1.296,0.415,2.492,1.113,3.473L10.586,36H8C6.897,36,6,35.103,6,34z M28,24c0,2.206-1.794,4-4,4
		c-0.74,0-1.424-0.216-2.019-0.567l5.452-5.452C27.784,22.576,28,23.26,28,24z M20,24c0-2.206,1.794-4,4-4
		c0.74,0,1.424,0.216,2.019,0.567l-5.452,5.452C20.216,25.424,20,24.74,20,24z"/>
</g>
</svg>
