<?xml version="1.0" encoding="utf-8"?><svg xmlns="http://www.w3.org/2000/svg"  height="48" viewBox="0 0 48 48" width="48"><path d="M0 0h48v48H0z" fill="none"/>
<g id="Shopicon">
	<path d="M24,43c5.076,0,9.847-1.977,13.435-5.565l-1.414-1.414C32.81,39.231,28.541,41,24,41c-9.374,0-17-7.626-17-17
		S14.626,7,24,7s17,7.626,17,17c0,2.757-2.019,5-4.5,5S32,26.757,32,24v-8h-2v2.721C28.534,17.056,26.393,16,24,16
		c-4.418,0-8,3.582-8,8s3.582,8,8,8c3.046,0,5.693-1.703,7.045-4.208C32.204,29.719,34.214,31,36.5,31c3.584,0,6.5-3.141,6.5-7
		c0-10.477-8.523-19-19-19S5,13.523,5,24S13.523,43,24,43z M24,30c-3.308,0-6-2.692-6-6s2.692-6,6-6s6,2.692,6,6S27.308,30,24,30z"
		/>
</g>
</svg>
