<?xml version="1.0" encoding="utf-8"?><svg xmlns="http://www.w3.org/2000/svg"  height="48" viewBox="0 0 48 48" width="48"><path d="M0 0h48v48H0z" fill="none"/>
<g id="Shopicon">
	<path d="M35.23,20.781C37.491,19.367,39,16.863,39,14c0-4.418-3.582-8-8-8s-8,3.582-8,8c0,2.863,1.509,5.367,3.77,6.781
		c-1.423,0.537-2.714,1.334-3.821,2.337C22.51,19.115,19.12,16,15,16c-4.418,0-8,3.582-8,8c0,2.863,1.509,5.367,3.77,6.781
		C6.232,32.492,3,36.862,3,42h24c0-4.177-2.134-7.851-5.37-10H43C43,26.862,39.768,22.492,35.23,20.781z M25,14c0-3.308,2.692-6,6-6
		s6,2.692,6,6s-2.692,6-6,6S25,17.308,25,14z M31,22c4.829,0,8.87,3.441,9.799,8H21.201c0.111-0.544,0.269-1.071,0.464-1.579
		c0.349-0.525,0.631-1.096,0.849-1.699C24.283,23.89,27.423,22,31,22z M9,24c0-3.308,2.692-6,6-6s6,2.692,6,6
		c0,0.651-0.108,1.277-0.3,1.864c-0.304,0.51-0.577,1.039-0.805,1.593C18.807,28.993,17.021,30,15,30C11.692,30,9,27.308,9,24z
		 M24.799,40H5.201c0.929-4.559,4.97-8,9.799-8S23.87,35.441,24.799,40z"/>
</g>
</svg>
