<?xml version="1.0" encoding="utf-8"?><svg xmlns="http://www.w3.org/2000/svg"  height="48" viewBox="0 0 48 48" width="48"><path d="M0 0h48v48H0z" fill="none"/>
<g id="Shopicon">
	<path d="M39,18c0-2.757-2.243-5-5-5h-6c-1.641,0-3.088,0.806-4,2.031C23.088,13.806,21.641,13,20,13h-6c-2.757,0-5,2.243-5,5v5H5v6
		v1v9h4v5h2v-5h26v5h2v-5h4v-9v-1v-6h-4V18z M28,15h6c1.654,0,3,1.346,3,3v8c0,1.654-1.346,3-3,3h-6c-1.654,0-3-1.346-3-3v-8
		C25,16.346,26.346,15,28,15z M24.026,29h-0.051c0.008-0.011,0.018-0.02,0.026-0.031C24.008,28.98,24.017,28.989,24.026,29z M11,18
		c0-1.654,1.346-3,3-3h6c1.654,0,3,1.346,3,3v8c0,1.654-1.346,3-3,3h-6c-1.654,0-3-1.346-3-3V18z M7,25h2v1
		c0,1.13,0.391,2.162,1.026,3H7V25z M41,37H7v-6h7h6h8h6h7V37z M41,25v4h-3.026C38.609,28.162,39,27.13,39,26v-1H41z"/>
</g>
</svg>
