<?xml version="1.0" encoding="utf-8"?><svg version="1.1" id="Your_Icons" xmlns="http://www.w3.org/2000/svg" x="0" y="0" viewBox="0 0 48 48" style="enable-background:new 0 0 48 48" xml:space="preserve"><style>.st1{fill:none;stroke:#666;stroke-width:4;stroke-linecap:round;stroke-linejoin:round;stroke-miterlimit:10}</style><path style="fill:none" d="M0 0h48v48H0z"/><path d="M29 13h12v2H29zM43 29c0-6.262-2.991-10-8-10s-8 3.738-8 10 2.991 10 8 10c4.048 0 6.052-1.494 7.615-3.108l-1.438-1.391C39.685 36.044 38.13 37 35 37c-4.672 0-5.788-4.015-5.97-7H43v-1zm-13.97-1c.183-2.985 1.298-7 5.97-7s5.788 4.015 5.97 7H29.03zM16.772 22.657A7.494 7.494 0 0 0 20 16.5c0-4.136-3.364-7.5-7.5-7.5H5v30h8.5c4.687 0 8.5-3.813 8.5-8.5 0-3.528-2.161-6.559-5.228-7.843zM12.5 11c3.033 0 5.5 2.468 5.5 5.5S15.533 22 12.5 22H7V11h5.5zm1 26H7V24h6.5c3.584 0 6.5 2.916 6.5 6.5S17.084 37 13.5 37z"/></svg>