<?xml version="1.0" encoding="utf-8"?><svg xmlns="http://www.w3.org/2000/svg"  height="48" viewBox="0 0 48 48" width="48"><path d="M0 0h48v48H0z" fill="none"/>
<g id="Shopicon">
	<path d="M20,19c3.86,0,7-3.141,7-7s-3.14-7-7-7s-7,3.141-7,7S16.14,19,20,19z M20,7c2.757,0,5,2.243,5,5s-2.243,5-5,5s-5-2.243-5-5
		S17.243,7,20,7z"/>
	<polygon points="41.186,23.419 31.485,37 9.586,37 5.293,41.293 6.707,42.707 10.414,39 32.586,39 36.293,42.707 37.707,41.293 
		33.723,37.309 42.814,24.581 	"/>
	<path d="M17,27.144l8.384,4.658c0.208,0.316,0.474,0.594,0.793,0.815c0.52,0.36,1.115,0.533,1.704,0.533
		c0.951,0,1.888-0.45,2.47-1.29l4.557-6.575c0.455-0.657,0.627-1.454,0.484-2.244c-0.144-0.79-0.584-1.476-1.241-1.93
		c-0.656-0.456-1.454-0.629-2.244-0.484c-0.79,0.143-1.476,0.583-1.931,1.24l-4.557,6.575c-0.186,0.269-0.312,0.564-0.401,0.87
		L17,24.856L6.64,30.611l0.971,1.748L17,27.144z M26.904,30.328c-0.048-0.265,0.009-0.53,0.16-0.748l4.557-6.574
		c0.151-0.218,0.379-0.364,0.644-0.412c0.061-0.011,0.123-0.017,0.183-0.017c0.202,0,0.397,0.061,0.564,0.177
		c0.218,0.15,0.364,0.379,0.412,0.644c0.048,0.265-0.009,0.53-0.16,0.748l-4.557,6.574c-0.315,0.453-0.939,0.565-1.392,0.252h0
		C27.098,30.821,26.952,30.593,26.904,30.328z"/>
	<path d="M35.861,18.645c0.338,0.234,0.731,0.356,1.134,0.356c0.12,0,0.241-0.011,0.362-0.033c0.525-0.096,0.982-0.39,1.287-0.829
		c0.627-0.904,0.402-2.152-0.505-2.783c-0.908-0.629-2.155-0.401-2.783,0.506C34.728,16.769,34.955,18.017,35.861,18.645z
		 M37.001,16.998l0.821,0.571L37,17.001C37,17,37,16.999,37.001,16.998z"/>
</g>
</svg>
