<?xml version="1.0" encoding="utf-8"?><svg xmlns="http://www.w3.org/2000/svg"  height="48" viewBox="0 0 48 48" width="48"><path d="M0 0h48v48H0z" fill="none"/>
<g id="Shopicon">
	<path d="M32,29.48c3.624-2.53,6-6.725,6-11.48c0-7.732-6.268-14-14-14s-14,6.268-14,14c0,4.755,2.376,8.95,6,11.48L16,44l8-4l8,4
		L32,29.48z M24,6c6.617,0,12,5.383,12,12s-5.383,12-12,12s-12-5.383-12-12S17.383,6,24,6z M24,37.764l-6,3l0-10.129
		C19.821,31.501,21.85,32,24,32c2.15,0,4.179-0.499,6-1.365l0,10.129L24,37.764z"/>
	<path d="M24,24c3.314,0,6-2.686,6-6s-2.686-6-6-6s-6,2.686-6,6S20.686,24,24,24z M24,14c2.206,0,4,1.794,4,4c0,2.206-1.794,4-4,4
		s-4-1.794-4-4C20,15.794,21.794,14,24,14z"/>
</g>
</svg>
