<?xml version="1.0" encoding="utf-8"?><svg xmlns="http://www.w3.org/2000/svg"  height="48" viewBox="0 0 48 48" width="48"><path d="M0 0h48v48H0z" fill="none"/>
<g id="Shopicon">
	<path d="M37.005,7c-3.309,0-6,2.691-6,6v3h2v-3c0-2.206,1.794-4,4-4s4,1.794,4,4v12H41h-1.329H32h-1.662
		c-1.741,0-3.158,1.346-3.305,3.049C26.19,27.401,25.148,27,24.005,27c-1.13,0-2.162,0.391-3,1.026V28c0-1.654-1.346-3-3-3h-1h-1h-8
		H7V13c0-2.206,1.794-4,4-4s4,1.794,4,4v3h2v-3c0-3.309-2.691-6-6-6s-6,2.691-6,6v12v2v3h0.005v2.4c0,0.069,0.016,0.133,0.02,0.2
		c-0.007,0.133-0.02,0.265-0.02,0.399c0,4.411,3.589,8,8,8s8-3.589,8-8c0-0.135-0.014-0.266-0.02-0.399
		c0.005-0.067,0.02-0.132,0.02-0.2V32c0-1.654,1.346-3,3-3s3,1.346,3,3v0.066c0,0.107,0.022,0.208,0.031,0.312
		C27.02,32.584,27.005,32.79,27.005,33c0,4.411,3.589,8,8,8s8-3.589,8-8c0-0.21-0.016-0.416-0.031-0.622
		c0.01-0.104,0.031-0.205,0.031-0.312v-3.733c0-0.017-0.005-0.032-0.005-0.048V27h0.005V13C43.005,9.691,40.313,7,37.005,7z
		 M13.005,37v-2c1.103,0,2-0.897,2-2h2C17.005,35.206,15.21,37,13.005,37z M35.005,37v-2c1.103,0,2-0.897,2-2h2
		C39.005,35.206,37.21,37,35.005,37z"/>
</g>
</svg>
