<?xml version="1.0" encoding="utf-8"?><svg xmlns="http://www.w3.org/2000/svg"  height="48" viewBox="0 0 48 48" width="48"><path d="M0 0h48v48H0z" fill="none"/>
<g id="Shopicon">
	<path d="M20,22c2.212,0,4.214-0.898,5.662-2.349C26.402,19.877,27.187,20,28,20c4.418,0,8-3.582,8-8s-3.582-8-8-8
		c-2.212,0-4.214,0.898-5.662,2.349C21.598,6.123,20.814,6,20,6c-4.418,0-8,3.582-8,8S15.582,22,20,22z M28,6c3.308,0,6,2.692,6,6
		s-2.692,6-6,6s-6-2.692-6-6S24.692,6,28,6z M20,8c0.349,0,0.689,0.036,1.022,0.094C20.374,9.25,20,10.58,20,12
		c0,2.826,1.469,5.304,3.682,6.728C22.664,19.522,21.388,20,20,20c-3.308,0-6-2.692-6-6S16.692,8,20,8z"/>
	<path d="M30,25c-6.198,0-11.255,2.224-12.63,5.302c-2.03-1.58-3.348-3.273-3.37-3.303C12.346,24.797,9.206,24.35,7,26
		c-2.206,1.654-2.654,4.794-1,7.001C6.307,33.409,13.625,43,24,43h19V32C43,28.075,37.29,25,30,25z M41,41H24
		c-9.387,0-16.118-8.824-16.4-9.199c-0.992-1.324-0.723-3.208,0.6-4.2c0.539-0.404,1.171-0.599,1.798-0.599
		c0.912,0,1.813,0.413,2.4,1.193C12.448,28.264,17.627,35,24,35h8v-1l0,0v-1h-7h-1c-1.004,0-1.981-0.216-2.909-0.558
		c-0.705-0.26-1.383-0.592-2.018-0.97C19.68,29.26,23.997,27,30,27c6.482,0,11,2.635,11,5V41z"/>
</g>
</svg>
