<?xml version="1.0" encoding="utf-8"?><svg xmlns="http://www.w3.org/2000/svg"  height="48" viewBox="0 0 48 48" width="48"><path d="M0 0h48v48H0z" fill="none"/>
<g id="Shopicon">
	<path d="M39,13H9v16H5v9v1v5h2v-5h34v5h2v-5v-1v-9h-4V13z M11,15h26v14h-3.026C34.609,28.162,35,27.13,35,26c0-2.757-2.243-5-5-5
		H18c-2.757,0-5,2.243-5,5c0,1.13,0.391,2.162,1.026,3H11V15z M15,26c0-1.654,1.346-3,3-3h12c1.654,0,3,1.346,3,3s-1.346,3-3,3H18
		C16.346,29,15,27.654,15,26z M41,31v6H7v-6h2h9h12h9H41z"/>
</g>
</svg>
