<?xml version="1.0" encoding="utf-8"?><svg xmlns="http://www.w3.org/2000/svg"  height="48" viewBox="0 0 48 48" width="48"><path d="M0 0h48v48H0z" fill="none"/>
<g id="Shopicon">
	<path d="M7,38c0,2.757,2.243,5,5,5s5-2.243,5-5s-2.243-5-5-5S7,35.243,7,38z M12,35c1.654,0,3,1.346,3,3s-1.346,3-3,3s-3-1.346-3-3
		S10.346,35,12,35z"/>
	<path d="M19,38c0,2.757,2.243,5,5,5s5-2.243,5-5s-2.243-5-5-5S19,35.243,19,38z M24,35c1.654,0,3,1.346,3,3s-1.346,3-3,3
		s-3-1.346-3-3S22.346,35,24,35z"/>
	<path d="M31,38c0,2.757,2.243,5,5,5s5-2.243,5-5s-2.243-5-5-5S31,35.243,31,38z M36,35c1.654,0,3,1.346,3,3s-1.346,3-3,3
		s-3-1.346-3-3S34.346,35,36,35z"/>
	<path d="M11,33h1h12h12h1c3.309,0,6-2.691,6-6s-2.691-6-6-6C24.898,21,20.002,5.854,19.954,5.701L19.734,5H5v22
		C5,30.309,7.691,33,11,33z M7,7h11.289c0.402,1.093,1.323,3.329,2.844,5.797l-6.168,6.168l1.414,1.414l5.878-5.878
		c0.02,0.028,0.037,0.055,0.057,0.083c1.226,1.706,2.561,3.162,3.986,4.36l-5.677,5.677l1.414,1.414l5.877-5.877
		C30.682,22.029,33.745,23,37,23c2.206,0,4,1.794,4,4s-1.794,4-4,4H11c-2.206,0-4-1.794-4-4V7z"/>
</g>
</svg>
