<?xml version="1.0" encoding="utf-8"?><svg xmlns="http://www.w3.org/2000/svg"  height="48" viewBox="0 0 48 48" width="48"><path d="M0 0h48v48H0z" fill="none"/>
<g id="Shopicon">
	<path d="M30,25c-2.761,0-5,2.239-5,5s2.239,5,5,5s5-2.239,5-5S32.761,25,30,25z M30,33c-1.654,0-3-1.346-3-3s1.346-3,3-3
		s3,1.346,3,3S31.654,33,30,33z"/>
	<path d="M23,18c0-2.761-2.239-5-5-5s-5,2.239-5,5s2.239,5,5,5S23,20.761,23,18z M15,18c0-1.654,1.346-3,3-3s3,1.346,3,3
		s-1.346,3-3,3S15,19.654,15,18z"/>
	<rect x="14.515" y="23" transform="matrix(0.7071 -0.7071 0.7071 0.7071 -9.9411 24)" width="18.97" height="2"/>
	<path d="M41,11c0-0.775-0.231-1.493-0.614-2.106C40.581,8.957,40.784,9,41,9c1.105,0,2-0.895,2-2c0-1.105-0.895-2-2-2s-2,0.895-2,2
		c0,0.216,0.043,0.419,0.106,0.614C38.493,7.231,37.775,7,37,7c-1.019,0-1.978,0.385-2.707,1.061
		c-7.519-4.877-17.385-3.888-23.788,2.504C6.909,14.153,4.929,18.925,4.929,24s1.98,9.847,5.576,13.436
		c3.711,3.704,8.585,5.556,13.46,5.556c4.874-0.001,9.749-1.853,13.459-5.556c6.398-6.386,7.395-16.228,2.518-23.731
		C40.616,12.976,41,12.018,41,11z M36.011,36.02c-6.643,6.632-17.451,6.631-24.093,0C8.701,32.809,6.929,28.54,6.929,24
		s1.772-8.809,4.989-12.02c3.308-3.302,7.648-4.993,12.021-4.993c3.462,0,6.944,1.061,9.951,3.22l0.859,0.616l0.568-0.892
		C35.688,9.349,36.318,9,37,9c1.103,0,2,0.897,2,2c0,0.682-0.348,1.311-0.93,1.683l-0.891,0.569l0.618,0.857
		C42.682,20.897,41.931,30.112,36.011,36.02z"/>
</g>
</svg>
