<?xml version="1.0" encoding="utf-8"?><svg xmlns="http://www.w3.org/2000/svg"  height="48" viewBox="0 0 48 48" width="48"><path d="M0 0h48v48H0z" fill="none"/>
<g id="Shopicon">
	<circle cx="20" cy="18" r="2"/>
	<circle cx="28" cy="18" r="2"/>
	<path d="M24,31c3.86,0,7-3.141,7-7h-2c0,2.757-2.243,5-5,5s-5-2.243-5-5h-2C17,27.859,20.14,31,24,31z"/>
	<path d="M24,42c9.941,0,18-8.059,18-18S33.941,6,24,6C14.059,6,6,14.059,6,24S14.059,42,24,42z M24,8c8.822,0,16,7.178,16,16
		s-7.178,16-16,16c-8.822,0-16-7.178-16-16S15.178,8,24,8z"/>
</g>
</svg>
