<?xml version="1.0" encoding="utf-8"?><svg xmlns="http://www.w3.org/2000/svg"  height="48" viewBox="0 0 48 48" width="48"><path d="M0 0h48v48H0z" fill="none"/>
<g id="Shopicon">
	<path d="M31.945,5.026h-16c-6.065,0-11,4.935-11,11v27h18v-16h9c6.065,0,11-4.935,11-11S38.011,5.026,31.945,5.026z M6.945,41.026
		v-25l0,0c0,0,0,0,0,0c0-4.963,4.037-9,9-9h9.695c-2.835,1.992-4.695,5.28-4.695,9v9.839c-0.068-0.47-0.456-0.838-0.945-0.838
		c-0.537,0-0.973,0.435-0.973,0.973s0.435,0.972,0.973,0.972c0.489,0,0.877-0.367,0.945-0.838v14.892H6.945z M31.945,25.026
		c-4.963,0-9-4.037-9-9s4.037-9,9-9s9,4.037,9,9S36.908,25.026,31.945,25.026z M22.945,22.331c0.736,1.047,1.648,1.959,2.695,2.695
		h-2.695V22.331z"/>
	<path d="M31.945,13.026c-1.654,0-3,1.346-3,3s1.346,3,3,3s3-1.346,3-3S33.6,13.026,31.945,13.026z M31.945,17.026
		c-0.552,0-1-0.448-1-1s0.448-1,1-1s1,0.448,1,1S32.497,17.026,31.945,17.026z"/>
	<path d="M16.027,25.055c-0.537,0-0.972,0.435-0.972,0.972S15.49,27,16.027,27S17,26.565,17,26.027S16.565,25.055,16.027,25.055z"/>
	<path d="M13,26.027c0-0.537-0.435-0.972-0.973-0.972s-0.972,0.435-0.972,0.972S11.49,27,12.027,27S13,26.565,13,26.027z"/>
	<path d="M8.027,25.055c-0.537,0-0.972,0.435-0.972,0.972S7.49,27,8.027,27S9,26.565,9,26.027S8.565,25.055,8.027,25.055z"/>
</g>
</svg>
