<?xml version="1.0" encoding="utf-8"?><svg xmlns="http://www.w3.org/2000/svg"  height="48" viewBox="0 0 48 48" width="48"><path d="M0 0h48v48H0z" fill="none"/>
<g id="Shopicon">
	<path d="M35.656,18.42l4.377-2.527l-1-1.732l-4.371,2.523c-0.908-1.321-2.053-2.466-3.374-3.375l2.523-4.371l-1.732-1l-2.527,4.377
		c-1.415-0.68-2.966-1.113-4.607-1.239V6.026h-2v5.051c-1.64,0.126-3.192,0.558-4.607,1.239l-2.527-4.377l-1.732,1l2.523,4.371
		c-1.321,0.908-2.467,2.053-3.375,3.375L8.856,14.16l-1,1.732l4.378,2.528c-0.68,1.415-1.113,2.966-1.238,4.606H5.945v2h5.051
		c0.126,1.64,0.558,3.192,1.238,4.606L7.856,32.16l1,1.732l4.371-2.524c0.908,1.322,2.054,2.467,3.375,3.375l-2.524,4.371l1.732,1
		l2.528-4.378c1.415,0.68,2.966,1.113,4.606,1.238v5.051h2v-5.051c1.64-0.126,3.192-0.558,4.606-1.238l2.528,4.378l1.732-1
		l-2.524-4.371c1.321-0.908,2.467-2.053,3.375-3.375l4.371,2.523l1-1.732l-4.377-2.527c0.68-1.415,1.113-2.966,1.239-4.607h5.051v-2
		h-5.051C36.769,21.386,36.336,19.834,35.656,18.42z M34.945,24.026c0,6.065-4.935,11-11,11s-11-4.935-11-11s4.935-11,11-11
		S34.945,17.961,34.945,24.026z"/>
	<path d="M24.945,21.026c0,1.103,0.897,2,2,2s2-0.897,2-2s-0.897-2-2-2S24.945,19.924,24.945,21.026z M26.946,21.027
		c-0.001,0-0.001-0.001-0.001-0.002l1,0.001L26.946,21.027z"/>
	<path d="M22.972,27.026c0-1.117-0.909-2.026-2.026-2.026c-1.118,0-2.027,0.909-2.027,2.026c0,1.118,0.909,2.027,2.027,2.027
		C22.062,29.054,22.972,28.145,22.972,27.026z"/>
</g>
</svg>
