<?xml version="1.0" encoding="utf-8"?><svg xmlns="http://www.w3.org/2000/svg"  height="48" viewBox="0 0 48 48" width="48"><path d="M0 0h48v48H0z" fill="none"/>
<g id="Shopicon">
	<path d="M41,25.999c-2.206-1.65-5.346-1.201-6.996,0.995c-0.024,0.032-1.344,1.727-3.374,3.308C29.255,27.223,24.198,25,18,25
		c-7.29,0-13,3.075-13,7v11h19c10.375,0,17.693-9.591,18-10C43.654,30.794,43.206,27.654,41,25.999z M40.4,31.8
		C40.118,32.176,33.387,41,24,41H7v-9c0-2.365,4.518-5,11-5c6.003,0,10.32,2.26,10.927,4.472c-0.635,0.378-1.312,0.709-2.016,0.969
		C25.982,32.784,25.004,33,24,33h-1.002H16v1v1h8c6.373,0,11.552-6.736,11.6-6.8c0.992-1.321,2.875-1.59,4.201-0.601
		C41.123,28.593,41.393,30.477,40.4,31.8z"/>
	<path d="M24,22.33c3.866,0,7-2.91,7-6.5c0-6.5-7-12.071-7-12.071S17,9.33,17,15.83C17,19.42,20.134,22.33,24,22.33z M24,6.457
		c1.823,1.792,5,5.473,5,9.373c0,2.481-2.243,4.5-5,4.5s-5-2.019-5-4.5C19,11.931,22.176,8.249,24,6.457z"/>
</g>
</svg>
