<?xml version="1.0" encoding="utf-8"?><svg xmlns="http://www.w3.org/2000/svg"  height="48" viewBox="0 0 48 48" width="48"><path d="M0 0h48v48H0z" fill="none"/>
<g id="Shopicon">
	<path d="M23,5v3.05c-7.236,0.513-13,6.514-13,13.796V36H7v2h11c0,3.314,2.686,6,6,6s6-2.686,6-6h11v-2h-3V21.846
		c0-3.808-1.575-7.269-4.107-9.785C31.573,9.777,28.452,8.295,25,8.05V5H23z M36,36H12V21.846C12,15.314,17.383,10,24,10
		c3.191,0,6.206,1.238,8.484,3.48C34.751,15.733,36,18.704,36,21.846V36z M24,42c-2.206,0-4-1.794-4-4h8C28,40.206,26.206,42,24,42z
		"/>
</g>
</svg>
