<?xml version="1.0" encoding="utf-8"?><svg xmlns="http://www.w3.org/2000/svg"  height="48" viewBox="0 0 48 48" width="48"><path d="M0 0h48v48H0z" fill="none"/>
<g id="Shopicon">
	<path d="M8.347,27.067l1.85-1.851L19,29.618L19,11c0-1.103,0.897-2,2-2s2,0.897,2,2v9h2v-9h0.001V9c0-1.103,0.896-2,1.999-2
		s2,0.897,2,2v2v9h2v-9c0-1.103,0.897-2,2-2s2,0.897,2,2v4v5h2v-5c0-1.103,0.897-2,2-2s2,0.897,2,2v9h2v-9c0-2.206-1.794-4-4-4
		c-0.728,0-1.411,0.195-2,0.537V11c0-2.206-1.794-4-4-4c-0.823,0-1.588,0.25-2.225,0.677C30.228,6.12,28.742,5,27,5
		s-3.228,1.12-3.775,2.677C22.589,7.25,21.823,7,21,7c-2.206,0-4,1.794-4,4l0,15.382l-7.197-3.599l-4.15,4.149l9.573,11.699
		l0.073,0.08C17.407,40.82,19.587,43,22,43v-2c-1.585,0-3.467-1.882-5.226-3.634L8.347,27.067z"/>
	<circle cx="33" cy="34" r="2"/>
	<path d="M43,32c-0.738,0-1.376,0.405-1.723,1H39.92c-0.17-1.183-0.636-2.269-1.322-3.184l0.891-0.891
		c0.666,0.176,1.403,0.011,1.925-0.511c0.781-0.781,0.781-2.047,0-2.828c-0.781-0.781-2.047-0.781-2.828,0
		c-0.522,0.522-0.687,1.26-0.511,1.926l-0.89,0.891C36.269,27.716,35.183,27.25,34,27.08v-1.357c0.595-0.346,1-0.984,1-1.723
		c0-1.105-0.895-2-2-2s-2,0.895-2,2c0,0.738,0.405,1.376,1,1.723v1.357c-1.183,0.171-2.269,0.636-3.184,1.322l-0.891-0.891
		c0.176-0.666,0.011-1.403-0.511-1.925c-0.781-0.781-2.047-0.781-2.828,0c-0.781,0.781-0.781,2.047,0,2.828
		c0.522,0.522,1.259,0.687,1.925,0.511l0.891,0.891C26.716,30.731,26.25,31.817,26.08,33h-1.357c-0.346-0.595-0.984-1-1.723-1
		c-1.105,0-2,0.895-2,2c0,1.104,0.895,2,2,2c0.738,0,1.376-0.405,1.723-1h1.357c0.17,1.183,0.636,2.269,1.322,3.185l-0.891,0.89
		c-0.666-0.176-1.403-0.011-1.926,0.511c-0.781,0.781-0.781,2.047,0,2.828c0.781,0.781,2.047,0.781,2.828,0
		c0.522-0.522,0.687-1.259,0.511-1.925l0.891-0.891c0.915,0.686,2.001,1.151,3.184,1.322v1.357c-0.595,0.346-1,0.984-1,1.723
		c0,1.104,0.895,2,2,2s2-0.896,2-2c0-0.739-0.405-1.376-1-1.723V40.92c1.183-0.171,2.269-0.636,3.184-1.322l0.891,0.891
		c-0.176,0.666-0.011,1.403,0.511,1.925c0.781,0.781,2.047,0.781,2.828,0c0.781-0.781,0.781-2.047,0-2.828
		c-0.522-0.522-1.259-0.687-1.925-0.511l-0.891-0.891c0.686-0.915,1.151-2.001,1.322-3.184h1.357c0.346,0.595,0.984,1,1.723,1
		c1.105,0,2-0.896,2-2C45,32.895,44.105,32,43,32z M33,39c-2.757,0-5-2.243-5-5s2.243-5,5-5s5,2.243,5,5S35.757,39,33,39z"/>
</g>
</svg>
