<?xml version="1.0" encoding="utf-8"?><svg xmlns="http://www.w3.org/2000/svg"  height="48" viewBox="0 0 48 48" width="48"><path d="M0 0h48v48H0z" fill="none"/>
<g id="Shopicon">
	<path d="M24,37c1.657,0,3-1.343,3-3c0-1.304-0.837-2.403-2-2.816V16h-2v15.184c-1.163,0.413-2,1.512-2,2.816
		C21,35.657,22.343,37,24,37z"/>
	<path d="M24,42c4.411,0,8-3.589,8-8c0-1.949-0.72-3.828-2-5.281V12c0-3.308-2.692-6-6-6s-6,2.692-6,6v16.719
		c-1.28,1.454-2,3.333-2,5.281C16,38.411,19.589,42,24,42z M20,29.537V12c0-2.2,1.8-4,4-4s4,1.8,4,4v17.537
		c1.225,1.098,2,2.688,2,4.463c0,3.314-2.686,6-6,6s-6-2.686-6-6C18,32.225,18.775,30.635,20,29.537z"/>
</g>
</svg>
