<?xml version="1.0" encoding="utf-8"?><svg xmlns="http://www.w3.org/2000/svg"  height="48" viewBox="0 0 48 48" width="48"><path d="M0 0h48v48H0z" fill="none"/>
<g id="Shopicon">
	<path d="M17.754,33.097l4.116,3.828h-8.719c-2.287,0-3.961-0.723-4.715-2.035s-0.535-3.123,0.618-5.099l3.128-5.362l-1.728-1.008
		l-3.128,5.362c-1.528,2.62-1.75,5.143-0.625,7.103s3.416,3.039,6.45,3.039h8.722l-4.12,3.83l1.361,1.465l6.77-6.293l-6.769-6.295
		L17.754,33.097z M22.942,37.921l0.006,0.006l-0.006,0.006V37.921z"/>
	<path d="M34.349,17.421l-4.294-7.362C28.528,7.441,26.431,6,24.152,6c-2.279,0-4.375,1.441-5.903,4.059l-3.305,5.667l-1.233-5.487
		l-1.951,0.438l2.025,9.019l8.848-2.676l-0.579-1.914l-5.382,1.627l3.305-5.665C21.131,9.089,22.614,8,24.152,8
		c1.538,0,3.021,1.089,4.175,3.066l4.294,7.362L34.349,17.421z M15.266,17.157l-0.002-0.008l0.01,0.006L15.266,17.157z"/>
	<path d="M33.928,31.174l1.951,0.438l1.232-5.485l2.138,3.665c1.152,1.976,1.372,3.786,0.618,5.099
		c-0.754,1.312-2.429,2.035-4.715,2.035h-4v2h4c3.033,0,5.324-1.079,6.449-3.039c1.126-1.96,0.904-4.482-0.625-7.103l-2.139-3.667
		l5.384,1.629l0.579-1.914l-8.846-2.677L33.928,31.174z M37.434,24.691l0.009,0.003l-0.011,0.007L37.434,24.691z"/>
</g>
</svg>
