<?xml version="1.0" encoding="utf-8"?><svg xmlns="http://www.w3.org/2000/svg"  height="48" viewBox="0 0 48 48" width="48"><path d="M0 0h48v48H0z" fill="none"/>
<g id="Shopicon">
	<path d="M19.218,20.692h1.564C21.998,23.296,24.63,25,27.538,25C31.652,25,35,21.652,35,17.538s-3.348-7.461-7.462-7.461H12.462
		C8.348,10.077,5,13.424,5,17.538S8.348,25,12.462,25C15.37,25,18.002,23.296,19.218,20.692z M17.605,19.358
		C16.833,21.536,14.767,23,12.462,23C9.45,23,7,20.55,7,17.538c0-3.011,2.45-5.461,5.462-5.461h15.076
		c3.012,0,5.462,2.45,5.462,5.461C33,20.55,30.55,23,27.538,23c-2.305,0-4.371-1.464-5.144-3.642l-0.235-0.666h-4.318L17.605,19.358
		z"/>
	<path d="M39,32c0,4.963-4.037,9-9,9h-2c-4.495,0-6.12-3.299-6.695-6.031C22.262,34.821,23,33.998,23,33c0-1.103-0.897-2-2-2h-2
		c-1.103,0-2,0.897-2,2s0.897,2,2,2h0.261c0.887,5,4.062,8,8.739,8h2c5.897,0,10.711-4.667,10.975-10.5H41V4h-2V32z"/>
</g>
</svg>
