<?xml version="1.0" encoding="utf-8"?>
<svg version="1.1" xmlns="http://www.w3.org/2000/svg" xmlns:xlink="http://www.w3.org/1999/xlink" x="0px" y="0px"
	 viewBox="0 0 48 48" style="enable-background:new 0 0 48 48;" xml:space="preserve">
<g id="Your_Icons">
	<path d="M24,25c3.859,0,7-3.14,7-7v-5h-2v5c0,2.757-2.243,5-5,5s-5-2.243-5-5v-5h-2v5C17,21.86,20.141,25,24,25z"/>
	<path d="M4,40c0,2.2,1.8,4,4,4h32c2.2,0,4-1.8,4-4V4H4V40z M6,6h36v34c0,1.103-0.897,2-2,2H8c-1.103,0-2-0.897-2-2V6z"/>
</g>
</svg>
