<?xml version="1.0" encoding="utf-8"?><svg xmlns="http://www.w3.org/2000/svg"  height="48" viewBox="0 0 48 48" width="48"><path d="M0 0h48v48H0z" fill="none"/>
<g id="Shopicon">
	<path d="M40.081,12.242h-7.34l-3.464-6H18.885l-3.464,6h-7.34c-2.2,0-4,1.8-4,4v18c0,2.2,1.8,4,4,4h32c2.2,0,4-1.8,4-4v-18
		C44.081,14.042,42.281,12.242,40.081,12.242z M42.081,34.242c0,1.103-0.897,2-2,2h-32c-1.103,0-2-0.897-2-2v-18
		c0-1.103,0.897-2,2-2h7.34h1.155l0.577-1l2.887-5h8.083l2.887,5l0.577,1h1.155h7.34c1.103,0,2,0.897,2,2V34.242z"/>
	<path d="M24.081,18.242c-3.314,0-6,2.686-6,6s2.686,6,6,6s6-2.686,6-6S27.395,18.242,24.081,18.242z M24.081,28.242
		c-2.206,0-4-1.794-4-4s1.794-4,4-4s4,1.794,4,4S26.287,28.242,24.081,28.242z"/>
</g>
</svg>
