<?xml version="1.0" encoding="utf-8"?><svg xmlns="http://www.w3.org/2000/svg"  height="48" viewBox="0 0 48 48" width="48"><path d="M0 0h48v48H0z" fill="none"/>
<g id="Shopicon">
	<path d="M14.634,16.751l-0.776-1.844l-5.409,2.28C11.136,11.064,17.276,7,24,7c9.374,0,17,7.626,17,17h2c0-10.477-8.523-19-19-19
		C16.615,5,9.853,9.382,6.77,16.027l-1.719-5.085l-1.895,0.641l2.96,8.756L14.634,16.751z M7.333,17.657l-0.011,0.005l-0.003-0.01
		L7.333,17.657z"/>
	<path d="M33.365,31.248l0.777,1.844l5.409-2.279C36.863,36.936,30.724,41,24,41c-9.374,0-17-7.626-17-17H5c0,10.477,8.523,19,19,19
		c7.385,0,14.148-4.383,17.23-11.029l1.719,5.086l1.895-0.641l-2.961-8.756L33.365,31.248z M40.667,30.343l0.011-0.005l0.003,0.01
		L40.667,30.343z"/>
	<path d="M22,15v2h-3v16h10V17h-3v-2H22z M27,19v12h-6V19h1h4H27z"/>
</g>
</svg>
