<?xml version="1.0" encoding="utf-8"?><svg xmlns="http://www.w3.org/2000/svg"  height="48" viewBox="0 0 48 48" width="48"><path d="M0 0h48v48H0z" fill="none"/>
<g id="Shopicon">
	<path d="M36,15h-1.045c-1.579-13.26-20.336-13.25-21.91,0C3.076,14.279,2.07,28.446,12,29c0,0,10.382,0,10.382,0l-4,8h8
		l-3.276,6.553l1.789,0.895L29.618,35h-8l3-6H36C45.264,28.671,45.262,15.328,36,15z M36,27H12c-2.757,0-5-2.243-5-5s2.243-5,5-5h3
		C14.519,3.734,33.485,3.742,33,17h3C42.608,17.21,42.606,26.791,36,27z"/>
</g>
</svg>
