<?xml version="1.0" encoding="utf-8"?><svg xmlns="http://www.w3.org/2000/svg"  height="48" viewBox="0 0 48 48" width="48"><path d="M0 0h48v48H0z" fill="none"/>
<g id="Shopicon">
	<polygon points="40.82,13.135 36.16,15.826 35.854,10.745 33.858,10.864 34.224,16.943 25,22.269 25,11.619 30.447,8.896 
		29.553,7.106 25,9.383 25,4.001 23,4.001 23,9.383 18.447,7.106 17.553,8.896 23,11.619 23,22.269 13.776,16.943 14.142,10.864 
		12.146,10.745 11.84,15.826 7.18,13.135 6.18,14.867 10.841,17.558 6.593,20.362 7.694,22.032 12.776,18.676 22,24.001 
		12.776,29.326 7.694,25.97 6.593,27.64 10.841,30.444 6.18,33.135 7.18,34.867 11.84,32.176 12.146,37.257 14.142,37.138 
		13.776,31.059 23,25.733 23,36.383 17.553,39.106 18.447,40.896 23,38.619 23,44.001 25,44.001 25,38.619 29.553,40.896 
		30.447,39.106 25,36.383 25,25.733 34.224,31.059 33.858,37.138 35.854,37.257 36.16,32.176 40.82,34.867 41.82,33.135 
		37.159,30.444 41.407,27.64 40.306,25.97 35.224,29.326 26,24.001 35.224,18.676 40.306,22.032 41.407,20.362 37.159,17.558 
		41.82,14.867 	"/>
</g>
</svg>
