<?xml version="1.0" encoding="utf-8"?><svg xmlns="http://www.w3.org/2000/svg" viewBox="0 0 48 48" style="enable-background:new 0 0 48 48" xml:space="preserve"><style>.st1{fill:none;stroke:#6f6;stroke-width:.1;stroke-miterlimit:10}</style><symbol id="Shopicons-Grid" viewBox="-22.745 -34.684 48 48"><path d="M25.155 13.216v-47.8h-47.8v47.8h47.8m.1.1h-48v-48h48v48z" style="fill:#6f6" id="XMLID_00000105400654839925421050000018315208264575551887_"/><path id="XMLID_00000024688220513227089890000013085234451001463177_" class="st1" d="M1.255 13.316v-48"/><path id="XMLID_00000102533929669153596810000007734548596057797027_" class="st1" d="M25.255-10.684h-48"/><path id="XMLID_00000132059502994885997840000014627399858779583632_" class="st1" d="M25.255-2.684h-48"/><path id="XMLID_00000057831610967033900710000015474808596887659698_" class="st1" d="M25.255-18.684h-48"/><path id="XMLID_00000041992709915725208680000011476046180342736038_" class="st1" d="M9.255-34.684v48"/><path id="XMLID_00000084523091567543825440000011498605845151394457_" class="st1" d="M-6.745-34.684v48"/><path id="XMLID_00000006683429203779327820000011890912226935375787_" class="st1" d="m25.005 13.066-47.5-47.5"/><path id="XMLID_00000005983013323817973470000000555777391571511172_" class="st1" d="m-22.495 13.066 47.5-47.5"/><circle id="XMLID_00000042008922316232439380000006089832895525128326_" transform="rotate(-45.001 1.256 -10.684)" class="st1" cx="1.255" cy="-10.684" r="10"/><circle id="XMLID_00000092442712374267472790000010952607141227911836_" class="st1" cx="1.255" cy="-10.684" r="20"/><path id="XMLID_00000127730152516812894070000014989998871075924378_" class="st1" d="M15.255 7.316h-28c-2.211 0-4-1.791-4-4v-28c0-2.209 1.789-4 4-4h28c2.211 0 4 1.791 4 4v28c0 2.209-1.789 4-4 4z"/><path id="XMLID_00000008842115703775271660000007166610627138159549_" class="st1" d="M17.255 5.316h-32a4 4 0 0 1-4-4v-24a4 4 0 0 1 4-4h32a4 4 0 0 1 4 4v24a4 4 0 0 1-4 4z"/><path id="XMLID_00000134223764381809317900000012496469460916222136_" class="st1" d="M17.255-26.684v32a4 4 0 0 1-4 4h-24a4 4 0 0 1-4-4v-32a4 4 0 0 1 4-4h24a4 4 0 0 1 4 4z"/></symbol><g id="Your_Icons"><path style="fill:none" d="M0 0h48v48H0z"/><path d="M29 12.5h12v3H29zM43.5 29c0-6.575-3.178-10.5-8.5-10.5s-8.5 3.925-8.5 10.5 3.178 10.5 8.5 10.5c3.422 0 5.733-.944 7.974-3.261l-2.155-2.086C39.416 35.602 37.954 36.5 35 36.5c-3.893 0-5.152-2.992-5.433-6H43.5V29zm-13.933-1.5c.281-3.008 1.54-6 5.433-6s5.152 2.992 5.433 6H29.567zM17.715 22.553A7.978 7.978 0 0 0 20.5 16.5c0-4.411-3.589-8-8-8h-8v31h9c4.962 0 9-4.037 9-9 0-3.44-1.942-6.432-4.785-7.947zM12.5 11.5c2.757 0 5 2.243 5 5s-2.243 5-5 5h-5v-10h5zm1 25h-6v-12h6c3.309 0 6 2.691 6 6s-2.691 6-6 6z"/></g></svg>