<?xml version="1.0" encoding="utf-8"?><svg xmlns="http://www.w3.org/2000/svg"  height="48" viewBox="0 0 48 48" width="48"><path d="M0 0h48v48H0z" fill="none"/>
<g id="Shopicon">
	<path d="M23.945,5.026c-8.447,0-15,11.826-15,22c0,9.72,5.888,16,15,16s15-6.28,15-16C38.945,16.853,32.393,5.026,23.945,5.026z
		 M23.945,7.026c6.234,0,11.414,8.2,12.694,16.28l-0.694-0.694l-3,3l-3-3l-3,3l-3-3l-3,3l-3-3l-3,3l-3-3l-0.694,0.694
		C12.531,15.226,17.711,7.026,23.945,7.026z M23.945,41.026c-6.284,0-13-3.678-13-14c0-0.198,0.006-0.398,0.012-0.598l0.988-0.988
		l3,3l3-3l3,3l3-3l3,3l3-3l3,3l3-3l0.988,0.988c0.005,0.2,0.012,0.4,0.012,0.598C36.945,37.349,30.229,41.026,23.945,41.026z"/>
</g>
</svg>
