<?xml version="1.0" encoding="utf-8"?>
<svg version="1.1" xmlns="http://www.w3.org/2000/svg" xmlns:xlink="http://www.w3.org/1999/xlink" x="0px" y="0px"
	 viewBox="0 0 48 48" style="enable-background:new 0 0 48 48;" xml:space="preserve">
<g id="Your_Icons">
	<path d="M40,36c2.2,0,4-1.8,4-4V8c0-2.2-1.8-4-4-4L8,4C5.8,4,4,5.8,4,8v36l8-8L40,36z M6,39.172V8c0-1.103,0.897-2,2-2l32,0
		c1.103,0,2,0.897,2,2v24c0,1.103-0.897,2-2,2l-28.828,0L6,39.172z"/>
	<circle cx="24" cy="20" r="2"/>
	<circle cx="32" cy="20" r="2"/>
	<circle cx="16" cy="20" r="2"/>
</g>
</svg>
