<?xml version="1.0" encoding="utf-8"?><svg xmlns="http://www.w3.org/2000/svg"  height="48" viewBox="0 0 48 48" width="48"><path d="M0 0h48v48H0z" fill="none"/>
<g id="Shopicon">
	<path d="M26,4.045H10c-2.2,0-4,1.8-4,4V32c0,2.2,1.8,4,4,4h5.003l0.098,0.649C15.648,40.27,18.614,43,22,43h19V27
		c0-3.355-1.354-4.645-1.463-4.737l-6.568-6.568l-2.664-2.664L30,12.726V8.045C30,5.845,28.2,4.045,26,4.045z M28,8.045v2.898
		c-0.776-0.475-1.665-0.743-2.6-0.743c-1.338,0-2.594,0.52-3.535,1.461c-0.943,0.936-1.463,2.188-1.465,3.526
		c-0.002,1.343,0.517,2.604,1.463,3.55l3.349,3.349l1.701,1.701L28,24.874V32c0,1.103-0.897,2-2,2h-7V6.045h7
		C27.103,6.045,28,6.942,28,8.045z M8,32V8.045c0-1.103,0.897-2,2-2h3V34h-3C8.897,34,8,33.103,8,32z M39,27v14H22
		c-2.405,0-4.521-1.999-4.921-4.649L17.026,36H26c2.2,0,4-1.8,4-4v-5.126l2.12,2.12l1.414-1.414L30,24.046V24h-0.046L25,19.046
		l-1.723-1.723c-0.567-0.567-0.878-1.324-0.877-2.133c0.001-0.802,0.312-1.552,0.877-2.113c1.122-1.121,3.079-1.127,4.214-0.025
		c0.01,0.01,0.022,0.016,0.032,0.025L33,18.554l5.147,5.146C38.155,23.708,39,24.58,39,27z"/>
</g>
</svg>
