<?xml version="1.0" encoding="utf-8"?><svg xmlns="http://www.w3.org/2000/svg"  height="48" viewBox="0 0 48 48" width="48"><path d="M0 0h48v48H0z" fill="none"/>
<g id="Shopicon">
	<path d="M3.945,20.027h4v24h32v-24h4l-20-16L3.945,20.027z M37.945,18.027v2v22h-28v-22v-2H9.647L23.945,6.588l14.298,11.439
		H37.945z"/>
	<path d="M19,23c0,2.761,2.239,5,5,5s5-2.239,5-5s-2.239-5-5-5S19,20.239,19,23z M24,20c1.654,0,3,1.346,3,3s-1.346,3-3,3
		c-1.654,0-3-1.346-3-3S22.346,20,24,20z"/>
	<path d="M16,36.027h16.055c0-4.435-3.592-8.027-8.027-8.027S16,31.592,16,36.027z M29.714,34.027H18.341
		C19.168,31.684,21.405,30,24.027,30S28.887,31.684,29.714,34.027z"/>
</g>
</svg>
