<?xml version="1.0" encoding="utf-8"?><svg xmlns="http://www.w3.org/2000/svg"  height="48" viewBox="0 0 48 48" width="48"><path d="M0 0h48v48H0z" fill="none"/>
<g id="Shopicon">
	<path d="M29,5h-9.444l0.507,1.352c0.032,0.085,0.241,0.628,0.63,1.403c-0.64,0.472-1.255,0.978-1.808,1.552
		c-1.398,1.45-2.455,3.177-3.119,5.046L8.707,7.293L7.293,8.707l7.881,7.881c-0.065,0.366-0.117,0.735-0.152,1.107L11,24.734V25
		c0,1.384,0.524,3,2,3h2v1.498c0,0.001,0,0.001,0,0.002s0,0.001,0,0.002V32c0,2.757,2.243,5,5,5h6v6h15V26.188
		c1.309-2.18,2-4.659,2-7.188C43,11.28,36.72,5,29,5z M20.325,10.694c0.42-0.436,0.882-0.827,1.362-1.195
		c1.445,2.269,3.865,4.998,7.338,5.439C29.279,19.934,31.576,28,39,28v9.586L17.363,15.949
		C17.883,13.991,18.898,12.174,20.325,10.694z M28,41v-6h-8c-1.654,0-3-1.346-3-3v-0.051C17.162,31.982,17.329,32,17.5,32h1
		c1.375,0,2.5-1.125,2.5-2.5S19.875,27,18.5,27h-1c-0.171,0-0.338,0.018-0.5,0.051V26h-3.828c-0.071-0.162-0.134-0.464-0.16-0.756
		l3.934-6.884L39,40.414V41H28z M39.153,25.374L39,25.618V26c-3.248,0-5.575-1.946-6.916-5.786C31.017,17.159,31,14.03,31,13.999
		L30.999,13H30c-3.815,0-6.342-3.876-7.44-6H29c6.617,0,12,5.383,12,12C41,21.249,40.361,23.453,39.153,25.374z"/>
	<rect x="4.586" y="26.586" transform="matrix(0.7071 -0.7071 0.7071 0.7071 -18.0417 12.4435)" width="2.828" height="2.828"/>
	<rect x="21.586" y="16.586" transform="matrix(0.7071 -0.7071 0.7071 0.7071 -5.9913 21.5354)" width="2.828" height="2.828"/>
	<rect x="4.586" y="34.586" transform="matrix(0.7071 -0.7071 0.7071 0.7071 -23.6985 14.7867)" width="2.828" height="2.828"/>
	<rect x="8.586" y="30.586" transform="matrix(0.7071 -0.7071 0.7071 0.7071 -19.6986 16.4436)" width="2.828" height="2.828"/>
</g>
</svg>
