<?xml version="1.0" encoding="utf-8"?><svg xmlns="http://www.w3.org/2000/svg"  height="48" viewBox="0 0 48 48" width="48"><path d="M0 0h48v48H0z" fill="none"/>
<g id="Shopicon">
	<circle cx="24" cy="34" r="2"/>
	<circle cx="24" cy="24" r="2"/>
	<circle cx="14" cy="24" r="2"/>
	<path d="M24,43c10.477,0,19-8.523,19-19v-1h-1c-2.312,0-4.442-1.357-5.429-3.458l-0.299-0.637l-0.7,0.065
		C35.385,18.989,35.193,19,35,19c-3.309,0-6-2.691-6-6c0-0.193,0.011-0.385,0.029-0.572l0.065-0.7l-0.637-0.299
		C26.357,10.442,25,8.312,25,6V5h-1C13.523,5,5,13.523,5,24S13.523,43,24,43z M23.067,7.025c0.321,2.451,1.779,4.647,3.933,5.896
		c0,0.026,0,0.053,0,0.079c0,4.411,3.589,8,8,8c0.026,0,0.053,0,0.079,0c1.248,2.153,3.444,3.611,5.896,3.933
		C40.489,33.875,33.061,41,24,41c-9.374,0-17-7.626-17-17C7,14.939,14.125,7.511,23.067,7.025z"/>
</g>
</svg>
