<?xml version="1.0" encoding="utf-8"?><svg xmlns="http://www.w3.org/2000/svg"  height="48" viewBox="0 0 48 48" width="48"><path d="M0 0h48v48H0z" fill="none"/>
<g id="Shopicon">
	<path d="M8,44h24.43c3.3,0,6.723-2.7,7.608-6l3.751-14c0.884-3.3-1.092-6-4.392-6c0,0-4.397,0-7.397,0s-2.128-3-2.128-3
		l0.924-3.448c0.854-3.188-1.055-6.494-4.243-7.348C26.039,4.066,25.52,4,25.01,4c-2.649,0-5.089,1.774-5.805,4.446L15.841,21
		c0,0-0.841,3-3.841,3c-2,0-4,0-4,0c-2.2,0-4,1.8-4,4v12C4,42.2,5.8,44,8,44z M6,28c0-1.103,0.897-2,2-2h4
		c3.572,0,5.334-2.917,5.773-4.482l3.364-12.554C21.605,7.219,23.197,6,25.01,6c0.345,0,0.69,0.046,1.026,0.136
		c1.026,0.275,1.886,0.938,2.422,1.867c0.537,0.929,0.681,2.006,0.406,3.032l-0.912,3.407c-0.113,0.389-0.616,2.411,0.59,4.017
		C29.069,19.162,30.098,20,32,20h7.397c0.921,0,1.675,0.322,2.123,0.906c0.491,0.64,0.611,1.555,0.337,2.576l-3.751,14
		C37.461,39.889,34.809,42,32.43,42H8c-1.103,0-2-0.897-2-2V28z"/>
</g>
</svg>
