<?xml version="1.0" encoding="utf-8"?><svg xmlns="http://www.w3.org/2000/svg"  height="48" viewBox="0 0 48 48" width="48"><path d="M0 0h48v48H0z" fill="none"/>
<g id="Shopicon">
	<path d="M24.909,5.026c-5.249-0.271-10.224,1.558-14.02,5.16C7.092,13.791,5,18.658,5,23.893c0,5.949,2.854,11.622,7.635,15.174
		c0.445,0.33,1.07,0.236,1.399-0.206c0.329-0.443,0.237-1.07-0.206-1.399C9.488,34.237,7,29.292,7,23.893
		c0-4.68,1.87-9.032,5.267-12.256c3.396-3.22,7.867-4.862,12.537-4.612c8.503,0.445,15.513,7.455,15.958,15.958
		c0.394,7.502-4.279,14.446-11.364,16.887c-1.03,0.355-2.14,0.189-3.038-0.452c-0.933-0.665-1.467-1.699-1.467-2.839v-3.512
		c2.973-0.483,5.264-3.072,5.264-6.176v-3.702c0-1.04-0.512-1.959-1.288-2.542v-3.671c0-0.553-0.447-1-1-1s-1,0.447-1,1V20H21v-3
		c0-0.553-0.447-1-1-1s-1,0.447-1,1v3.578c-0.825,0.578-1.37,1.532-1.37,2.61v3.702c0,3.104,2.29,5.692,5.263,6.176v3.512
		c0,1.768,0.861,3.438,2.305,4.467c0.936,0.667,2.014,1.01,3.107,1.01c0.583,0,1.171-0.098,1.745-0.295
		c7.923-2.729,13.149-10.494,12.71-18.883C42.261,13.366,34.42,5.525,24.909,5.026z"/>
</g>
</svg>
