<?xml version="1.0" encoding="UTF-8"?><svg id="Shopicons" xmlns="http://www.w3.org/2000/svg" viewBox="0 0 48 48"><defs><style>.cls-1{fill:none;}</style></defs><polyline class="cls-1" points="48 48 0 48 0 0 48 0"/><path d="m34,34.5c-4.46,0-7.34-3.5-9.66-6.32-.12-.15-.24-.29-.36-.44-.22.26-.44.53-.66.79-2.31,2.79-4.92,5.96-9.32,5.96-5.79,0-10.5-4.71-10.5-10.5s4.71-10.5,10.5-10.5c4.4,0,7.02,3.17,9.32,5.96.22.26.44.53.66.79.12-.14.24-.29.36-.44,2.32-2.81,5.2-6.32,9.66-6.32,5.79,0,10.5,4.71,10.5,10.5s-4.71,10.5-10.5,10.5Zm-6.63-10.5c.28.33.56.67.84,1.01,1.9,2.31,3.7,4.49,5.8,4.49,3.03,0,5.5-2.47,5.5-5.5s-2.47-5.5-5.5-5.5c-2.1,0-3.9,2.18-5.8,4.49-.27.33-.55.67-.84,1.01Zm-13.37-5.5c-3.03,0-5.5,2.47-5.5,5.5s2.47,5.5,5.5,5.5c1.95,0,3.28-1.5,5.47-4.14.37-.45.75-.9,1.14-1.36-.39-.46-.77-.91-1.14-1.36-2.19-2.65-3.52-4.14-5.47-4.14Z"/></svg>