<?xml version="1.0" encoding="utf-8"?><svg xmlns="http://www.w3.org/2000/svg"  height="48" viewBox="0 0 48 48" width="48"><path d="M0 0h48v48H0z" fill="none"/>
<g id="Shopicon">
	<path d="M22.338,6.349C21.598,6.123,20.814,6,20,6c-4.418,0-8,3.582-8,8s3.582,8,8,8c2.212,0,4.214-0.898,5.662-2.349
		C26.402,19.877,27.187,20,28,20c4.418,0,8-3.582,8-8s-3.582-8-8-8C25.788,4,23.786,4.898,22.338,6.349z M28,15
		c-1.654,0-3-1.346-3-3s1.346-3,3-3c1.654,0,3,1.346,3,3S29.654,15,28,15z M17,14c0-1.654,1.346-3,3-3
		c0.023,0,0.045,0.006,0.068,0.007C20.028,11.333,20,11.663,20,12c0,1.715,0.544,3.3,1.463,4.603C21.029,16.848,20.534,17,20,17
		C18.346,17,17,15.654,17,14z"/>
	<path d="M30,23.5c-5.809,0-10.613,1.805-12.957,4.559c-0.83-0.764-1.476-1.485-1.844-1.96C13.05,23.236,8.97,22.654,6.1,24.8
		c-2.867,2.15-3.45,6.232-1.299,9.102C5.125,34.334,12.884,44.5,24,44.5h20.5V32C44.5,27.154,38.267,23.5,30,23.5z M11.193,29.09
		C11.248,29.164,16.778,36.5,24,36.5h8V34l0,0v-2.5h-8c-0.936,0-1.877-0.24-2.78-0.623C22.548,29.734,25.651,28.5,30,28.5
		c5.894,0,9.5,2.266,9.5,3.5v7.5H24c-8.646,0-15.137-8.515-15.2-8.6c-0.496-0.662-0.361-1.604,0.298-2.1
		c0.271-0.202,0.589-0.3,0.903-0.3C10.456,28.501,10.904,28.705,11.193,29.09z"/>
</g>
</svg>
