<?xml version="1.0" encoding="utf-8"?><svg xmlns="http://www.w3.org/2000/svg"  height="48" viewBox="0 0 48 48" width="48"><path d="M0 0h48v48H0z" fill="none"/>
<g id="Shopicon">
	<polygon points="15.5,28.036 15.5,28.5 15.964,28.5 21.5,34.035 21.5,28.5 26.5,28.5 26.5,34.035 32.036,28.5 32.5,28.5 
		32.5,28.036 34.536,26 32.5,23.964 32.5,23.5 32.036,23.5 26.5,17.965 26.5,23.5 21.5,23.5 21.5,17.965 15.964,23.5 15.5,23.5 
		15.5,23.964 13.464,26 	"/>
	<path d="M43.5,11c0-1.93-1.57-3.5-3.5-3.5s-3.5,1.57-3.5,3.5s1.57,3.5,3.5,3.5S43.5,12.93,43.5,11z"/>
	<path d="M40,14.5c-2.481,0-4.5,2.019-4.5,4.5v8c0,1.557,0.795,2.93,2,3.738V42.5h5V30.738c1.205-0.808,2-2.182,2-3.738v-8
		C44.5,16.519,42.481,14.5,40,14.5z"/>
	<path d="M10.5,42.5V30.738c1.205-0.808,2-2.182,2-3.738v-8c0-2.481-2.019-4.5-4.5-4.5S3.5,16.519,3.5,19v8
		c0,1.557,0.795,2.93,2,3.738V42.5H10.5z"/>
	<path d="M11.5,11c0-1.93-1.57-3.5-3.5-3.5S4.5,9.07,4.5,11s1.57,3.5,3.5,3.5S11.5,12.93,11.5,11z"/>
</g>
</svg>
