<?xml version="1.0" encoding="utf-8"?><svg xmlns="http://www.w3.org/2000/svg"  height="48" viewBox="0 0 48 48" width="48"><path d="M0 0h48v48H0z" fill="none"/>
<g id="Shopicon">
	<path d="M38,25.5H22c-3.001,0-5.527,2.048-6.271,4.818c-1.75-0.975-4.105-1.723-7.229-1.798V20h-5v24h5v-3.5h7h24V44h5v-3.5v-5V32
		C44.5,28.416,41.584,25.5,38,25.5z M8.5,33.516c3.093,0.1,4.95,1.084,5.994,1.984H8.5V33.516z M20.5,35.5V32
		c0-0.813,0.687-1.5,1.5-1.5h16c0.813,0,1.5,0.687,1.5,1.5v3.5H20.5z"/>
	<circle cx="14" cy="24" r="4"/>
	<polygon points="27.5,18 32.5,18 32.5,14.5 36,14.5 36,9.5 32.5,9.5 32.5,6 27.5,6 27.5,9.5 24,9.5 24,14.5 27.5,14.5 	"/>
</g>
</svg>
