<?xml version="1.0" encoding="utf-8"?><svg xmlns="http://www.w3.org/2000/svg"  height="48" viewBox="0 0 48 48" width="48"><path d="M0 0h48v48H0z" fill="none"/>
<g id="Shopicon">
	<path d="M9.5,32.951l-2.991,0.598l0.98,4.902l4.374-0.875C13.64,38.11,18.769,39.5,24,39.5c5.231,0,10.359-1.39,12.136-1.924
		l4.373,0.875l0.98-4.902l-2.99-0.598V19.648l5.484-2.351l-1.971-4.596l-6.456,2.768c-1.305-0.147-2.809-0.897-4.395-1.693
		C29.037,12.709,26.628,11.5,24,11.5s-5.038,1.209-7.164,2.276c-1.586,0.796-3.091,1.546-4.395,1.693l-6.456-2.767l-1.969,4.596
		l5.484,2.35V32.951z M24,34.5c-3.667,0-7.4-0.823-9.5-1.378V30h19v3.122C31.4,33.677,27.667,34.5,24,34.5z M14.5,28v-4h19v4H14.5z
		 M19.078,18.245C20.867,17.348,22.557,16.5,24,16.5s3.133,0.848,4.921,1.745c1.471,0.738,2.976,1.493,4.579,1.915V22h-19v-1.84
		C16.104,19.737,17.607,18.983,19.078,18.245z"/>
</g>
</svg>
