<?xml version="1.0" encoding="utf-8"?><svg xmlns="http://www.w3.org/2000/svg"  height="48" viewBox="0 0 48 48" width="48"><path d="M0 0h48v48H0z" fill="none"/>
<g id="Shopicon">
	<path d="M16.733,34.195l1.322,1.229h-4.903c-1.702,0-2.947-0.468-3.415-1.282c-0.468-0.815-0.245-2.126,0.613-3.596l3.128-5.362
		l-4.319-2.52l-3.128,5.362c-1.784,3.059-2.014,6.195-0.629,8.605s4.209,3.792,7.75,3.792h4.906l-1.325,1.231l3.404,3.662
		l7.951-7.392l-7.95-7.394L16.733,34.195z"/>
	<path d="M23.067,18.454l-1.447-4.785l-1.73,0.523l1.382-2.37c0.861-1.476,1.911-2.322,2.88-2.322c0.969,0,2.018,0.847,2.879,2.322
		l4.294,7.362l4.319-2.52L31.35,9.303C29.569,6.25,26.946,4.5,24.152,4.5c-2.794,0-5.417,1.75-7.199,4.803l-1.382,2.37l-0.396-1.764
		l-4.879,1.096l2.379,10.592L23.067,18.454z"/>
	<path d="M32.465,30.845l4.878,1.096l0.396-1.762l0.215,0.368c0.858,1.47,1.081,2.78,0.613,3.596
		c-0.468,0.814-1.713,1.282-3.415,1.282h-4v5h4c3.541,0,6.366-1.382,7.75-3.792s1.155-5.547-0.629-8.605l-0.216-0.37l1.73,0.523
		l1.448-4.785l-10.391-3.145L32.465,30.845z"/>
</g>
</svg>
