<?xml version="1.0" encoding="utf-8"?><svg version="1.1" id="Shopicons" xmlns="http://www.w3.org/2000/svg" x="0" y="0" viewBox="0 0 48 48" xml:space="preserve"><style>.st1{fill:#fff}.st2,.st3{fill:none;stroke:#666;stroke-width:4;stroke-miterlimit:10}.st3{stroke-width:6}</style><g id="youtube_00000029767573909270398770000016034412945917399226_"><path d="M0 .019h48v48H0v-48z" fill="none"/><path d="M24 39.519c-1.933 0-11.724-.041-14.739-.848a7.488 7.488 0 0 1-5.283-5.283c-.825-3.078-.849-8.743-.849-9.379s.023-6.3.85-9.379a7.482 7.482 0 0 1 5.283-5.282C12.275 8.54 22.067 8.499 24 8.499s11.725.041 14.741.85a7.486 7.486 0 0 1 5.282 5.282c.824 3.079.848 8.742.848 9.378s-.023 6.3-.848 9.379a7.487 7.487 0 0 1-5.283 5.283c-3.016.807-12.807.848-14.74.848zm0-25.02c-4.478 0-11.529.2-13.188.645a1.471 1.471 0 0 0-1.038 1.037c-.469 1.749-.645 5.73-.646 7.829.001 2.098.177 6.079.645 7.826.136.506.533.903 1.037 1.038 1.659.444 8.712.645 13.189.645s11.53-.2 13.189-.645a1.49 1.49 0 0 0 1.037-1.037c.468-1.748.644-5.729.645-7.829-.001-2.098-.177-6.078-.645-7.826v-.001a1.469 1.469 0 0 0-1.037-1.036c-1.658-.446-8.71-.646-13.188-.646z"/><path d="M20.887 30.985a2 2 0 0 1-2-2v-9.953a1.999 1.999 0 0 1 3-1.732l8.619 4.978a2.001 2.001 0 0 1 0 3.464l-8.619 4.976c-.31.178-.655.267-1 .267z"/></g></svg>