<?xml version="1.0" encoding="utf-8"?><svg xmlns="http://www.w3.org/2000/svg"  height="48" viewBox="0 0 48 48" width="48"><path d="M0 0h48v48H0z" fill="none"/>
<g id="Shopicon">
	<path d="M36.25,13.504c-2.942-13.272-21.564-13.263-24.5,0C0.671,14.227,0.891,30.096,12,30.5c0,0,7.955,0,7.955,0l-4,8h8
		l-2.191,4.382l4.473,2.236L32.045,33.5h-8l1.5-3H36C47.114,30.095,47.324,14.223,36.25,13.504z M36,25.5H12
		c-4.614-0.121-4.615-6.879,0-7c0,0,4.5,0,4.5,0V16c0-4.136,3.364-7.5,7.5-7.5s7.5,3.364,7.5,7.5v2.5H36
		C40.615,18.621,40.614,25.38,36,25.5z"/>
</g>
</svg>
