<?xml version="1.0" encoding="utf-8"?><svg xmlns="http://www.w3.org/2000/svg"  height="48" viewBox="0 0 48 48" width="48"><path d="M0 0h48v48H0z" fill="none"/>
<g id="Shopicon">
	<path d="M8,44h32c2.2,0,4-1.8,4-4V16c0-2.2-1.8-4-4-4h-4.349C35.873,11.374,36,10.702,36,10c0-3.314-2.686-6-6-6s-6,2.686-6,6
		c0,0.165,0.012,0.328,0.025,0.49L24,10.465l-0.025,0.025C23.988,10.328,24,10.165,24,10c0-3.314-2.686-6-6-6s-6,2.686-6,6
		c0,0.702,0.127,1.374,0.349,2H8c-2.2,0-4,1.8-4,4v24C4,42.2,5.8,44,8,44z M9,31.5h12.5V39H9V31.5z M39,39H26.5v-7.5H39V39z M39,17
		v9.5H26.5v-6.465l5.5,5.5L35.535,22l-5-5H39z M30,9c0.551,0,1,0.448,1,1s-0.449,1-1,1s-1-0.448-1-1S29.449,9,30,9z M18,9
		c0.551,0,1,0.448,1,1s-0.449,1-1,1s-1-0.448-1-1S17.449,9,18,9z M9,17h8.465l-5,5L16,25.535l5.5-5.5V26.5H9V17z"/>
</g>
</svg>
