<?xml version="1.0" encoding="utf-8"?><svg xmlns="http://www.w3.org/2000/svg"  height="48" viewBox="0 0 48 48" width="48"><path d="M0 0h48v48H0z" fill="none"/>
<g id="Shopicon">
	<path d="M39.5,15h5c0-6.341-5.159-11.5-11.5-11.5c-3.644,0-6.891,1.709-9,4.362C21.892,5.209,18.644,3.5,15,3.5
		C8.659,3.5,3.5,8.659,3.5,15h5c0-3.584,2.916-6.5,6.5-6.5c0.517,0,1.018,0.067,1.5,0.182c-2.862,0.68-5,3.251-5,6.318h5
		c0-0.827,0.673-1.5,1.5-1.5c0.8,0,1.45,0.631,1.492,1.421l-1.717,14.597c-0.148-0.007-0.289-0.019-0.447-0.019
		c-2.359,0-3.665,0.784-4.619,1.356c-0.714,0.429-1.072,0.644-2.046,0.644c-0.973,0-1.331-0.215-2.045-0.644
		C7.665,30.284,6.358,29.5,4,29.5v5c0.973,0,1.331,0.215,2.045,0.644c0.954,0.572,2.26,1.356,4.618,1.356
		c2.359,0,3.665-0.784,4.619-1.356c0.714-0.429,1.072-0.644,2.046-0.644c0.972,0,1.33,0.215,2.043,0.644
		c0.954,0.572,2.259,1.356,4.618,1.356c2.359,0,3.666-0.784,4.62-1.356c0.715-0.429,1.073-0.644,2.047-0.644
		c0.976,0,1.335,0.215,2.051,0.645c0.954,0.572,2.261,1.355,4.621,1.355s3.667-0.783,4.621-1.355C42.665,34.715,43.024,34.5,44,34.5
		v-5c-2.36,0-3.667,0.783-4.621,1.355c-0.716,0.43-1.075,0.645-2.051,0.645s-1.335-0.215-2.051-0.645
		c-0.954-0.572-2.261-1.355-4.621-1.355c-0.152,0-0.288,0.012-0.431,0.018l-1.717-14.595C28.549,14.132,29.199,13.5,30,13.5
		c0.827,0,1.5,0.673,1.5,1.5h5c0-3.067-2.138-5.638-5-6.318C31.982,8.567,32.483,8.5,33,8.5C36.584,8.5,39.5,11.416,39.5,15z
		 M22.608,31.228L24,19.396l1.391,11.822c-0.385,0.186-0.76,0.281-1.402,0.281C23.359,31.5,22.986,31.408,22.608,31.228z"/>
	<path d="M37.328,39.5c-0.976,0-1.335-0.215-2.051-0.645c-0.954-0.572-2.261-1.355-4.621-1.355c-2.358,0-3.665,0.784-4.619,1.356
		c-0.715,0.429-1.073,0.644-2.048,0.644c-0.972,0-1.331-0.215-2.043-0.644c-0.954-0.572-2.259-1.356-4.618-1.356
		c-2.359,0-3.665,0.784-4.619,1.356c-0.714,0.429-1.072,0.644-2.046,0.644c-0.973,0-1.331-0.215-2.045-0.644
		C7.665,38.284,6.358,37.5,4,37.5v5c0.973,0,1.331,0.215,2.045,0.644c0.954,0.572,2.26,1.356,4.618,1.356
		c2.359,0,3.665-0.784,4.619-1.356c0.714-0.429,1.072-0.644,2.046-0.644c0.972,0,1.33,0.215,2.043,0.644
		c0.954,0.572,2.259,1.356,4.618,1.356c2.359,0,3.666-0.784,4.62-1.356c0.715-0.429,1.073-0.644,2.047-0.644
		c0.976,0,1.335,0.215,2.051,0.645c0.954,0.572,2.261,1.355,4.621,1.355s3.667-0.783,4.621-1.355C42.665,42.715,43.024,42.5,44,42.5
		v-5c-2.36,0-3.667,0.783-4.621,1.355C38.663,39.285,38.304,39.5,37.328,39.5z"/>
</g>
</svg>
