<?xml version="1.0" encoding="utf-8"?><svg xmlns="http://www.w3.org/2000/svg"  height="48" viewBox="0 0 48 48" width="48"><path d="M0 0h48v48H0z" fill="none"/>
<g id="Shopicon">
	<polygon points="8.5,10.5 26,10.5 26,5.5 3.5,5.5 3.5,42.5 30,42.5 30,37.5 8.5,37.5 	"/>
	<path d="M31.5,34.877l6.5,8.125l6.5-8.125V5.5h-13V34.877z M38,34.998l-1.5-1.875V18.5h3v14.623L38,34.998z M39.5,10.5v3h-3v-3
		H39.5z"/>
	<polygon points="21,13.149 17.229,16.92 15.343,15.035 11.809,18.571 17.229,23.99 24.535,16.685 	"/>
	<polygon points="15.343,25.035 11.809,28.571 17.229,33.99 24.535,26.685 21,23.149 17.229,26.92 	"/>
</g>
</svg>
