<?xml version="1.0" encoding="utf-8"?><svg xmlns="http://www.w3.org/2000/svg"  height="48" viewBox="0 0 48 48" width="48"><path d="M0 0h48v48H0z" fill="none"/>
<g id="Shopicon">
	<path d="M24,3.5C14.557,3.5,7.5,15.907,7.5,27c0,10.468,6.631,17.5,16.5,17.5S40.5,37.468,40.5,27C40.5,15.907,33.443,3.5,24,3.5z
		 M24,8.5c4.568,0,9.197,6.007,10.855,13.11L33,23.465l-3-3l-3,3l-3-3l-3,3l-3-3l-3,3l-1.855-1.855C14.803,14.507,19.432,8.5,24,8.5
		z M24,39.5c-7.98,0-11.124-5.72-11.466-11.431L15,30.535l3-3l3,3l3-3l3,3l3-3l3,3l2.466-2.466C35.124,33.78,31.98,39.5,24,39.5z"/>
</g>
</svg>
