<?xml version="1.0" encoding="utf-8"?><svg xmlns="http://www.w3.org/2000/svg"  height="48" viewBox="0 0 48 48" width="48"><path d="M0 0h48v48H0z" fill="none"/>
<g id="Shopicon">
	<path d="M39.204,18.504l-5.558-0.794C31.969,14.914,29.068,13.5,25,13.5H14C8.21,13.5,3.5,18.21,3.5,24S8.21,34.5,14,34.5h11
		c4.068,0,6.969-1.414,8.646-4.21l5.558-0.794C42.143,29.389,44.5,26.965,44.5,24S42.143,18.611,39.204,18.504z M30.227,25.728
		l-0.542,1.328C29.167,28.325,28.241,29.5,25,29.5H14c-3.033,0-5.5-2.468-5.5-5.5s2.467-5.5,5.5-5.5h11
		c3.241,0,4.167,1.175,4.686,2.444l0.542,1.328L35,22.954v2.106L30.227,25.728z"/>
	<circle cx="14" cy="24" r="3"/>
	<rect x="20" y="21.5" width="8" height="5"/>
</g>
</svg>
