<?xml version="1.0" encoding="utf-8"?><svg xmlns="http://www.w3.org/2000/svg"  height="48" viewBox="0 0 48 48" width="48"><path d="M0 0h48v48H0z" fill="none"/>
<g id="Shopicon">
	<circle cx="24" cy="34" r="2"/>
	<circle cx="24" cy="24" r="2"/>
	<circle cx="14" cy="24" r="2"/>
	<path d="M37.929,18.904l-0.747-1.591l-1.749,0.164C35.291,17.491,35.146,17.5,35,17.5c-2.481,0-4.5-2.019-4.5-4.5
		c0-0.146,0.009-0.291,0.022-0.433l0.164-1.749l-1.591-0.747C27.519,9.33,26.5,7.732,26.5,6V3.5H24C12.696,3.5,3.5,12.696,3.5,24
		S12.696,44.5,24,44.5S44.5,35.304,44.5,24v-2.5H42C40.268,21.5,38.67,20.481,37.929,18.904z M24,39.5
		c-8.547,0-15.5-6.953-15.5-15.5c0-7.828,5.833-14.319,13.38-15.355c0.602,2.053,1.888,3.866,3.65,5.113
		c0.367,4.635,4.077,8.345,8.712,8.712c1.247,1.763,3.061,3.049,5.113,3.65C38.319,33.667,31.828,39.5,24,39.5z"/>
</g>
</svg>
