<?xml version="1.0" encoding="utf-8"?><svg xmlns="http://www.w3.org/2000/svg"  height="48" viewBox="0 0 48 48" width="48"><path d="M0 0h48v48H0z" fill="none"/>
<g id="Shopicon">
	<path d="M34.5,3.5h-15v5.017l-4-0.046v10.794C10.073,20.416,6,25.23,6,31c0,6.627,5.373,12,12,12c3.788,0,7.16-1.759,9.359-4.5
		H38.5V8.471l-4,0.046V3.5z M18,38c-3.86,0-7-3.14-7-7s3.14-7,7-7c3.86,0,7,3.14,7,7S21.86,38,18,38z M33.5,33.5h-3.765
		C29.906,32.693,30,31.858,30,31c0-5.77-4.073-10.584-9.5-11.735v-5.735l4,0.046V8.5h5v5.075l4-0.046V33.5z"/>
	<polygon points="20.5,26 15.5,26 15.5,28.5 13,28.5 13,33.5 15.5,33.5 15.5,36 20.5,36 20.5,33.5 23,33.5 23,28.5 20.5,28.5 	"/>
</g>
</svg>
