<?xml version="1.0" encoding="utf-8"?><svg xmlns="http://www.w3.org/2000/svg"  height="48" viewBox="0 0 48 48" width="48"><path d="M0 0h48v48H0z" fill="none"/>
<g id="Shopicon">
	<path d="M17.695,33.841l3.296-3.297c0.898,0.399,1.861,0.605,2.826,0.605c1.783,0,3.566-0.68,4.926-2.04
		c4.926-4.926,4.222-14.074,4.222-14.074S32.514,15,31.757,15c-2.649,0-9.034,0.426-12.866,4.257
		c-2.097,2.097-2.57,5.195-1.435,7.752l-3.297,3.297L17.695,33.841z M22.427,22.792c1.212-1.212,3.136-1.965,5.158-2.379
		c-0.389,1.913-1.107,3.89-2.377,5.16c-0.501,0.501-1.086,0.576-1.39,0.576c-0.304,0-0.889-0.075-1.39-0.576
		c-0.501-0.501-0.576-1.086-0.576-1.39C21.851,23.879,21.925,23.293,22.427,22.792z"/>
	<path d="M15.216,18.133l-1.941-4.607l-1.053,0.444C15.12,10.582,19.41,8.5,24,8.5c8.547,0,15.5,6.953,15.5,15.5h5
		c0-11.304-9.196-20.5-20.5-20.5c-6.796,0-13.1,3.441-16.874,8.899l-0.655-1.937l-4.736,1.602l3.478,10.284L15.216,18.133z"/>
	<path d="M32.783,29.866l1.941,4.607l1.055-0.444C32.881,37.417,28.591,39.5,24,39.5c-8.547,0-15.5-6.953-15.5-15.5h-5
		c0,11.304,9.196,20.5,20.5,20.5c6.796,0,13.1-3.441,16.874-8.9l0.655,1.937l4.736-1.602l-3.478-10.284L32.783,29.866z"/>
</g>
</svg>
