<?xml version="1.0" encoding="utf-8"?><svg xmlns="http://www.w3.org/2000/svg"  height="48" viewBox="0 0 48 48" width="48"><path d="M0 0h48v48H0z" fill="none"/>
<g id="Shopicon">
	<path d="M8.444,27L24,42l15.556-15c2.7-2.033,4.444-5.256,4.444-8.889C44,11.978,39.022,7,32.889,7
		C29.256,7,26.022,8.756,24,11.456C21.978,8.756,18.744,7,15.111,7C8.978,7,4,11.978,4,18.111C4,21.744,5.744,24.967,8.444,27z
		 M15.111,12c1.938,0,3.719,0.894,4.887,2.453L24,19.796l4.002-5.343C29.17,12.894,30.951,12,32.889,12
		C36.259,12,39,14.741,39,18.111c0,1.937-0.894,3.721-2.452,4.895l-0.243,0.183l-0.219,0.211L24,35.054L11.915,23.401l-0.219-0.211
		l-0.243-0.183C9.894,21.832,9,20.048,9,18.111C9,14.741,11.741,12,15.111,12z"/>
</g>
</svg>
