<?xml version="1.0" encoding="utf-8"?><svg version="1.1" id="Shopicons" xmlns="http://www.w3.org/2000/svg" x="0" y="0" viewBox="0 0 48 48" xml:space="preserve"><style>.st1{fill:#fff}.st2,.st3{fill:none;stroke:#666;stroke-width:4;stroke-miterlimit:10}.st3{stroke-width:6}</style><g id="github_00000041293378879369329590000017324968652495213474_"><path d="M0 0h48v48H0V0z" fill="none"/><path d="M40.098 13.601a8.36 8.36 0 0 0-.863-1.72c.733-3.118.194-5.64.12-5.958l-.547-2.348-2.411.028c-.392.005-3.602.1-6.887 1.905a30.55 30.55 0 0 0-11.02 0c-3.285-1.806-6.495-1.9-6.887-1.905l-2.411-.028-.546 2.348c-.074.318-.612 2.839.119 5.956a8.245 8.245 0 0 0-.862 1.722c-1.266 3.577-1.267 7.206 0 10.785 1.202 3.396 5.121 6.671 7.885 7.486.483.143.967.256 1.451.357A6.748 6.748 0 0 0 17 33.992v.726c-.659.395-2.33 1.152-4.042-.013-.817-.842-1.219-1.45-1.641-2.092-1.044-1.586-2.012-2.822-4.976-4.305a3.005 3.005 0 0 0-4.025 1.342 3.001 3.001 0 0 0 1.342 4.025c1.751.875 1.995 1.246 2.647 2.236.511.776 1.211 1.839 2.573 3.201l.322.281c1.887 1.415 3.845 1.921 5.636 1.921.759 0 1.483-.098 2.164-.25V44h6V33.992a1 1 0 0 1 2 0v10h6v-10a6.79 6.79 0 0 0-.238-1.763 18.15 18.15 0 0 0 1.451-.357c2.764-.815 6.682-4.091 7.885-7.487 1.265-3.579 1.265-7.207 0-10.784zm-5.657 8.781c-.472 1.334-2.779 3.397-3.928 3.736-4.321 1.275-8.704 1.276-13.027 0-1.148-.339-3.456-2.402-3.928-3.735-.797-2.25-.874-4.561 0-6.779.525-1.333 1.918-2.57 1.918-2.57l-.598-1.618a7.66 7.66 0 0 1-.321-1.133 8.44 8.44 0 0 1 1.689.881l1.073.729 1.266-.282a24.696 24.696 0 0 1 10.828 0l1.266.282 1.073-.729a8.52 8.52 0 0 1 1.689-.881 7.784 7.784 0 0 1-.321 1.133l-.598 1.62s1.377 1.139 1.918 2.567c.846 2.231.798 4.53.001 6.779z"/></g></svg>