<?xml version="1.0" encoding="utf-8"?><svg xmlns="http://www.w3.org/2000/svg"  height="48" viewBox="0 0 48 48" width="48"><path d="M0 0h48v48H0z" fill="none"/>
<g id="Shopicon">
	<path d="M8,40h32c2.2,0,4-1.8,4-4V18c0-2.2-1.8-4-4-4h-7.34l-3.464-6H18.804l-3.464,6H8c-2.2,0-4,1.8-4,4v18C4,38.2,5.8,40,8,40z
		 M9,19h6.34h2.887l1.443-2.5l2.021-3.5h4.619l2.021,3.5l1.443,2.5h2.887H39v16H9V19z"/>
	<path d="M24,20c-3.314,0-6,2.686-6,6s2.686,6,6,6s6-2.686,6-6S27.314,20,24,20z M24,27c-0.551,0-1-0.449-1-1s0.449-1,1-1
		s1,0.449,1,1S24.551,27,24,27z"/>
</g>
</svg>
