<?xml version="1.0" encoding="utf-8"?><svg version="1.1" id="Shopicons" xmlns="http://www.w3.org/2000/svg" x="0" y="0" viewBox="0 0 48 48" xml:space="preserve"><style>.st1{fill:#fff}.st2,.st3{fill:none;stroke:#666;stroke-width:4;stroke-miterlimit:10}.st3{stroke-width:6}</style><g id="facebook"><path d="M0 .006h48v48H0v-48z" fill="none"/><path d="M24 4C12.954 4 4 12.954 4 24s8.954 20 20 20 20-8.954 20-20S35.046 4 24 4zm3 33.668V29h4v-6h-4v-2c0-.552.449-1 1-1h3v-6h-3c-3.86 0-7 3.141-7 7v2h-4v6h4v8.668C14.719 36.29 10 30.689 10 24c0-7.72 6.28-14 14-14s14 6.28 14 14c0 6.689-4.719 12.29-11 13.668z"/></g></svg>