<?xml version="1.0" encoding="utf-8"?><svg xmlns="http://www.w3.org/2000/svg"  height="48" viewBox="0 0 48 48" width="48"><path d="M0 0h48v48H0z" fill="none"/>
<g id="Shopicon">
	<path d="M29.06,24c1.916-0.327,3.617-1.526,4.592-3.29c0.97-1.753,1.093-3.864,0.398-5.71c0.694-1.846,0.571-3.957-0.398-5.71
		V9.289c-0.979-1.767-2.68-2.952-4.584-3.277C27.852,4.449,25.993,3.5,24,3.5s-3.852,0.949-5.068,2.511
		c-1.905,0.326-3.606,1.512-4.583,3.279c-0.969,1.753-1.092,3.864-0.398,5.71c-0.694,1.846-0.571,3.957,0.398,5.71
		c0.976,1.764,2.677,2.963,4.592,3.29c0.681,0.871,1.566,1.541,2.559,1.97V44h5V25.97C27.493,25.541,28.378,24.871,29.06,24z
		 M18.724,18.29c-0.325-0.587-0.29-1.327,0.09-1.887L19.766,15l-0.952-1.403c-0.379-0.56-0.415-1.3-0.09-1.888
		c0.298-0.538,0.84-0.833,1.407-0.782l1.8,0.175l0.729-1.654C22.862,8.989,23.32,8.5,24,8.5c0.68,0,1.138,0.489,1.339,0.947
		l0.729,1.654l1.801-0.175c0.568-0.049,1.108,0.244,1.407,0.783c0.324,0.587,0.289,1.327-0.091,1.887L28.234,15l0.951,1.403
		c0.38,0.56,0.415,1.3,0.09,1.888c-0.276,0.5-0.755,0.799-1.253,0.8l-1.954-0.187l-0.729,1.649C25.137,21.012,24.679,21.5,24,21.5
		s-1.137-0.488-1.338-0.945l-0.776-1.648l-1.882,0.184C19.479,19.09,19.001,18.791,18.724,18.29z"/>
	<circle cx="24" cy="15" r="2"/>
	<path d="M39.157,30c-2,0-6.82,0.322-9.712,3.214c-2.054,2.054-2.054,5.383,0,7.437c1.027,1.027,2.373,1.54,3.719,1.54
		c1.346,0,2.692-0.513,3.719-1.54c3.719-3.719,3.187-10.624,3.187-10.624S39.728,30,39.157,30z"/>
	<path d="M8.843,30.069c-0.572,0-0.912,0.026-0.912,0.026S7.4,37.001,11.118,40.72c1.027,1.027,2.373,1.54,3.719,1.54
		c1.346,0,2.692-0.513,3.719-1.54c2.054-2.054,2.054-5.383,0-7.437C15.663,30.391,10.843,30.069,8.843,30.069z"/>
</g>
</svg>
