<?xml version="1.0" encoding="utf-8"?><svg xmlns="http://www.w3.org/2000/svg"  height="48" viewBox="0 0 48 48" width="48"><path d="M0 0h48v48H0z" fill="none"/>
<g id="Shopicon">
	<path d="M24,3.5C12.696,3.5,3.5,12.696,3.5,24S12.696,44.5,24,44.5S44.5,35.304,44.5,24S35.304,3.5,24,3.5z M26.5,39.279V34h-5
		v5.279C14.956,38.211,9.789,33.043,8.721,26.5H14v-5H8.721c1.201-7.359,7.586-13,15.279-13c8.547,0,15.5,6.953,15.5,15.5
		C39.5,31.694,33.859,38.078,26.5,39.279z"/>
	<polygon points="26,14 22,14 22,22 22,24 22,26 34,26 34,22 26,22 	"/>
</g>
</svg>
