<?xml version="1.0" encoding="utf-8"?><svg xmlns="http://www.w3.org/2000/svg"  height="48" viewBox="0 0 48 48" width="48"><path d="M0 0h48v48H0z" fill="none"/>
<g id="Shopicon">
	<path d="M37,3.5c-0.169,0-0.335,0.01-0.5,0.025V3.5H31c-7.892,0-14.53,4.244-17.624,10.5H12.5c-1.375,0-2.5,1.125-2.5,2.5v7
		c0,0.332,0.068,0.649,0.188,0.94C8.805,26.805,8,29.429,8,32c0,7.732,7.163,12,16,12s16-4.268,16-12
		c0-2.571-0.805-5.195-2.188-7.56C37.932,24.149,38,23.832,38,23.5v-7c0-0.82-0.405-1.544-1.019-2.001
		c0.007,0,0.013,0.001,0.019,0.001c3.032,0,5.5-2.468,5.5-5.5S40.032,3.5,37,3.5z M24,39c-5.074,0-11-1.833-11-7
		c0-1.964,0.771-4.084,2.068-5.938C15.594,30.531,19.389,34,24,34s8.406-3.469,8.932-7.938C34.229,27.916,35,30.036,35,32
		C35,37.167,29.074,39,24,39z M31,8.5h0.5V14H19.254C21.867,10.647,26.113,8.5,31,8.5z M33,19v2H15v-2H33z M27.858,26
		c-0.447,1.72-2,3-3.858,3s-3.411-1.28-3.858-3H27.858z M37,9.5c-0.275,0-0.5-0.225-0.5-0.5s0.225-0.5,0.5-0.5s0.5,0.225,0.5,0.5
		S37.275,9.5,37,9.5z"/>
</g>
</svg>
