<?xml version="1.0" encoding="utf-8"?><svg xmlns="http://www.w3.org/2000/svg"  height="48" viewBox="0 0 48 48" width="48"><path d="M0 0h48v48H0z" fill="none"/>
<g id="Shopicon">
	<path d="M7.304,33.518C6.189,34.686,5.5,36.262,5.5,38c0,3.584,2.916,6.5,6.5,6.5c2.7,0,5.019-1.656,6-4.004
		c0.981,2.349,3.3,4.004,6,4.004s5.019-1.656,6-4.004c0.981,2.349,3.3,4.004,6,4.004c3.584,0,6.5-2.916,6.5-6.5
		c0-1.738-0.689-3.314-1.804-4.482C42.964,32.227,44.5,29.792,44.5,27c0-4.136-3.364-7.5-7.5-7.5
		c-10.98,0-15.57-14.107-15.614-14.246L20.838,3.5H3.5V27C3.5,29.792,5.036,32.227,7.304,33.518z M12,39.5
		c-0.827,0-1.5-0.673-1.5-1.5s0.673-1.5,1.5-1.5s1.5,0.673,1.5,1.5S12.827,39.5,12,39.5z M17.468,34.5h1.063
		c-0.204,0.318-0.384,0.652-0.532,1.004C17.853,35.152,17.673,34.818,17.468,34.5z M24,39.5c-0.827,0-1.5-0.673-1.5-1.5
		s0.673-1.5,1.5-1.5s1.5,0.673,1.5,1.5S24.827,39.5,24,39.5z M29.468,34.5h1.063c-0.204,0.318-0.384,0.652-0.532,1.004
		C29.853,35.152,29.673,34.818,29.468,34.5z M36,39.5c-0.827,0-1.5-0.673-1.5-1.5s0.673-1.5,1.5-1.5s1.5,0.673,1.5,1.5
		S36.827,39.5,36,39.5z M8.5,8.5h8.759c0.428,1.053,1.08,2.49,1.976,4.072l-5.332,5.333l3.536,3.535l4.648-4.648
		c0.615,0.761,1.288,1.509,2.02,2.223l-4.546,4.546l3.535,3.535l5.005-5.005C30.591,23.549,33.539,24.5,37,24.5
		c1.378,0,2.5,1.121,2.5,2.5s-1.122,2.5-2.5,2.5H11c-1.378,0-2.5-1.121-2.5-2.5V8.5z"/>
</g>
</svg>
