<?xml version="1.0" encoding="utf-8"?><svg xmlns="http://www.w3.org/2000/svg"  height="48" viewBox="0 0 48 48" width="48"><path d="M0 0h48v48H0z" fill="none"/>
<g id="Shopicon">
	<circle cx="20.083" cy="17.997" r="2"/>
	<circle cx="28.002" cy="17.997" r="2"/>
	<path d="M24.083,32.413c4.642,0,8.417-3.774,8.417-8.413h-5c0,1.882-1.533,3.413-3.417,3.413S20.666,25.882,20.666,24h-5
		C15.666,28.639,19.441,32.413,24.083,32.413z"/>
	<path d="M7.083,29c1.65,0,3-1.35,3-3v-2h0.5c0-7.444,6.056-13.5,13.5-13.5s13.5,6.056,13.5,13.5s-6.056,13.5-13.5,13.5V38h-2.014
		c-1.65,0-3,1.35-3,3s1.35,3,3,3h4.014c1.361,0,2.505-0.924,2.868-2.172c6.289-1.72,11.24-6.671,12.96-12.96
		c1.248-0.364,2.172-1.507,2.172-2.868v-4c0-1.361-0.924-2.505-2.172-2.868C39.767,11.289,32.597,5.5,24.083,5.5
		c-8.514,0-15.684,5.789-17.828,13.632C5.007,19.495,4.083,20.639,4.083,22v4C4.083,27.65,5.433,29,7.083,29z"/>
</g>
</svg>
