<?xml version="1.0" encoding="utf-8"?><svg xmlns="http://www.w3.org/2000/svg"  height="48" viewBox="0 0 48 48" width="48"><path d="M0 0h48v48H0z" fill="none"/>
<g id="Shopicon">
	<path d="M23.475,44.444c0.176,0.038,0.353,0.056,0.526,0.056c0.967,0,1.868-0.562,2.278-1.473c2.149-4.771,4.262-9.65,6.279-14.503
		c1.275-3.069,2.543-6.201,3.768-9.31c0.303-0.77,0.206-1.64-0.26-2.323S34.827,15.799,34,15.799h-6.514l-0.052-9.812
		c-0.006-1.141-0.782-2.132-1.888-2.411c-1.108-0.281-2.26,0.226-2.806,1.225l-10.935,20c-0.424,0.774-0.407,1.715,0.043,2.475
		C12.3,28.034,13.117,28.5,14,28.5h7.5V42C21.5,43.179,22.323,44.196,23.475,44.444z M18.216,23.5l4.271-7.811l0.014,2.622
		c0.007,1.376,1.124,2.487,2.5,2.487h5.314c-0.782,1.945-1.576,3.889-2.373,5.806c-0.476,1.144-0.956,2.289-1.441,3.434V26
		c0-1.381-1.119-2.5-2.5-2.5H18.216z"/>
</g>
</svg>
