<?xml version="1.0" encoding="utf-8"?><svg xmlns="http://www.w3.org/2000/svg"  height="48" viewBox="0 0 48 48" width="48"><path d="M0 0h48v48H0z" fill="none"/>
<g id="Shopicon">
	<path d="M37.605,19.032l3.234-1.867l-2.5-4.33l-3.229,1.864c-0.549-0.655-1.154-1.26-1.809-1.809l1.864-3.229l-4.33-2.5
		l-1.867,3.234c-0.794-0.291-1.617-0.515-2.468-0.664V6h-5v3.731c-0.851,0.149-1.674,0.373-2.468,0.664l-1.867-3.234l-4.33,2.5
		l1.864,3.229c-0.655,0.549-1.26,1.154-1.809,1.809l-3.229-1.864l-2.5,4.33l3.234,1.867c-0.291,0.794-0.515,1.617-0.664,2.468H6v5
		h3.731c0.149,0.851,0.373,1.674,0.664,2.468l-3.234,1.867l2.5,4.33l3.229-1.864c0.549,0.655,1.154,1.26,1.809,1.809l-1.864,3.229
		l4.33,2.5l1.867-3.234c0.794,0.291,1.617,0.515,2.468,0.664V42h5v-3.731c0.851-0.149,1.674-0.373,2.468-0.664l1.867,3.234l4.33-2.5
		l-1.864-3.229c0.655-0.549,1.26-1.154,1.809-1.809l3.229,1.864l2.5-4.33l-3.234-1.867c0.291-0.794,0.515-1.617,0.664-2.468H42v-5
		h-3.731C38.12,20.649,37.895,19.826,37.605,19.032z M24,33.5c-5.238,0-9.5-4.262-9.5-9.5s4.262-9.5,9.5-9.5s9.5,4.262,9.5,9.5
		S29.238,33.5,24,33.5z"/>
	<path d="M23.5,21c0,1.93,1.57,3.5,3.5,3.5s3.5-1.57,3.5-3.5s-1.57-3.5-3.5-3.5S23.5,19.07,23.5,21z"/>
	<path d="M24.5,27c0-1.93-1.57-3.5-3.5-3.5s-3.5,1.57-3.5,3.5s1.57,3.5,3.5,3.5S24.5,28.93,24.5,27z"/>
</g>
</svg>
