<?xml version="1.0" encoding="utf-8"?><svg xmlns="http://www.w3.org/2000/svg"  height="48" viewBox="0 0 48 48" width="48"><path d="M0 0h48v48H0z" fill="none"/>
<g id="Shopicon">
	<path d="M44.671,36.827L26.215,4.86c-0.446-0.773-1.271-1.25-2.165-1.25s-1.719,0.477-2.165,1.25L3.429,36.827
		c-0.446,0.773-0.446,1.727,0,2.5s1.271,1.25,2.165,1.25h36.912c0.894,0,1.719-0.477,2.165-1.25S45.117,37.601,44.671,36.827z
		 M9.924,35.577L24.05,11.11l14.126,24.467H9.924z"/>
	<rect x="21.508" y="16.11" transform="matrix(1 -0.0039 0.0039 1 -0.0881 0.094)" width="5" height="13"/>
	<path d="M24.033,31.232c-0.969,0-1.755,0.786-1.755,1.754c0,0.969,0.786,1.755,1.755,1.755s1.755-0.785,1.755-1.755
		C25.788,32.018,25.002,31.232,24.033,31.232z"/>
</g>
</svg>
