<?xml version="1.0" encoding="utf-8"?><svg xmlns="http://www.w3.org/2000/svg"  height="48" viewBox="0 0 48 48" width="48"><path d="M0 0h48v48H0z" fill="none"/>
<g id="Shopicon">
	<path d="M4.129,39.505c1.137,2.427,3.693,3.995,6.512,3.995h13.963c2.76,0,5.236-1.747,6.162-4.347
		c0.617-1.732,1.451-3.292,2.477-4.636c1.58-2.068,3.171-3.051,4.71-4.002c0.182-0.112,0.365-0.226,0.547-0.34V43.5h5V21.819
		c0-0.012,0-0.025,0-0.037V20.5h-0.075c-0.328-3.27-1.846-7.169-4.588-11.778l-3.052-5.131l-1.515,5.774
		c-1.076,4.102-3.497,9.99-8.922,14.758c-3.026,2.659-5.417,4.76-9.028,5.418c-1.24,0.226-2.557,0.292-3.831,0.355
		c-2.917,0.146-5.934,0.298-7.673,2.594c-1.437,1.897-1.363,4.104-1.307,4.73C3.58,38.008,3.788,38.775,4.129,39.505z M8.802,35.51
		c0.332-0.438,2.59-0.552,3.938-0.619c1.367-0.069,2.917-0.146,4.477-0.431c4.974-0.907,8.111-3.663,11.433-6.582
		c4.135-3.634,6.779-7.801,8.468-11.585c1.411,3.361,1.754,5.982,0.953,7.595c-0.465,0.936-1.261,1.457-2.746,2.374
		c-1.745,1.077-3.917,2.419-6.057,5.221c-1.341,1.756-2.422,3.772-3.213,5.993c-0.218,0.612-0.802,1.024-1.452,1.024H10.642
		c-0.875,0-1.672-0.448-1.984-1.115c-0.094-0.201-0.149-0.399-0.167-0.609C8.471,36.563,8.49,35.922,8.802,35.51z"/>
</g>
</svg>
