<?xml version="1.0" encoding="utf-8"?><svg xmlns="http://www.w3.org/2000/svg"  height="48" viewBox="0 0 48 48" width="48"><path d="M0 0h48v48H0z" fill="none"/>
<g id="Shopicon">
	<path d="M38.5,3.5h-28c-0.387,0-0.774,0.037-1.151,0.111C5.957,4.179,3.5,7.067,3.5,10.5v5.875c0,3.859,3.14,7,7,7
		c1.712,0,3.282-0.618,4.5-1.642c1.218,1.023,2.788,1.642,4.5,1.642s3.282-0.618,4.5-1.642c1.218,1.023,2.788,1.642,4.5,1.642
		s3.282-0.618,4.5-1.642c1.218,1.023,2.788,1.642,4.5,1.642c3.859,0,7-3.141,7-7V10.5c0-0.157-0.011-0.312-0.03-0.49
		c0.019-0.168,0.03-0.337,0.03-0.51C44.5,6.191,41.809,3.5,38.5,3.5z M37.5,18.375c-1.103,0-2-0.897-2-2V11.5h-5v4.875
		c0,1.103-0.897,2-2,2s-2-0.897-2-2V11.5h-5v4.875c0,1.103-0.897,2-2,2s-2-0.897-2-2V11.5h-5v4.875c0,1.103-0.897,2-2,2
		s-2-0.897-2-2V10.5c0-0.964,0.727-1.806,1.691-1.96l0.111-0.021c0.063-0.013,0.13-0.02,0.198-0.02h28
		c0.531,0,0.982,0.44,0.999,0.969l0.001,6.906C39.5,17.478,38.603,18.375,37.5,18.375z"/>
	<path d="M5.5,25.5v19h37v-8v-5v-6h-5v6h-15v-6h-5v6v5v3h-7v-14H5.5z M22.5,36.5h15v3h-15V36.5z"/>
</g>
</svg>
