<?xml version="1.0" encoding="utf-8"?><svg xmlns="http://www.w3.org/2000/svg"  height="48" viewBox="0 0 48 48" width="48"><path d="M0 0h48v48H0z" fill="none"/>
<g id="Shopicon">
	<path d="M42,17.861h-3.505c-0.975-4.21-4.748-7.361-9.25-7.361H18.75c-4.503,0-8.276,3.151-9.251,7.361H6
		c-1.381,0-2.5,1.119-2.5,2.5s1.119,2.5,2.5,2.5h1.808c-0.087,0.405-0.136,0.824-0.136,1.255v5.396c0,0.275,0.025,0.544,0.061,0.809
		c-0.024,0.202-0.061,0.4-0.061,0.608v3.828c0,2.856,2.324,5.181,5.18,5.181c2.612,0,4.756-1.95,5.108-4.467h11.926
		c0.352,2.517,2.496,4.467,5.108,4.467c2.856,0,5.18-2.324,5.18-5.181V30.93c0-0.121-0.028-0.235-0.036-0.354
		c0.062-0.345,0.1-0.699,0.1-1.062v-5.396c0-0.431-0.048-0.85-0.136-1.255H42c1.381,0,2.5-1.119,2.5-2.5S43.381,17.861,42,17.861z
		 M33.963,27.749c-0.279,0.202-0.621,0.281-0.957,0.23c-0.339-0.054-0.637-0.236-0.839-0.515s-0.284-0.618-0.23-0.957
		s0.236-0.637,0.515-0.839c0.223-0.162,0.483-0.246,0.753-0.246c0.067,0,0.136,0.005,0.204,0.016
		c0.339,0.054,0.637,0.236,0.839,0.514C34.664,26.526,34.536,27.332,33.963,27.749z M18.75,15.5h10.495
		c1.825,0,3.4,1.092,4.106,2.657H14.642C15.349,16.592,16.924,15.5,18.75,15.5z M15.976,27.748
		C15.976,27.748,15.976,27.748,15.976,27.748c-0.278,0.202-0.617,0.283-0.957,0.23c-0.339-0.054-0.637-0.236-0.839-0.515
		c-0.202-0.277-0.284-0.618-0.23-0.957s0.236-0.637,0.514-0.839c0.222-0.162,0.484-0.246,0.753-0.246
		c0.068,0,0.136,0.005,0.204,0.016c0.339,0.054,0.637,0.236,0.839,0.515C16.677,26.525,16.55,27.331,15.976,27.748z M20.255,30.472
		c1.571-2.104,1.696-5.052,0.145-7.314h7.626c-0.522,0.761-0.879,1.631-1.028,2.569c-0.262,1.658,0.137,3.319,1.124,4.677
		c0.017,0.024,0.037,0.045,0.055,0.068H20.255z"/>
</g>
</svg>
