<?xml version="1.0" encoding="utf-8"?><svg xmlns="http://www.w3.org/2000/svg"  height="48" viewBox="0 0 48 48" width="48"><path d="M0 0h48v48H0z" fill="none"/>
<g id="Shopicon">
	<circle cx="18" cy="28.978" r="2"/>
	<circle cx="30" cy="28.978" r="2"/>
	<path d="M33.724,20.857c1.7-1.678,2.776-4.521,2.776-7.88c0-5.416-2.794-9.5-6.5-9.5c-2.774,0-5.038,2.29-6,5.714
		c-0.962-3.424-3.226-5.714-6-5.714c-3.706,0-6.5,4.084-6.5,9.5c0,3.358,1.076,6.202,2.776,7.88
		C10.385,23.669,7.5,28.002,7.5,32.978c0,6.986,6.477,11.5,16.5,11.5s16.5-4.514,16.5-11.5C40.5,28.002,37.615,23.669,33.724,20.857
		z M29.962,8.473c0.424,0.134,1.538,1.72,1.538,4.505s-1.114,4.371-1.462,4.505c-0.423-0.133-1.538-1.72-1.538-4.505
		S29.614,8.605,29.962,8.473z M17.962,8.473c0.424,0.134,1.538,1.72,1.538,4.505s-1.114,4.371-1.462,4.505
		c-0.423-0.133-1.538-1.72-1.538-4.505S17.614,8.605,17.962,8.473z M24,16.764c0.07,0.249,0.149,0.49,0.232,0.726
		c-0.077-0.001-0.155-0.013-0.232-0.013s-0.155,0.011-0.232,0.013C23.851,17.254,23.93,17.013,24,16.764z M26.5,39.353v-2.875h2v-5
		h-9v5h2v2.875c-4.704-0.461-9-2.301-9-6.375c0-4.756,5.13-10.5,11.5-10.5s11.5,5.744,11.5,10.5
		C35.5,37.052,31.204,38.891,26.5,39.353z"/>
</g>
</svg>
