<?xml version="1.0" encoding="utf-8"?><svg xmlns="http://www.w3.org/2000/svg"  height="48" viewBox="0 0 48 48" width="48"><path d="M0 0h48v48H0z" fill="none"/>
<g id="Shopicon">
	<path d="M21.5,3.5v4.735C14.984,9.411,10,15.075,10,21.846V33.5H5.5v5h12.525C18.28,41.579,20.855,44,24,44s5.72-2.421,5.975-5.5
		H42.5v-5H38V21.846c0-3.808-1.575-7.269-4.107-9.785c-1.979-1.948-4.542-3.312-7.393-3.826V3.5H21.5z M33,33H15V21.846
		C15,16.968,19.037,13,24,13c2.399,0,4.666,0.932,6.369,2.608C32.066,17.294,33,19.509,33,21.846V33z M24,39
		c-0.365,0-0.672-0.207-0.846-0.5h1.693C24.672,38.793,24.365,39,24,39z"/>
</g>
</svg>
