<?xml version="1.0" encoding="utf-8"?><svg xmlns="http://www.w3.org/2000/svg"  height="48" viewBox="0 0 48 48" width="48"><path d="M0 0h48v48H0z" fill="none"/>
<g id="Shopicon">
	<path d="M24,44.5c8.202,0.095,15.976-5.17,18.996-12.78l-3.257-3.257c-5.79,2.348-12.384,1.014-16.799-3.402h0
		c-4.417-4.417-5.752-11.011-3.402-16.799l-3.256-3.257C-4.381,13.75,1.576,44.207,24,44.5z M13.04,13.04
		c0.133-0.132,0.267-0.262,0.403-0.389C12.378,24.814,23.188,35.62,35.35,34.557c-5.683,6.377-16.401,6.574-22.31,0.403
		C6.997,28.917,6.997,19.083,13.04,13.04z"/>
</g>
</svg>
