<?xml version="1.0" encoding="utf-8"?><svg xmlns="http://www.w3.org/2000/svg"  height="48" viewBox="0 0 48 48" width="48"><path d="M0 0h48v48H0z" fill="none"/>
<g id="Shopicon">
	<polygon points="36.215,19.834 41.48,22.438 43.697,17.955 38.727,15.498 39.084,9.965 34.094,9.643 33.715,15.504 26.5,19.67 
		26.5,11.338 31.387,8.08 28.613,3.92 24,6.995 19.387,3.92 16.613,8.08 21.5,11.338 21.5,19.67 14.284,15.504 13.906,9.643 
		8.917,9.965 9.273,15.498 4.304,17.955 6.52,22.438 11.784,19.834 19,24 11.784,28.166 6.52,25.562 4.304,30.045 9.273,32.502 
		8.917,38.035 13.906,38.357 14.284,32.496 21.5,28.33 21.5,36.662 16.613,39.92 19.387,44.08 24,41.005 28.613,44.08 31.387,39.92 
		26.5,36.662 26.5,28.33 33.715,32.496 34.094,38.357 39.084,38.035 38.727,32.502 43.697,30.045 41.48,25.562 36.215,28.166 29,24 
			"/>
</g>
</svg>
