<?xml version="1.0" encoding="utf-8"?><svg xmlns="http://www.w3.org/2000/svg" viewBox="0 0 48 48" style="enable-background:new 0 0 48 48" xml:space="preserve"><style>.st0{fill:none}.st1,.st2,.st3,.st4{fill:none;stroke:#666;stroke-miterlimit:10}.st1{stroke-width:4;stroke-linecap:round;stroke-linejoin:round}.st2,.st3,.st4{stroke-width:5}.st3,.st4{stroke-width:4}.st4{stroke-width:2}.st7{fill:#6f6}.st8{fill:none;stroke:#6f6;stroke-width:.1;stroke-miterlimit:10}</style><g id="Your_Icons"><path d="M42 17.5h-3.369c-.686-4.571-4.627-8.091-9.386-8.091H18.75c-4.759 0-8.701 3.52-9.387 8.091H6a2.5 2.5 0 1 0 0 5h1.682A6.45 6.45 0 0 0 7.5 24v10c0 .173.018.342.051.505C7.806 36.746 9.691 38.5 12 38.5s4.194-1.754 4.449-3.995V34.5H31.55v.005c.256 2.241 2.141 3.995 4.45 3.995s4.194-1.754 4.449-3.995c.033-.163.051-.332.051-.505V24a6.45 6.45 0 0 0-.183-1.5H42a2.5 2.5 0 1 0 0-5zm-23.25-3.091h10.495a4.513 4.513 0 0 1 4.276 3.091H14.473a4.513 4.513 0 0 1 4.277-3.091zM12.5 24c0-.813.687-1.5 1.5-1.5h20c.813 0 1.5.687 1.5 1.5v4c0 .813-.687 1.5-1.5 1.5H14a1.52 1.52 0 0 1-1.5-1.5v-4z"/><circle cx="16" cy="26" r="2.578"/><circle cx="32" cy="26" r="2.578"/></g></svg>