<?xml version="1.0" encoding="utf-8"?><svg xmlns="http://www.w3.org/2000/svg"  height="48" viewBox="0 0 48 48" width="48"><path d="M0 0h48v48H0z" fill="none"/>
<g id="Shopicon">
	<g>
		<path d="M15.5,12v8c0,4.687,3.813,8.5,8.5,8.5s8.5-3.813,8.5-8.5v-8c0-4.687-3.813-8.5-8.5-8.5S15.5,7.313,15.5,12z M27.5,12v8
			c0,1.93-1.57,3.5-3.5,3.5s-3.5-1.57-3.5-3.5v-8c0-1.93,1.57-3.5,3.5-3.5S27.5,10.07,27.5,12z"/>
		<path d="M35.5,19.999c0,6.341-5.159,11.5-11.5,11.5s-11.5-5.159-11.5-11.5v-2h-5v2c0,8.246,6.087,15.079,14,16.29V39.5h-5.52v5H32
			v-5h-5.5v-3.211c7.913-1.211,14-8.044,14-16.29v-2h-5V19.999z"/>
	</g>
</g>
</svg>
