<?xml version="1.0" encoding="utf-8"?><svg xmlns="http://www.w3.org/2000/svg"  height="48" viewBox="0 0 48 48" width="48"><path d="M0 0h48v48H0z" fill="none"/>
<g id="Shopicon">
	<path d="M42.008,27.396l0.108-0.158C43.676,24.758,44.5,21.909,44.5,19c0-8.547-6.953-15.5-15.5-15.5H17.392l1.267,3.378
		c0.016,0.044,0.075,0.198,0.177,0.436c-0.353,0.306-0.707,0.614-1.031,0.951c-2.36,2.448-3.853,5.61-4.242,8.96L9.5,24.335v0.664
		c0,1.066,0.228,1.985,0.624,2.717C6.338,28.573,3.5,31.959,3.5,36c0,4.687,3.813,8.5,8.5,8.5h20.5v-2.45l1.566-0.313
		C35.127,42.667,36.759,43.5,39,43.5c3.899,0,5.873-3.701,6.424-5.889l0.347-1.376l-5.924-5.924L42.008,27.396z M39,38.5
		c-1.167,0-1.646-0.489-1.786-0.673l-0.648-1.689L32.5,36.95V32.5h2.464l5.088,5.088C39.767,38.074,39.395,38.5,39,38.5z M8.5,36
		c0-1.93,1.57-3.5,3.5-3.5h15.5v7H12C10.07,39.5,8.5,37.93,8.5,36z M29,8.5c5.79,0,10.5,4.71,10.5,10.5c0,1.9-0.528,3.761-1.517,5.4
		C32.606,23.357,32.5,14.095,32.5,14v-2.5H30c-1.983,0-3.598-1.471-4.74-3H29z M18.449,18.753l0.043-0.561
		c0.186-2.409,1.22-4.702,2.912-6.457c0.007-0.008,0.016-0.014,0.023-0.021c1.457,1.878,3.503,3.75,6.192,4.473
		c0.398,3.792,1.855,8.638,5.297,11.312H32.5h-5h-9v-3h-3.335L18.449,18.753z"/>
	<rect x="20.878" y="16.879" transform="matrix(0.7071 -0.7071 0.7071 0.7071 -6.6985 21.8283)" width="4.243" height="4.243"/>
	<rect x="4.585" y="22.586" transform="matrix(0.7071 -0.7071 0.7071 0.7071 -15.2134 11.2719)" width="2.828" height="2.828"/>
	<rect x="6.585" y="16.519" transform="matrix(0.7071 -0.7071 0.7071 0.7071 -10.3379 10.9092)" width="2.828" height="2.828"/>
</g>
</svg>
