<?xml version="1.0" encoding="utf-8"?><svg xmlns="http://www.w3.org/2000/svg"  height="48" viewBox="0 0 48 48" width="48"><path d="M0 0h48v48H0z" fill="none"/>
<g id="Shopicon">
	<path d="M24,44.5c5.476,0,10.624-2.133,14.496-6.005L34.96,34.96C32.033,37.888,28.141,39.5,24,39.5c-8.547,0-15.5-6.953-15.5-15.5
		S15.453,8.5,24,8.5S39.5,15.453,39.5,24c0,1.93-1.57,3.5-3.5,3.5s-3.5-1.57-3.5-3.5v-8h-5v0.815C26.442,16.298,25.257,16,24,16
		c-4.418,0-8,3.582-8,8s3.582,8,8,8c2.214,0,4.217-0.899,5.665-2.352C31.223,31.393,33.482,32.5,36,32.5c4.687,0,8.5-3.813,8.5-8.5
		c0-11.304-9.196-20.5-20.5-20.5S3.5,12.696,3.5,24S12.696,44.5,24,44.5z M24,27c-1.654,0-3-1.346-3-3s1.346-3,3-3
		c1.654,0,3,1.346,3,3S25.654,27,24,27z"/>
</g>
</svg>
