<?xml version="1.0" encoding="utf-8"?><svg xmlns="http://www.w3.org/2000/svg"  height="48" viewBox="0 0 48 48" width="48"><path d="M0 0h48v48H0z" fill="none"/>
<g id="Shopicon">
	<polygon points="25.5,4 25.5,7.501 21.999,7.501 21.999,12.501 25.5,12.501 25.5,16.001 30.5,16.001 30.5,12.501 34,12.501 
		34,7.501 30.5,7.501 30.5,4 	"/>
	<path d="M22.939,25.062c-4.417-4.417-5.752-11.011-3.402-16.8L16.28,5.005C2.916,10.151-0.861,28.545,9.505,38.496
		c10.111,10.345,28.207,6.673,33.491-6.775l-3.257-3.257C33.951,30.812,27.357,29.479,22.939,25.062z M34.96,34.961
		c-6.044,6.043-15.877,6.043-21.921,0c-6.195-6.169-6.008-16.369,0.403-22.31c-1.065,12.162,9.747,22.97,21.907,21.906
		C35.222,34.694,35.093,34.828,34.96,34.961z"/>
	<rect x="33.172" y="19.172" transform="matrix(0.7071 -0.7071 0.7071 0.7071 -5.0127 31.8997)" width="5.657" height="5.657"/>
</g>
</svg>
