<?xml version="1.0" encoding="utf-8"?><svg xmlns="http://www.w3.org/2000/svg"  height="48" viewBox="0 0 48 48" width="48"><path d="M0 0h48v48H0z" fill="none"/>
<g id="Shopicon">
	<path d="M40,25.747V8c0-2.2-1.8-4-4-4h-6H18h-6C9.8,4,8,5.8,8,8v15.824C7.334,24.038,6.69,24.358,6.1,24.8
		c-2.867,2.15-3.45,6.232-1.299,9.102C5.125,34.334,12.884,44.5,24,44.5h20.5V32C44.5,29.473,42.794,27.277,40,25.747z
		 M9.098,28.801c0.271-0.202,0.589-0.3,0.903-0.3c0.455,0,0.903,0.204,1.192,0.589C11.248,29.164,16.778,36.5,24,36.5h8V34h0h0v-2.5
		h-8c-0.936,0-1.877-0.24-2.78-0.623C22.548,29.734,25.651,28.5,30,28.5c5.894,0,9.5,2.266,9.5,3.5v7.5H24
		c-8.646,0-15.137-8.515-15.2-8.6C8.304,30.238,8.438,29.296,9.098,28.801z M25,9v2h-2V9H25z M18,9v7h12V9h5v14.991
		c-1.548-0.313-3.223-0.491-5-0.491c-5.809,0-10.613,1.805-12.957,4.559c-0.83-0.764-1.476-1.485-1.844-1.96
		c-0.603-0.803-1.361-1.42-2.199-1.854V9H18z"/>
</g>
</svg>
