<?xml version="1.0" encoding="utf-8"?><svg xmlns="http://www.w3.org/2000/svg"  height="48" viewBox="0 0 48 48" width="48"><path d="M0 0h48v48H0z" fill="none"/>
<g id="Shopicon">
	<path d="M42,12h-0.349C41.873,11.374,42,10.702,42,10c0-3.314-2.686-6-6-6s-6,2.686-6,6c0,0.597,0,0.597,0,0c0-3.314-2.686-6-6-6
		s-6,2.686-6,6c0,0.702,0.127,1.374,0.349,2H18c-1.469,0-2.746,0.812-3.441,2H14C7.4,14,2,19.4,2,26v12h4c0,3.314,2.686,6,6,6
		s6-2.686,6-6h8c0,3.314,2.686,6,6,6s6-2.686,6-6h4c2.2,0,4-1.8,4-4V16C46,13.8,44.2,12,42,12z M12,39c-0.551,0-1-0.449-1-1
		s0.449-1,1-1s1,0.449,1,1S12.551,39,12,39z M7,28.5h6v3.59C12.674,32.035,12.341,32,12,32c-1.226,0-2.364,0.369-3.314,1H7V28.5z
		 M13,19.071V23.5H7.461C8.355,21.171,10.459,19.436,13,19.071z M36,9c0.551,0,1,0.449,1,1s-0.449,1-1,1s-1-0.449-1-1S35.449,9,36,9
		z M24,9c0.551,0,1,0.449,1,1s-0.449,1-1,1s-1-0.449-1-1S23.449,9,24,9z M32,39c-0.551,0-1-0.449-1-1s0.449-1,1-1s1,0.449,1,1
		S32.551,39,32,39z M41,33h-5.686c-0.95-0.631-2.088-1-3.314-1s-2.364,0.369-3.314,1H19V17h5.465l-4,4L24,24.535l6-6l6,6L39.535,21
		l-4-4H41V33z"/>
</g>
</svg>
