<?xml version="1.0" encoding="utf-8"?><svg xmlns="http://www.w3.org/2000/svg"  height="48" viewBox="0 0 48 48" width="48"><path d="M0 0h48v48H0z" fill="none"/>
<g id="Shopicon">
	<path d="M20,22.373c1.624,2.529,4.45,4.127,7.538,4.127c4.941,0,8.962-4.021,8.962-8.962s-4.021-8.961-8.962-8.961H12.462
		c-4.941,0-8.962,4.02-8.962,8.961S7.521,26.5,12.462,26.5C15.55,26.5,18.376,24.902,20,22.373z M16.191,18.857
		c-0.561,1.581-2.059,2.643-3.729,2.643c-2.185,0-3.962-1.777-3.962-3.962c0-2.184,1.777-3.961,3.962-3.961h15.076
		c2.185,0,3.962,1.777,3.962,3.961c0,2.185-1.777,3.962-3.962,3.962c-1.671,0-3.169-1.062-3.729-2.643l-0.59-1.665h-6.438
		L16.191,18.857z"/>
	<path d="M37.5,32c0,4.136-3.364,7.5-7.5,7.5h-2c-2.885,0-4.285-1.71-4.946-3.68C23.926,35.183,24.5,34.16,24.5,33
		c0-1.93-1.57-3.5-3.5-3.5h-2c-1.93,0-3.5,1.57-3.5,3.5c0,1.588,1.071,2.918,2.523,3.344C19.313,41.407,22.942,44.5,28,44.5h2
		c6.724,0,12.209-5.34,12.475-12H42.5V4h-5V32z"/>
</g>
</svg>
