<?xml version="1.0" encoding="utf-8"?><svg xmlns="http://www.w3.org/2000/svg"  height="48" viewBox="0 0 48 48" width="48"><path d="M0 0h48v48H0z" fill="none"/>
<g id="Shopicon">
	<path d="M31.411,17.072l-2.04,1.178c-0.823-0.739-1.795-1.314-2.87-1.666v-2.346h-5v2.346c-1.075,0.352-2.047,0.927-2.87,1.666
		l-2.04-1.178l-2.5,4.33l2.029,1.172c-0.113,0.537-0.175,1.093-0.175,1.663s0.062,1.126,0.175,1.663l-2.029,1.172l2.5,4.33
		l2.04-1.178c0.823,0.739,1.795,1.314,2.87,1.666v2.346h5v-2.346c1.075-0.352,2.047-0.927,2.87-1.666l2.04,1.178l2.5-4.33
		l-2.029-1.172c0.113-0.537,0.175-1.093,0.175-1.663s-0.062-1.126-0.175-1.663l2.029-1.172L31.411,17.072z M27.056,24.237
		c0,1.685-1.371,3.056-3.056,3.056s-3.056-1.371-3.056-3.056s1.371-3.056,3.056-3.056S27.056,22.553,27.056,24.237z"/>
	<path d="M41.527,14.118c-1.789-3.098-4.994-5.124-8.524-5.448c-2-2.855-5.306-4.67-9.002-4.67c-3.696,0-7.002,1.815-9.002,4.67
		c-3.531,0.324-6.735,2.35-8.524,5.448c-1.846,3.197-1.929,6.962-0.462,10.119c-1.467,3.157-1.383,6.923,0.462,10.119
		c1.792,3.102,4.997,5.129,8.528,5.455c2.001,2.851,5.304,4.663,8.998,4.663c3.694,0,6.997-1.812,8.998-4.663
		c3.532-0.325,6.738-2.353,8.529-5.455c1.846-3.197,1.929-6.962,0.462-10.119C43.456,21.08,43.373,17.315,41.527,14.118z
		 M37.197,31.856c-1.111,1.925-3.128,3.001-5.202,3.001c-0.7,0-1.404-0.132-2.084-0.386c-0.476,2.838-2.937,5.003-5.91,5.003
		c-2.973,0-5.435-2.165-5.911-5.003c-0.68,0.254-1.384,0.386-2.084,0.386c-2.074,0-4.09-1.076-5.202-3.001
		c-1.486-2.574-0.843-5.788,1.376-7.619c-2.219-1.832-2.863-5.045-1.376-7.619c1.111-1.923,3.124-2.994,5.195-2.994
		c0.701,0,1.409,0.123,2.091,0.377C18.567,11.164,21.028,9,24.001,9c2.972,0,5.433,2.164,5.91,5.001
		c0.682-0.254,1.39-0.377,2.091-0.377c2.071,0,4.084,1.071,5.195,2.994c1.486,2.574,0.843,5.788-1.376,7.619
		C38.039,26.069,38.683,29.282,37.197,31.856z"/>
</g>
</svg>
