<?xml version="1.0" encoding="utf-8"?><svg xmlns="http://www.w3.org/2000/svg" viewBox="0 0 48 48" style="enable-background:new 0 0 48 48" xml:space="preserve"><path transform="rotate(-180 24 24)" style="fill:none" d="M0 0h48v48H0z"/><path d="M37 15.465 33.465 19l2.5 2.5H28.5v5h7.465l-2.5 2.5L37 32.535 45.535 24zM21.5 12.035V19.5h5v-7.465l2.5 2.5L32.535 11 24 2.465 15.465 11 19 14.535zM19.5 26.5v-5h-8.172l2.5-2.5L11 16.172 3.172 24 11 31.828 13.828 29l-2.5-2.5zM26.5 36.672V28.5h-5v8.172l-2.5-2.5L16.172 37 24 44.828 31.828 37 29 34.172z"/></svg>