<?xml version="1.0" encoding="utf-8"?>
<svg version="1.1" xmlns="http://www.w3.org/2000/svg" xmlns:xlink="http://www.w3.org/1999/xlink" x="0px" y="0px"
	 viewBox="0 0 48 48" style="enable-background:new 0 0 48 48;" xml:space="preserve">
<g id="Your_Icons">
	<path d="M4,40c0,2.2,1.8,4,4,4h32c2.2,0,4-1.8,4-4l0-26h-7.675C35.363,8.057,30.21,3.5,24,3.5S12.637,8.057,11.675,14H4L4,40z
		 M24,8.5c3.442,0,6.343,2.334,7.221,5.5H16.779C17.657,10.834,20.558,8.5,24,8.5z M11.5,19v3h5v-3h15v3h5v-3H39l0,20H9l0-20H11.5z"
		/>
</g>
</svg>
