<?xml version="1.0" encoding="utf-8"?><svg xmlns="http://www.w3.org/2000/svg"  height="48" viewBox="0 0 48 48" width="48"><path d="M0 0h48v48H0z" fill="none"/>
<g id="Shopicon">
	<path d="M37.005,5.5c-4.136,0-7.5,3.364-7.5,7.5v3h5v-3c0-1.379,1.122-2.5,2.5-2.5s2.5,1.121,2.5,2.5v10.5H32h-1.662
		c-1.769,0-3.303,0.965-4.145,2.387c-0.685-0.246-1.42-0.387-2.188-0.387c-0.726,0-1.422,0.125-2.074,0.345
		c-0.767-1.39-2.229-2.345-3.926-2.345h-1h-1H8.5V13c0-1.379,1.122-2.5,2.5-2.5s2.5,1.121,2.5,2.5v3h5v-3c0-4.136-3.364-7.5-7.5-7.5
		S3.5,8.864,3.5,13v15.5h0.005v3.9c0,0.069,0.017,0.132,0.02,0.2C3.52,32.734,3.505,32.865,3.505,33c0,5.238,4.262,9.5,9.5,9.5
		s9.5-4.262,9.5-9.5c0-0.135-0.015-0.266-0.02-0.399c0.003-0.068,0.02-0.132,0.02-0.2V32c0-0.827,0.673-1.5,1.5-1.5
		s1.5,0.673,1.5,1.5v0.066c0,0.107,0.025,0.207,0.031,0.312c-0.013,0.207-0.031,0.412-0.031,0.622c0,5.238,4.262,9.5,9.5,9.5
		s9.5-4.262,9.5-9.5c0-0.21-0.018-0.415-0.031-0.622c0.007-0.105,0.031-0.205,0.031-0.312V28.5v-0.167V13
		C44.505,8.864,41.141,5.5,37.005,5.5z M12,32.5c0.276,0,0.5-0.225,0.5-0.5h5c0,3.032-2.467,5.5-5.5,5.5V32.5z M34,32.5
		c0.276,0,0.5-0.225,0.5-0.5h5c0,3.032-2.467,5.5-5.5,5.5V32.5z"/>
</g>
</svg>
