<?xml version="1.0" encoding="utf-8"?><svg xmlns="http://www.w3.org/2000/svg"  height="48" viewBox="0 0 48 48" width="48"><path d="M0 0h48v48H0z" fill="none"/>
<g id="Shopicon">
	<path d="M41.898,24.799c-2.864-2.146-6.947-1.564-9.082,1.278c-0.374,0.482-1.025,1.212-1.86,1.979
		C28.612,25.304,23.808,23.5,18,23.5c-8.267,0-14.5,3.654-14.5,8.5v12.5H24c11.116,0,18.875-10.166,19.2-10.6
		C45.351,31.032,44.768,26.95,41.898,24.799z M8.5,32c0-1.234,3.606-3.5,9.5-3.5c4.349,0,7.452,1.233,8.78,2.376
		C25.877,31.26,24.936,31.5,24,31.5h-8V34l0,0v2.5h8c7.222,0,12.752-7.336,12.799-7.399c0.497-0.662,1.441-0.797,2.102-0.301
		c0.661,0.496,0.796,1.438,0.301,2.1C39.137,30.985,32.646,39.5,24,39.5H8.5V32z"/>
	<path d="M24,22.33c3.866,0,7-2.91,7-6.5c0-6.5-7-12.071-7-12.071S17,9.33,17,15.83C17,19.42,20.134,22.33,24,22.33z M24,11.006
		c1.087,1.479,2,3.215,2,4.824c0,0.813-0.916,1.5-2,1.5s-2-0.687-2-1.5C22,14.222,22.912,12.486,24,11.006z"/>
</g>
</svg>
