<?xml version="1.0" encoding="utf-8"?><svg xmlns="http://www.w3.org/2000/svg"  height="48" viewBox="0 0 48 48" width="48"><path d="M0 0h48v48H0z" fill="none"/>
<g id="Shopicon">
	<path d="M30.18,17.167L24,4l-6.18,13.167L4,19.279l10,10.249L11.639,44L24,37.167L36.361,44L34,29.528l10-10.249L30.18,17.167z
		 M30.421,26.036l-1.762,1.806l0.406,2.491l0.703,4.31l-3.349-1.851L24,31.454l-2.419,1.337l-3.349,1.851l0.703-4.31l0.406-2.491
		l-1.762-1.806l-3.205-3.284l4.201-0.642l2.637-0.403l1.134-2.415L24,15.768l1.654,3.524l1.134,2.415l2.637,0.403l4.201,0.642
		L30.421,26.036z"/>
</g>
</svg>
