<?xml version="1.0" encoding="utf-8"?><svg xmlns="http://www.w3.org/2000/svg"  height="48" viewBox="0 0 48 48" width="48"><path d="M0 0h48v48H0z" fill="none"/>
<g id="Shopicon">
	<path d="M36.802,19.497C38.161,18.063,39,16.131,39,14c0-4.418-3.582-8-8-8s-8,3.582-8,8c0,2.131,0.839,4.063,2.198,5.497
		c-0.962,0.532-1.842,1.192-2.619,1.957C21.515,18.286,18.527,16,15,16c-4.418,0-8,3.582-8,8c0,2.131,0.839,4.063,2.198,5.497
		C5.503,31.542,3,35.476,3,40h24c0-4.177-2.134-7.851-5.37-10H43C43,25.476,40.497,21.542,36.802,19.497z M31,11
		c1.654,0,3,1.346,3,3s-1.346,3-3,3c-1.654,0-3-1.346-3-3S29.346,11,31,11z M15,21c1.654,0,3,1.346,3,3s-1.346,3-3,3
		c-1.654,0-3-1.346-3-3S13.346,21,15,21z M10.106,35c1.263-1.237,2.991-2,4.894-2c1.903,0,3.631,0.763,4.894,2H10.106z M26.106,25
		c1.263-1.237,2.991-2,4.894-2c1.903,0,3.631,0.763,4.894,2H26.106z"/>
</g>
</svg>
