<?xml version="1.0" encoding="utf-8"?><svg xmlns="http://www.w3.org/2000/svg"  height="48" viewBox="0 0 48 48" width="48"><path d="M0 0h48v48H0z" fill="none"/>
<g id="Shopicon">
	<path d="M10.5,40.083V18.5c0-1.022,0.186-2.008,0.527-2.938l3.623,3.623C13.333,20.375,12.5,22.09,12.5,24
		c0,3.584,2.916,6.5,6.5,6.5v-5c-0.827,0-1.5-0.673-1.5-1.5c0-0.533,0.281-0.998,0.7-1.264l3.369,3.369
		C21.528,26.398,21.5,26.695,21.5,27v4.65V34c0,1.509,0.521,2.896,1.387,4c-0.866,1.104-1.387,2.491-1.387,4v2.5h5V42
		c0-0.813,0.687-1.5,1.5-1.5h2.5H36c3.584,0,6.5-2.916,6.5-6.5V20.5h-2v-5.477h-0.459C38.268,8.423,31.559,3.5,23.577,3.5h-1.154
		C13.092,3.5,5.5,10.229,5.5,18.5v26h5V40.083z M35.5,18.5v2H28c-1.401,0-2.696,0.45-3.758,1.206l-10.26-10.26
		c2.16-1.818,5.146-2.946,8.441-2.946h1.154C30.151,8.5,35.5,12.986,35.5,18.5z M37.5,34c0,0.813-0.687,1.5-1.5,1.5h-5.5H28
		c-0.813,0-1.5-0.687-1.5-1.5v-7c0-0.813,0.687-1.5,1.5-1.5h9.5V34z"/>
	<circle cx="32" cy="17" r="2"/>
</g>
</svg>
