<?xml version="1.0" encoding="utf-8"?>
<svg version="1.1" xmlns="http://www.w3.org/2000/svg" xmlns:xlink="http://www.w3.org/1999/xlink" x="0px" y="0px"
	 viewBox="0 0 48 48" style="enable-background:new 0 0 48 48;" xml:space="preserve">
<g id="Shopicon">
	<rect x="17.5" y="19.5" width="5" height="17"/>
	<rect x="25.5" y="19.5" width="5" height="17"/>
	<path d="M30,4H18c-2.2,0-4,1.8-4,4v3.5H5.5v5H10V40c0,2.2,1.8,4,4,4h20c2.2,0,4-1.8,4-4V16.5h4.5v-5H34V8C34,5.8,32.2,4,30,4z
		 M19,9h10v2H19V9z M33,39H15V17h18V39z"/>
</g>
</svg>
