<?xml version="1.0" encoding="utf-8"?><svg xmlns="http://www.w3.org/2000/svg" viewBox="0 0 48 48" style="enable-background:new 0 0 48 48" xml:space="preserve"><style>.st1{fill:none;stroke:#666;stroke-width:4;stroke-linecap:round;stroke-linejoin:round;stroke-miterlimit:10}.st4{fill:#6f6}.st5{fill:none;stroke:#6f6;stroke-width:.1;stroke-miterlimit:10}</style><g id="Your_Icons"><path style="fill:none" d="M0 .008h48v48H0z"/><path d="M29 11.922h12v5H29zM35 40.922c-5.86 0-9.5-4.406-9.5-11.5s3.64-11.5 9.5-11.5 9.5 4.406 9.5 11.5v2.5H30.712c.512 2.657 1.948 4 4.288 4 2.625 0 3.818-.718 5.1-2.042l3.593 3.477c-2.419 2.498-5.019 3.565-8.693 3.565zm-4.288-14h8.576c-.512-2.657-1.948-4-4.288-4s-3.776 1.343-4.288 4zM19.305 22.795a8.952 8.952 0 0 0 2.195-5.873c0-4.963-4.038-9-9-9h-9v33h10c5.514 0 10-4.486 10-10 0-3.349-1.66-6.311-4.195-8.127zM12.5 12.922c2.206 0 4 1.794 4 4s-1.794 4-4 4h-4v-8h4zm1 23h-5v-10h5c2.757 0 5 2.243 5 5s-2.243 5-5 5z"/></g></svg>