<?xml version="1.0" encoding="utf-8"?>
<!-- Generator: Adobe Illustrator 24.0.3, SVG Export Plug-In . SVG Version: 6.00 Build 0)  -->
<svg version="1.1" id="Ebene_1" xmlns="http://www.w3.org/2000/svg" xmlns:xlink="http://www.w3.org/1999/xlink" x="0px" y="0px"
	 viewBox="0 0 48 48" style="enable-background:new 0 0 48 48;" xml:space="preserve">
<style type="text/css">
	.st0{fill:none;}
</style>
<path class="st0" d="M0,0h48v48H0V0z"/>
<g id="Guidelines">
	<g id="material_x5F_system_x5F_icon_x5F_border">
	</g>
</g>
<g id="Shopicon">
	<path d="M16,36.5h4v-5h-4c-4.1,0-7.5-3.4-7.5-7.5s3.4-7.5,7.5-7.5h4v-5h-4C9.1,11.5,3.5,17.1,3.5,24S9.1,36.5,16,36.5z"/>
	<path d="M32,11.5h-4v5h4c4.1,0,7.5,3.4,7.5,7.5s-3.4,7.5-7.5,7.5h-4v5h4c6.9,0,12.5-5.6,12.5-12.5S38.9,11.5,32,11.5z"/>
	<rect x="16" y="21.5" width="16" height="5"/>
</g>
</svg>
