<?xml version="1.0" encoding="utf-8"?><svg xmlns="http://www.w3.org/2000/svg"  height="48" viewBox="0 0 48 48" width="48"><path d="M0 0h48v48H0z" fill="none"/>
<g id="Shopicon">
	<path d="M24,38c12,0,20-14,20-14s-8-14-20-14S4,24,4,24S12,38,24,38z M24,15c5.871,0,11.131,5.234,13.971,8.983
		C35.426,27.357,30.237,33,24,33c-5.871,0-11.131-5.234-13.971-8.983C12.574,20.643,17.763,15,24,15z"/>
	<path d="M24,32c4.418,0,8-3.582,8-8s-3.582-8-8-8s-8,3.582-8,8S19.582,32,24,32z M24,21c1.654,0,3,1.346,3,3c0,1.654-1.346,3-3,3
		c-1.654,0-3-1.346-3-3C21,22.346,22.346,21,24,21z"/>
</g>
</svg>
