<?xml version="1.0" encoding="utf-8"?><svg xmlns="http://www.w3.org/2000/svg"  height="48" viewBox="0 0 48 48" width="48"><path d="M0 0h48v48H0z" fill="none"/>
<g id="Shopicon">
	<path d="M5.699,22.431c-0.839,0.885-2.108,2.223-2.108,4.426V38c0,3.584,2.916,6.5,6.5,6.5h12c3.584,0,6.5-2.916,6.5-6.5V26.856
		c0-3.259-2.815-4.615-4.872-5.605c-2.637-1.27-4.128-2.116-4.128-4.751h0.204l1.385-0.846l5.114,5.114l3.535-3.535l-4.26-4.26
		l0.932-0.57V3.5H10.398L3.616,7.569L3.454,16.5h3.137V21C6.591,21.442,6.41,21.681,5.699,22.431z M8.565,10.431L11.783,8.5H21.5
		v1.098L18.387,11.5h-3.796h-3H8.546L8.565,10.431z M14.163,16.5c0.134,0.156,0.3,0.396,0.445,0.644
		c0.304,5.417,4.436,7.406,6.941,8.612c0.708,0.341,1.758,0.847,2.041,1.161V38c0,0.813-0.687,1.5-1.5,1.5h-12
		c-0.813,0-1.5-0.687-1.5-1.5V26.856c0-0.179,0.184-0.402,0.735-0.984c0.902-0.95,2.265-2.388,2.265-4.872v-4.5H14.163z"/>
	<polygon points="10.091,34.5 13.591,34.5 13.591,38 18.591,38 18.591,34.5 22.091,34.5 22.091,29.5 18.591,29.5 18.591,26 
		13.591,26 13.591,29.5 10.091,29.5 	"/>
	<circle cx="30.091" cy="8" r="2"/>
	<circle cx="36.091" cy="8" r="2"/>
	<circle cx="42.091" cy="8" r="2"/>
	<circle cx="33.091" cy="13" r="2"/>
	<circle cx="37.091" cy="17" r="2"/>
</g>
</svg>
