<?xml version="1.0" encoding="utf-8"?><svg xmlns="http://www.w3.org/2000/svg"  height="48" viewBox="0 0 48 48" width="48"><path d="M0 0h48v48H0z" fill="none"/>
<g id="Shopicon">
	<path d="M11.567,32.897L6.464,38L10,41.535l5.755-5.755C18.207,37.11,20.976,38,24,38c12,0,20-14,20-14s-2.799-4.896-7.567-8.897
		L41.536,10L38,6.465l-5.755,5.755C29.793,10.89,27.024,10,24,10C12,10,4,24,4,24S6.799,28.896,11.567,32.897z M37.971,23.983
		C35.426,27.357,30.237,33,24,33c-1.55,0-3.055-0.372-4.487-0.978l0.886-0.886C21.482,31.684,22.703,32,24,32c4.418,0,8-3.582,8-8
		c0-1.297-0.316-2.518-0.863-3.601l1.732-1.733C34.945,20.336,36.701,22.307,37.971,23.983z M26.94,24.596
		c-0.238,1.177-1.167,2.106-2.344,2.344L26.94,24.596z M21.06,23.404c0.238-1.177,1.167-2.106,2.344-2.344L21.06,23.404z M24,15
		c1.55,0,3.055,0.372,4.487,0.978l-0.886,0.886C26.518,16.316,25.297,16,24,16c-4.418,0-8,3.582-8,8
		c0,1.297,0.316,2.518,0.863,3.601l-1.732,1.733c-2.076-1.669-3.832-3.64-5.102-5.317C12.574,20.643,17.763,15,24,15z"/>
</g>
</svg>
