<?xml version="1.0" encoding="utf-8"?><svg xmlns="http://www.w3.org/2000/svg" viewBox="0 0 48 48" style="enable-background:new 0 0 48 48" xml:space="preserve"><style>.st3{display:none}.st5{display:inline}</style><g id="Your_Icons"><path d="M0 0h48v48H0V0z" style="fill:none"/><path d="M36 8.009h-1v-2a3 3 0 0 0-3-3H22a3 3 0 0 0-3 3v2h-1a3 3 0 0 0-3 3v8.393c-5.173 1.334-9 6.017-9 11.607 0 6.627 5.373 12 12 12 3.55 0 6.729-1.55 8.926-4H36a3 3 0 0 0 3-3v-25a3 3 0 0 0-3-3zm-18 30c-3.86 0-7-3.14-7-7s3.14-7 7-7 7 3.14 7 7-3.14 7-7 7zm15-5h-3.18c.11-.652.18-1.317.18-2 0-5.59-3.827-10.273-9-11.607v-5.393h12v19z"/><path d="M23 29.009h-3v-3h-4v3h-3v4h3v3h4v-3h3z"/></g></svg>