<svg xmlns="http://www.w3.org/2000/svg"  height="48" width="48" viewBox="0 0 48 48">
  <title>Shopicons_Bold_Link_Off</title>
  <path d="M0,0H48V48H0Z" transform="translate(0 0)" style="fill: none"/>
  <g>
    <polygon points="30.2 14.3 25.3 19.1 26.3 21.7 28.9 22.7 33.7 17.8 30.2 14.3"/>
    <polygon points="17.7 33.8 22.6 29 21.6 26.4 19 25.4 14.2 30.3 17.7 33.8"/>
    <polygon points="21 16 15.9 21 24 24 21 16"/>
    <polygon points="32 27 24 24 27 32 32 27"/>
    <path d="M24.1,34.5l-2.8,2.8A7.5,7.5,0,0,1,10.7,26.7l2.8-2.8-.8-.9-1.5-1.5L10,20.3,7.2,23.1a12.34,12.34,0,0,0-3.7,8.8,12.17,12.17,0,0,0,3.7,8.8A12.34,12.34,0,0,0,16,44.4a12.17,12.17,0,0,0,8.8-3.7l2.8-2.8-1.2-1.2L25,35.3Z" transform="translate(0 0)"/>
    <path d="M40.7,7.3a12.34,12.34,0,0,0-8.8-3.7A12.57,12.57,0,0,0,23,7.3l-2.8,2.8,1.2,1.2,1.5,1.5.8.8,2.8-2.8A7.5,7.5,0,0,1,37.1,21.4l-2.8,2.8.8.8,1.5,1.5,1.2,1.2,2.8-2.8a12.34,12.34,0,0,0,3.7-8.8A12.08,12.08,0,0,0,40.7,7.3Z" transform="translate(0 0)"/>
  </g>
</svg>
