<?xml version="1.0" encoding="UTF-8"?><svg id="Shopicons" xmlns="http://www.w3.org/2000/svg" viewBox="0 0 48 48"><defs><style>.cls-1{fill:none;}</style></defs><rect class="cls-1" width="48" height="48"/><rect x="12" y="21.5" width="4" height="5"/><rect x="18" y="21.5" width="4" height="5"/><rect x="12" y="27.5" width="4" height="5"/><rect x="18" y="27.5" width="4" height="5"/><rect x="12" y="33.5" width="4" height="5"/><rect x="18" y="33.5" width="4" height="5"/><path d="m19.5,3.5v12h-6.5v-4h-4v4h-3.5v29h37V3.5h-23Zm4,17v19h-13v-19h13Zm14-11h-7.5v5h7.5v1h-7.5v5h7.5v1h-7.5v5h7.5v1h-7.5v5h7.5v1h-7.5v5h7.5v1h-9V15.5h-4v-7h13v1Z"/></svg>