<?xml version="1.0" encoding="utf-8"?><svg xmlns="http://www.w3.org/2000/svg"  height="48" viewBox="0 0 48 48" width="48"><path d="M0 0h48v48H0z" fill="none"/>
<g id="Shopicon">
	<path d="M24,34.5c5.79,0,10.5-4.71,10.5-10.5S29.79,13.5,24,13.5c-5.79,0-10.5,4.71-10.5,10.5S18.21,34.5,24,34.5z M24,18.5
		c3.032,0,5.5,2.468,5.5,5.5s-2.468,5.5-5.5,5.5c-3.033,0-5.5-2.468-5.5-5.5S20.967,18.5,24,18.5z"/>
	<rect x="21.5" y="4" width="5" height="6"/>
	<rect x="21.5" y="38" width="5" height="6"/>
	<rect x="4" y="21.5" width="6" height="5"/>
	<rect x="38" y="21.5" width="6" height="5"/>
	<rect x="13" y="6.278" transform="matrix(0.866 -0.5 0.5 0.866 -2.5623 8.9931)" width="5" height="6"/>
	<rect x="30" y="35.722" transform="matrix(0.866 -0.5 0.5 0.866 -15.0067 21.4372)" width="5" height="6"/>
	<rect x="6.277" y="30" transform="matrix(0.866 -0.5 0.5 0.866 -15.0068 8.9926)" width="6" height="5"/>
	<rect x="35.722" y="13" transform="matrix(0.866 -0.5 0.5 0.866 -2.5622 21.4379)" width="6" height="5"/>
	<rect x="6.777" y="12.5" transform="matrix(0.5 -0.866 0.866 0.5 -8.7847 15.7843)" width="5" height="6"/>
	<rect x="36.222" y="29.5" transform="matrix(0.5 -0.866 0.866 0.5 -8.7845 49.7849)" width="5" height="6"/>
	<rect x="12.5" y="36.222" transform="matrix(0.5 -0.866 0.866 0.5 -25.7845 32.7841)" width="6" height="5"/>
	<rect x="29.5" y="6.777" transform="matrix(0.5001 -0.866 0.866 0.5001 8.2139 32.7828)" width="5.999" height="5"/>
</g>
</svg>
