<?xml version="1.0" encoding="utf-8"?><svg xmlns="http://www.w3.org/2000/svg"  height="48" viewBox="0 0 48 48" width="48"><path d="M0 0h48v48H0z" fill="none"/>
<g id="Shopicon">
	<path d="M13.614,20.765L24,46.731l10.386-25.967C35.715,19.556,36.5,17.853,36.5,16c0-1.479-0.494-2.883-1.404-4.027
		C33.745,7.023,29.187,3.5,24,3.5c-5.188,0-9.745,3.523-11.096,8.473C11.994,13.117,11.5,14.521,11.5,16
		C11.5,17.853,12.285,19.556,13.614,20.765z M19.692,22.5h8.615L24,33.269L19.692,22.5z M16.948,14.94l0.535-0.53l0.153-0.738
		C18.258,10.675,20.935,8.5,24,8.5s5.742,2.175,6.363,5.172l0.153,0.738l0.535,0.53C31.341,15.227,31.5,15.603,31.5,16
		c0,0.678-0.445,1.136-0.862,1.339L30.308,17.5H17.692l-0.329-0.161C16.945,17.136,16.5,16.678,16.5,16
		C16.5,15.603,16.659,15.227,16.948,14.94z"/>
</g>
</svg>
