<?xml version="1.0" encoding="utf-8"?><svg xmlns="http://www.w3.org/2000/svg"  height="48" viewBox="0 0 48 48" width="48"><path d="M0 0h48v48H0z" fill="none"/>
<g id="Shopicon">
	<path d="M31.425,13.04l-14.85,14.849l3.535,3.535l14.85-14.848c0.973-0.975,2.56-0.976,3.536-0.001
		c0.975,0.975,0.975,2.562,0,3.536l-3.536,3.535l-0.001-0.001l-6.033,6.034l-5.28,5.279l0.001,0.001
		c-2.923,2.923-7.682,2.924-10.606,0.001c-2.924-2.924-2.923-7.682,0.001-10.606L28.596,8.797l-3.535-3.535L9.506,20.819
		c-4.874,4.874-4.874,12.804-0.001,17.677c2.437,2.437,5.637,3.654,8.838,3.654s6.402-1.219,8.839-3.655l4.482-4.483l10.368-10.365
		c2.923-2.925,2.923-7.683-0.001-10.607C39.106,10.116,34.348,10.116,31.425,13.04z"/>
</g>
</svg>
