<?xml version="1.0" encoding="utf-8"?><svg xmlns="http://www.w3.org/2000/svg"  height="48" viewBox="0 0 48 48" width="48"><path d="M0 0h48v48H0z" fill="none"/>
<g id="Shopicon">
	<path d="M35.198,26.5H18.802l-7-21H3.5v5h4.698l6.123,18.37L9.154,40.5h9.536C18.27,40.867,18,41.399,18,42c0,1.105,0.895,2,2,2
		c1.105,0,2-0.895,2-2c0-0.601-0.27-1.133-0.69-1.5h9.379C30.27,40.867,30,41.399,30,42c0,1.105,0.895,2,2,2c1.105,0,2-0.895,2-2
		c0-0.601-0.27-1.133-0.69-1.5h7.19v-5H16.847l1.778-4h20.177l6.36-19.081l-4.743-1.581L35.198,26.5z"/>
	<polygon points="29.5,20.5 29.5,14.5 35.5,14.5 35.5,9.5 29.5,9.5 29.5,3.5 24.5,3.5 24.5,9.5 18.5,9.5 18.5,14.5 24.5,14.5 
		24.5,20.5 	"/>
</g>
</svg>
