<?xml version="1.0" encoding="utf-8"?><svg xmlns="http://www.w3.org/2000/svg"  height="48" viewBox="0 0 48 48" width="48"><path d="M0 0h48v48H0z" fill="none"/>
<g id="Shopicon">
	<path d="M40,12h-4.349C35.873,11.374,36,10.702,36,10c0-3.314-2.686-6-6-6s-6,2.686-6,6c0,0.165,0.012,0.328,0.025,0.49L24,10.465
		l-0.025,0.025C23.988,10.328,24,10.165,24,10c0-3.314-2.686-6-6-6s-6,2.686-6,6c0,0.702,0.127,1.374,0.349,2H8c-2.2,0-4,1.8-4,4v24
		c0,2.2,1.8,4,4,4h32c2.2,0,4-1.8,4-4V16C44,13.8,42.2,12,40,12z M30,9c0.551,0,1,0.449,1,1s-0.449,1-1,1s-1-0.449-1-1
		S29.449,9,30,9z M18,9c0.551,0,1,0.449,1,1s-0.449,1-1,1s-1-0.449-1-1S17.449,9,18,9z M17.465,17l-5,5L16,25.535l8-8l8,8L35.536,22
		l-5-5H39v12.5H9V17H17.465z M9,39v-4.5h30V39H9z"/>
</g>
</svg>
