<?xml version="1.0" encoding="utf-8"?><svg version="1.1" id="Shopicons" xmlns="http://www.w3.org/2000/svg" x="0" y="0" viewBox="0 0 48 48" xml:space="preserve"><style>.st1{fill:#fff}.st2,.st3{fill:none;stroke:#666;stroke-width:4;stroke-miterlimit:10}.st3{stroke-width:6}</style><g id="pinterest"><path d="M0 .019h48v48H0v-48z" fill="none"/><path d="M24 3C12.421 3 3 12.421 3 24s9.421 21 21 21 21-9.421 21-21S35.579 3 24 3zm0 36c-.879 0-1.735-.091-2.572-.237l1.031-3.917c1.876 1.361 4.338 1.747 6.779 1.021C33.809 34.504 37 29.624 37 24c0-7.168-5.832-13-13-13-7.058 0-10.863 4.305-11.978 7.992-1.344 4.447.385 8.291 1.618 9.861l4.177-4.834c-.058-.077-.638-1.464-.051-3.292C18.316 19.017 20.23 17 24 17c3.859 0 7 3.141 7 7 0 2.896-1.495 5.526-3.477 6.117-.255.077-1.134.286-1.671-.237-.275-.27-1.537-1.869-.113-7.5l.162-.616-5.796-1.553c-.06.219-.116.436-.171.65l-4.129 15.687C11.713 33.867 9 29.248 9 24c0-8.271 6.729-15 15-15s15 6.729 15 15-6.729 15-15 15z"/></g></svg>