<?xml version="1.0" encoding="utf-8"?><svg xmlns="http://www.w3.org/2000/svg"  height="48" viewBox="0 0 48 48" width="48"><path d="M0 0h48v48H0z" fill="none"/>
<g id="Shopicon">
	<rect x="17.048" y="22" width="13.952" height="2"/>
	<rect x="17.048" y="26" width="13.952" height="2"/>
	<rect x="19" y="30" width="10" height="2"/>
	<path d="M14.31,36.373c2.456,2.54,5.891,4.127,9.695,4.127c3.807,0,7.244-1.59,9.7-4.133C36.905,35.414,44.5,28.992,44.5,24
		c0-1.482-0.671-6.214-8.812-6.475l-11.683-6.373l-11.683,6.372C4.17,17.781,3.499,22.517,3.499,24
		C3.499,29,11.119,35.435,14.31,36.373z M39.5,24c0,0.826-0.869,2.089-2.013,3.353c0.003-0.118,0.018-0.234,0.018-0.353v-4.276
		C38.594,22.939,39.5,23.33,39.5,24z M15.505,21.484l8.5-4.637l8.5,4.637V27c0,4.687-3.813,8.5-8.5,8.5c-4.687,0-8.5-3.813-8.5-8.5
		V21.484z M10.505,22.722V27c0,0.123,0.015,0.243,0.018,0.365C9.373,26.097,8.499,24.829,8.499,24
		C8.499,23.328,9.411,22.936,10.505,22.722z"/>
</g>
</svg>
