<?xml version="1.0" encoding="utf-8"?><svg xmlns="http://www.w3.org/2000/svg"  height="48" viewBox="0 0 48 48" width="48"><path d="M0 0h48v48H0z" fill="none"/>
<g id="Shopicon">
	<rect x="21.5" y="13.5" width="15" height="5"/>
	<rect x="21.5" y="21.5" width="11" height="5"/>
	<path d="M42,6H18c-2.2,0-4,1.8-4,4v4C7.4,14,2,19.4,2,26v12h4.025c0.256,3.355,3.054,6,6.475,6s6.219-2.645,6.475-6h6.051
		c0.256,3.355,3.054,6,6.475,6s6.219-2.645,6.475-6H42c2.2,0,4-1.8,4-4V10C46,7.8,44.2,6,42,6z M12.5,39c-0.827,0-1.5-0.673-1.5-1.5
		s0.673-1.5,1.5-1.5s1.5,0.673,1.5,1.5S13.327,39,12.5,39z M7,33v-4.5h6v2.525C12.834,31.013,12.669,31,12.5,31
		c-1.842,0-3.501,0.769-4.684,2H7z M13,19.071V23.5H7.461C8.355,21.171,10.459,19.436,13,19.071z M31.5,39
		c-0.827,0-1.5-0.673-1.5-1.5s0.673-1.5,1.5-1.5s1.5,0.673,1.5,1.5S32.327,39,31.5,39z M41,33h-4.816c-1.183-1.231-2.842-2-4.684-2
		s-3.501,0.769-4.684,2H19V11h22V33z"/>
</g>
</svg>
