<?xml version="1.0" encoding="utf-8"?><svg xmlns="http://www.w3.org/2000/svg"  height="48" viewBox="0 0 48 48" width="48"><path d="M0 0h48v48H0z" fill="none"/>
<g id="Shopicon">
	<path d="M24,32.5c5.79,0,10.5-3.813,10.5-8.5s-4.71-8.5-10.5-8.5S13.5,19.313,13.5,24S18.21,32.5,24,32.5z M24,20.5
		c2.93,0,5.5,1.636,5.5,3.5s-2.57,3.5-5.5,3.5s-5.5-1.636-5.5-3.5S21.07,20.5,24,20.5z"/>
	<path d="M40,38c2.2,0,4-1.8,4-4V14c0-2.2-1.8-4-4-4H8c-2.2,0-4,1.8-4,4v20c0,2.2,1.8,4,4,4H40z M9,31.396
		c0.639,0.418,1.186,0.964,1.604,1.604H9V31.396z M16.058,15h15.884c1.01,3.38,3.678,6.048,7.058,7.058v3.884
		c-3.38,1.01-6.048,3.678-7.058,7.058H16.058c-1.01-3.38-3.678-6.048-7.058-7.058v-3.884C12.38,21.048,15.048,18.38,16.058,15z
		 M37.396,33c0.418-0.639,0.964-1.186,1.604-1.604V33H37.396z M39,16.604c-0.639-0.418-1.186-0.964-1.604-1.604H39V16.604z
		 M10.604,15C10.186,15.639,9.639,16.186,9,16.604V15H10.604z"/>
</g>
</svg>
