<?xml version="1.0" encoding="utf-8"?><svg xmlns="http://www.w3.org/2000/svg"  height="48" viewBox="0 0 48 48" width="48"><path d="M0 0h48v48H0z" fill="none"/>
<g id="Shopicon">
	<path d="M20,20.5c4.687,0,8.5-3.813,8.5-8.5S24.687,3.5,20,3.5s-8.5,3.813-8.5,8.5S15.313,20.5,20,20.5z M20,8.5
		c1.93,0,3.5,1.57,3.5,3.5s-1.57,3.5-3.5,3.5s-3.5-1.57-3.5-3.5S18.07,8.5,20,8.5z"/>
	<polygon points="39.966,22.547 30.714,35.5 8.964,35.5 4.232,40.232 7.768,43.768 11.036,40.5 31.964,40.5 35.232,43.768 
		38.768,40.232 35.682,37.146 44.034,25.453 	"/>
	<path d="M35.006,19.877c0.592,0.41,1.28,0.624,1.986,0.624c0.21,0,0.422-0.019,0.633-0.058c0.919-0.167,1.719-0.682,2.251-1.45
		c1.098-1.584,0.704-3.767-0.884-4.871c-1.585-1.098-3.771-0.701-4.87,0.886c-0.532,0.768-0.733,1.697-0.567,2.617
		C33.723,18.545,34.238,19.345,35.006,19.877z"/>
	<path d="M17,28.86l7.409,4.116c0.264,0.325,0.559,0.627,0.913,0.872c0.78,0.541,1.672,0.8,2.557,0.8
		c1.427,0,2.832-0.676,3.706-1.935l4.558-6.575c0.683-0.986,0.941-2.182,0.726-3.366s-0.876-2.213-1.861-2.895
		c-0.985-0.684-2.178-0.94-3.366-0.729c-1.184,0.215-2.212,0.876-2.896,1.862l-4.33,6.247L17,23.14L4.601,30.028l2.428,4.371
		L17,28.86z"/>
</g>
</svg>
