<?xml version="1.0" encoding="utf-8"?>
<!-- Generator: Adobe Illustrator 25.1.0, SVG Export Plug-In . SVG Version: 6.00 Build 0)  -->
<svg version="1.1" xmlns="http://www.w3.org/2000/svg" xmlns:xlink="http://www.w3.org/1999/xlink" x="0px" y="0px" width="48px"
	 height="48px" viewBox="0 0 48 48" style="enable-background:new 0 0 48 48;" xml:space="preserve">
<g id="Guidelines">
	<g id="material_x5F_system_x5F_icon_x5F_border">
	</g>
</g>
<g id="Shopicon">
	<polygon points="30.183,14.282 25.316,19.149 26.28,21.72 28.851,22.684 33.718,17.817 	"/>
	<polygon points="17.718,33.817 22.584,28.951 21.62,26.38 19.049,25.416 14.183,30.282 	"/>
	<polygon points="20.95,16.05 15.95,21.05 23.95,24.05 	"/>
	<polygon points="31.95,27.05 23.95,24.05 26.95,32.05 	"/>
	<path d="M24.131,34.475l-2.827,2.829c-2.924,2.924-7.684,2.924-10.607,0c-2.924-2.925-2.924-7.683,0-10.606l2.829-2.828
		l-0.838-0.839l-1.48-1.481L9.99,20.332l-2.829,2.829C4.8,25.521,3.5,28.661,3.5,32s1.3,6.479,3.661,8.839
		C9.521,43.2,12.661,44.5,16,44.5s6.479-1.3,8.84-3.661l2.828-2.829l-1.218-1.217l-1.481-1.48L24.131,34.475z"/>
	<path d="M40.718,7.282c-2.36-2.361-5.5-3.661-8.839-3.661s-6.479,1.3-8.84,3.661l-2.828,2.829l1.218,1.217l1.527,1.526l0.792,0.792
		l2.827-2.829c2.924-2.924,7.684-2.924,10.607,0c2.924,2.925,2.924,7.683,0,10.606l-2.829,2.828l0.792,0.792l1.526,1.527
		l1.217,1.218l2.829-2.829c2.361-2.36,3.661-5.5,3.661-8.839S43.079,9.643,40.718,7.282z"/>
</g>
</svg>
