<?xml version="1.0" encoding="utf-8"?><svg xmlns="http://www.w3.org/2000/svg"  height="48" viewBox="0 0 48 48" width="48"><path d="M0 0h48v48H0z" fill="none"/>
<g id="Shopicon">
	<path d="M24.987,3.529c-5.646-0.295-11.031,1.68-15.13,5.569c-4.1,3.89-6.357,9.145-6.357,14.794c0,6.422,3.08,12.544,8.24,16.378
		c1.108,0.822,2.675,0.592,3.498-0.516c0.823-1.108,0.593-2.675-0.516-3.498C10.768,33.318,8.5,28.812,8.5,23.893
		c0-4.265,1.704-8.23,4.799-11.167c3.093-2.935,7.159-4.423,11.427-4.204c7.746,0.406,14.133,6.793,14.539,14.539
		c0.358,6.838-3.9,13.167-10.355,15.391c-0.773,0.266-1.385-0.046-1.68-0.256c-0.531-0.379-0.837-0.969-0.837-1.617v-3.951
		c2.199-0.966,3.747-3.159,3.763-5.7c0.136-0.308,0.214-0.647,0.214-1.006v-8.946c0-1.381-1.119-2.5-2.5-2.5s-2.5,1.119-2.5,2.5V20
		H22.5v-3c0-1.381-1.119-2.5-2.5-2.5s-2.5,1.119-2.5,2.5v8.946c0,0.266,0.053,0.517,0.13,0.758v0.186
		c0,2.557,1.554,4.766,3.763,5.736v3.952c0,2.251,1.097,4.378,2.935,5.688c1.194,0.853,2.572,1.29,3.973,1.29
		c0.748,0,1.502-0.125,2.238-0.379c8.552-2.945,14.193-11.326,13.719-20.379C43.719,12.531,35.255,4.067,24.987,3.529z"/>
</g>
</svg>
