<?xml version="1.0" encoding="utf-8"?>
<svg version="1.1" xmlns="http://www.w3.org/2000/svg" xmlns:xlink="http://www.w3.org/1999/xlink" x="0px" y="0px"
	 viewBox="0 0 48 48" style="enable-background:new 0 0 48 48;" xml:space="preserve">
<g id="Your_Icons">
	<path d="M26.5,22.193v-2.068c3.471-1.07,6-4.308,6-8.125c0-4.687-3.813-8.5-8.5-8.5s-8.5,3.813-8.5,8.5h5c0-1.93,1.57-3.5,3.5-3.5
		s3.5,1.57,3.5,3.5s-1.57,3.5-3.5,3.5h-2.5v6.693C12.188,23.483,5,31.844,5,42h38C43,31.844,35.812,23.483,26.5,22.193z M10.8,37
		c1.926-5.82,7.116-10,13.2-10c6.084,0,11.274,4.18,13.2,10H10.8z"/>
</g>
</svg>
