<?xml version="1.0" encoding="utf-8"?><svg xmlns="http://www.w3.org/2000/svg"  height="48" viewBox="0 0 48 48" width="48"><path d="M0 0h48v48H0z" fill="none"/>
<g id="Shopicon">
	<circle cx="34" cy="20" r="2"/>
	<path d="M38.965,12c-2.737-4.087-7.108-6.972-12.175-7.762c-0.239-0.041-0.478-0.08-0.721-0.11
		c-0.15-0.017-0.301-0.033-0.452-0.046C25.112,4.033,24.602,4,24.083,4c-0.014,0-0.028,0.002-0.042,0.002
		C24.028,4.002,24.014,4,24,4c-4.58,0-8.747,1.725-11.924,4.542L8.938,5.404L5.403,8.939l3.416,3.416C7.043,15.145,6,18.448,6,22
		c0,3.327,0.918,6.432,2.492,9.106l-1.718,1.718c-1.556,1.556-1.556,4.101,0,5.657l2.828,2.828c0.778,0.778,1.803,1.167,2.828,1.167
		c1.025,0,2.051-0.389,2.828-1.167l2.458-2.458C19.676,39.581,21.787,40,24,40c2.259,0,4.412-0.434,6.404-1.194l2.503,2.503
		c0.778,0.778,1.803,1.167,2.828,1.167c1.025,0,2.051-0.389,2.828-1.167l2.828-2.828c1.556-1.556,1.556-4.101,0-5.657l-1.821-1.821
		c0.571-0.985,1.047-2.027,1.425-3.118c1.762-0.417,3.087-1.999,3.087-3.884c0,0-0.083-8,0-8C41,16,38.965,12,38.965,12z
		 M37.171,23.652l-0.899,2.596c-0.272,0.784-0.617,1.54-1.027,2.248l-1.927,3.325l2.717,2.717l1.114,1.114l-1.414,1.414
		l-1.796-1.796l-2.291-2.291l-3.027,1.154C27.116,34.709,25.561,35,24,35c-1.526,0-3.051-0.281-4.534-0.834l-3.011-1.123
		l-2.272,2.272l-1.751,1.751l-1.414-1.414l1.011-1.011l2.736-2.736l-1.963-3.335C11.623,26.568,11,24.296,11,22
		c0-7.115,5.745-12.913,12.84-12.999l0.025,0.002l0.195-0.001l0.133-0.001c0.273,0.004,0.581,0.023,0.979,0.061
		c0.109,0.01,0.218,0.021,0.279,0.028c0.166,0.021,0.33,0.049,0.494,0.077l0.036,0.006l0.036,0.006
		c3.507,0.547,6.656,2.522,8.673,5.431c0.521,0.926,1.982,3.24,4.353,4.814c0.002,1.05,0.014,2.294,0.029,3.778L37.171,23.652z"/>
	<path d="M18.998,11.71l2.004,4.58c1.906-0.834,4.09-0.834,5.996,0l2.004-4.58C25.824,10.319,22.176,10.319,18.998,11.71z"/>
</g>
</svg>
