<?xml version="1.0" encoding="utf-8"?><svg xmlns="http://www.w3.org/2000/svg"  height="48" viewBox="0 0 48 48" width="48"><path d="M0 0h48v48H0z" fill="none"/>
<g id="Shopicon">
	<path d="M39.371,14.566C39.457,14.052,39.5,13.529,39.5,13c0-5.238-4.262-9.5-9.5-9.5c-3.366,0-6.368,1.738-8.06,4.466
		C21,7.658,20.011,7.5,19,7.5c-4.131,0-7.735,2.692-9.006,6.495C6.192,15.266,3.5,18.869,3.5,23c0,5.238,4.262,9.5,9.5,9.5h22
		c5.238,0,9.5-4.262,9.5-9.5C44.5,19.374,42.455,16.161,39.371,14.566z M35,27.5H13c-2.481,0-4.5-2.019-4.5-4.5
		c0-2.242,1.676-4.156,3.899-4.452l2.148-2.148C14.843,14.177,16.758,12.5,19,12.5c0.973,0,1.903,0.312,2.69,0.902l3.935-1.431
		C26.103,9.928,27.902,8.5,30,8.5c2.481,0,4.5,2.019,4.5,4.5c0,0.695-0.161,1.369-0.477,2.002l1.789,3.577
		C37.949,18.968,39.5,20.827,39.5,23C39.5,25.481,37.481,27.5,35,27.5z"/>
	<rect x="8.757" y="36.5" transform="matrix(0.7071 -0.7071 0.7071 0.7071 -23.7696 20.6152)" width="8.485" height="4.999"/>
	<rect x="19.757" y="36.5" transform="matrix(0.7071 -0.7071 0.7071 0.7071 -20.5477 28.3934)" width="8.485" height="4.999"/>
	<rect x="30.757" y="36.5" transform="matrix(0.7071 -0.7071 0.7071 0.7071 -17.3259 36.1716)" width="8.485" height="4.999"/>
</g>
</svg>
