<?xml version="1.0" encoding="utf-8"?><svg xmlns="http://www.w3.org/2000/svg"  height="48" viewBox="0 0 48 48" width="48"><path d="M0 0h48v48H0z" fill="none"/>
<g id="Shopicon">
	<path d="M32,29.48c3.624-2.53,6-6.725,6-11.48c0-7.732-6.268-14-14-14s-14,6.268-14,14c0,4.755,2.376,8.95,6,11.48L16,44l8-4l8,4
		L32,29.48z M24,9c4.963,0,9,4.037,9,9c0,4.963-4.037,9-9,9c-4.963,0-9-4.037-9-9C15,13.037,19.037,9,24,9z M26.236,35.528L24,34.41
		l-2.236,1.118L21,35.91l0-4.24c0.967,0.211,1.969,0.33,3,0.33s2.033-0.119,3-0.33l0,4.24L26.236,35.528z"/>
	<path d="M24,24c3.314,0,6-2.686,6-6s-2.686-6-6-6c-3.314,0-6,2.686-6,6S20.686,24,24,24z M24,17c0.551,0,1,0.449,1,1s-0.449,1-1,1
		s-1-0.449-1-1S23.449,17,24,17z"/>
</g>
</svg>
