<?xml version="1.0" encoding="utf-8"?><svg version="1.1" id="Shopicons" xmlns="http://www.w3.org/2000/svg" x="0" y="0" viewBox="0 0 48 48" xml:space="preserve"><style>.st1{fill:#fff}.st2,.st3{fill:none;stroke:#666;stroke-width:4;stroke-miterlimit:10}.st3{stroke-width:6}</style><g id="twitter"><path d="M0-.006h48v48H0v-48z" fill="none"/><path d="M17.937 44.491h-.151c-6.197-.034-11.362-2.156-14.169-5.823a7.026 7.026 0 0 1-.345-.5l-.061-.096a3 3 0 0 1 2.471-4.7c1.41 0 4.091-.51 6.985-2.176C1.979 23.412 2.991 13.309 5.316 8.658a3 3 0 0 1 4.806-.779c4.03 4.029 8.707 5.736 11.255 6.263C22.638 9.458 26.923 6 32 6c2.008 0 3.932.535 5.634 1.558l4.761-.571a3.001 3.001 0 0 1 3.087 4.224L43 16.651V17c0 10.189-3.087 17.72-9.176 22.382-4.246 3.251-10.029 5.109-15.887 5.109zm-5.095-6.694c1.464.441 3.152.685 4.977.694 4.522-.02 9.158-1.423 12.357-3.873C34.704 31.151 37 25.224 37 17v-1c0-.43.092-.854.271-1.245l.365-1.154-.399.048a2.974 2.974 0 0 1-2.19-.604A4.951 4.951 0 0 0 32 12c-2.757 0-5 2.243-5 5 0 1.317-.786 2.462-2.053 2.986-2.396.999-6.87-.477-8.184-.95a29.926 29.926 0 0 1-6.964-3.625c.007 3.83 2.104 8.899 9.622 12.947a3.001 3.001 0 0 1 .593 4.864 24.97 24.97 0 0 1-7.172 4.575z"/></g></svg>