<?xml version="1.0" encoding="utf-8"?><svg xmlns="http://www.w3.org/2000/svg"  height="48" viewBox="0 0 48 48" width="48"><path d="M0 0h48v48H0z" fill="none"/>
<g id="Shopicon">
	<g>
		<path d="M24.5,43.201V4.795L11.128,15.499L3.5,15.498v17l7.628,0.001L24.5,43.201z M8.5,20.498l4.382,0.001l6.618-5.298v17.594
			l-6.618-5.296L8.5,27.498V20.498z"/>
		<path d="M28,27.499v5c4.687,0,8.5-3.813,8.5-8.5s-3.813-8.5-8.5-8.5v5c1.93,0,3.5,1.57,3.5,3.5S29.93,27.499,28,27.499z"/>
		<path d="M44.5,23.999c0-9.649-7.851-17.5-17.5-17.5v5c6.893,0,12.5,5.607,12.5,12.5s-5.607,12.5-12.5,12.5v5
			C36.649,41.499,44.5,33.648,44.5,23.999z"/>
	</g>
</g>
</svg>
