<?xml version="1.0" encoding="utf-8"?><svg xmlns="http://www.w3.org/2000/svg"  height="48" viewBox="0 0 48 48" width="48"><path d="M0 0h48v48H0z" fill="none"/>
<g id="Shopicon">
	<path d="M41.898,24.799c-1.838-1.378-4.176-1.625-6.181-0.879C34.8,20.512,31.697,18,28,18c-0.814,0-1.598,0.123-2.338,0.349
		C24.214,16.898,22.212,16,20,16c-4.418,0-8,3.582-8,8c0,0.071,0.009,0.141,0.011,0.211C6.904,25.499,3.5,28.422,3.5,32v12.5H24
		c11.116,0,18.875-10.166,19.2-10.6C45.351,31.032,44.768,26.95,41.898,24.799z M8.5,32c0-1.234,3.606-3.5,9.5-3.5
		c4.349,0,7.452,1.233,8.78,2.376C25.877,31.26,24.936,31.5,24,31.5h-8V34l0,0v2.5h8c7.222,0,12.752-7.336,12.799-7.399
		c0.497-0.662,1.441-0.796,2.102-0.301c0.661,0.496,0.796,1.438,0.301,2.1C39.137,30.985,32.646,39.5,24,39.5H8.5V32z M20,21
		c0.802,0,1.556,0.313,2.123,0.881l2.124,2.128l2.875-0.878C27.407,23.044,27.703,23,28,23c1.654,0,3,1.346,3,3
		c0,0.588-0.176,1.133-0.47,1.597C28.06,25.105,23.477,23.5,18,23.5c-0.323,0-0.636,0.015-0.952,0.026
		C17.277,22.098,18.508,21,20,21z"/>
	<circle cx="9.182" cy="14" r="2"/>
	<circle cx="15.182" cy="10" r="2"/>
	<circle cx="36.182" cy="16" r="2"/>
</g>
</svg>
