<?xml version="1.0" encoding="utf-8"?><svg xmlns="http://www.w3.org/2000/svg"  height="48" viewBox="0 0 48 48" width="48"><path d="M0 0h48v48H0z" fill="none"/>
<g id="Shopicon">
	<path d="M20.675,36.037l-4.574,5.336l3.797,3.254L24,39.842l4.102,4.785l3.797-3.254l-4.574-5.336
		c5.126-1.418,8.93-6.019,9.15-11.537H38v-5H10v5h1.525C11.745,30.018,15.549,34.619,20.675,36.037z M24,31.5
		c-3.967,0-7.216-3.098-7.475-7h14.949C31.216,28.402,27.967,31.5,24,31.5z"/>
	<path d="M26.5,16h5c0-2.257-0.854-3.539-1.42-4.387C29.658,10.98,29.5,10.743,29.5,10s0.158-0.98,0.58-1.613
		C30.646,7.539,31.5,6.257,31.5,4h-5c0,0.743-0.158,0.98-0.58,1.613C25.354,6.461,24.5,7.743,24.5,10s0.854,3.539,1.42,4.387
		C26.342,15.02,26.5,15.257,26.5,16z"/>
	<path d="M18.5,16h5c0-2.257-0.854-3.539-1.42-4.387C21.658,10.98,21.5,10.743,21.5,10s0.158-0.98,0.58-1.613
		C22.646,7.539,23.5,6.257,23.5,4h-5c0,0.743-0.158,0.98-0.58,1.613C17.354,6.461,16.5,7.743,16.5,10s0.854,3.539,1.42,4.387
		C18.342,15.02,18.5,15.257,18.5,16z"/>
</g>
</svg>
