<?xml version="1.0" encoding="utf-8"?><svg xmlns="http://www.w3.org/2000/svg"  height="48" viewBox="0 0 48 48" width="48"><path d="M0 0h48v48H0z" fill="none"/>
<g id="Shopicon">
	<path d="M26,4.045H10c-2.2,0-4,1.8-4,4V32c0,2.2,1.8,4,4,4h3.486l0.132,0.874C14.286,41.293,17.811,44.5,22,44.5h20.5V27
		c0-3.626-1.383-5.305-1.933-5.828L30,10.604V8.045C30,5.845,28.2,4.045,26,4.045z M25,23.995V31h-6V16.311
		c0.225,1.315,0.842,2.526,1.802,3.487l2.515,2.515l1.37,1.37L25,23.995z M20.808,10.597c-0.964,0.958-1.583,2.17-1.808,3.488v-5.04
		h4.319C22.383,9.359,21.523,9.881,20.808,10.597z M11,9.045h2V31h-2V9.045z M37.062,24.737H37.06
		c-0.002-0.004-0.005-0.007-0.008-0.01L37.062,24.737z M37.052,24.734l-0.127-0.043l0.16,0.098C37.21,25.017,37.5,25.684,37.5,27
		v12.5H22c-1.669,0-3.147-1.45-3.438-3.374L18.542,36H26c2.2,0,4-1.8,4-4v-3.005l2.12,2.12l3.536-3.535l-5.077-5.077l-6.241-6.241
		c-0.283-0.283-0.439-0.663-0.438-1.069c0-0.4,0.154-0.773,0.438-1.056c0.381-0.381,0.829-0.438,1.062-0.438
		s0.682,0.057,1.062,0.438L31,18.675l6.041,6.041C37.044,24.721,37.048,24.727,37.052,24.734z"/>
</g>
</svg>
