<?xml version="1.0" encoding="utf-8"?><svg xmlns="http://www.w3.org/2000/svg"  height="48" viewBox="0 0 48 48" width="48"><path d="M0 0h48v48H0z" fill="none"/>
<g id="Shopicon">
	<path d="M37.802,20.497C39.161,19.063,40,17.131,40,15c0-4.418-3.582-8-8-8s-8,3.582-8,8c0,2.131,0.839,4.063,2.198,5.497
		c-0.444,0.246-0.865,0.526-1.272,0.824L7.423,3.819L3.888,7.354l11.668,11.668C11.345,19.254,8,22.732,8,27
		c0,2.131,0.839,4.063,2.198,5.497C6.503,34.542,4,38.476,4,43h24c0-4.524-2.503-8.458-6.198-10.503
		c0.429-0.452,0.804-0.954,1.119-1.497h4.613l12.89,12.89l3.536-3.535L34.604,31H44C44,26.476,41.497,22.542,37.802,20.497z M32,12
		c1.654,0,3,1.346,3,3s-1.346,3-3,3c-1.654,0-3-1.346-3-3S30.346,12,32,12z M16,24c1.654,0,3,1.346,3,3s-1.346,3-3,3
		c-1.654,0-3-1.346-3-3S14.346,24,16,24z M11.106,38c1.263-1.237,2.991-2,4.894-2c1.903,0,3.631,0.763,4.894,2H11.106z M29.604,26
		l-1.072-1.072C29.556,24.341,30.738,24,32,24c1.903,0,3.631,0.763,4.894,2H29.604z"/>
</g>
</svg>
