<?xml version="1.0" encoding="utf-8"?><svg xmlns="http://www.w3.org/2000/svg"  height="48" viewBox="0 0 48 48" width="48"><path d="M0 0h48v48H0z" fill="none"/>
<g id="Shopicon">
	<path d="M16.5,38c0-2.481-2.019-4.5-4.5-4.5S7.5,35.519,7.5,38s2.019,4.5,4.5,4.5S16.5,40.481,16.5,38z M11.5,38
		c0-0.275,0.224-0.5,0.5-0.5s0.5,0.225,0.5,0.5s-0.224,0.5-0.5,0.5S11.5,38.275,11.5,38z"/>
	<path d="M25.5,40v2.5h5V40c0-11.304-9.196-20.5-20.5-20.5H7.5v5H10C18.547,24.5,25.5,31.453,25.5,40z"/>
	<path d="M10,7.5H7.5v5H10c15.164,0,27.5,12.337,27.5,27.5v2.5h5V40C42.5,22.079,27.92,7.5,10,7.5z"/>
</g>
</svg>
