<?xml version="1.0" encoding="utf-8"?><svg xmlns="http://www.w3.org/2000/svg"  height="48" viewBox="0 0 48 48" width="48"><path d="M0 0h48v48H0z" fill="none"/>
<g id="Shopicon">
	<path d="M44,24c0-11.046-8.954-20-20-20C12.954,4,4,12.954,4,24s8.954,20,20,20C35.046,44,44,35.046,44,24z M31.931,21.5
		c-0.219-4.381-1.002-8.317-2.166-11.344c4.675,1.954,8.142,6.212,9.009,11.344H31.931z M21.068,21.5
		c0.339-6.464,1.94-10.191,2.932-11.777c0.992,1.585,2.593,5.313,2.932,11.777H21.068z M26.932,26.5
		c-0.339,6.464-1.94,10.191-2.932,11.777c-0.992-1.585-2.593-5.313-2.932-11.777H26.932z M18.235,10.156
		c-1.163,3.027-1.947,6.963-2.166,11.344H9.226C10.092,16.367,13.56,12.11,18.235,10.156z M16.069,26.5
		c0.219,4.381,1.002,8.317,2.166,11.344C13.56,35.89,10.092,31.633,9.226,26.5H16.069z M29.765,37.844
		c1.163-3.027,1.947-6.963,2.166-11.344h6.843C37.908,31.633,34.44,35.89,29.765,37.844z"/>
</g>
</svg>
