<?xml version="1.0" encoding="utf-8"?><svg xmlns="http://www.w3.org/2000/svg"  height="48" viewBox="0 0 48 48" width="48"><path d="M0 0h48v48H0z" fill="none"/>
<g id="Shopicon">
    <path d="M43.387,13.92l-12-8c-.048-.032-.1-.051-.149-.079a2.432,2.432,0,0,0-.281-.149,2.706,2.706,0,0,0-.278-.086c-.063-.018-.124-.043-.189-.056a2.529,2.529,0,0,0-.457-.046c-.012,0-.022,0-.033,0H17.99a2.523,2.523,0,0,0-.481.048c-.066.013-.127.039-.191.057a2.41,2.41,0,0,0-.274.085,2.462,2.462,0,0,0-.344.183c-.028.017-.059.027-.087.046l-.008,0,0,0L4.613,13.92A2.5,2.5,0,0,0,6,18.5h9.5v4.911L7.764,38.883a2.5,2.5,0,0,0,3.311,3.375L24,36.1l12.925,6.155a2.5,2.5,0,0,0,3.311-3.375L32.5,23.411V18.5H42a2.5,2.5,0,0,0,1.387-4.58ZM20.5,10.5h7v3h-7Zm-6.242,3,1.242-.828V13.5Zm14.2,13,.785,1.57L24,30.566l-5.24-2.495.785-1.57ZM15.486,34.62l1.038-2.077,1.662.791Zm14.328-1.286,1.662-.791,1.038,2.077ZM27.5,21.5h-7v-3h7Zm5-8v-.829l1.243.829Z"/>
  </g>
</svg>
