<?xml version="1.0" encoding="utf-8"?><svg xmlns="http://www.w3.org/2000/svg"  height="48" viewBox="0 0 48 48" width="48"><path d="M0 0h48v48H0z" fill="none"/>
<g id="Shopicon">
	<circle cx="30" cy="30" r="5"/>
	<circle cx="18" cy="18" r="5"/>
	<rect x="13.015" y="21.5" transform="matrix(0.7071 -0.7071 0.7071 0.7071 -9.9411 23.9995)" width="21.97" height="5"/>
	<path d="M42.5,11c0-1.127-0.342-2.174-0.925-3.048C41.712,7.982,41.854,8,42,8c1.105,0,2-0.895,2-2c0-1.105-0.895-2-2-2
		s-2,0.895-2,2c0,0.146,0.018,0.288,0.048,0.425C39.174,5.842,38.127,5.5,37,5.5c-0.998,0-1.953,0.268-2.781,0.756
		C26.232,1.625,16.104,2.859,9.445,9.503C5.565,13.375,3.429,18.523,3.429,24s2.137,10.625,6.017,14.497
		c4.003,3.996,9.261,5.993,14.52,5.993c5.257-0.001,10.517-1.998,14.519-5.993c6.655-6.642,7.895-16.748,3.263-24.721
		C42.234,12.948,42.5,11.995,42.5,11z M36.582,10.738C36.627,10.666,36.759,10.5,37,10.5c0.276,0,0.5,0.225,0.5,0.5
		c0,0.241-0.166,0.373-0.238,0.419l-1.88,1.201L36.582,10.738z M34.952,34.958c-6.059,6.047-15.916,6.047-21.974,0
		C10.044,32.03,8.429,28.139,8.429,24s1.616-8.03,4.549-10.958c3.017-3.011,6.974-4.553,10.962-4.553
		c3.157,0,6.333,0.967,9.075,2.936l2.074,1.489l1.49,2.071C41.032,21.173,40.348,29.573,34.952,34.958z"/>
</g>
</svg>
