<?xml version="1.0" encoding="utf-8"?><svg xmlns="http://www.w3.org/2000/svg" viewBox="0 0 48 48" style="enable-background:new 0 0 48 48" xml:space="preserve"><path style="fill:none" d="M0 0h48v48H0z"/><path d="M36 27.5a8.6 8.6 0 0 0-.982.061l-4.149-9.429A8.464 8.464 0 0 0 33.5 12c0-4.687-3.813-8.5-8.5-8.5-4.687 0-8.5 3.813-8.5 8.5 0 1.784.555 3.439 1.497 4.807l-3.473 5.075A8.483 8.483 0 0 0 12 21.5c-4.687 0-8.5 3.813-8.5 8.5s3.813 8.5 8.5 8.5 8.5-3.813 8.5-8.5a8.45 8.45 0 0 0-1.855-5.285l3.283-4.798A8.459 8.459 0 0 0 25 20.5c.476 0 .939-.049 1.394-.125l4.051 9.206A8.476 8.476 0 0 0 27.5 36c0 4.687 3.813 8.5 8.5 8.5s8.5-3.813 8.5-8.5-3.813-8.5-8.5-8.5zm-24 6c-1.93 0-3.5-1.57-3.5-3.5s1.57-3.5 3.5-3.5 3.5 1.57 3.5 3.5-1.57 3.5-3.5 3.5zM21.5 12c0-1.93 1.57-3.5 3.5-3.5s3.5 1.57 3.5 3.5-1.57 3.5-3.5 3.5-3.5-1.57-3.5-3.5zM36 39.5c-1.93 0-3.5-1.57-3.5-3.5s1.57-3.5 3.5-3.5 3.5 1.57 3.5 3.5-1.57 3.5-3.5 3.5z"/></svg>