<?xml version="1.0" encoding="utf-8"?><svg xmlns="http://www.w3.org/2000/svg"  height="48" viewBox="0 0 48 48" width="48"><path d="M0 0h48v48H0z" fill="none"/>
<g id="Shopicon">
	<g>
		<polygon points="39.499,35.964 29.768,26.232 26.232,29.768 35.964,39.499 29.999,39.499 29.999,44.499 44.499,44.499 
			44.499,29.999 39.499,29.999 		"/>
		<polygon points="30,8.5 35.965,8.5 26.232,18.232 29.768,21.768 39.5,12.035 39.5,18 44.5,18 44.5,3.5 30,3.5 		"/>
		<polygon points="8.499,12.034 18.232,21.768 21.768,18.232 12.034,8.499 17.999,8.499 17.999,3.499 3.499,3.499 3.499,17.999 
			8.499,17.999 		"/>
		<polygon points="18,39.5 12.114,39.5 21.767,29.847 18.232,26.312 8.5,36.044 8.5,30.002 3.5,30.002 3.5,44.5 18,44.5 		"/>
	</g>
</g>
</svg>
