<?xml version="1.0" encoding="utf-8"?><svg xmlns="http://www.w3.org/2000/svg"  height="48" viewBox="0 0 48 48" width="48"><path d="M0 0h48v48H0z" fill="none"/>
<g id="Shopicon">
	<path d="M29,3.5H17.392l1.267,3.378c0.016,0.044,0.075,0.198,0.177,0.436c-0.353,0.306-0.707,0.614-1.031,0.951
		c-1.007,1.044-1.845,2.224-2.517,3.488l-5.52-5.52L6.232,9.768l7.348,7.348c-0.005,0.037-0.013,0.073-0.017,0.109L9.5,24.335v0.664
		c0,2.692,1.407,4.501,3.5,4.501h0.5V32c0,3.584,2.916,6.5,6.5,6.5h4.5v6h18V26.594c1.311-2.323,2-4.934,2-7.594
		C44.5,10.453,37.547,3.5,29,3.5z M29,8.5c5.79,0,10.5,4.71,10.5,10.5c0,1.9-0.533,3.76-1.522,5.4
		C32.606,23.352,32.5,14.095,32.5,14v-2.5H30c-1.983,0-3.598-1.471-4.74-3H29z M21.404,11.735c0.007-0.008,0.016-0.014,0.023-0.021
		c1.457,1.878,3.503,3.75,6.192,4.473c0.542,5.17,3.054,12.298,9.881,13.211v4.566L24.268,20.732L26,19l-3-3l-1.732,1.732
		l-2.207-2.207C19.558,14.122,20.354,12.825,21.404,11.735z M20,33.5c-0.813,0-1.5-0.687-1.5-1.5l0,0c1.375,0,2.5-1.125,2.5-2.5
		S19.875,27,18.5,27v-2.5h-3.335l2.109-3.691L35.965,39.5H29.5v-6H20z"/>
	<rect x="4.586" y="26.586" transform="matrix(0.7071 -0.7071 0.7071 0.7071 -18.0417 12.4435)" width="2.828" height="2.828"/>
	<rect x="4.586" y="34.586" transform="matrix(0.7071 -0.7071 0.7071 0.7071 -23.6985 14.7867)" width="2.828" height="2.828"/>
	<rect x="8.586" y="30.586" transform="matrix(0.7071 -0.7071 0.7071 0.7071 -19.6986 16.4436)" width="2.828" height="2.828"/>
</g>
</svg>
