<?xml version="1.0" encoding="utf-8"?><svg xmlns="http://www.w3.org/2000/svg"  height="48" viewBox="0 0 48 48" width="48"><path d="M0 0h48v48H0z" fill="none"/>
<g id="Shopicon">
	<path d="M40.038,38l3.751-14c0.884-3.3-1.092-6-4.392-6c0,0-4.397,0-7.397,0s-2.128-3-2.128-3l0.924-3.448
		c0.854-3.188-1.055-6.494-4.243-7.348C26.039,4.066,25.52,4,25.01,4c-2.649,0-5.089,1.774-5.805,4.446L15.841,21
		c0,0-0.841,3-3.841,3c-2,0-4,0-4,0c-2.2,0-4,1.8-4,4v12c0,2.2,1.8,4,4,4h24.43C35.73,44,39.153,41.3,40.038,38z M32.43,39H9V29h3
		c4.666,0,7.757-3.447,8.656-6.65l0.008-0.028l0.008-0.028l3.364-12.554C24.165,9.254,24.624,9,25.01,9
		c0.084,0,0.165,0.011,0.249,0.034c0.322,0.086,0.505,0.303,0.601,0.469s0.193,0.433,0.106,0.755l-0.914,3.412
		c-0.51,1.821-0.488,4.486,1.09,6.589C26.911,21.283,28.693,23,32,23h6.88l-3.672,13.706C34.883,37.92,33.384,39,32.43,39z"/>
</g>
</svg>
