<?xml version="1.0" encoding="utf-8"?><svg xmlns="http://www.w3.org/2000/svg"  height="48" viewBox="0 0 48 48" width="48"><path d="M0 0h48v48H0z" fill="none"/>
<g id="Shopicon">
	<circle cx="20" cy="18" r="2"/>
	<circle cx="28" cy="18" r="2"/>
	<path d="M24,32.5c4.687,0,8.5-3.813,8.5-8.5h-5c0,1.93-1.57,3.5-3.5,3.5s-3.5-1.57-3.5-3.5h-5C15.5,28.687,19.313,32.5,24,32.5z"/>
	<path d="M24,42c9.941,0,18-8.059,18-18S33.941,6,24,6C14.059,6,6,14.059,6,24S14.059,42,24,42z M24,11c7.168,0,13,5.832,13,13
		s-5.832,13-13,13s-13-5.832-13-13S16.832,11,24,11z"/>
</g>
</svg>
