<?xml version="1.0" encoding="utf-8"?><svg xmlns="http://www.w3.org/2000/svg"  height="48" viewBox="0 0 48 48" width="48"><path d="M0 0h48v48H0z" fill="none"/>
<g id="Shopicon">
	<path d="M32.5,15h5c0-3.243-2.39-5.931-5.5-6.415C32.327,8.534,32.659,8.5,33,8.5v-5c-3.644,0-6.892,1.709-9,4.362
		C21.892,5.209,18.644,3.5,15,3.5v5c0.341,0,0.673,0.034,1,0.085c-3.11,0.483-5.5,3.172-5.5,6.415h5c0-0.827,0.673-1.5,1.5-1.5
		c0.326,0,0.626,0.107,0.872,0.285C14.133,16.708,11.5,22.105,11.5,28c0,7.352,0,16.5,12.5,16.5S36.5,35.352,36.5,28
		c0-5.895-2.633-11.292-6.372-14.215C30.374,13.607,30.674,13.5,31,13.5C31.827,13.5,32.5,14.173,32.5,15z M30,25.465L27.535,23
		l2.15-2.15c0.586,1.045,1.065,2.24,1.382,3.547L30,25.465z M16.932,24.397c0.318-1.308,0.797-2.502,1.382-3.547l2.15,2.15
		L18,25.465L16.932,24.397z M24,26.535L26.465,29L24,31.465L21.535,29L24,26.535z M24,19.465l-2.283-2.283
		C22.474,16.748,23.249,16.5,24,16.5s1.526,0.248,2.283,0.682L24,19.465z M18,32.535L20.465,35l-2.52,2.52
		c-0.673-0.885-1.032-2.107-1.224-3.706L18,32.535z M24,38.535l0.939,0.939C24.635,39.487,24.332,39.5,24,39.5
		s-0.635-0.013-0.939-0.026L24,38.535z M30.055,37.52L27.535,35L30,32.535l1.279,1.279C31.087,35.413,30.728,36.635,30.055,37.52z"
		/>
</g>
</svg>
