<?xml version="1.0" encoding="utf-8"?><svg xmlns="http://www.w3.org/2000/svg"  height="48" viewBox="0 0 48 48" width="48"><path d="M0 0h48v48H0z" fill="none"/>
<g id="Shopicon">
	<path d="M38.932,12.5H21.73c-2.301,0-4.396,1.265-5.468,3.299L13.257,21.5H9.766H9.47c-3.958,0-7.212,3.22-7.253,7.179
		l-0.055,5.296c-0.007,0.667,0.253,1.31,0.723,1.784S3.995,36.5,4.662,36.5h2.654c0.949,2.064,3.029,3.5,5.449,3.5
		s4.501-1.436,5.449-3.5h9.102c0.949,2.064,3.029,3.5,5.449,3.5s4.501-1.436,5.449-3.5H42c1.381,0,2.5-1.119,2.5-2.5V18.068
		C44.5,14.998,42.002,12.5,38.932,12.5z M20.686,18.13c0.205-0.389,0.605-0.63,1.044-0.63h17.202c0.313,0,0.568,0.255,0.568,0.568
		V21.5H18.909L20.686,18.13z M12.766,35c-0.551,0-1-0.448-1-1s0.449-1,1-1s1,0.448,1,1S13.317,35,12.766,35z M32.766,35
		c-0.551,0-1-0.448-1-1s0.449-1,1-1s1,0.448,1,1S33.317,35,32.766,35z M39.5,31.5h-1.285c-0.949-2.064-3.029-3.5-5.449-3.5
		s-4.501,1.436-5.449,3.5h-9.102c-0.949-2.064-3.029-3.5-5.449-3.5s-4.501,1.436-5.449,3.5H7.188l0.029-2.77
		c0.013-1.229,1.024-2.23,2.253-2.23h0.295h5H39.5V31.5z"/>
</g>
</svg>
