<?xml version="1.0" encoding="utf-8"?><svg xmlns="http://www.w3.org/2000/svg" viewBox="0 0 48 48" style="enable-background:new 0 0 48 48" xml:space="preserve"><style>.st3{display:none}</style><g id="Your_Icons"><path style="fill:none" d="M0 0h48v48H0z"/><path d="M35 9.499h-2.5v-3.5a2.5 2.5 0 0 0-2.5-2.5H18a2.5 2.5 0 0 0-2.5 2.5v3.5H13a2.5 2.5 0 0 0-2.5 2.5v30a2.5 2.5 0 0 0 2.5 2.5h22a2.5 2.5 0 0 0 2.5-2.5v-30a2.5 2.5 0 0 0-2.5-2.5zm-14.5-1h7v1h-7v-1zm12 31h-17v-25h17v25z"/><path d="M30.5 37.499h-13v-17h13v17z"/></g></svg>