<?xml version="1.0" encoding="utf-8"?><svg xmlns="http://www.w3.org/2000/svg"  height="48" viewBox="0 0 48 48" width="48"><path d="M0 0h48v48H0z" fill="none"/>
<g id="Shopicon">
	<path d="M40.5,18c0-3.584-2.916-6.5-6.5-6.5h-6c-1.509,0-2.896,0.521-4,1.387c-1.104-0.866-2.491-1.387-4-1.387h-6
		c-3.584,0-6.5,2.916-6.5,6.5v6h-4v3.5V30v10.5h4V44h5v-3.5h23V44h5v-3.5h4V30v-2.5V24h-4V18z M39.5,35.5h-31v-3H14h6h8h6h5.5V35.5z
		 M28,16.5h6c0.813,0,1.5,0.687,1.5,1.5v8c0,0.813-0.687,1.5-1.5,1.5h-6c-0.813,0-1.5-0.687-1.5-1.5v-8
		C26.5,17.187,27.187,16.5,28,16.5z M12.5,18c0-0.813,0.687-1.5,1.5-1.5h6c0.813,0,1.5,0.687,1.5,1.5v8c0,0.813-0.687,1.5-1.5,1.5
		h-6c-0.813,0-1.5-0.687-1.5-1.5V18z"/>
</g>
</svg>
