<?xml version="1.0" encoding="utf-8"?><svg xmlns="http://www.w3.org/2000/svg"  height="48" viewBox="0 0 48 48" width="48"><path d="M0 0h48v48H0z" fill="none"/>
<g id="Shopicon">
	<path d="M40.5,11.5h-33v16h-4V38v2.5V44h5v-3.5h31V44h5v-3.5V38V27.5h-4V11.5z M16.5,26c0-0.813,0.687-1.5,1.5-1.5h12
		c0.813,0,1.5,0.687,1.5,1.5s-0.687,1.5-1.5,1.5H18C17.187,27.5,16.5,26.813,16.5,26z M35.5,16.5v6.052
		c-1.151-1.83-3.183-3.052-5.5-3.052H18c-2.317,0-4.349,1.222-5.5,3.052V16.5H35.5z M8.5,32.5H18h12h9.5v3h-31V32.5z"/>
</g>
</svg>
