<?xml version="1.0" encoding="utf-8"?><svg xmlns="http://www.w3.org/2000/svg"  height="48" viewBox="0 0 48 48" width="48"><path d="M0 0h48v48H0z" fill="none"/>
<g id="Shopicon">
	<path d="M24,44c6.547,0,12.341-3.16,15.989-8.022L34,24L24,4L14,24L8.011,35.978C11.659,40.84,17.453,44,24,44z M33.982,35.176
		c0-0.009,0.002-0.017,0.003-0.026l0.008,0.017C33.99,35.17,33.986,35.173,33.982,35.176z M25.453,18.085
		C24.616,18.325,24,19.087,24,20c0,1.105,0.895,2,2,2c0.454,0,0.868-0.157,1.204-0.412l2.324,4.648l2.338,4.676
		C31.053,30.341,30.068,30,29,30c-2.761,0-5,2.239-5,5c0,1.57,0.738,2.954,1.87,3.87C25.254,38.947,24.632,39,24,39
		c-1.065,0-2.107-0.122-3.121-0.337C20.952,38.455,21,38.234,21,38c0-1.105-0.895-2-2-2c-0.865,0-1.596,0.553-1.874,1.322
		c-1.118-0.581-2.169-1.297-3.119-2.156l2.065-4.13C16.896,31.636,17.903,32,19,32c2.761,0,5-2.239,5-5
		c0-2.247-1.492-4.125-3.532-4.756L24,15.18L25.453,18.085z"/>
</g>
</svg>
