<?xml version="1.0" encoding="utf-8"?>
<svg version="1.1" xmlns="http://www.w3.org/2000/svg" xmlns:xlink="http://www.w3.org/1999/xlink" x="0px" y="0px"
	 viewBox="0 0 48 48" style="enable-background:new 0 0 48 48;" xml:space="preserve">
<g id="Shopicon">
	<path d="M14,44h20c4.4,0,8-3.6,8-8V8c0-2.2-1.8-4-4-4H26c-2.2,0-4,1.8-4,4v20h-8c-4.4,0-8,3.6-8,8C6,40.4,9.6,44,14,44z M34,39
		h-0.5c0-2.326,1.454-4.315,3.5-5.118V36C37,37.626,35.626,39,34,39z M37,9v2.5H27V9H37z M27,33V16.5h10v12.196
		c-4.836,0.937-8.5,5.198-8.5,10.304h-8v-6H27z M14,33h1.5v6H14c-1.626,0-3-1.374-3-3S12.374,33,14,33z"/>
</g>
</svg>
