<?xml version="1.0" encoding="utf-8"?><svg xmlns="http://www.w3.org/2000/svg"  height="48" viewBox="0 0 48 48" width="48"><path d="M0 0h48v48H0z" fill="none"/>
<g id="Shopicon">
	<path d="M16,36.5h4v-5h-4c-4.136,0-7.5-3.364-7.5-7.5s3.364-7.5,7.5-7.5h4v-5h-4C9.107,11.5,3.5,17.107,3.5,24S9.107,36.5,16,36.5z
		"/>
	<path d="M32,11.5h-4v5h4c4.136,0,7.5,3.364,7.5,7.5s-3.364,7.5-7.5,7.5h-4v5h4c6.893,0,12.5-5.607,12.5-12.5S38.893,11.5,32,11.5z"
		/>
	<rect x="16" y="21.5" width="16" height="5"/>
</g>
</svg>
