<?xml version="1.0" encoding="utf-8"?><svg xmlns="http://www.w3.org/2000/svg"  height="48" viewBox="0 0 48 48" width="48"><path d="M0 0h48v48H0z" fill="none"/>
<g id="Shopicon">
	<path d="M24,5.986C22.461,4.451,20.34,3.5,18,3.5H3.5v35H18c1.93,0,3.5,1.57,3.5,3.5v2.5h5V42c0-1.93,1.57-3.5,3.5-3.5h14.5v-35H30
		C27.66,3.5,25.539,4.451,24,5.986z M18,33.5H8.5v-25H18c1.93,0,3.5,1.57,3.5,3.5v22.263C20.431,33.777,19.248,33.5,18,33.5z
		 M39.5,33.5H30c-1.248,0-2.431,0.277-3.5,0.763V12c0-1.93,1.57-3.5,3.5-3.5h9.5V33.5z"/>
</g>
</svg>
