<?xml version="1.0" encoding="utf-8"?><svg xmlns="http://www.w3.org/2000/svg"  height="48" viewBox="0 0 48 48" width="48"><path d="M0 0h48v48H0z" fill="none"/>
<g id="Shopicon">
	<path d="M14,27.789V40c0,2.2,1.8,4,4,4h12c2.2,0,4-1.8,4-4V27.789c2.472-2.525,4-5.977,4-9.789c0-7.732-6.268-14-14-14
		s-14,6.268-14,14C10,21.812,11.528,25.264,14,27.789z M19,39v-2.5h10V39H19z M24,9c4.963,0,9,4.037,9,9
		c0,2.362-0.914,4.596-2.573,6.291L29,25.749V31.5h-2.5v-16h-5v16H19v-5.751l-1.427-1.458C15.914,22.596,15,20.362,15,18
		C15,13.037,19.037,9,24,9z"/>
</g>
</svg>
