<?xml version="1.0" encoding="utf-8"?><svg xmlns="http://www.w3.org/2000/svg" viewBox="0 0 48 48" style="enable-background:new 0 0 48 48" xml:space="preserve"><style>.st1,.st2,.st3,.st4{fill:none;stroke:#666;stroke-miterlimit:10}.st1{stroke-width:4;stroke-linecap:round;stroke-linejoin:round}.st2,.st3,.st4{stroke-width:5}.st3,.st4{stroke-width:4}.st4{stroke-width:2}.st7{fill:#6f6}.st8{fill:none;stroke:#6f6;stroke-width:.1;stroke-miterlimit:10}</style><g id="Your_Icons"><path d="m36.959 13.806-3.932 3.089A11.52 11.52 0 0 1 35 27.352a11.43 11.43 0 0 1-5.59 6.799 11.418 11.418 0 0 1-8.76.855 11.43 11.43 0 0 1-6.799-5.59 11.419 11.419 0 0 1-.855-8.76 11.428 11.428 0 0 1 5.589-6.799 11.44 11.44 0 0 1 5.38-1.358l-2.733 2.733 3.535 3.535L33.535 10l-8.768-8.768-3.535 3.535 2.73 2.73c-2.667.002-5.31.657-7.73 1.948a16.387 16.387 0 0 0-8.02 9.756C5.564 27.904 10.49 37.14 19.194 39.789a16.56 16.56 0 0 0 4.824.723 16.42 16.42 0 0 0 7.744-1.949 16.394 16.394 0 0 0 8.02-9.756 16.512 16.512 0 0 0-2.823-15.001z"/><path style="fill:none" d="M0 0h48v48H0z"/></g></svg>