<?xml version="1.0" encoding="utf-8"?><svg xmlns="http://www.w3.org/2000/svg"  height="48" viewBox="0 0 48 48" width="48"><path d="M0 0h48v48H0z" fill="none"/>
<g id="Shopicon">
	<path d="M43.127,13.657l-20.596,7.674l-3.259-1.214C21.246,18.375,22.5,15.834,22.5,13c0-5.238-4.262-9.5-9.5-9.5S3.5,7.762,3.5,13
		c0,3.877,2.337,7.213,5.674,8.689L9.173,21.69l0.019,0.007c0.341,0.15,0.69,0.282,1.05,0.391L15.37,24l-5.136,1.914
		c-0.354,0.108-0.698,0.238-1.033,0.385l-0.027,0.01l0.001,0.003C5.837,27.786,3.5,31.123,3.5,35c0,5.238,4.262,9.5,9.5,9.5
		s9.5-4.262,9.5-9.5c0-2.834-1.254-5.375-3.229-7.118l3.26-1.215l20.596,7.675l1.746-4.686L29.691,24l15.182-5.657L43.127,13.657z
		 M13,8.5c2.481,0,4.5,2.019,4.5,4.5s-2.019,4.5-4.5,4.5c-0.514,0-1.001-0.105-1.461-0.264l-0.392-0.146
		C9.59,16.381,8.5,14.819,8.5,13C8.5,10.519,10.519,8.5,13,8.5z M13,30.5c2.481,0,4.5,2.019,4.5,4.5s-2.019,4.5-4.5,4.5
		S8.5,37.481,8.5,35c0-1.821,1.092-3.385,2.652-4.092l0.371-0.138C11.988,30.606,12.48,30.5,13,30.5z"/>
</g>
</svg>
