<?xml version="1.0" encoding="utf-8"?>
<svg version="1.1" xmlns="http://www.w3.org/2000/svg" xmlns:xlink="http://www.w3.org/1999/xlink" x="0px" y="0px"
	 viewBox="0 0 48 48" style="enable-background:new 0 0 48 48;" xml:space="preserve">
<g id="Your_Icons">
	<path d="M18,32c2.963,0,5.706-0.926,7.968-2.496L40,43.536L43.536,40L29.504,25.968C31.074,23.706,32,20.963,32,18
		c0-7.732-6.268-14-14-14S4,10.268,4,18S10.268,32,18,32z M18,9c4.963,0,9,4.037,9,9c0,4.963-4.037,9-9,9c-4.963,0-9-4.037-9-9
		C9,13.037,13.037,9,18,9z"/>
</g>
</svg>
