<?xml version="1.0" encoding="utf-8"?><svg xmlns="http://www.w3.org/2000/svg"  height="48" viewBox="0 0 48 48" width="48"><path d="M0 0h48v48H0z" fill="none"/>
<g id="Shopicon">
	<path d="M36,12.089c0,0-5.243,4.173-5.243,9.042C30.757,23.82,33.104,26,36,26c2.896,0,5.243-2.18,5.243-4.869
		C41.243,16.263,36,12.089,36,12.089z"/>
	<path d="M14,44.5h8c3.584,0,6.5-2.916,6.5-6.5V24c0-2.336-1.243-4.382-3.098-5.528c0.062-0.315,0.098-0.639,0.098-0.972v-1
		c0-2.757-2.243-5-5-5v-3H38v-5H10v5h5.5v3c-2.757,0-5,2.243-5,5v1c0,0.333,0.036,0.657,0.098,0.972C8.743,19.618,7.5,21.664,7.5,24
		v14C7.5,41.584,10.416,44.5,14,44.5z M12.5,24c0-0.813,0.687-1.5,1.5-1.5h1.5h5H22c0.813,0,1.5,0.687,1.5,1.5v14
		c0,0.813-0.687,1.5-1.5,1.5h-8c-0.813,0-1.5-0.687-1.5-1.5V24z M15.5,16.5h5l-0.007,1H15.5V16.5z"/>
</g>
</svg>
