<?xml version="1.0" encoding="utf-8"?>
<svg version="1.1" xmlns="http://www.w3.org/2000/svg" xmlns:xlink="http://www.w3.org/1999/xlink" x="0px" y="0px"
	 viewBox="0 0 48 48" style="enable-background:new 0 0 48 48;" xml:space="preserve">
<g id="Shopicon">
	<path d="M9.5,44.5h29v-41h-29V44.5z M33.5,15.5h-19v-7h19V15.5z M25.5,28.5v3h-3v-3H25.5z M22.5,23.5v-3h3v3H22.5z M14.5,20.5h3v3
		h-3V20.5z M14.5,28.5h3v3h-3V28.5z M14.5,36.5h3v3h-3V36.5z M22.5,36.5h3v3h-3V36.5z M30.5,36.5h3v3h-3V36.5z M33.5,31.5h-3v-3h3
		V31.5z M33.5,23.5h-3v-3h3V23.5z"/>
</g>
</svg>
