<?xml version="1.0" encoding="utf-8"?><svg xmlns="http://www.w3.org/2000/svg"  height="48" viewBox="0 0 48 48" width="48"><path d="M0 0h48v48H0z" fill="none"/>
<g id="Shopicon">
	<path d="M42.269,22.579c0.15-0.5,0.231-1.03,0.231-1.579c0-2.938-2.318-5.338-5.219-5.486c0.448-0.705,0.707-1.517,0.707-2.383
		c0-4.869-5.5-9.042-5.5-9.042s-5.5,4.173-5.5,9.042c0,0.86,0.254,1.667,0.697,2.369h-4.652l3.178-6.355l-6.358-4.239L8.438,14.049
		l-0.205,0.184c-0.208,0.207-0.416,0.403-0.62,0.597C5.282,17.027,3.5,19.246,3.5,26v8c0,5.79,4.71,10.5,10.5,10.5h19
		c3.032,0,5.5-2.468,5.5-5.5c0-0.235-0.015-0.468-0.044-0.695C40.784,37.664,42.5,35.529,42.5,33c0-0.549-0.081-1.079-0.231-1.579
		C43.622,30.418,44.5,28.81,44.5,27S43.622,23.582,42.269,22.579z M32.487,11.555c0.256,0.472,0.432,0.929,0.484,1.336
		C32.874,12.943,32.713,13,32.487,13c-0.226,0-0.387-0.057-0.484-0.109C32.055,12.484,32.231,12.027,32.487,11.555z M39,27.5h-2H24
		v5h13c0.271,0,0.5,0.229,0.5,0.5s-0.229,0.5-0.5,0.5h-4h-9v5h9c0.271,0,0.5,0.229,0.5,0.5s-0.229,0.5-0.5,0.5H14
		c-3.032,0-5.5-2.468-5.5-5.5v-8c0-5.134,1.012-6.089,2.544-7.535c0.206-0.194,0.414-0.391,0.623-0.597l7.658-6.135L14.942,20.5H37
		c0.271,0,0.5,0.229,0.5,0.5s-0.229,0.5-0.5,0.5H24v5h13h2c0.271,0,0.5,0.229,0.5,0.5S39.271,27.5,39,27.5z"/>
</g>
</svg>
