<?xml version="1.0" encoding="utf-8"?><svg xmlns="http://www.w3.org/2000/svg"  height="48" viewBox="0 0 48 48" width="48"><path d="M0 0h48v48H0z" fill="none"/>
<g id="Shopicon">
	<rect x="1.701" y="21.5" transform="matrix(0.7071 -0.7072 0.7072 0.7071 -9.9411 24.0023)" width="44.598" height="5"/>
	<path d="M14,22c4.418,0,8-3.582,8-8s-3.582-8-8-8s-8,3.582-8,8S9.582,22,14,22z M14,11c1.654,0,3,1.346,3,3c0,1.654-1.346,3-3,3
		c-1.654,0-3-1.346-3-3C11,12.346,12.346,11,14,11z"/>
	<path d="M34,42c4.418,0,8-3.582,8-8s-3.582-8-8-8s-8,3.582-8,8S29.582,42,34,42z M34,31c1.654,0,3,1.346,3,3c0,1.654-1.346,3-3,3
		c-1.654,0-3-1.346-3-3C31,32.346,32.346,31,34,31z"/>
</g>
</svg>
