<?xml version="1.0" encoding="utf-8"?><svg xmlns="http://www.w3.org/2000/svg"  height="48" viewBox="0 0 48 48" width="48"><path d="M0 0h48v48H0z" fill="none"/>
<g id="Shopicon">
	<path d="M18.343,42.156c3.339,0,6.479-1.3,8.839-3.66l2.829-2.828l-3.535-3.537l-2.829,2.829c-2.926,2.924-7.685,2.922-10.606,0
		c-2.924-2.924-2.924-7.683,0.001-10.606l2.828-2.829l-3.537-3.535l-2.827,2.829c-2.361,2.36-3.661,5.5-3.661,8.839
		c0,3.338,1.3,6.478,3.661,8.838C11.865,40.856,15.005,42.156,18.343,42.156z"/>
	<path d="M24.354,13.04c2.924-2.925,7.683-2.924,10.606,0s2.924,7.683-0.001,10.606l-2.828,2.829l3.537,3.535l2.827-2.829
		c2.361-2.36,3.661-5.5,3.661-8.839c0-3.338-1.3-6.478-3.661-8.838c-2.36-2.361-5.5-3.661-8.838-3.661
		c-3.339,0-6.479,1.3-8.839,3.66l-2.829,2.828l3.535,3.537L24.354,13.04z"/>
	<rect x="15.999" y="21.5" transform="matrix(0.7071 -0.7071 0.7071 0.7071 -9.9411 24)" width="16.001" height="4.999"/>
</g>
</svg>
