<?xml version="1.0" encoding="utf-8"?><svg xmlns="http://www.w3.org/2000/svg"  height="48" viewBox="0 0 48 48" width="48"><path d="M0 0h48v48H0z" fill="none"/>
<g id="Shopicon">
	<path d="M10.368,27.168l0.126-0.126L20.5,32.045L20.5,11c0-0.271,0.229-0.5,0.5-0.5s0.5,0.229,0.5,0.5v9h5v-9h0.001V9
		c0-0.271,0.229-0.5,0.499-0.5c0.271,0,0.5,0.229,0.5,0.5v2v9h5v-9c0-0.271,0.229-0.5,0.5-0.5s0.5,0.229,0.5,0.5v4v5h5v-5
		c0-0.271,0.229-0.5,0.5-0.5s0.5,0.229,0.5,0.5v9h5v-9c0-3.032-2.468-5.5-5.5-5.5c-0.235,0-0.468,0.015-0.695,0.044
		C37.664,7.216,35.529,5.5,33,5.5c-0.549,0-1.079,0.081-1.579,0.231C30.418,4.378,28.81,3.5,27,3.5s-3.417,0.878-4.42,2.231
		C22.08,5.581,21.549,5.5,21,5.5c-3.033,0-5.5,2.468-5.5,5.5l0,12.955l-5.994-2.997l-5.874,5.874l10.433,12.75l0.173,0.19
		C16.562,42.097,18.965,44.5,22,44.5v-5c-0.942,0-2.84-1.877-4.144-3.181L10.368,27.168z"/>
	<circle cx="33" cy="34" r="2"/>
	<path d="M43,32c-0.654,0-1.229,0.319-1.594,0.804c-0.201-1.415-0.749-2.716-1.558-3.819c0.562,0.043,1.137-0.142,1.567-0.571
		c0.781-0.781,0.781-2.047,0-2.828c-0.781-0.781-2.047-0.781-2.828,0c-0.43,0.43-0.614,1.005-0.571,1.567
		c-1.102-0.81-2.404-1.358-3.819-1.558C34.682,25.229,35,24.654,35,24c0-1.105-0.895-2-2-2s-2,0.895-2,2
		c0,0.654,0.319,1.229,0.804,1.594c-1.415,0.201-2.716,0.749-3.819,1.558c0.043-0.562-0.142-1.137-0.571-1.567
		c-0.781-0.781-2.047-0.781-2.828,0c-0.781,0.781-0.781,2.047,0,2.828c0.43,0.43,1.005,0.614,1.567,0.571
		c-0.81,1.102-1.358,2.404-1.558,3.819C24.229,32.318,23.654,32,23,32c-1.105,0-2,0.895-2,2c0,1.104,0.895,2,2,2
		c0.654,0,1.229-0.318,1.594-0.804c0.201,1.415,0.749,2.716,1.558,3.819c-0.562-0.043-1.137,0.142-1.567,0.571
		c-0.781,0.781-0.781,2.047,0,2.828c0.781,0.781,2.047,0.781,2.828,0c0.43-0.43,0.614-1.005,0.571-1.567
		c1.102,0.81,2.404,1.358,3.819,1.558C31.319,42.771,31,43.346,31,44c0,1.104,0.895,2,2,2s2-0.896,2-2
		c0-0.654-0.319-1.229-0.804-1.594c1.415-0.201,2.716-0.749,3.819-1.558c-0.043,0.562,0.142,1.137,0.571,1.567
		c0.781,0.781,2.047,0.781,2.828,0c0.781-0.781,0.781-2.047,0-2.828c-0.43-0.429-1.005-0.614-1.567-0.571
		c0.81-1.102,1.358-2.404,1.558-3.819C41.771,35.681,42.346,36,43,36c1.105,0,2-0.896,2-2C45,32.895,44.105,32,43,32z M33,37.5
		c-1.93,0-3.5-1.57-3.5-3.5s1.57-3.5,3.5-3.5s3.5,1.57,3.5,3.5S34.93,37.5,33,37.5z"/>
</g>
</svg>
