<?xml version="1.0" encoding="utf-8"?>
<!-- Generator: Adobe Illustrator 25.1.0, SVG Export Plug-In . SVG Version: 6.00 Build 0)  -->
<svg version="1.1" xmlns="http://www.w3.org/2000/svg" xmlns:xlink="http://www.w3.org/1999/xlink" x="0px" y="0px" width="48px"
	 height="48px" viewBox="0 0 48 48" style="enable-background:new 0 0 48 48;" xml:space="preserve">
<g id="Guidelines">
	<g id="material_x5F_system_x5F_icon_x5F_border">
	</g>
</g>
<g id="Shopicon">
	<path d="M16,36.5h4v-5h-4c-4.136,0-7.5-3.364-7.5-7.5s3.364-7.5,7.5-7.5h4v-5h-4C9.107,11.5,3.5,17.107,3.5,24S9.107,36.5,16,36.5z
		"/>
	<path d="M32,11.5h-4v5h4c4.136,0,7.5,3.364,7.5,7.5s-3.364,7.5-7.5,7.5h-4v5h4c6.893,0,12.5-5.607,12.5-12.5S38.893,11.5,32,11.5z"
		/>
	<rect x="16" y="21.5" width="16" height="5"/>
</g>
</svg>
