<?xml version="1.0" encoding="utf-8"?><svg xmlns="http://www.w3.org/2000/svg"  height="48" viewBox="0 0 48 48" width="48"><path d="M0 0h48v48H0z" fill="none"/>
<g id="Shopicon">
	<path d="M18.5,34.318V39.5c0,2.757,2.243,5,5,5h1c2.757,0,5-2.243,5-5v-5.182c2.862-0.68,5-3.251,5-6.318V13
		c0-1.233-0.349-2.428-1.011-3.47C31.751,5.859,28.05,3.5,24,3.5s-7.751,2.359-9.489,6.03C13.849,10.572,13.5,11.767,13.5,13v15
		C13.5,31.067,15.638,33.638,18.5,34.318z M23.5,39.5v-5h1v5H23.5z M18.5,13c0-0.375,0.143-0.662,0.263-0.837l0.22-0.391
		C19.875,9.784,21.845,8.5,24,8.5s4.125,1.284,5.018,3.272l0.22,0.391C29.357,12.338,29.5,12.625,29.5,13v15
		c0,0.813-0.687,1.5-1.5,1.5h-8c-0.813,0-1.5-0.687-1.5-1.5V13z"/>
</g>
</svg>
