<?xml version="1.0" encoding="utf-8"?><svg xmlns="http://www.w3.org/2000/svg"  height="48" viewBox="0 0 48 48" width="48"><path d="M0 0h48v48H0z" fill="none"/>
<g id="Shopicon">
	<path d="M16.5,24h-5c0,4.136-3.364,7.5-7.5,7.5v5c4.136,0,7.5,3.364,7.5,7.5h5c0-4.136,3.364-7.5,7.5-7.5v-5
		C19.864,31.5,16.5,28.136,16.5,24z M14,36.508c-0.713-0.949-1.558-1.795-2.508-2.508c0.95-0.713,1.794-1.559,2.508-2.508
		c0.713,0.949,1.558,1.795,2.508,2.508C15.558,34.713,14.713,35.559,14,36.508z"/>
	<polygon points="40.499,32 35.499,32 35.499,35.5 32,35.5 32,40.5 35.499,40.5 35.499,44 40.499,44 40.499,40.5 44,40.5 44,35.5 
		40.499,35.5 	"/>
	<path d="M36.5,4h-5c0,4.136-3.364,7.5-7.5,7.5v5c4.136,0,7.5,3.364,7.5,7.5h5c0-4.136,3.364-7.5,7.5-7.5v-5
		C39.864,11.5,36.5,8.136,36.5,4z M34,16.508c-0.713-0.949-1.558-1.795-2.508-2.508c0.95-0.713,1.794-1.559,2.508-2.508
		c0.713,0.949,1.558,1.795,2.508,2.508C35.558,14.713,34.713,15.559,34,16.508z"/>
	<polygon points="7.501,4 7.501,7.5 4,7.5 4,12.5 7.501,12.5 7.501,16 12.501,16 12.501,12.5 16,12.5 16,7.5 12.501,7.5 12.501,4 	
		"/>
</g>
</svg>
