<?xml version="1.0" encoding="utf-8"?><svg xmlns="http://www.w3.org/2000/svg"  height="48" viewBox="0 0 48 48" width="48"><path d="M0 0h48v48H0z" fill="none"/>
<g id="Shopicon">
	<path d="M29,3.5c-4.136,0-7.5,3.364-7.5,7.5v21h5V11c0-1.379,1.121-2.5,2.5-2.5s2.5,1.121,2.5,2.5l0,5h-0.001l0,6.919l0,9.081H31.5
		c0,4.136-3.364,7.5-7.5,7.5c-4.135,0-7.499-3.364-7.499-7.5L16.5,10h-5l0.001,22c0,6.893,5.607,12.5,12.499,12.5
		S36.5,38.893,36.5,32l-0.001-9.081L36.5,11C36.5,6.864,33.136,3.5,29,3.5z"/>
</g>
</svg>
