<?xml version="1.0" encoding="utf-8"?><svg xmlns="http://www.w3.org/2000/svg"  height="48" viewBox="0 0 48 48" width="48"><path d="M0 0h48v48H0z" fill="none"/>
<g id="Shopicon">
	<path d="M38.187,18.629c-0.501-0.561-1.028-1.096-1.608-1.568c-4.669-3.802-11.672-4.391-17.247-1.527
		c-0.274,0.133-0.47,0.237-0.559,0.287c-0.012,0.007-0.022,0.015-0.035,0.022c-0.456,0.259-0.876,0.537-1.281,0.821
		c-0.232,0.163-0.445,0.331-0.66,0.5c-0.143,0.112-0.282,0.225-0.418,0.339c-1.94,1.635-3.202,3.479-3.984,4.996H10.81
		c-5.134,0-9.31,4.176-9.31,9.31v4.69h6.051c0.949,2.064,3.029,3.5,5.449,3.5s4.501-1.436,5.449-3.5h9.101
		c0.949,2.064,3.029,3.5,5.449,3.5s4.501-1.436,5.449-3.5H44.5v-14h-3.07C40.514,21.069,39.425,19.778,38.187,18.629z
		 M20.186,20.855c0.013-0.01,0.025-0.02,0.038-0.029c0.311-0.227,0.642-0.443,0.996-0.644c0.002-0.001,0.004-0.002,0.006-0.003
		c0.002-0.001,0.023-0.012,0.046-0.025c0.009-0.005,0.018-0.009,0.027-0.014c0.571-0.296,4.584-2.233,8.901-0.772
		c2.027,0.686,3.422,1.884,4.172,2.528c0.098,0.084,0.189,0.174,0.285,0.26c0.095,0.113,0.179,0.228,0.267,0.343H18.424
		C18.919,21.926,19.497,21.363,20.186,20.855z M13,34.999c-0.551,0-1-0.448-1-1s0.449-1,1-1s1,0.448,1,1S13.551,34.999,13,34.999z
		 M33,34.999c-0.551,0-1-0.448-1-1s0.449-1,1-1s1,0.448,1,1S33.551,34.999,33,34.999z M39.5,31.499h-1.051
		c-0.949-2.064-3.029-3.5-5.449-3.5s-4.5,1.436-5.449,3.5h-9.102c-0.949-2.064-3.029-3.5-5.449-3.5s-4.5,1.436-5.449,3.5h-1.04
		c0.159-2.232,2.026-4,4.299-4h4.872h21.496H39.5V31.499z"/>
</g>
</svg>
