<?xml version="1.0" encoding="utf-8"?><svg xmlns="http://www.w3.org/2000/svg"  height="48" viewBox="0 0 48 48" width="48"><path d="M0 0h48v48H0z" fill="none"/>
<g id="Shopicon">
	<path d="M36.25,27.504c-0.858-4.214-3.846-7.66-7.784-9.172c-0.102-1.462-0.533-2.832-1.225-4.038l4.133-4.133l-3.535-3.535
		l-4.133,4.133c-0.687-0.394-1.426-0.701-2.206-0.914V4h-5v5.845c-0.78,0.213-1.52,0.52-2.206,0.914l-4.133-4.133l-3.535,3.535
		l4.133,4.133c-0.394,0.687-0.701,1.426-0.914,2.206H4v5h5.847c0.432,1.579,1.269,3.018,2.429,4.186
		c-0.217,0.588-0.399,1.192-0.526,1.818C0.679,28.223,0.884,44.094,12,44.5c0,0,24,0,24,0C47.106,44.098,47.331,28.226,36.25,27.504
		z M14.5,19c0.05-5.06,7.085-6.191,8.734-1.466c-3.174,0.194-6.029,1.572-8.13,3.703C14.718,20.564,14.5,19.797,14.5,19z M36,39.5
		H12c-4.614-0.121-4.615-6.879,0-7c0,0,4.5,0,4.5,0V30c0-4.136,3.364-7.5,7.5-7.5s7.5,3.364,7.5,7.5v2.5H36
		C40.615,32.621,40.614,39.38,36,39.5z"/>
</g>
</svg>
