<?xml version="1.0" encoding="utf-8"?><svg xmlns="http://www.w3.org/2000/svg" viewBox="0 0 48 48" style="enable-background:new 0 0 48 48" xml:space="preserve"><style>.st3{display:none}</style><g id="Your_Icons"><path style="fill:none" d="M0 .004h48v48H0z"/><path d="M36 8.513h-1.5v-2.5a2.5 2.5 0 0 0-2.5-2.5H22a2.5 2.5 0 0 0-2.5 2.5v2.5H18a2.5 2.5 0 0 0-2.5 2.5v8.265C10.073 20.429 6 25.244 6 31.013c0 6.627 5.373 12 12 12 3.788 0 7.16-1.759 9.359-4.5H36a2.5 2.5 0 0 0 2.5-2.5v-25a2.5 2.5 0 0 0-2.5-2.5zm-18 29.5c-3.86 0-7-3.14-7-7s3.14-7 7-7 7 3.14 7 7-3.14 7-7 7zm15.5-4.5h-3.764c.171-.807.265-1.642.265-2.5 0-5.77-4.073-10.585-9.5-11.735v-5.765h13v20z"/><path d="M13 28.513h10v5H13z"/></g></svg>