<?xml version="1.0" encoding="utf-8"?>
<svg version="1.1" xmlns="http://www.w3.org/2000/svg" xmlns:xlink="http://www.w3.org/1999/xlink" x="0px" y="0px"
	 viewBox="0 0 48 48" style="enable-background:new 0 0 48 48;" xml:space="preserve">
<g id="Shopicon">
	<circle cx="34" cy="4" r="2"/>
	<circle cx="14" cy="4" r="2"/>
	<polygon points="25.5,21.5 22.5,21.5 22.5,18 17.5,18 17.5,30 22.5,30 22.5,26.5 25.5,26.5 25.5,30 30.5,30 30.5,18 25.5,18 	"/>
	<path d="M33,10h-3V2H18v8h-3h-5H2v28h8h2v8h24v-8h2h8V10h-8H33z M41,33h-3V15h3V33z M15,15h18v18H15V15z M23,7h2v2h-2V7z M17,39
		h4.5v2H17V39z M26.5,39H31v2h-4.5V39z M10,33H7V15h3V33z"/>
</g>
</svg>
