<?xml version="1.0" encoding="utf-8"?><svg xmlns="http://www.w3.org/2000/svg"  height="48" viewBox="0 0 48 48" width="48"><path d="M0 0h48v48H0z" fill="none"/>
<g id="Shopicon">
	<path d="M37.602,8c-5.108,0-17.423,0.821-24.812,8.21c-4.642,4.642-5.169,11.832-1.597,17.062l-5.888,5.888l3.535,3.535
		l5.888-5.888c2.274,1.553,4.916,2.338,7.562,2.338c3.438,0,6.877-1.312,9.5-3.935c9.5-9.5,8.143-27.143,8.143-27.143
		S39.062,8,37.602,8z M16.326,19.745c1.297-1.297,5.71-4.997,14.685-6.29L14.826,29.639C13.152,26.456,13.652,22.419,16.326,19.745z
		 M28.255,31.674c-1.593,1.593-3.711,2.471-5.964,2.471c-1.393,0-2.733-0.337-3.93-0.969l16.163-16.163
		c-0.025,0.176-0.047,0.347-0.075,0.526C33.775,21.834,32.154,27.774,28.255,31.674z"/>
</g>
</svg>
