<?xml version="1.0" encoding="utf-8"?><svg xmlns="http://www.w3.org/2000/svg"  height="48" viewBox="0 0 48 48" width="48"><path d="M0 0h48v48H0z" fill="none"/>
<g id="Shopicon">
	<path d="M24,34.5c5.79,0,10.5-4.71,10.5-10.5S29.79,13.5,24,13.5c-5.79,0-10.5,4.71-10.5,10.5S18.21,34.5,24,34.5z M24,18.5
		c3.032,0,5.5,2.468,5.5,5.5s-2.468,5.5-5.5,5.5c-3.033,0-5.5-2.468-5.5-5.5S20.967,18.5,24,18.5z"/>
	<rect x="21.5" y="4" width="5" height="6"/>
	<rect x="4" y="21.5" width="6" height="5"/>
	<rect x="38" y="21.5" width="6" height="5"/>
	<rect x="13" y="6.278" transform="matrix(0.866 -0.5 0.5 0.866 -2.5623 8.9928)" width="5" height="6"/>
	<rect x="35.722" y="13" transform="matrix(0.866 -0.5 0.5 0.866 -2.5623 21.4372)" width="6" height="5"/>
	<rect x="6.777" y="12.5" transform="matrix(0.5 -0.866 0.866 0.5 -8.7847 15.7846)" width="5" height="6"/>
	<rect x="29.5" y="6.777" transform="matrix(0.5 -0.866 0.866 0.5 8.2155 32.7844)" width="5.999" height="5"/>
	<path d="M11.5,37h-5c0,4.136,3.364,7.5,7.5,7.5c1.919,0,3.672-0.725,5-1.914c1.328,1.189,3.081,1.914,5,1.914s3.672-0.725,5-1.914
		c1.328,1.189,3.081,1.914,5,1.914c4.136,0,7.5-3.364,7.5-7.5h-5c0,1.379-1.121,2.5-2.5,2.5s-2.5-1.121-2.5-2.5h-5
		c0,1.379-1.121,2.5-2.5,2.5c-1.378,0-2.5-1.121-2.5-2.5h-5c0,1.379-1.122,2.5-2.5,2.5S11.5,38.379,11.5,37z"/>
</g>
</svg>
