<?xml version="1.0" encoding="utf-8"?><svg version="1.1" id="Shopicons" xmlns="http://www.w3.org/2000/svg" x="0" y="0" viewBox="0 0 48 48" xml:space="preserve"><style>.st1{fill:#fff}.st2,.st3{fill:none;stroke:#666;stroke-width:4;stroke-miterlimit:10}.st3{stroke-width:6}</style><g id="linkedin"><path d="M0 .019h48v48H0v-48z" fill="none"/><path d="M34.019 45H13.981C7.926 45 3 40.074 3 34.019V13.981C3 7.926 7.926 3 13.981 3h20.037C40.074 3 45 7.926 45 13.981v20.037C45 40.074 40.074 45 34.019 45zM13.981 9A4.986 4.986 0 0 0 9 13.981v20.037A4.986 4.986 0 0 0 13.981 39h20.037A4.986 4.986 0 0 0 39 34.019V13.981A4.986 4.986 0 0 0 34.019 9H13.981z"/><circle cx="15" cy="15" r="2"/><path d="M12 20h6v15h-6zM36 35h-6v-6.471c0-2.442-.988-2.646-2-2.646l-2 .047V35h-6V20.069l7.93-.186h.002c3.761 0 8.068 2.265 8.068 8.646V35z"/></g></svg>