<?xml version="1.0" encoding="utf-8"?><svg xmlns="http://www.w3.org/2000/svg"  height="48" viewBox="0 0 48 48" width="48"><path d="M0 0h48v48H0z" fill="none"/>
<g id="Shopicon">
	<path d="M36,20c3.314,0,6-2.686,6-6s-2.686-6-6-6c-3.012,0-5.498,2.222-5.927,5.114L15.8,19.358C14.765,18.51,13.442,18,12,18
		c-3.314,0-6,2.686-6,6s2.686,6,6,6c1.443,0,2.767-0.51,3.802-1.359l14.272,6.244c0.432,2.889,2.917,5.107,5.926,5.107
		c3.314,0,6-2.686,6-6s-2.686-6-6-6c-1.801,0-3.413,0.798-4.513,2.055l-13.494-5.904C17.994,24.095,18,24.048,18,24
		c0-0.049-0.006-0.096-0.007-0.144l13.499-5.906C32.591,19.204,34.201,20,36,20z M36,13c0.551,0,1,0.449,1,1s-0.449,1-1,1
		s-1-0.449-1-1S35.449,13,36,13z M12,25c-0.551,0-1-0.449-1-1s0.449-1,1-1s1,0.449,1,1S12.551,25,12,25z M36,32.991
		c0.551,0,1,0.449,1,1s-0.449,1-1,1s-1-0.449-1-1S35.449,32.991,36,32.991z"/>
</g>
</svg>
