<?xml version="1.0" encoding="utf-8"?><svg xmlns="http://www.w3.org/2000/svg"  height="48" viewBox="0 0 48 48" width="48"><path d="M0 0h48v48H0z" fill="none"/>
<g id="Shopicon">
	<path d="M31.278,25.525C34.144,23.332,36,19.887,36,16c0-6.627-5.373-12-12-12c-6.627,0-12,5.373-12,12
		c0,3.887,1.856,7.332,4.722,9.525C9.84,28.531,5,35.665,5,44h38C43,35.665,38.16,28.531,31.278,25.525z M24,9c3.86,0,7,3.14,7,7
		s-3.14,7-7,7s-7-3.14-7-7S20.14,9,24,9z M10.8,39c1.926-5.82,7.116-10,13.2-10s11.274,4.18,13.2,10H10.8z"/>
</g>
</svg>
