<?xml version="1.0" encoding="utf-8"?><svg xmlns="http://www.w3.org/2000/svg"  height="48" viewBox="0 0 48 48" width="48"><path d="M0 0h48v48H0z" fill="none"/>
<g id="Shopicon">
	<path d="M32,3.5H16C9.107,3.5,3.5,9.107,3.5,16v28.5h21v-16H32c6.893,0,12.5-5.607,12.5-12.5S38.893,3.5,32,3.5z M8.5,39.5V27.929
		C9.361,27.706,10,26.931,10,26c0-0.931-0.639-1.706-1.5-1.929V16c0-4.136,3.364-7.5,7.5-7.5h6.024
		C20.447,10.592,19.5,13.184,19.5,16v8.071C18.639,24.294,18,25.069,18,26c0,0.931,0.639,1.706,1.5,1.929V39.5H8.5z M24.5,16
		c0-4.136,3.364-7.5,7.5-7.5s7.5,3.364,7.5,7.5s-3.364,7.5-7.5,7.5S24.5,20.136,24.5,16z"/>
	<path d="M32,11.5c-2.481,0-4.5,2.019-4.5,4.5s2.019,4.5,4.5,4.5s4.5-2.019,4.5-4.5S34.481,11.5,32,11.5z M32,16.5
		c-0.275,0-0.5-0.225-0.5-0.5s0.225-0.5,0.5-0.5s0.5,0.225,0.5,0.5S32.275,16.5,32,16.5z"/>
	<circle cx="14" cy="26" r="2"/>
</g>
</svg>
