<?xml version="1.0" encoding="utf-8"?><svg version="1.1" id="Shopicons" xmlns="http://www.w3.org/2000/svg" x="0" y="0" viewBox="0 0 48 48" xml:space="preserve"><style>.st1{fill:#fff}.st2,.st3{fill:none;stroke:#666;stroke-width:4;stroke-miterlimit:10}.st3{stroke-width:6}</style><g id="Figma"><path d="M0 .006h48v48H0v-48z" fill="none"/><path d="M39 12c0-4.963-4.037-9-9-9H18c-4.962 0-9 4.037-9 9a8.95 8.95 0 0 0 2.311 6A8.95 8.95 0 0 0 9 24a8.95 8.95 0 0 0 2.311 6A8.95 8.95 0 0 0 9 36c0 4.963 4.038 9 9 9s9-4.037 9-9v-3.525c.94.334 1.947.525 3 .525 4.963 0 9-4.037 9-9a8.95 8.95 0 0 0-2.311-6A8.95 8.95 0 0 0 39 12zm-6 0c0 1.654-1.346 3-3 3h-3V9h3c1.654 0 3 1.346 3 3zM15 24c0-1.654 1.346-3 3-3h3v6h-3c-1.654 0-3-1.346-3-3zm3-15h3v6h-3c-1.654 0-3-1.346-3-3s1.346-3 3-3zm3 27c0 1.654-1.346 3-3 3s-3-1.346-3-3 1.346-3 3-3h3v3zm9-9c-1.654 0-3-1.346-3-3s1.346-3 3-3 3 1.346 3 3-1.346 3-3 3z"/></g></svg>