<?xml version="1.0" encoding="utf-8"?><svg xmlns="http://www.w3.org/2000/svg"  height="48" viewBox="0 0 48 48" width="48"><path d="M0 0h48v48H0z" fill="none"/>
<g id="Shopicon">
	<path d="M24,38c2.209,0,4-1.791,4-4c0-1.258-0.592-2.366-1.5-3.099V16h-5v14.9C20.592,31.634,20,32.742,20,34
		C20,36.209,21.791,38,24,38z"/>
	<path d="M24,45c6.065,0,11-4.935,11-11c0-2.274-0.711-4.477-2-6.313V12c0-4.963-4.037-9-9-9c-4.963,0-9,4.037-9,9v15.687
		c-1.289,1.836-2,4.04-2,6.313C13,40.065,17.934,45,24,45z M20,29.537V12c0-2.2,1.8-4,4-4s4,1.8,4,4v17.537
		c1.225,1.098,2,2.688,2,4.463c0,3.314-2.686,6-6,6s-6-2.686-6-6C18,32.225,18.775,30.635,20,29.537z"/>
</g>
</svg>
