<?xml version="1.0" encoding="utf-8"?><svg xmlns="http://www.w3.org/2000/svg"  height="48" viewBox="0 0 48 48" width="48"><path d="M0 0h48v48H0z" fill="none"/>
<g id="Shopicon">
	<path d="M24,44c11.046,0,20-8.954,20-20S35.046,4,24,4S4,12.954,4,24S12.954,44,24,44z M24,9c8.271,0,15,6.729,15,15
		s-6.729,15-15,15S9,32.271,9,24S15.729,9,24,9z"/>
	<path d="M24,16.5c0.827,0,1.5,0.673,1.5,1.5c0,0.723-0.134,0.874-0.943,1.662c-1.217,1.187-3.057,2.979-3.057,7.337h5
		c0-2.249,0.615-2.849,1.547-3.756C29.024,22.291,30.5,20.853,30.5,18c0-3.584-2.916-6.5-6.5-6.5s-6.5,2.916-6.5,6.5h5
		C22.5,17.173,23.173,16.5,24,16.5z"/>
	<circle cx="24" cy="34" r="2"/>
</g>
</svg>
