<?xml version="1.0" encoding="utf-8"?><svg xmlns="http://www.w3.org/2000/svg"  height="48" viewBox="0 0 48 48" width="48"><path d="M0 0h48v48H0z" fill="none"/>
<g id="Shopicon">
	<path d="M26.5,30.901v-3.781h-5v3.781C20.592,31.634,20,32.742,20,34c0,2.209,1.791,4,4,4c2.209,0,4-1.791,4-4
		C28,32.742,27.408,31.634,26.5,30.901z"/>
	<path d="M24,3c-4.963,0-9,4.037-9,9v15.687c-1.289,1.836-2,4.04-2,6.313c0,6.065,4.935,11,11,11s11-4.935,11-11
		c0-2.274-0.711-4.477-2-6.313V12C33,7.037,28.963,3,24,3z M24,40c-3.314,0-6-2.686-6-6c0-1.775,0.775-3.365,2-4.463V12
		c0-2.2,1.8-4,4-4s4,1.8,4,4v17.537c1.225,1.098,2,2.688,2,4.463C30,37.314,27.314,40,24,40z"/>
</g>
</svg>
