<?xml version="1.0" encoding="utf-8"?><svg xmlns="http://www.w3.org/2000/svg" viewBox="0 0 48 48" style="enable-background:new 0 0 48 48" xml:space="preserve"><path d="M42 17.5h-3.4c-.7-4.6-4.6-8.1-9.4-8.1H18.8c-4.8 0-8.7 3.5-9.4 8.1H6c-1.4 0-2.5 1.1-2.5 2.5s1.1 2.5 2.5 2.5h1.7c-.1.5-.2 1-.2 1.5v10c0 .2 0 .3.1.5.3 2.2 2.1 4 4.4 4s4.2-1.8 4.4-4h15.1c.3 2.2 2.1 4 4.5 4s4.2-1.8 4.4-4c0-.2.1-.3.1-.5V24c0-.5-.1-1-.2-1.5H42c1.4 0 2.5-1.1 2.5-2.5s-1.1-2.5-2.5-2.5zm-23.2-3.1h10.5c1.9 0 3.7 1.2 4.3 3.1h-19c.5-1.8 2.2-3.1 4.2-3.1zM12.5 24c0-.8.7-1.5 1.5-1.5h20c.8 0 1.5.7 1.5 1.5v4c0 .8-.7 1.5-1.5 1.5H14c-.8 0-1.5-.7-1.5-1.5v-4z"/><circle cx="16" cy="26" r="2.6"/><circle cx="32" cy="26" r="2.6"/><path d="M0 0h48v48H0V0z" style="fill:none"/></svg>