<?xml version="1.0" encoding="utf-8"?><svg xmlns="http://www.w3.org/2000/svg"  height="48" viewBox="0 0 48 48" width="48"><path d="M0 0h48v48H0z" fill="none"/>
<g id="Shopicon">
	<g>
		<polygon points="41,31.5 41,26.5 26.5,26.5 26.5,41 31.5,41 31.5,35.035 40.231,43.767 43.767,40.231 35.035,31.5 		"/>
		<polygon points="31.5,12.965 31.5,7 26.5,7 26.5,21.5 41,21.5 41,16.5 35.035,16.5 43.768,7.768 40.232,4.232 		"/>
		<polygon points="7,16.5 7,21.5 21.5,21.5 21.5,7 16.5,7 16.5,12.965 7.767,4.231 4.231,7.767 12.965,16.5 		"/>
		<polygon points="7.77,43.77 16.5,35.039 16.5,41 21.5,41 21.5,26.5 7,26.5 7,31.5 12.968,31.5 4.234,40.234 		"/>
	</g>
</g>
</svg>
