<?xml version="1.0" encoding="utf-8"?><svg xmlns="http://www.w3.org/2000/svg"  height="48" viewBox="0 0 48 48" width="48"><path d="M0 0h48v48H0z" fill="none"/>
<g id="Shopicon">
	<path d="M43.535,16L40,12.465l-6.556,6.556c-0.829-0.714-1.736-1.338-2.712-1.852C31.836,15.735,32.5,13.945,32.5,12
		c0-4.687-3.813-8.5-8.5-8.5s-8.5,3.813-8.5,8.5c0,1.945,0.664,3.735,1.768,5.169c-0.976,0.514-1.883,1.138-2.712,1.852L8,12.465
		L4.465,16l6.904,6.904C10.184,25.004,9.5,27.422,9.5,30c0,7.995,6.505,14.5,14.5,14.5S38.5,37.995,38.5,30
		c0-2.578-0.684-4.996-1.869-7.096L43.535,16z M20.5,12c0-1.93,1.57-3.5,3.5-3.5s3.5,1.57,3.5,3.5s-1.57,3.5-3.5,3.5
		S20.5,13.93,20.5,12z M24,39.5c-5.238,0-9.5-4.262-9.5-9.5s4.262-9.5,9.5-9.5s9.5,4.262,9.5,9.5S29.238,39.5,24,39.5z"/>
</g>
</svg>
