<?xml version="1.0" encoding="utf-8"?><svg xmlns="http://www.w3.org/2000/svg" viewBox="0 0 48 48" style="enable-background:new 0 0 48 48" xml:space="preserve"><style>.st1,.st2,.st3,.st4{fill:none;stroke:#666;stroke-miterlimit:10}.st1{stroke-width:4;stroke-linecap:round;stroke-linejoin:round}.st2,.st3,.st4{stroke-width:5}.st3,.st4{stroke-width:4}.st4{stroke-width:2}.st7{fill:#6f6}.st8{fill:none;stroke:#6f6;stroke-width:.1;stroke-miterlimit:10}</style><g id="Your_Icons"><path style="fill:none" d="M0 0h48v48H0z"/><path d="m37.803 15.833-3.932 3.089a11.52 11.52 0 0 1 1.973 10.457c-1.846 6.066-8.276 9.5-14.351 7.654-6.065-1.846-9.499-8.283-7.654-14.35a11.43 11.43 0 0 1 5.59-6.799 11.478 11.478 0 0 1 4.533-1.317l-1.994 1.994 3.535 3.535 8.07-8.071-8.07-8.07-3.535 3.535 2.07 2.07a16.424 16.424 0 0 0-6.962 1.912 16.394 16.394 0 0 0-8.02 9.756c-2.647 8.703 2.279 17.939 10.982 20.588 1.595.485 3.207.717 4.794.717 7.073-.001 13.632-4.59 15.795-11.699a16.518 16.518 0 0 0-2.824-15.001z"/></g></svg>