<?xml version="1.0" encoding="utf-8"?><svg xmlns="http://www.w3.org/2000/svg"  height="48" viewBox="0 0 48 48" width="48"><path d="M0 0h48v48H0z" fill="none"/>
<g id="Shopicon">
	<polygon points="40.07,11.836 37.512,13.313 37.352,10.654 32.361,10.955 32.67,16.108 26.5,19.671 26.5,12.546 31.118,10.237 
		28.882,5.765 26.5,6.956 26.5,4.001 21.5,4.001 21.5,6.956 19.118,5.765 16.882,10.237 21.5,12.546 21.5,19.671 15.33,16.108 
		15.639,10.955 10.648,10.654 10.488,13.313 7.93,11.836 5.43,16.166 7.989,17.643 5.766,19.111 8.521,23.283 12.83,20.438 
		19,24.001 12.83,27.563 8.521,24.719 5.766,28.891 7.989,30.359 5.43,31.836 7.93,36.166 10.488,34.689 10.648,37.348 
		15.639,37.047 15.33,31.894 21.5,28.331 21.5,35.456 16.882,37.765 19.118,42.237 21.5,41.046 21.5,44.001 26.5,44.001 
		26.5,41.046 28.882,42.237 31.118,37.765 26.5,35.456 26.5,28.331 32.67,31.894 32.361,37.047 37.352,37.348 37.512,34.689 
		40.07,36.166 42.57,31.836 40.011,30.359 42.234,28.891 39.479,24.719 35.17,27.563 29,24.001 35.17,20.438 39.479,23.283 
		42.234,19.111 40.011,17.643 42.57,16.166 	"/>
</g>
</svg>
