<?xml version="1.0" encoding="utf-8"?><svg version="1.1" id="Shopicons" xmlns="http://www.w3.org/2000/svg" x="0" y="0" viewBox="0 0 48 48" xml:space="preserve"><style>.st1{fill:#fff}.st2,.st3{fill:none;stroke:#666;stroke-width:4;stroke-miterlimit:10}.st3{stroke-width:6}</style><g id="Instagram"><path d="M0-.019h48v48H0v-48z" fill="none"/><path d="M36.019 10c1.092 0 1.981.889 1.981 1.981v24.038A1.984 1.984 0 0 1 36.019 38H11.981A1.984 1.984 0 0 1 10 36.019V11.981c0-1.092.889-1.981 1.981-1.981h24.038m0-6H11.981A7.98 7.98 0 0 0 4 11.981v24.038A7.98 7.98 0 0 0 11.981 44h24.038A7.98 7.98 0 0 0 44 36.019V11.981A7.98 7.98 0 0 0 36.019 4z"/><path d="M24 35c-6.065 0-11-4.935-11-11s4.935-11 11-11 11 4.935 11 11-4.935 11-11 11zm0-16c-2.757 0-5 2.243-5 5s2.243 5 5 5 5-2.243 5-5-2.243-5-5-5z"/><circle cx="34.478" cy="13.522" r="2"/></g></svg>