<?xml version="1.0" encoding="utf-8"?><svg xmlns="http://www.w3.org/2000/svg"  height="48" viewBox="0 0 48 48" width="48"><path d="M0 0h48v48H0z" fill="none"/>
<g id="Shopicon">
	<path d="M15.216,18.133l-1.941-4.607l-1.053,0.444C15.12,10.582,19.41,8.5,24,8.5c8.547,0,15.5,6.953,15.5,15.5h5
		c0-11.304-9.196-20.5-20.5-20.5c-6.796,0-13.1,3.441-16.874,8.899l-0.655-1.937l-4.736,1.602l3.478,10.284L15.216,18.133z"/>
	<path d="M32.783,29.866l1.941,4.607l1.054-0.444C32.881,37.417,28.591,39.5,24,39.5c-8.547,0-15.5-6.953-15.5-15.5h-5
		c0,11.304,9.196,20.5,20.5,20.5c6.796,0,13.1-3.441,16.873-8.9l0.655,1.937l4.736-1.602l-3.478-10.284L32.783,29.866z"/>
	<path d="M20.5,13.5v2h-3v19h13v-19h-3v-2H20.5z M25.5,29.5h-3v-9h3V29.5z"/>
</g>
</svg>
