<?xml version="1.0" encoding="utf-8"?><svg xmlns="http://www.w3.org/2000/svg" viewBox="0 0 48 48" style="enable-background:new 0 0 48 48" xml:space="preserve"><style>.st1,.st2,.st3,.st4{fill:none;stroke:#666;stroke-miterlimit:10}.st1{stroke-width:4;stroke-linecap:round;stroke-linejoin:round}.st2,.st3,.st4{stroke-width:5}.st3,.st4{stroke-width:4}.st4{stroke-width:2}.st7{fill:#6f6}.st8{fill:none;stroke:#6f6;stroke-width:.1;stroke-miterlimit:10}</style><g id="Your_Icons"><path style="fill:none" d="M0 .008h48v48H0z"/><path d="M39.542 34.074c-1.705-2.834-6.607-10.559-8.042-12.817V10.5h.5a2.5 2.5 0 1 0 0-5H16a2.5 2.5 0 1 0 0 5h.5v10.757c-1.436 2.259-6.338 9.983-8.043 12.818-.559.93-.843 1.914-.843 2.925 0 3.032 2.467 5.5 5.498 5.5h21.773c3.033 0 5.5-2.468 5.5-5.5.001-1.011-.283-1.995-.843-2.926zM34.884 37.5h-21.77a.5.5 0 0 1-.5-.5c0-.118.08-.269.127-.348 1.932-3.211 8.303-13.225 8.367-13.325.255-.401.391-.867.391-1.343v-11.48h5v11.48c0 .476.136.941.391 1.343.064.101 6.436 10.114 8.367 13.324.048.08.128.23.128.349a.5.5 0 0 1-.501.5z"/></g></svg>