<?xml version="1.0" encoding="utf-8"?><svg xmlns="http://www.w3.org/2000/svg"  height="48" viewBox="0 0 48 48" width="48"><path d="M0 0h48v48H0z" fill="none"/>
<g id="Shopicon">
	<path d="M31.5,44.5h6V32.943c3.084-1.888,5-5.238,5-8.943v-3.501l-11.614,0.006c-0.792-2.249-2.317-4.182-4.386-5.448V3.5h-11
		v11.557c-3.084,1.888-5,5.238-5,8.943v20.5h16H31.5z M15.5,24c0-2.249,1.35-4.25,3.439-5.096l1.561-0.633V8.5h1v9.771l1.561,0.633
		c0.872,0.353,1.604,0.915,2.174,1.604L21.5,20.51V24c0,3.705,1.916,7.056,5,8.943V39.5h-11V24z M37.293,25.502
		c-0.453,1.606-1.623,2.942-3.232,3.594L32.5,29.729V39.5h-1v-9.771l-1.561-0.633c-1.606-0.65-2.776-1.984-3.23-3.589L37.293,25.502
		z"/>
</g>
</svg>
