<?xml version="1.0" encoding="utf-8"?><svg xmlns="http://www.w3.org/2000/svg"  height="48" viewBox="0 0 48 48" width="48"><path d="M0 0h48v48H0z" fill="none"/>
<g id="Shopicon">
	<path d="M24,30c3.314,0,6-2.686,6-6s-2.686-6-6-6s-6,2.686-6,6S20.686,30,24,30z M24,23c0.551,0,1,0.449,1,1s-0.449,1-1,1
		s-1-0.449-1-1S23.449,23,24,23z"/>
	<path d="M8.706,37.027c2.363-0.585,4.798-1.243,6.545-1.243c0.683,0,1.261,0.101,1.688,0.345c1.474,0.845,2.318,4.268,3.245,7.502
		C21.421,43.866,22.694,44,24,44s2.579-0.134,3.816-0.368c0.926-3.234,1.771-6.657,3.244-7.501c0.427-0.245,1.005-0.345,1.688-0.345
		c1.747,0,4.183,0.658,6.545,1.243c1.605-1.848,2.865-3.99,3.706-6.333c-2.344-2.406-4.872-4.891-4.872-6.694
		c0-1.804,2.528-4.288,4.872-6.694c-0.841-2.343-2.101-4.485-3.706-6.333c-2.363,0.585-4.798,1.243-6.545,1.243
		c-0.683,0-1.261-0.101-1.688-0.345c-1.474-0.845-2.318-4.268-3.245-7.502C26.579,4.134,25.306,4,24,4
		c-1.306,0-2.579,0.134-3.816,0.368c-0.926,3.234-1.771,6.657-3.244,7.501c-0.427,0.245-1.005,0.345-1.688,0.345
		c-1.747,0-4.183-0.658-6.546-1.243C7.101,12.821,5.841,14.962,5,17.306C7.344,19.712,9.872,22.196,9.872,24
		c0,1.804-2.527,4.288-4.872,6.694C5.841,33.037,7.101,35.179,8.706,37.027z M11.365,16.744c1.341,0.276,2.658,0.471,3.886,0.471
		c1.626,0,2.992-0.33,4.175-1.008c2.441-1.4,3.627-4.04,4.574-7.054c0.947,3.014,2.133,5.654,4.574,7.054
		c1.183,0.678,2.548,1.008,4.175,1.008c1.228,0,2.544-0.195,3.886-0.471c-1.993,2.244-3.506,4.539-3.506,7.255
		c0,2.717,1.513,5.011,3.506,7.256c-1.341-0.276-2.658-0.471-3.886-0.471c-1.626,0-2.992,0.33-4.175,1.008
		c-2.441,1.4-3.627,4.039-4.574,7.054c-0.947-3.014-2.133-5.654-4.574-7.054c-1.183-0.678-2.548-1.008-4.175-1.008
		c-1.228,0-2.544,0.195-3.886,0.471c1.993-2.244,3.506-4.539,3.506-7.255C14.872,21.283,13.358,18.989,11.365,16.744z"/>
</g>
</svg>
