<?xml version="1.0" encoding="utf-8"?><svg xmlns="http://www.w3.org/2000/svg"  height="48" viewBox="0 0 48 48" width="48"><path d="M0 0h48v48H0z" fill="none"/>
<g id="Shopicon">
	<polygon points="16,27.828 16,28 16.172,28 21,32.828 21,28 27,28 27,32.828 31.828,28 32,28 32,27.828 33.829,26 32,24.172 32,24 
		31.828,24 27,19.172 27,24 21,24 21,19.172 16.172,24 16,24 16,24.172 14.171,26 	"/>
	<path d="M40,14c1.654,0,3-1.346,3-3s-1.346-3-3-3s-3,1.346-3,3S38.346,14,40,14z"/>
	<path d="M40,15c-2.206,0-4,1.794-4,4v8c0,1.474,0.81,2.75,2,3.444V42h4V30.444c1.19-0.694,2-1.969,2-3.444v-8
		C44,16.794,42.206,15,40,15z"/>
	<path d="M10,42V30.444c1.19-0.694,2-1.969,2-3.444v-8c0-2.206-1.794-4-4-4s-4,1.794-4,4v8c0,1.474,0.81,2.75,2,3.444V42H10z"/>
	<path d="M8,14c1.654,0,3-1.346,3-3S9.654,8,8,8s-3,1.346-3,3S6.346,14,8,14z"/>
</g>
</svg>
