<?xml version="1.0" encoding="utf-8"?><svg xmlns="http://www.w3.org/2000/svg"  height="48" viewBox="0 0 48 48" width="48"><path d="M0 0h48v48H0z" fill="none"/>
<g id="Shopicon">
	<circle cx="20.083" cy="17.997" r="2"/>
	<circle cx="28.002" cy="17.997" r="2"/>
	<path d="M24.083,31.913C28.448,31.913,32,28.363,32,24h-4c0,2.157-1.757,3.913-3.917,3.913S20.166,26.157,20.166,24h-4
		C16.166,28.363,19.718,31.913,24.083,31.913z"/>
	<path d="M41.369,19.029C39.205,11.517,32.282,6,24.083,6S8.961,11.517,6.797,19.029C5.282,19.177,4.083,20.448,4.083,22v4
		c0,1.65,1.35,3,3,3c1.65,0,3-1.35,3-3v-2.002C10.084,16.279,16.364,10,24.083,10c7.72,0,14,6.28,14,14s-6.28,14-14,14v0h-2.014
		c-1.65,0-3,1.35-3,3s1.35,3,3,3h4.014c1.552,0,2.824-1.199,2.971-2.714c5.931-1.709,10.606-6.384,12.315-12.315
		c1.515-0.147,2.714-1.419,2.714-2.971v-4C44.083,20.448,42.884,19.176,41.369,19.029z"/>
</g>
</svg>
