<?xml version="1.0" encoding="utf-8"?><svg xmlns="http://www.w3.org/2000/svg"  height="48" viewBox="0 0 48 48" width="48"><path d="M0 0h48v48H0z" fill="none"/>
<g id="Shopicon">
	<path d="M17.074,33.829l2.255,2.097h-6.176c-1.886,0-3.289-0.559-3.848-1.533c-0.56-0.975-0.336-2.468,0.614-4.097l3.128-5.362
		l-3.455-2.016L6.463,28.28c-1.716,2.942-1.939,5.82-0.628,8.104c1.312,2.283,3.91,3.541,7.317,3.541h6.177l-2.256,2.097l2.724,2.93
		l7.557-7.025l-7.557-7.027L17.074,33.829z"/>
	<path d="M35.213,16.918l-4.295-7.362C29.205,6.618,26.802,5,24.152,5c-2.649,0-5.052,1.618-6.766,4.556l-2.024,3.469l-0.675-3.005
		l-3.902,0.877l2.261,10.066l9.877-2.986l-1.157-3.828l-2.947,0.89l2.023-3.468C21.794,9.938,23.001,9,24.152,9
		c1.151,0,2.358,0.938,3.312,2.571l4.295,7.362L35.213,16.918z"/>
	<path d="M32.953,30.954l3.902,0.877l0.675-3.003l0.856,1.468c0.95,1.629,1.174,3.122,0.614,4.097
		c-0.56,0.975-1.962,1.533-3.848,1.533h-4v4h4c3.407,0,6.005-1.258,7.316-3.541c1.312-2.283,1.089-5.162-0.627-8.104l-0.857-1.47
		l2.949,0.892l1.158-3.828l-9.876-2.987L32.953,30.954z"/>
</g>
</svg>
