<?xml version="1.0" encoding="utf-8"?><svg xmlns="http://www.w3.org/2000/svg"  height="48" viewBox="0 0 48 48" width="48"><path d="M0 0h48v48H0z" fill="none"/>
<g id="Shopicon">
	<path d="M27,32.658c-3.077-1.769-5-5.035-5-8.658v-2.99l4.186-0.002c-0.653-1.132-1.662-2.05-2.937-2.567L22,17.935V8h-2v9.935
		l-1.249,0.506C16.472,19.364,15,21.546,15,24v16h12V32.658z"/>
	<path d="M31,44h6V32.658c3.077-1.769,5-5.035,5-8.658v-3.001l-11.473,0.006c-0.742-2.371-2.333-4.402-4.527-5.663V4H16v11.342
		c-3.077,1.769-5,5.035-5,8.658v20h16H31z M37.917,25.001c-0.34,2.033-1.705,3.763-3.668,4.559L33,30.065V40h-2v-9.935l-1.249-0.506
		c-1.961-0.795-3.325-2.521-3.667-4.552L37.917,25.001z M15,24c0-2.454,1.472-4.636,3.751-5.56L20,17.935V8h2v9.935l1.249,0.506
		c1.275,0.517,2.283,1.436,2.937,2.567L22,21.01V24c0,3.623,1.923,6.89,5,8.658V40H15V24z"/>
</g>
</svg>
