<?xml version="1.0" encoding="utf-8"?><svg xmlns="http://www.w3.org/2000/svg"  height="48" viewBox="0 0 48 48" width="48"><path d="M0 0h48v48H0z" fill="none"/>
<g id="Shopicon">
	<path d="M40,26.294V8c0-2.2-1.8-4-4-4h-4v12H16V4h-4C9.8,4,8,5.8,8,8v16.344C7.44,24.542,6.9,24.826,6.399,25.2
		c-2.646,1.984-3.185,5.753-1.199,8.4C5.519,34.025,13.131,44,24,44h20V32C44,29.722,42.498,27.724,40,26.294z M8.4,31.2
		c-0.662-0.882-0.482-2.139,0.397-2.8c0.36-0.27,0.783-0.399,1.201-0.399c0.608,0,1.207,0.274,1.596,0.791
		C11.647,28.864,17.026,36,24,36h8v-2h0h0v-2h-8c-1.229,0-2.46-0.385-3.61-0.962C21.518,29.573,25.025,28,30,28
		c6.104,0,10,2.369,10,4v8h-2H24C15.107,40,8.669,31.559,8.4,31.2z"/>
	<rect x="20" y="4" width="8" height="8"/>
</g>
</svg>
