<?xml version="1.0" encoding="utf-8"?>
<svg version="1.1" xmlns="http://www.w3.org/2000/svg" xmlns:xlink="http://www.w3.org/1999/xlink" x="0px" y="0px"
	 viewBox="0 0 48 48" style="enable-background:new 0 0 48 48;" xml:space="preserve">
<g id="Your_Icons">
	<path d="M40,6H28.997C28.997,6.011,29,6.021,29,6.032c0,2.761-2.239,5-5,5s-5-2.239-5-5C19,6.021,19.003,6.011,19.003,6H8
		c-2.2,0-4,1.8-4,4v8c0,2.2,1.8,4,4,4l1.978,0v16c0,2.2,1.8,4,4,4L34,42c2.2,0,4-1.8,4-4V22h2c2.2,0,4-1.8,4-4v-8
		C44,7.8,42.2,6,40,6z"/>
</g>
</svg>
