<?xml version="1.0" encoding="utf-8"?>
<svg version="1.1" id="Ebene_1" xmlns="http://www.w3.org/2000/svg" xmlns:xlink="http://www.w3.org/1999/xlink" x="0px" y="0px"
	 viewBox="0 0 48 48" style="enable-background:new 0 0 48 48;" xml:space="preserve">
<style type="text/css">
	.st0{fill:none;}
</style>
<path class="st0" d="M0,0h48v48H0V0z"/>
<g id="Shopicon">
	<path d="M31,44h6V32.7c3.1-1.8,5-5,5-8.7v-3l-11.5,0c-0.7-2.4-2.3-4.4-4.5-5.7V4H16v11.3c-3.1,1.8-5,5-5,8.7v20h16H31z M37.9,25
		c-0.3,2-1.7,3.8-3.7,4.6L33,30.1V40h-2v-9.9l-1.2-0.5c-2-0.8-3.3-2.5-3.7-4.6L37.9,25z"/>
</g>
</svg>
