<?xml version="1.0" encoding="utf-8"?><svg xmlns="http://www.w3.org/2000/svg"  height="48" viewBox="0 0 48 48" width="48"><path d="M0 0h48v48H0z" fill="none"/>
<g id="Shopicon">
	<circle cx="42" cy="6" r="2"/>
	<circle cx="18" cy="18" r="1"/>
	<circle cx="30" cy="30" r="1"/>
	<path d="M42,11c0-2.757-2.243-5-5-5c-1.006,0-1.965,0.3-2.773,0.841C26.395,2.143,16.366,3.302,9.799,9.856
		C6.014,13.635,3.929,18.657,3.929,24s2.085,10.365,5.87,14.144c3.906,3.898,9.036,5.848,14.167,5.847
		c5.129,0,10.261-1.949,14.166-5.847c6.564-6.552,7.729-16.558,3.031-24.375C41.702,12.962,42,12.005,42,11z M18,13
		c2.761,0,5,2.239,5,5s-2.239,5-5,5s-5-2.239-5-5S15.239,13,18,13z M30,15.172L32.829,18L18,32.828L15.171,30L30,15.172z M30,25
		c2.761,0,5,2.239,5,5s-2.239,5-5,5s-5-2.239-5-5S27.239,25,30,25z"/>
</g>
</svg>
