<?xml version="1.0" encoding="utf-8"?><svg xmlns="http://www.w3.org/2000/svg"  height="48" viewBox="0 0 48 48" width="48"><path d="M0 0h48v48H0z" fill="none"/>
<g id="Shopicon">
	<path d="M24,42c9.941,0,18-8.059,18-18S33.941,6,24,6C14.059,6,6,14.059,6,24S14.059,42,24,42z M28,16c1.105,0,2,0.895,2,2
		c0,1.104-0.895,2-2,2c-1.105,0-2-0.896-2-2C26,16.895,26.895,16,28,16z M20,16c1.105,0,2,0.895,2,2c0,1.104-0.895,2-2,2
		c-1.105,0-2-0.896-2-2C18,16.895,18.895,16,20,16z M20,24c0,2.206,1.794,4,4,4s4-1.794,4-4h4c0,4.411-3.589,8-8,8s-8-3.589-8-8H20z
		"/>
</g>
</svg>
