<?xml version="1.0" encoding="utf-8"?><svg xmlns="http://www.w3.org/2000/svg"  height="48" viewBox="0 0 48 48" width="48"><path d="M0 0h48v48H0z" fill="none"/>
<g id="Shopicon">
	<path d="M41.599,25.199c-2.645-1.982-6.412-1.443-8.387,1.185c-0.442,0.571-1.259,1.476-2.312,2.394C28.812,25.913,23.952,24,18,24
		c-7.981,0-14,3.439-14,8v12h20c10.869,0,18.481-9.975,18.801-10.399C44.785,30.953,44.247,27.185,41.599,25.199z M24,40H10H8v-8
		c0-1.631,3.896-4,10-4c4.975,0,8.482,1.573,9.61,3.038C26.46,31.615,25.229,32,24,32h-8v4h8c6.974,0,12.353-7.136,12.399-7.199
		c0.661-0.882,1.919-1.062,2.801-0.401c0.882,0.662,1.062,1.919,0.4,2.801C39.331,31.559,32.893,40,24,40z"/>
	<path d="M24,22.33c3.866,0,7-2.91,7-6.5c0-6.5-7-12.071-7-12.071S17,9.33,17,15.83C17,19.42,20.134,22.33,24,22.33z"/>
</g>
</svg>
