<?xml version="1.0" encoding="utf-8"?><svg xmlns="http://www.w3.org/2000/svg" viewBox="0 0 48 48" style="enable-background:new 0 0 48 48" xml:space="preserve"><style>.st0{fill:none}</style><g id="Your_Icons"><path class="st0" d="M0 .008h48v48H0z"/><path class="st0" d="M0 .004h48v48H0z"/><path class="st0" d="M0-.004h48v48H0z"/><path d="M29 11.996h12v4H29zM35 39.996c-5.636 0-9-4.112-9-11s3.364-11 9-11 9 4.112 9 11v2H30.122c.441 3.32 2.077 5 4.878 5 2.79 0 4.114-.805 5.459-2.194l2.874 2.781c-2.315 2.392-4.807 3.413-8.333 3.413zm-4.878-13h9.757c-.441-3.32-2.077-5-4.878-5s-4.439 1.68-4.879 5zM18.546 22.461A8.472 8.472 0 0 0 21 16.496c0-4.687-3.813-8.5-8.5-8.5H4v32h9.5c5.238 0 9.5-4.262 9.5-9.5 0-3.384-1.783-6.351-4.454-8.035zM12.5 11.996c2.481 0 4.5 2.019 4.5 4.5s-2.019 4.5-4.5 4.5H8v-9h4.5zm1 24H8v-11h5.5c3.033 0 5.5 2.468 5.5 5.5s-2.467 5.5-5.5 5.5z"/></g></svg>