<?xml version="1.0" encoding="utf-8"?><svg xmlns="http://www.w3.org/2000/svg"  height="48" viewBox="0 0 48 48" width="48"><path d="M0 0h48v48H0z" fill="none"/>
<g id="Shopicon">
	<path d="M28.783,23.536c1.846-0.252,3.498-1.38,4.431-3.068c0.93-1.681,1.02-3.717,0.299-5.468
		c0.721-1.751,0.631-3.787-0.299-5.468V9.531c-0.937-1.691-2.589-2.806-4.423-3.057C27.672,4.939,25.902,4,24,4
		s-3.672,0.939-4.792,2.475c-1.835,0.251-3.488,1.365-4.423,3.058c-0.929,1.681-1.019,3.717-0.298,5.468
		c-0.72,1.751-0.63,3.787,0.299,5.468c0.934,1.688,2.586,2.816,4.431,3.068c0.711,0.97,1.683,1.699,2.783,2.104V44h4V25.64
		C27.1,25.235,28.073,24.506,28.783,23.536z M24,11c2.209,0,4,1.791,4,4c0,2.209-1.791,4-4,4s-4-1.791-4-4
		C20,12.791,21.791,11,24,11z"/>
	<path d="M29.445,33.214c-2.054,2.054-2.054,5.383,0,7.437c2.054,2.054,5.383,2.054,7.437,0c3.719-3.719,3.187-10.624,3.187-10.624
		S33.163,29.495,29.445,33.214z"/>
	<path d="M7.931,30.095c0,0-0.531,6.906,3.187,10.624c2.054,2.054,5.383,2.054,7.437,0c2.054-2.054,2.054-5.383,0-7.437
		C14.837,29.564,7.931,30.095,7.931,30.095z"/>
</g>
</svg>
