<?xml version="1.0" encoding="utf-8"?><svg version="1.1" id="Shopicons" xmlns="http://www.w3.org/2000/svg" x="0" y="0" viewBox="0 0 48 48" xml:space="preserve"><style>.st1{fill:#fff}.st2,.st3{fill:none;stroke:#666;stroke-width:4;stroke-miterlimit:10}.st3{stroke-width:6}</style><g id="pinterest_00000120537527402711585490000011271433064142456995_"><path d="M0 .011h48v48H0v-48z" fill="none"/><path d="M24 4C12.972 4 4 12.972 4 24c0 7.861 4.57 14.658 11.183 17.924l5.889-21.454 3.858 1.056-.001.003v.001c-1.719 6.305-.415 8.439.226 9.064.924.903 2.265.597 2.654.479C30.561 30.255 32 26.895 32 24c0-4.411-3.589-8-8-8-4.318 0-6.572 2.391-7.191 4.438-.918 3.04.707 5.251.776 5.343l-3.158 2.455c-.122-.156-2.98-3.876-1.446-8.954C13.995 15.922 17.49 12 24 12c6.617 0 12 5.383 12 12 0 5.186-2.898 9.671-7.048 10.908-2.449.73-4.913.188-6.593-1.451a6.652 6.652 0 0 1-.541-.597l-2.873 10.467c1.618.425 3.306.673 5.055.673 11.028 0 20-8.972 20-20S35.028 4 24 4z"/></g></svg>