<?xml version="1.0" encoding="utf-8"?><svg xmlns="http://www.w3.org/2000/svg"  height="48" viewBox="0 0 48 48" width="48"><path d="M0 0h48v48H0z" fill="none"/>
<g id="Shopicon">
	<path d="M34.581,20.331c1.623-1.753,2.625-4.091,2.625-6.663c0-5.418-4.408-9.826-9.826-9.826c-4.39,0-8.115,2.894-9.372,6.874
		c-1.379-1.419-3.304-2.305-5.434-2.305c-4.182,0-7.583,3.401-7.583,7.583c0,1.316,0.338,2.555,0.931,3.635v22.595h28.66v-5.076
		l8.625,2.841V19.641l-8.625,2.951V20.331z M12.574,19.577c-1.976,0-3.583-1.607-3.583-3.583s1.607-3.583,3.583-3.583
		s3.583,1.607,3.583,3.583S14.55,19.577,12.574,19.577z M27.38,19.494c-3.213,0-5.827-2.613-5.827-5.826s2.614-5.826,5.827-5.826
		c3.212,0,5.826,2.613,5.826,5.826S30.592,19.494,27.38,19.494z"/>
</g>
</svg>
