<?xml version="1.0" encoding="utf-8"?><svg version="1.1" id="Shopicons" xmlns="http://www.w3.org/2000/svg" x="0" y="0" viewBox="0 0 48 48" xml:space="preserve"><style>.st1{fill:#fff}</style><g id="linkedin_00000124154336345225334750000004695467072613960070_"><path d="M0 .019h48v48H0v-48z" fill="none"/><path d="M34.019 44H13.981C8.478 44 4 39.522 4 34.019V13.981C4 8.478 8.478 4 13.981 4h20.037C39.522 4 44 8.478 44 13.981v20.037C44 39.522 39.522 44 34.019 44z"/><circle class="st1" cx="15" cy="15" r="2"/><path class="st1" d="M13 20h4v15h-4zM35 35h-4v-7.471c0-2.487-.953-3.646-3-3.646l-4 .078V35h-4V20.039l7.961-.156h.001c3.423 0 7.038 2.009 7.038 7.646V35z"/></g></svg>