<?xml version="1.0" encoding="utf-8"?><svg xmlns="http://www.w3.org/2000/svg" viewBox="0 0 48 48" style="enable-background:new 0 0 48 48" xml:space="preserve"><style>.st1,.st2,.st3,.st4{fill:none;stroke:#666;stroke-miterlimit:10}.st1{stroke-width:4;stroke-linecap:round;stroke-linejoin:round}.st2,.st3,.st4{stroke-width:5}.st3,.st4{stroke-width:4}.st4{stroke-width:2}.st7{fill:#6f6}.st8{fill:none;stroke:#6f6;stroke-width:.1;stroke-miterlimit:10}</style><g id="Your_Icons"><path d="m36.565 14.114-3.145 2.471a12.023 12.023 0 0 1 2.058 10.912c-.934 3.066-3.005 5.586-5.833 7.095s-6.076 1.824-9.141.893c-3.066-.934-5.586-3.005-7.095-5.833s-1.825-6.074-.893-9.141 3.004-5.586 5.832-7.095a11.987 11.987 0 0 1 4.65-1.369L23 17l9-7-9-7v5.044a15.94 15.94 0 0 0-6.533 1.843 15.89 15.89 0 0 0-7.775 9.46 15.898 15.898 0 0 0 1.189 12.188 15.895 15.895 0 0 0 9.46 7.776 16.03 16.03 0 0 0 4.678.701c2.591 0 5.159-.637 7.51-1.891a15.895 15.895 0 0 0 7.776-9.46 16.019 16.019 0 0 0-2.74-14.547z"/><path style="fill:none" d="M0 0h48v48H0z"/></g></svg>