<?xml version="1.0" encoding="utf-8"?><svg xmlns="http://www.w3.org/2000/svg"  height="48" viewBox="0 0 48 48" width="48"><path d="M0 0h48v48H0z" fill="none"/>
<g id="Shopicon">
	<path d="M8,32c0,2.2,1.8,4,4,4h2c0,2.209,1.791,4,4,4s4-1.791,4-4h7c0,2.209,1.791,4,4,4s4-1.791,4-4h3V24l-4-8h-4v-4
		c0-2.2-1.8-4-4-4H12c-2.2,0-4,1.8-4,4V32z M34,36c0,0.551-0.449,1-1,1s-1-0.449-1-1s0.449-1,1-1S34,35.449,34,36z M18,37
		c-0.551,0-1-0.449-1-1s0.449-1,1-1s1,0.449,1,1S18.551,37,18,37z M34.146,19L37,24.708V26h-1c-2.2,0-4-1.8-4-4v-3H34.146z"/>
</g>
</svg>
