<?xml version="1.0" encoding="utf-8"?><svg xmlns="http://www.w3.org/2000/svg"  height="48" viewBox="0 0 48 48" width="48"><path d="M0 0h48v48H0z" fill="none"/>
<g id="Shopicon">
	<circle cx="20" cy="12" r="8"/>
	<polygon points="30.971,36 9.171,36 4.586,40.586 7.414,43.414 10.829,40 32.171,40 35.586,43.414 38.414,40.586 35.029,37.2 
		43.627,25.162 40.373,22.838 	"/>
	<path d="M35.291,19.466c0.508,0.352,1.098,0.535,1.702,0.535c0.18,0,0.362-0.017,0.543-0.049c0.787-0.144,1.472-0.584,1.928-1.241
		c0.944-1.357,0.606-3.23-0.755-4.178c-0.66-0.456-1.456-0.626-2.245-0.485c-0.788,0.144-1.474,0.585-1.93,1.244
		C33.592,16.652,33.932,18.524,35.291,19.466z"/>
	<path d="M17,28.288l7.735,4.297c0.248,0.32,0.53,0.615,0.872,0.852c0.693,0.48,1.487,0.711,2.273,0.711
		c1.268,0,2.517-0.601,3.293-1.719l4.558-6.576c0.607-0.876,0.836-1.938,0.646-2.991c-0.191-1.054-0.779-1.968-1.654-2.574
		c-0.877-0.607-1.939-0.84-2.992-0.646c-1.053,0.191-1.967,0.778-2.574,1.654l-4.558,6.576c-0.01,0.015-0.016,0.032-0.026,0.047
		L17,23.712L5.28,30.223l1.943,3.497L17,28.288z"/>
</g>
</svg>
