<?xml version="1.0" encoding="utf-8"?><svg xmlns="http://www.w3.org/2000/svg"  height="48" viewBox="0 0 48 48" width="48"><path d="M0 0h48v48H0z" fill="none"/>
<g id="Shopicon">
	<path d="M40,12h-1.172l4-4L40,5.172L33.172,12H32.66l-3.464-6H18.804l-3.464,6H8c-2.2,0-4,1.8-4,4v18
		c0,1.943,1.405,3.569,3.248,3.924L5.172,40L8,42.828L12.828,38H40c2.2,0,4-1.8,4-4V16C44,13.8,42.2,12,40,12z M30,24
		c0,3.314-2.686,6-6,6c-0.926,0-1.799-0.216-2.582-0.59l7.992-7.992C29.784,22.201,30,23.074,30,24z M18,24c0-3.314,2.686-6,6-6
		c0.926,0,1.799,0.216,2.582,0.59l-7.992,7.992C18.216,25.799,18,24.926,18,24z"/>
</g>
</svg>
