<?xml version="1.0" encoding="utf-8"?><svg xmlns="http://www.w3.org/2000/svg"  height="48" viewBox="0 0 48 48" width="48"><path d="M0 0h48v48H0z" fill="none"/>
<g id="Shopicon">
	<path d="M21.577,35.754l-5.095,5.944l3.037,2.604L24,39.073l4.481,5.229l3.037-2.604l-5.095-5.944C31.883,34.63,36,29.787,36,24h2
		v-4H10v4h2C12,29.787,16.117,34.63,21.577,35.754z"/>
	<path d="M27,16h4c0-2.105-0.772-3.264-1.336-4.109C29.222,11.228,29,10.895,29,10s0.222-1.228,0.664-1.891
		C30.228,7.264,31,6.105,31,4h-4c0,0.895-0.222,1.228-0.664,1.891C25.772,6.736,25,7.895,25,10s0.772,3.264,1.336,4.109
		C26.778,14.772,27,15.105,27,16z"/>
	<path d="M19,16h4c0-2.105-0.772-3.264-1.336-4.109C21.222,11.228,21,10.895,21,10s0.222-1.228,0.664-1.891
		C22.228,7.264,23,6.105,23,4h-4c0,0.895-0.222,1.228-0.664,1.891C17.772,6.736,17,7.895,17,10s0.772,3.264,1.336,4.109
		C18.778,14.772,19,15.105,19,16z"/>
</g>
</svg>
