<?xml version="1.0" encoding="utf-8"?><svg xmlns="http://www.w3.org/2000/svg" viewBox="0 0 48 48" style="enable-background:new 0 0 48 48" xml:space="preserve"><path d="M0 0h48v48H0V0z" style="fill:none"/><path d="M29 12h12v4H29v-4zm6 28c-5.636 0-9-4.112-9-11s3.364-11 9-11 9 4.112 9 11v2H30.122c.441 3.32 2.077 5 4.878 5 2.79 0 4.114-.805 5.459-2.194l2.874 2.781C41.018 38.979 38.526 40 35 40zm-4.878-13h9.757c-.441-3.32-2.077-5-4.878-5s-4.439 1.68-4.879 5zm-11.576-4.535A8.468 8.468 0 0 0 21 16.5c0-4.687-3.813-8.5-8.5-8.5H4v32h9.5c5.238 0 9.5-4.262 9.5-9.5 0-3.384-1.783-6.351-4.454-8.035zM12.5 12c2.481 0 4.5 2.019 4.5 4.5S14.981 21 12.5 21H8v-9h4.5zm1 24H8V25h5.5c3.033 0 5.5 2.468 5.5 5.5S16.533 36 13.5 36z"/></svg>