<?xml version="1.0" encoding="utf-8"?><svg version="1.1" id="Shopicons" xmlns="http://www.w3.org/2000/svg" x="0" y="0" viewBox="0 0 48 48" xml:space="preserve"><style>.st1{fill:#fff}.st2,.st3{fill:none;stroke:#666;stroke-width:4;stroke-miterlimit:10}.st3{stroke-width:6}</style><g id="figma"><path d="M0 .006h48v48H0v-48z" fill="none"/><path d="M35.274 18A7.976 7.976 0 0 0 38 12c0-4.411-3.589-8-8-8H18c-4.411 0-8 3.589-8 8a7.976 7.976 0 0 0 2.726 6C11.059 19.467 10 21.61 10 24s1.059 4.533 2.726 6A7.976 7.976 0 0 0 10 36c0 4.411 3.589 8 8 8s8-3.589 8-8v-5.083A7.93 7.93 0 0 0 30 32c4.411 0 8-3.589 8-8a7.976 7.976 0 0 0-2.726-6zM34 12c0 2.206-1.794 4-4 4h-4V8h4c2.206 0 4 1.794 4 4zm-20 0c0-2.206 1.794-4 4-4h4v8h-4c-2.206 0-4-1.794-4-4zm0 12c0-2.206 1.794-4 4-4h4v8h-4c-2.206 0-4-1.794-4-4zm8 12c0 2.206-1.794 4-4 4s-4-1.794-4-4 1.794-4 4-4h4v4zm8-8c-2.206 0-4-1.794-4-4s1.794-4 4-4 4 1.794 4 4-1.794 4-4 4z"/></g></svg>