<?xml version="1.0" encoding="utf-8"?><svg xmlns="http://www.w3.org/2000/svg"  height="48" viewBox="0 0 48 48" width="48"><path d="M0 0h48v48H0z" fill="none"/>
<g id="Shopicon">
	<path d="M18.344,41.65c3.072,0,6.146-1.17,8.484-3.509l2.829-2.828l-2.828-2.828L24,35.313c-3.12,3.12-8.195,3.118-11.313,0
		c-3.119-3.119-3.119-8.194,0-11.313l2.828-2.829l-2.828-2.828l-2.828,2.829c-4.679,4.679-4.679,12.291,0,16.97
		C12.198,40.481,15.271,41.65,18.344,41.65z"/>
	<path d="M24,12.687c3.119-3.119,8.194-3.119,11.313,0s3.119,8.194,0,11.313l-2.828,2.829l2.828,2.828l2.828-2.829
		c4.679-4.679,4.679-12.291,0-16.97c-4.68-4.679-12.292-4.679-16.97,0l-2.829,2.828l2.828,2.828L24,12.687z"/>
	<rect x="15.999" y="22" transform="matrix(0.7071 -0.7071 0.7071 0.7071 -9.9411 24)" width="16.001" height="4"/>
</g>
</svg>
