<?xml version="1.0" encoding="utf-8"?><svg version="1.1" id="Shopicons" xmlns="http://www.w3.org/2000/svg" x="0" y="0" viewBox="0 0 48 48" xml:space="preserve"><style>.st1{fill:#fff}</style><g id="instagram"><path d="M0-.019h48v48H0v-48z" fill="none"/><path d="M36.019 4H11.981A7.98 7.98 0 0 0 4 11.981v24.038A7.98 7.98 0 0 0 11.981 44h24.038A7.98 7.98 0 0 0 44 36.019V11.981A7.98 7.98 0 0 0 36.019 4z"/><path class="st1" d="M24 34c-5.514 0-10-4.486-10-10s4.486-10 10-10 10 4.486 10 10-4.486 10-10 10z"/><circle class="st1" cx="35" cy="13" r="2"/></g></svg>