<?xml version="1.0" encoding="utf-8"?><svg xmlns="http://www.w3.org/2000/svg"  height="48" viewBox="0 0 48 48" width="48"><path d="M0 0h48v48H0z" fill="none"/>
<g id="Shopicon">
	<path d="M38.932,13H21.73c-2.115,0-4.041,1.162-5.026,3.032L13.559,22H9.766H9.47c-3.685,0-6.715,2.998-6.753,6.684l-0.055,5.296
		c-0.005,0.534,0.203,1.048,0.579,1.428C3.616,35.786,4.128,36,4.662,36h2.452c0.825,2.329,3.04,4,5.651,4s4.827-1.671,5.651-4
		h8.698c0.825,2.329,3.04,4,5.651,4s4.827-1.671,5.651-4H42c1.104,0,2-0.896,2-2V18.068C44,15.273,41.727,13,38.932,13z
		 M20.243,17.896C20.535,17.344,21.104,17,21.73,17h17.202C39.521,17,40,17.479,40,18.068V22H18.081L20.243,17.896z M12.766,36
		c-1.103,0-2-0.897-2-2s0.897-2,2-2s2,0.897,2,2S13.869,36,12.766,36z M32.766,36c-1.103,0-2-0.897-2-2s0.897-2,2-2s2,0.897,2,2
		S33.869,36,32.766,36z"/>
</g>
</svg>
