<?xml version="1.0" encoding="utf-8"?><svg xmlns="http://www.w3.org/2000/svg" viewBox="0 0 48 48" style="enable-background:new 0 0 48 48" xml:space="preserve"><path style="fill:none" d="M0 0h48v48H0z"/><path d="M36 30c-.15 0-.298.012-.445.023l-6.144-13.965A5.975 5.975 0 0 0 31 12a6 6 0 1 0-12 0c0 1.104.303 2.135.824 3.024l-6.283 9.183A5.98 5.98 0 0 0 12 24a6 6 0 1 0 6 6 5.961 5.961 0 0 0-1.159-3.534l6.057-8.852A5.982 5.982 0 0 0 25 18c.294 0 .581-.028.864-.069l6.029 13.703A5.976 5.976 0 0 0 30 36a6 6 0 1 0 6-6z"/></svg>