<?xml version="1.0" encoding="utf-8"?><svg xmlns="http://www.w3.org/2000/svg"  height="48" viewBox="0 0 48 48" width="48"><path d="M0 0h48v48H0z" fill="none"/>
<g id="Shopicon">
	<path d="M10.5,22c2.475,0,4.5-2.025,4.5-4.5c0,2.475,2.025,4.5,4.5,4.5s4.5-2.025,4.5-4.5c0,2.475,2.025,4.5,4.5,4.5
		s4.5-2.025,4.5-4.5c0,2.475,2.025,4.5,4.5,4.5s4.5-2.025,4.5-4.5v-9c0-0.171-0.032-0.334-0.051-0.5C41.973,7.835,42,7.671,42,7.5
		C42,5.575,40.425,4,38.5,4h-28c-0.241,0-0.476,0.025-0.703,0.072C7.655,4.414,6,6.266,6,8.5v9C6,19.975,8.025,22,10.5,22z"/>
	<path d="M42,36v-4v-6h-4v6H22v-6h-4v6v4v4h-8V26H6v18h36V36z M22,40v-4h16v4H22z"/>
</g>
</svg>
