<?xml version="1.0" encoding="utf-8"?><svg xmlns="http://www.w3.org/2000/svg"  height="48" viewBox="0 0 48 48" width="48"><path d="M0 0h48v48H0z" fill="none"/>
<g id="Shopicon">
	<g>
		<polygon points="24,42.16 24,5.835 11.303,15.999 4,15.998 4,31.998 11.303,31.999 		"/>
		<path d="M28,27.999v4c4.411,0,8-3.589,8-8s-3.589-8-8-8v4c2.206,0,4,1.794,4,4S30.206,27.999,28,27.999z"/>
		<path d="M44,23.999c0-9.374-7.626-17-17-17v4c7.168,0,13,5.832,13,13s-5.832,13-13,13v4C36.374,40.999,44,33.373,44,23.999z"/>
	</g>
</g>
</svg>
