<?xml version="1.0" encoding="utf-8"?><svg xmlns="http://www.w3.org/2000/svg" viewBox="0 0 48 48" style="enable-background:new 0 0 48 48" xml:space="preserve"><style>.st1,.st2,.st3,.st4{fill:none;stroke:#666;stroke-miterlimit:10}.st1{stroke-width:4;stroke-linecap:round;stroke-linejoin:round}.st2,.st3,.st4{stroke-width:5}.st3,.st4{stroke-width:4}.st4{stroke-width:2}.st7{fill:#6f6}.st8{fill:none;stroke:#6f6;stroke-width:.1;stroke-miterlimit:10}</style><g id="Your_Icons"><path style="fill:none" d="M0 .008h48v48H0z"/><path d="M39.114 34.332C37.38 31.449 32.326 23.487 31 21.402V10h1a2 2 0 0 0 0-4H16a2 2 0 0 0 0 4h1v11.402c-1.326 2.085-6.38 10.047-8.114 12.93-.512.852-.772 1.749-.772 2.668 0 2.757 2.243 5 4.999 5h21.773c2.757 0 5-2.243 5-5 0-.919-.26-1.816-.772-2.668zM20.688 23.059c.204-.322.312-.694.312-1.075V10.003h6v11.981a2 2 0 0 0 .312 1.074c.031.049 1.55 2.435 3.325 5.244l-15.434 3.43c2.495-3.976 5.441-8.605 5.485-8.673z"/></g></svg>