<?xml version="1.0" encoding="utf-8"?><svg xmlns="http://www.w3.org/2000/svg"  height="48" viewBox="0 0 48 48" width="48"><path d="M0 0h48v48H0z" fill="none"/>
<g id="Shopicon">
	<path d="M30,4c-1.485,0-2.735,0.83-3.707,2h-4.586C20.735,4.83,19.485,4,18,4s-2.735,0.83-3.707,2H8v14v24h32V20V6h-6.293
		C32.735,4.83,31.485,4,30,4z M36,40H12V20h24V40z M18,13c0,1.104-0.895,2-2,2s-2-0.896-2-2c0-1.105,0.895-2,2-2S18,11.895,18,13z
		 M24,15c-1.105,0-2-0.896-2-2c0-1.105,0.895-2,2-2s2,0.895,2,2C26,14.104,25.105,15,24,15z M32,15c-1.105,0-2-0.896-2-2
		c0-1.105,0.895-2,2-2s2,0.895,2,2C34,14.104,33.105,15,32,15z"/>
	<rect x="16" y="24" width="16" height="12"/>
</g>
</svg>
