<?xml version="1.0" encoding="utf-8"?><svg xmlns="http://www.w3.org/2000/svg"  height="48" viewBox="0 0 48 48" width="48"><path d="M0 0h48v48H0z" fill="none"/>
<g id="Shopicon">
	<path d="M12,44h4c0-4.411,3.589-8,8-8v-4c-4.411,0-8-3.589-8-8h-4c0,4.411-3.589,8-8,8v4C8.411,36,12,39.589,12,44z"/>
	<polygon points="39.999,32 35.999,32 35.999,36 32,36 32,40 35.999,40 35.999,44 39.999,44 39.999,40 44,40 44,36 39.999,36 	"/>
	<path d="M36,4h-4c0,4.411-3.589,8-8,8v4c4.411,0,8,3.589,8,8h4c0-4.411,3.589-8,8-8v-4C39.589,12,36,8.411,36,4z"/>
	<polygon points="8.001,16 12.001,16 12.001,12 16,12 16,8 12.001,8 12.001,4 8.001,4 8.001,8 4,8 4,12 8.001,12 	"/>
</g>
</svg>
