<?xml version="1.0" encoding="utf-8"?><svg xmlns="http://www.w3.org/2000/svg"  height="48" viewBox="0 0 48 48" width="48"><path d="M0 0h48v48H0z" fill="none"/>
<g id="Shopicon">
	<path d="M13,4h-3C7.8,4,6,5.8,6,8v23.955c0,2.2,1.8,4,4,4h3V4z"/>
	<path d="M40.228,21.494L30,11.267V8c0-2.2-1.8-4-4-4h-7v31.955h7c2.2,0,4-1.8,4-4v-3.712l2.12,2.12l2.829-2.828l-4.663-4.663
		l-6.301-6.301c-0.378-0.378-0.585-0.884-0.584-1.424c0.001-0.534,0.207-1.033,0.584-1.408c0.754-0.755,2.079-0.753,2.832,0
		L31,17.923l6.416,6.416l-0.072-0.022l0.109,0.072C37.584,24.586,38,25.337,38,26.955v13H22c-1.915,0-3.605-1.633-3.933-3.799
		L18.044,36h-4.045l0.114,0.754c0.621,4.105,4.012,7.201,7.888,7.201h20v-17C42,23.483,40.656,21.907,40.228,21.494z"/>
</g>
</svg>
