<?xml version="1.0" encoding="utf-8"?>
<svg version="1.1" id="Shopicons" xmlns="http://www.w3.org/2000/svg" xmlns:xlink="http://www.w3.org/1999/xlink" x="0px" y="0px"
	 viewBox="0 0 48 48" style="enable-background:new 0 0 48 48;" xml:space="preserve">
<style type="text/css">
	.st0{fill:none;}
</style>
<g>
	<path class="st0" d="M0,0h48v48H0V0z"/>
	<path d="M34,4H14C8.5,4,4,8.5,4,14v20c0,5.5,4.5,10,10,10h20c5.5,0,10-4.5,10-10V14C44,8.5,39.5,4,34,4z M17,35h-4V20h4V35z M15,17
		c-1.1,0-2-0.9-2-2c0-1.1,0.9-2,2-2s2,0.9,2,2C17,16.1,16.1,17,15,17z M35,35h-4v-7.5c0-2.5-1-3.6-3-3.6L24,24v11h-4V20l8-0.2
		c3.4,0,7,2,7,7.6V35z"/>
</g>
</svg>
