<?xml version="1.0" encoding="utf-8"?><svg xmlns="http://www.w3.org/2000/svg"  height="48" viewBox="0 0 48 48" width="48"><path d="M0 0h48v48H0z" fill="none"/>
<g id="Shopicon">
	<path d="M8.083,44h4c2.2,0,4-1.8,4-4v-4c0-2.2-1.8-4-4-4h-4c-2.2,0-4,1.8-4,4v4C4.083,42.2,5.883,44,8.083,44z"/>
	<path d="M22.083,44h4c2.2,0,4-1.8,4-4V26c0-2.2-1.8-4-4-4h-4c-2.2,0-4,1.8-4,4v14C18.083,42.2,19.883,44,22.083,44z"/>
	<path d="M36.083,44h4c2.2,0,4-1.8,4-4V8c0-2.2-1.8-4-4-4h-4c-2.2,0-4,1.8-4,4v32C32.083,42.2,33.883,44,36.083,44z"/>
</g>
</svg>
