<?xml version="1.0" encoding="utf-8"?><svg xmlns="http://www.w3.org/2000/svg"  height="48" viewBox="0 0 48 48" width="48"><path d="M0 0h48v48H0z" fill="none"/>
<g id="Shopicon">
	<path d="M14.037,22c0.239-6.944,1.708-13.047,3.885-17.053C10.46,7.326,4.9,13.96,4.101,22H14.037z"/>
	<path d="M14.037,26H4.101C4.9,34.04,10.46,40.674,17.922,43.053C15.745,39.047,14.276,32.944,14.037,26z"/>
	<path d="M33.963,22h9.936C43.1,13.96,37.54,7.326,30.078,4.947C32.255,8.953,33.724,15.056,33.963,22z"/>
	<path d="M33.963,26c-0.239,6.944-1.708,13.047-3.885,17.053C37.54,40.674,43.1,34.04,43.899,26H33.963z"/>
	<path d="M29.958,26H18.042C18.466,37.815,22.539,44,24,44S29.534,37.815,29.958,26z"/>
	<path d="M24,4c-1.461,0-5.534,6.185-5.958,18h11.916C29.534,10.185,25.461,4,24,4z"/>
</g>
</svg>
