<?xml version="1.0" encoding="utf-8"?><svg xmlns="http://www.w3.org/2000/svg"  height="48" viewBox="0 0 48 48" width="48"><path d="M0 0h48v48H0z" fill="none"/>
<g id="Shopicon">
	<path d="M42,18.923h-3.909c-0.775-4.182-4.443-7.361-8.846-7.361H18.75c-4.403,0-8.072,3.179-8.847,7.361H6c-1.104,0-2,0.896-2,2
		s0.896,2,2,2h2.468c-0.188,0.552-0.295,1.14-0.295,1.755v5.396c0,0.268,0.026,0.53,0.064,0.788
		c-0.028,0.208-0.064,0.413-0.064,0.629v3.829c0,2.58,2.1,4.68,4.68,4.68c2.508,0,4.544-1.987,4.658-4.467h12.825
		C30.45,38.013,32.487,40,34.994,40c2.58,0,4.68-2.1,4.68-4.68v-3.829c0-0.128-0.028-0.25-0.038-0.375
		c0.066-0.338,0.102-0.685,0.102-1.042v-5.396c0-0.615-0.107-1.203-0.295-1.755H42c1.104,0,2-0.896,2-2S43.104,18.923,42,18.923z
		 M16.984,27.549c-0.075,0.471-0.328,0.885-0.714,1.165c0,0,0,0-0.001,0.001c-0.386,0.28-0.858,0.397-1.328,0.318
		c-0.471-0.074-0.885-0.328-1.165-0.714c-0.579-0.797-0.402-1.916,0.394-2.494c0.316-0.229,0.684-0.341,1.048-0.341
		c0.552,0,1.098,0.255,1.446,0.735C16.946,26.605,17.059,27.077,16.984,27.549z M34.257,28.715c-0.387,0.28-0.857,0.396-1.329,0.319
		c-0.471-0.074-0.885-0.328-1.165-0.714c-0.281-0.386-0.395-0.857-0.319-1.329c0.074-0.471,0.328-0.885,0.714-1.165
		c0.316-0.229,0.684-0.341,1.048-0.341c0.553,0,1.098,0.255,1.446,0.735C35.23,27.018,35.054,28.137,34.257,28.715z M18.75,15.562
		h10.495c2.292,0,4.229,1.55,4.819,3.657H13.93C14.52,17.111,16.457,15.562,18.75,15.562z"/>
</g>
</svg>
