<?xml version="1.0" encoding="utf-8"?><svg xmlns="http://www.w3.org/2000/svg"  height="48" viewBox="0 0 48 48" width="48"><path d="M0 0h48v48H0z" fill="none"/>
<g id="Shopicon">
	<path d="M24,44c11.046,0,20-8.954,20-20S35.046,4,24,4S4,12.954,4,24S12.954,44,24,44z M24,12c3.309,0,6,2.691,6,6
		c0,2.642-1.331,3.938-2.302,4.885C26.712,23.846,26,24.54,26,26.999h-4c0-4.146,1.68-5.783,2.906-6.979
		C25.702,19.244,26,18.954,26,18c0-1.103-0.897-2-2-2s-2,0.897-2,2h-4C18,14.691,20.691,12,24,12z M24,36c-1.105,0-2-0.895-2-2
		c0-1.105,0.895-2,2-2c1.105,0,2,0.895,2,2C26,35.105,25.105,36,24,36z"/>
</g>
</svg>
