<?xml version="1.0" encoding="utf-8"?><svg xmlns="http://www.w3.org/2000/svg"  height="48" viewBox="0 0 48 48" width="48"><path d="M0 0h48v48H0z" fill="none"/>
<g id="Shopicon">
    <path d="M43.109,14.336l-12-8a1.673,1.673,0,0,0-.151-.08,1.811,1.811,0,0,0-.19-.1,1.926,1.926,0,0,0-.255-.079c-.04-.011-.077-.027-.118-.035A2,2,0,0,0,29.981,6h-12a2.012,2.012,0,0,0-.378.039c-.05.01-.1.029-.145.042a1.421,1.421,0,0,0-.49.211c-.027.016-.055.025-.081.043l-.008,0,0,0L4.891,14.336A2,2,0,0,0,6,18H16v5.528L8.211,39.106a2,2,0,0,0,2.649,2.7L24,35.549l13.14,6.258a2,2,0,0,0,2.649-2.7L32,23.528V18H42a2,2,0,0,0,1.109-3.664ZM20,10h8v4H20Zm-7.394,4L16,11.738V14ZM28.764,26l1.151,2.3L24,31.119,18.085,28.3,19.236,26ZM14.389,35.7,16.3,31.881l3.052,1.453Zm14.263-2.362L31.7,31.881,33.611,35.7ZM28,22H20V18h8Zm4-8V11.737L35.4,14Z"/>
  </g>
</svg>
