<?xml version="1.0" encoding="utf-8"?><svg xmlns="http://www.w3.org/2000/svg"  height="48" viewBox="0 0 48 48" width="48"><path d="M0 0h48v48H0z" fill="none"/>
<g id="Shopicon">
	<path d="M42,6H18c-2.2,0-4,1.8-4,4v4C7.4,14,2,19.4,2,26v12h4c0,3.314,2.686,6,6,6s6-2.686,6-6h8c0,3.314,2.686,6,6,6s6-2.686,6-6
		h4c2.2,0,4-1.8,4-4V10C46,7.8,44.2,6,42,6z M34,38c0,1.103-0.897,2-2,2s-2-0.897-2-2s0.897-2,2-2S34,36.897,34,38z M12,40
		c-1.103,0-2-0.897-2-2s0.897-2,2-2c1.103,0,2,0.897,2,2S13.103,40,12,40z M14,17v4c-1.862,0-3.412,1.278-3.859,3h-4.91
		C6.145,19.998,9.726,17,14,17z"/>
</g>
</svg>
