<?xml version="1.0" encoding="utf-8"?><svg xmlns="http://www.w3.org/2000/svg"  height="48" viewBox="0 0 48 48" width="48"><path d="M0 0h48v48H0z" fill="none"/>
<g id="Shopicon">
	<path d="M10,40.467V18.5c0-1.346,0.312-2.628,0.86-3.812l4.53,4.53C13.942,20.315,13,22.047,13,24c0,3.309,2.691,6,6,6v-4
		c-1.103,0-2-0.897-2-2c0-0.857,0.545-1.584,1.304-1.868l3.797,3.797C22.038,26.277,22,26.634,22,27v4.267V34
		c0,1.538,0.586,2.937,1.54,4C22.586,39.063,22,40.462,22,42v2h4v-2c0-1.103,0.897-2,2-2h2h6c3.309,0,6-2.691,6-6V21h-2v-5.477
		h-0.348C38.093,8.951,31.478,4,23.577,4h-1.154C13.367,4,6,10.505,6,18.5V44h4V40.467z M35.391,21H28
		c-1.444,0-2.77,0.513-3.806,1.365L13.262,11.433C15.535,9.33,18.794,8,22.423,8h1.154C30.427,8,36,12.71,36,18.5v2.033V21H35.391z"
		/>
	<circle cx="32" cy="17" r="2"/>
</g>
</svg>
