<?xml version="1.0" encoding="utf-8"?><svg xmlns="http://www.w3.org/2000/svg" viewBox="0 0 48 48" style="enable-background:new 0 0 48 48" xml:space="preserve"><path transform="rotate(-180 24 24)" style="fill:none" d="M0 0h48v48H0z"/><path d="M37 16.172 34.172 19l3 3H29v4h8.172l-3 3L37 31.828 44.828 24zM22 10.828V19h4v-8.172l3 3L31.828 11 24 3.172 16.172 11 19 13.828zM19 26v-4h-8.172l3-3L11 16.172 3.172 24 11 31.828 13.828 29l-3-3zM26 37.172V29h-4v8.172l-3-3L16.172 37 24 44.828 31.828 37 29 34.172z"/></svg>