<?xml version="1.0" encoding="utf-8"?><svg xmlns="http://www.w3.org/2000/svg"  height="48" viewBox="0 0 48 48" width="48"><path d="M0 0h48v48H0z" fill="none"/>
<g id="Shopicon">
	<path d="M41.674,22.688C41.885,22.136,42,21.536,42,20.911c0-2.757-2.243-5-5-5h-0.076c0.666-0.805,1.064-1.795,1.064-2.869
		c0-4.869-5.5-9.042-5.5-9.042s-5.5,4.173-5.5,9.042c0,1.074,0.398,2.064,1.064,2.869h-5.827l3.342-6.686l-5.687-3.791L8.751,14.35
		l-0.164,0.146c-0.211,0.211-0.423,0.41-0.631,0.607C5.64,17.289,4,19.344,4,25.911v8c0,5.514,4.486,10,10,10h19
		c2.757,0,5-2.243,5-5c0-0.37-0.04-0.73-0.117-1.078C40.221,37.415,42,35.367,42,32.911c0-0.625-0.115-1.225-0.326-1.776
		C43.071,30.247,44,28.686,44,26.911S43.071,23.575,41.674,22.688z M39,27.911h-2H24v4h13c0.542,0,1,0.458,1,1s-0.458,1-1,1h-4h-9v4
		h9c0.542,0,1,0.458,1,1s-0.458,1-1,1H14c-3.309,0-6-2.691-6-6v-8c0-5.351,1.133-6.419,2.701-7.898
		c0.21-0.198,0.422-0.398,0.634-0.608l8.761-7.019l0.313,0.209l-4.658,9.316H37c0.542,0,1,0.458,1,1s-0.458,1-1,1H24v4h13h2
		c0.542,0,1,0.458,1,1S39.542,27.911,39,27.911z"/>
</g>
</svg>
