<?xml version="1.0" encoding="utf-8"?><svg xmlns="http://www.w3.org/2000/svg"  height="48" viewBox="0 0 48 48" width="48"><path d="M0 0h48v48H0z" fill="none"/>
<g id="Shopicon">
	<path d="M37.005,6c-3.86,0-7,3.141-7,7v3h4v-3c0-1.654,1.346-3,3-3s3,1.346,3,3v11h-0.333H32h-1.662
		c-1.737,0-3.228,1.033-3.918,2.512C25.68,26.185,24.864,26,24.005,26c-0.818,0-1.598,0.166-2.309,0.463
		C21.092,25.019,19.666,24,18.005,24h-1h-1h-8H8V13c0-1.654,1.346-3,3-3s3,1.346,3,3v3h4v-3c0-3.859-3.14-7-7-7s-7,3.141-7,7v15
		h0.005v4.4c0,0.069,0.017,0.133,0.02,0.2c-0.006,0.133-0.02,0.265-0.02,0.399c0,4.963,4.038,9,9,9s9-4.037,9-9
		c0-0.135-0.014-0.266-0.02-0.399c0.003-0.068,0.02-0.132,0.02-0.2V32c0-1.103,0.897-2,2-2s2,0.897,2,2v0.066
		c0,0.107,0.024,0.207,0.031,0.312c-0.014,0.206-0.031,0.412-0.031,0.622c0,4.963,4.038,9,9,9s9-4.037,9-9
		c0-0.21-0.017-0.416-0.031-0.622c0.008-0.105,0.031-0.205,0.031-0.312v-3.733c0-0.114-0.025-0.221-0.034-0.333h0.034V13
		C44.005,9.141,40.865,6,37.005,6z M13.005,38v-4c0.551,0,1-0.448,1-1h4C18.005,35.757,15.762,38,13.005,38z M35.005,34
		c0.551,0,1-0.448,1-1h4c0,2.757-2.243,5-5,5V34z"/>
</g>
</svg>
