<?xml version="1.0" encoding="utf-8"?><svg xmlns="http://www.w3.org/2000/svg"  height="48" viewBox="0 0 48 48" width="48"><path d="M0 0h48v48H0z" fill="none"/>
<g id="Shopicon">
	<circle cx="34" cy="4" r="2"/>
	<circle cx="14" cy="4" r="2"/>
	<polygon points="22,10 26,10 30,10 30,2 18,2 18,10 	"/>
	<polygon points="32,38 25.992,38 25.927,46 36,46 36,38 34,38 	"/>
	<polygon points="21.992,38 16,38 14,38 12,38 12,46 21.928,46 	"/>
	<polygon points="38,14 38,34 38,38 46,38 46,10 38,10 	"/>
	<polygon points="10,34 10,14 10,10 2,10 2,38 10,38 	"/>
	<path d="M34,14h-4H18h-4v20h20V14z M30,30h-4v-4h-4v4h-4V18h4v4h4v-4h4V30z"/>
</g>
</svg>
