<?xml version="1.0" encoding="utf-8"?><svg xmlns="http://www.w3.org/2000/svg" viewBox="0 0 48 48" style="enable-background:new 0 0 48 48" xml:space="preserve"><style>.st0{fill:none}.st1,.st2,.st3,.st4{fill:none;stroke:#666;stroke-miterlimit:10}.st1{stroke-width:4;stroke-linecap:round;stroke-linejoin:round}.st2,.st3,.st4{stroke-width:5}.st3,.st4{stroke-width:4}.st4{stroke-width:2}.st7{fill:#6f6}.st8{fill:none;stroke:#6f6;stroke-width:.1;stroke-miterlimit:10}</style><path d="M40 24c0-.702-.128-1.373-.35-2H42a2 2 0 0 0 0-4h-3.798c-.459-4.537-4.301-8.091-8.957-8.091H18.75c-4.657 0-8.499 3.554-8.958 8.091H6a2 2 0 0 0 0 4h2.35A5.976 5.976 0 0 0 8 24v10c0 .138.014.273.041.404C8.247 36.418 9.933 38 12 38s3.753-1.582 3.959-3.596c.027-.131.041-.266.041-.404h16c0 .138.014.273.041.404C32.246 36.418 33.932 38 36 38s3.754-1.582 3.959-3.596c.027-.131.041-.266.041-.404V24zm-24 5a3 3 0 1 1 0-6 3 3 0 0 1 0 6zm13-3a3 3 0 1 1 6 0 3 3 0 0 1-6 0z" id="Your_Icons"/></svg>