<?xml version="1.0" encoding="utf-8"?><svg xmlns="http://www.w3.org/2000/svg"  height="48" viewBox="0 0 48 48" width="48"><path d="M0 0h48v48H0z" fill="none"/>
<g id="Shopicon">
	<path d="M30.857,21.884C33.841,21.295,36,17.669,36,12.978c0-5.131-2.58-9-6-9s-6,3.869-6,9c0,3.034,0.907,5.619,2.351,7.232
		c-0.766-0.141-1.549-0.232-2.352-0.232c-0.803,0-1.585,0.091-2.351,0.232C23.093,18.597,24,16.012,24,12.978c0-5.131-2.58-9-6-9
		s-6,3.869-6,9c0,4.691,2.159,8.317,5.142,8.906C12.882,24.362,10,28.862,10,32.978c0,5.54,5.218,8.452,12,8.924v-5.924h-2v-4h8v4
		h-2v5.924c6.782-0.471,12-3.384,12-8.924C38,28.862,35.118,24.362,30.857,21.884z M30,7.978c0.581,0,2,1.752,2,5s-1.419,5-2,5
		s-2-1.752-2-5S29.419,7.978,30,7.978z M18,7.978c0.581,0,2,1.752,2,5s-1.419,5-2,5s-2-1.752-2-5S17.419,7.978,18,7.978z M18,30.978
		c-1.105,0-2-0.895-2-2c0-1.104,0.895-2,2-2c1.105,0,2,0.896,2,2C20,30.082,19.104,30.978,18,30.978z M30,30.978
		c-1.105,0-2-0.895-2-2c0-1.104,0.895-2,2-2c1.105,0,2,0.896,2,2C32,30.082,31.104,30.978,30,30.978z"/>
</g>
</svg>
