<?xml version="1.0" encoding="utf-8"?><svg xmlns="http://www.w3.org/2000/svg"  height="48" viewBox="0 0 48 48" width="48"><path d="M0 0h48v48H0z" fill="none"/>
<g id="Shopicon">
	<path d="M38.808,14.847C38.936,14.243,39,13.627,39,13c0-4.963-4.038-9-9-9c-3.328,0-6.28,1.794-7.838,4.574
		C21.16,8.195,20.094,8,19,8c-4,0-7.478,2.664-8.608,6.393C6.664,15.522,4,19,4,23c0,4.963,4.038,9,9,9h22c4.962,0,9-4.037,9-9
		C44,19.437,41.915,16.294,38.808,14.847z"/>
	<rect x="8.757" y="37" transform="matrix(0.7071 -0.7071 0.7071 0.7071 -23.7696 20.6152)" width="8.485" height="4"/>
	<rect x="19.757" y="37" transform="matrix(0.7071 -0.7071 0.7071 0.7071 -20.5477 28.3934)" width="8.485" height="4"/>
	<rect x="30.757" y="37" transform="matrix(0.7071 -0.7071 0.7071 0.7071 -17.3259 36.1716)" width="8.485" height="4"/>
</g>
</svg>
