<?xml version="1.0" encoding="utf-8"?><svg xmlns="http://www.w3.org/2000/svg"  height="48" viewBox="0 0 48 48" width="48"><path d="M0 0h48v48H0z" fill="none"/>
<g id="Shopicon">
	<path d="M8,44h2V24c-1.145,0-2,0-2,0c-2.2,0-4,1.8-4,4v12C4,42.2,5.8,44,8,44z"/>
	<path d="M14,44h18.43c3.3,0,6.723-2.7,7.608-6l3.751-14c0.884-3.3-1.092-6-4.392-6c0,0-4.397,0-7.397,0s-2.128-3-2.128-3
		l0.924-3.448c0.854-3.188-1.055-6.494-4.243-7.348C26.039,4.066,25.52,4,25.01,4c-2.649,0-5.089,1.774-5.805,4.446L15.841,21
		c0,0-0.449,1.579-1.841,2.445V44z"/>
</g>
</svg>
