<?xml version="1.0" encoding="utf-8"?><svg xmlns="http://www.w3.org/2000/svg"  height="48" viewBox="0 0 48 48" width="48"><path d="M0 0h48v48H0z" fill="none"/>
<g id="Shopicon">
	<path d="M41.339,22.906c-0.165-0.375-0.361-0.767-0.58-1.167c-0.109-0.2-0.218-0.399-0.341-0.603
		c-0.095-0.157-0.205-0.316-0.31-0.474c-0.275-0.417-0.577-0.837-0.92-1.255c-0.076-0.093-0.153-0.184-0.232-0.276
		c-0.215-0.249-0.437-0.498-0.679-0.742c-0.306-0.31-0.632-0.616-0.985-0.915c-0.006-0.005-0.013-0.009-0.019-0.015
		c-0.004-0.003-0.007-0.007-0.011-0.01c-0.037-0.03-0.077-0.056-0.115-0.086c-3.209-2.648-6.628-3.232-7.964-3.355
		c-4.688-0.439-8.092,1.604-9.21,2.274c-0.014,0.009-0.026,0.019-0.041,0.027c-3.287,1.889-5.192,4.659-6.218,6.689H11.81
		C6.952,23,3,26.952,3,31.81V36h5.349c0.825,2.329,3.04,4,5.651,4s4.827-1.671,5.651-4h8.698c0.825,2.329,3.04,4,5.651,4
		s4.827-1.671,5.651-4H45V23h-3.614C41.372,22.967,41.353,22.938,41.339,22.906z M38.542,27h1.459L14.67,27.016V27h1.676H38.542z
		 M22.027,19.716c0.931-0.558,3.404-2.037,6.789-1.725c0.763,0.071,3.443,0.462,5.892,2.535c0.93,0.787,1.632,1.644,2.162,2.474
		H18.425C19.266,21.864,20.434,20.669,22.027,19.716z M14,36c-1.103,0-2-0.897-2-2s0.897-2,2-2s2,0.897,2,2S15.103,36,14,36z M34,36
		c-1.103,0-2-0.897-2-2s0.897-2,2-2c1.103,0,2,0.897,2,2S35.103,36,34,36z"/>
</g>
</svg>
