<?xml version="1.0" encoding="utf-8"?><svg version="1.1" id="Shopicons" xmlns="http://www.w3.org/2000/svg" x="0" y="0" viewBox="0 0 48 48" style="enable-background:new 0 0 48 48" xml:space="preserve"><style>.st1{fill:#fff}</style><g id="instagram"><path d="M0 0h48v48H0V0z" style="fill:none"/><path d="M36 4c4.4 0 8 3.6 8 8v24c0 4.4-3.6 8-8 8H12c-4.4 0-8-3.6-8-8V12c0-4.4 3.6-8 8-8h24z"/><path class="st1" d="M24 34c-5.5 0-10-4.5-10-10s4.5-10 10-10 10 4.5 10 10-4.5 10-10 10z"/><circle class="st1" cx="35" cy="13" r="2"/></g></svg>