<?xml version="1.0" encoding="utf-8"?><svg xmlns="http://www.w3.org/2000/svg"  height="48" viewBox="0 0 48 48" width="48"><path d="M0 0h48v48H0z" fill="none"/>
<g id="Shopicon">
	<path d="M9.694,27.135l0.701-0.701L20,31.236L20,11c0-0.542,0.458-1,1-1s1,0.458,1,1v9h4v-9h0.001V9c0-0.542,0.457-1,0.999-1
		s1,0.458,1,1v2v9h4v-9c0-0.542,0.458-1,1-1s1,0.458,1,1v4v5h4v-5c0-0.542,0.458-1,1-1s1,0.458,1,1v9h4v-9c0-2.757-2.243-5-5-5
		c-0.37,0-0.73,0.04-1.078,0.117C37.504,7.779,35.456,6,33,6c-0.625,0-1.225,0.115-1.776,0.326C30.336,4.929,28.774,4,27,4
		s-3.335,0.929-4.223,2.326C22.225,6.115,21.626,6,21,6c-2.757,0-5,2.243-5,5l0,13.764l-6.395-3.197l-5.299,5.299l10.146,12.4
		l0.14,0.153C16.844,41.671,19.172,44,22,44v-4c-1.153,0-3.003-1.833-4.515-3.345L9.694,27.135z"/>
	<circle cx="43" cy="34" r="2"/>
	<circle cx="33" cy="24" r="2"/>
	<circle cx="34" cy="44" r="2"/>
	<circle cx="23" cy="34" r="2"/>
	<path d="M41.414,28.343c0.781-0.781,0.781-2.047,0-2.828c-0.781-0.781-2.047-0.781-2.828,0c-0.709,0.709-0.767,1.815-0.189,2.597
		C36.973,26.805,35.081,26,33,26s-3.973,0.805-5.397,2.112c0.579-0.783,0.52-1.888-0.189-2.597c-0.781-0.781-2.047-0.781-2.828,0
		c-0.781,0.781-0.781,2.047,0,2.828c0.701,0.701,1.791,0.767,2.572,0.209C25.824,29.982,25,31.895,25,34s0.824,4.018,2.158,5.448
		c-0.781-0.558-1.871-0.492-2.572,0.209c-0.781,0.781-0.781,2.047,0,2.828c0.781,0.781,2.047,0.781,2.828,0
		c0.709-0.709,0.767-1.815,0.189-2.597C29.027,41.195,30.919,42,33,42s3.973-0.805,5.397-2.112c-0.579,0.783-0.52,1.888,0.189,2.597
		c0.781,0.781,2.047,0.781,2.828,0c0.781-0.781,0.781-2.047,0-2.828c-0.701-0.701-1.791-0.767-2.572-0.209
		C40.176,38.018,41,36.105,41,34s-0.824-4.018-2.158-5.448C39.623,29.111,40.713,29.044,41.414,28.343z M32.414,30.586
		c0.781,0.781,0.781,2.047,0,2.828c-0.781,0.781-2.047,0.781-2.828,0c-0.781-0.781-0.781-2.047,0-2.828
		C30.367,29.805,31.633,29.805,32.414,30.586z M33.586,37.414c-0.781-0.781-0.781-2.047,0-2.828c0.781-0.781,2.047-0.781,2.828,0
		c0.781,0.781,0.781,2.047,0,2.828C35.633,38.195,34.367,38.195,33.586,37.414z"/>
</g>
</svg>
