<?xml version="1.0" encoding="utf-8"?><svg xmlns="http://www.w3.org/2000/svg"  height="48" viewBox="0 0 48 48" width="48"><path d="M0 0h48v48H0z" fill="none"/>
<g id="Shopicon">
	<path d="M40,8h-6V4h-4v4H18V4h-4v4H8c-2.206,0-4,1.794-4,4v28c0,2.206,1.794,4,4,4h32c2.206,0,4-1.794,4-4V12
		C44,9.794,42.206,8,40,8z M8,40V15h31.999l-0.005,25H8z"/>
	<circle cx="16" cy="24" r="2"/>
	<circle cx="24" cy="24" r="2"/>
	<circle cx="32" cy="24" r="2"/>
	<circle cx="16" cy="32" r="2"/>
	<circle cx="24" cy="32" r="2"/>
	<circle cx="32" cy="32" r="2"/>
</g>
</svg>
