<?xml version="1.0" encoding="utf-8"?><svg xmlns="http://www.w3.org/2000/svg" viewBox="0 0 48 48" style="enable-background:new 0 0 48 48" xml:space="preserve"><style>.st1,.st2,.st3,.st4{fill:none;stroke:#666;stroke-miterlimit:10}.st1{stroke-width:4;stroke-linecap:round;stroke-linejoin:round}.st2,.st3,.st4{stroke-width:5}.st3,.st4{stroke-width:4}.st4{stroke-width:2}.st7{fill:#6f6}.st8{fill:none;stroke:#6f6;stroke-width:.1;stroke-miterlimit:10}</style><g id="Your_Icons"><path style="fill:none" d="M0 0h48v48H0z"/><path d="m37.409 16.142-3.145 2.471a12.023 12.023 0 0 1 2.058 10.912c-1.928 6.33-8.645 9.908-14.975 7.987-6.329-1.927-9.912-8.644-7.987-14.974 1.383-4.543 5.237-7.656 9.64-8.349V19l11-7.071-11-7.071v5.287c-6.127.719-11.558 4.961-13.466 11.229-2.567 8.439 2.21 17.396 10.649 19.964a15.93 15.93 0 0 0 4.648.695c6.858-.001 13.219-4.451 15.316-11.345a16.01 16.01 0 0 0-2.738-14.546z"/></g></svg>