<?xml version="1.0" encoding="utf-8"?>
<svg version="1.1" id="Shopicons" xmlns="http://www.w3.org/2000/svg" xmlns:xlink="http://www.w3.org/1999/xlink" x="0px" y="0px"
	 viewBox="0 0 48 48" style="enable-background:new 0 0 48 48;" xml:space="preserve">
<style type="text/css">
	.st0{fill:none;}
	.st1{fill:#FFFFFF;}
</style>
<g id="linkedin_00000124154336345225334750000004695467072613960070_">
	<path class="st0" d="M0,0h48v48H0V0z"/>
	<path d="M34,44H14C8.5,44,4,39.5,4,34V14C4,8.5,8.5,4,14,4h20c5.5,0,10,4.5,10,10v20C44,39.5,39.5,44,34,44z"/>
	<circle class="st1" cx="15" cy="15" r="2"/>
	<path class="st1" d="M13,20h4v15h-4V20z M35,35h-4v-7.5c0-2.5-1-3.6-3-3.6L24,24v11h-4V20l8-0.2c3.4,0,7,2,7,7.6V35z"/>
</g>
</svg>
