<?xml version="1.0" encoding="utf-8"?><svg xmlns="http://www.w3.org/2000/svg"  height="48" viewBox="0 0 48 48" width="48"><path d="M0 0h48v48H0z" fill="none"/>
<g id="Shopicon">
	<circle cx="32" cy="16" r="4"/>
	<path d="M24,28h8c6.617,0,12-5.383,12-12S38.617,4,32,4H16C9.383,4,4,9.383,4,16v28h20V28z M20,40H8V28c1.105,0,2-0.895,2-2
		c0-1.105-0.895-2-2-2v-8c0-4.411,3.589-8,8-8h7.081C21.172,10.126,20,12.925,20,16v8c-1.105,0-2,0.895-2,2c0,1.105,0.895,2,2,2V40z
		 M32,24c-4.411,0-8-3.589-8-8s3.589-8,8-8s8,3.589,8,8S36.411,24,32,24z"/>
	<circle cx="14" cy="26" r="2"/>
</g>
</svg>
