<?xml version="1.0" encoding="utf-8"?><svg xmlns="http://www.w3.org/2000/svg"  height="48" viewBox="0 0 48 48" width="48"><path d="M0 0h48v48H0z" fill="none"/>
<g id="Shopicon">
	<path d="M10,33.36l-3.394,0.679l0.785,3.922l4.497-0.899C13.511,37.556,18.701,39,24,39c5.298,0,10.488-1.444,12.111-1.938
		l4.497,0.899l0.785-3.922L38,33.361V19.318l5.787-2.481l-1.576-3.676l-6.566,2.815c-1.431-0.118-3.024-0.909-4.705-1.753
		C28.762,13.13,26.509,12,24,12s-4.762,1.13-6.939,2.223c-1.682,0.844-3.275,1.636-4.706,1.754l-6.566-2.814l-1.576,3.676L10,19.318
		V33.36z M34,22v2H14v-2H34z M34,28v2H14v-2H34z"/>
</g>
</svg>
