<?xml version="1.0" encoding="utf-8"?><svg xmlns="http://www.w3.org/2000/svg"  height="48" viewBox="0 0 48 48" width="48"><path d="M0 0h48v48H0z" fill="none"/>
<g id="Shopicon">
	<path d="M40,36c2.2,0,4-1.8,4-4V8c0-2.2-1.8-4-4-4L8,4C5.8,4,4,5.8,4,8v36l8-8L40,36z M14,20c0-1.105,0.895-2,2-2s2,0.895,2,2
		c0,1.105-0.895,2-2,2S14,21.105,14,20z M22,20c0-1.105,0.895-2,2-2s2,0.895,2,2c0,1.105-0.895,2-2,2S22,21.105,22,20z M30,20
		c0-1.105,0.895-2,2-2s2,0.895,2,2c0,1.105-0.895,2-2,2S30,21.105,30,20z"/>
</g>
</svg>
