<?xml version="1.0" encoding="utf-8"?><svg xmlns="http://www.w3.org/2000/svg"  height="48" viewBox="0 0 48 48" width="48"><path d="M0 0h48v48H0z" fill="none"/>
<g id="Shopicon">
	<path d="M30,12V8c0-2.2-1.8-4-4-4h-4c-2.2,0-4,1.8-4,4v4v0H8v32h32V12L30,12L30,12z M22,8h4v4h-4V8z M14.101,26.586
		c0.781-0.781,2.047-0.781,2.828,0c0.781,0.781,0.781,2.047,0,2.828c-0.781,0.781-2.047,0.781-2.828,0
		C13.319,28.633,13.319,27.367,14.101,26.586z M17.636,23.05l1.414-1.414l4.95,4.95l4.95-4.95l1.414,1.414L25.414,28l4.95,4.95
		l-1.414,1.414L24,29.414l-4.95,4.95l-1.414-1.414l4.95-4.95L17.636,23.05z M22.586,18.1c0.781-0.781,2.047-0.781,2.828,0
		c0.781,0.781,0.781,2.047,0,2.828c-0.781,0.781-2.047,0.781-2.828,0C21.805,20.148,21.805,18.882,22.586,18.1z M25.414,37.899
		c-0.781,0.781-2.047,0.781-2.828,0c-0.781-0.781-0.781-2.047,0-2.828c0.781-0.781,2.047-0.781,2.828,0
		C26.195,35.852,26.195,37.118,25.414,37.899z M31.071,26.586c0.781-0.781,2.047-0.781,2.828,0c0.781,0.781,0.781,2.047,0,2.828
		c-0.781,0.781-2.047,0.781-2.828,0C30.29,28.633,30.29,27.367,31.071,26.586z"/>
</g>
</svg>
