<?xml version="1.0" encoding="utf-8"?><svg xmlns="http://www.w3.org/2000/svg"  height="48" viewBox="0 0 48 48" width="48"><path d="M0 0h48v48H0z" fill="none"/>
<g id="Shopicon">
	<path d="M26,30.554V27h-4v3.554c-1.191,0.693-2,1.969-2,3.445c0,2.209,1.791,4,4,4c2.209,0,4-1.791,4-4
		C28,32.522,27.19,31.247,26,30.554z"/>
	<path d="M24,3.999c-4.411,0-8,3.589-8,8V28.01c-1.287,1.717-2,3.818-2,5.989c0,5.514,4.486,10,10,10c5.514,0,10-4.486,10-10
		c0-2.171-0.713-4.272-2-5.989V11.999C32,7.588,28.411,3.999,24,3.999z M24,39.999c-3.314,0-6-2.686-6-6
		c0-1.775,0.775-3.365,2-4.463V11.999c0-2.2,1.8-4,4-4c2.2,0,4,1.8,4,4v17.537c1.225,1.098,2,2.688,2,4.463
		C30,37.313,27.313,39.999,24,39.999z"/>
</g>
</svg>
