<?xml version="1.0" encoding="utf-8"?><svg xmlns="http://www.w3.org/2000/svg"  height="48" viewBox="0 0 48 48" width="48"><path d="M0 0h48v48H0z" fill="none"/>
<g id="Shopicon">
	<path d="M41.063,17.787l0.036-0.036l-0.719-0.719c0,0,0,0,0,0l-0.221-0.221L29.078,5.73c-3.898-3.898-10.243-3.898-14.142,0
		l-3.122,3.122L7.946,4.983L5.117,7.812l3.869,3.869l-1.121,1.121c-3.431,3.43-3.839,8.753-1.233,12.638
		c-1.401,1.952-1.24,4.689,0.514,6.443c0.442,0.441,0.947,0.783,1.486,1.024c-0.079,0.355-0.119,0.722-0.119,1.096
		c0,1.338,0.519,2.593,1.46,3.535c1.205,1.205,3.003,1.703,4.631,1.342c0.242,0.54,0.583,1.045,1.026,1.487
		c1.737,1.736,4.443,1.926,6.392,0.569c0.191,0.3,0.418,0.584,0.68,0.846c0.975,0.974,2.255,1.461,3.535,1.461
		s2.561-0.487,3.535-1.462l4.657-4.657l5.515,5.515l2.829-2.828l-5.515-5.515l3.122-3.121
		C44.037,27.518,44.264,21.711,41.063,17.787z M17.765,8.559c2.34-2.34,6.146-2.34,8.485,0l5.645,5.645l0,0l1.215,1.215
		c-1.336,0.766-2.245,0.568-2.434,0.513l-8.96-5.689l-4.255,4.255l-2.817-2.817L17.765,8.559z M10.693,15.63l1.121-1.121
		l2.817,2.817l-5.1,5.099C8.484,20.199,8.857,17.467,10.693,15.63z M26.945,38.953c-0.383,0.383-1.031,0.383-1.414,0
		c-0.383-0.384-0.383-1.031,0-1.414l3.536-3.536l-2.828-2.828l-3.536,3.536l-0.001-0.001l-2.828,2.829
		c-0.383,0.383-1.031,0.383-1.415,0c-0.383-0.384-0.383-1.031,0-1.415l0,0l6.364-6.364l-2.828-2.828l-6.364,6.364h0
		c-0.001,0.002-0.003,0.004-0.005,0.005l-1.409,1.409c-0.252,0.252-0.551,0.289-0.708,0.289c-0.156,0-0.455-0.037-0.707-0.289
		c-0.251-0.252-0.289-0.552-0.289-0.707c0-0.156,0.037-0.455,0.289-0.707l1.414-1.414l6.364-6.364l-2.828-2.828l-6.364,6.364
		c-0.383,0.383-1.031,0.383-1.414,0c-0.383-0.384-0.383-1.031,0-1.415l7.485-7.485l14.143,14.142L26.945,38.953z M37.552,28.347
		l-3.121,3.121L20.288,17.326l1.988-1.988l6.396,4.061l0.178,0.101c1.313,0.655,4.108,0.988,7.145-1.196l1.336,1.336l0.221,0.221
		C39.892,22.2,39.892,26.007,37.552,28.347z"/>
</g>
</svg>
