<?xml version="1.0" encoding="utf-8"?><svg xmlns="http://www.w3.org/2000/svg"  height="48" viewBox="0 0 48 48" width="48"><path d="M0 0h48v48H0z" fill="none"/>
<g id="Shopicon">
	<path d="M37.477,19.116l-0.598-1.271l-1.399,0.131C35.322,17.99,35.162,18,35,18c-2.757,0-5-2.243-5-5
		c0-0.162,0.01-0.322,0.024-0.479l0.131-1.399l-1.271-0.598C27.132,9.701,26,7.926,26,6V4h-2C12.972,4,4,12.972,4,24s8.972,20,20,20
		c11.028,0,20-8.972,20-20v-2h-2C40.074,22,38.299,20.868,37.477,19.116z M15.414,25.414c-0.781,0.781-2.047,0.781-2.828,0
		c-0.781-0.781-0.781-2.047,0-2.828c0.781-0.781,2.047-0.781,2.828,0C16.195,23.367,16.195,24.633,15.414,25.414z M25.414,25.414
		c-0.781,0.781-2.047,0.781-2.828,0c-0.781-0.781-0.781-2.047,0-2.828c0.781-0.781,2.047-0.781,2.828,0
		C26.195,23.367,26.195,24.633,25.414,25.414z M22.586,32.586c0.781-0.781,2.047-0.781,2.828,0c0.781,0.781,0.781,2.047,0,2.828
		c-0.781,0.781-2.047,0.781-2.828,0C21.805,34.633,21.805,33.367,22.586,32.586z"/>
</g>
</svg>
