<?xml version="1.0" encoding="utf-8"?><svg xmlns="http://www.w3.org/2000/svg"  height="48" viewBox="0 0 48 48" width="48"><path d="M0 0h48v48H0z" fill="none"/>
<g id="Shopicon">
	<rect x="4" y="26" width="6" height="4"/>
	<rect x="4" y="18" width="6" height="4"/>
	<rect x="4" y="10" width="6" height="4"/>
	<path d="M44,24l-4-8h-4v-4c0-2.2-1.8-4-4-4H16c-2.2,0-4,1.8-4,4v20c0,2.2,1.8,4,4,4h2c0,2.209,1.791,4,4,4s4-1.791,4-4h7
		c0,2.209,1.791,4,4,4s4-1.791,4-4h3V24z M38,36c0,0.551-0.449,1-1,1s-1-0.449-1-1s0.449-1,1-1S38,35.449,38,36z M22,37
		c-0.551,0-1-0.449-1-1s0.449-1,1-1s1,0.449,1,1S22.551,37,22,37z M41,26h-1c-2.2,0-4-1.8-4-4v-3h2.146L41,24.708V26z"/>
</g>
</svg>
