<?xml version="1.0" encoding="utf-8"?><svg version="1.1" id="Shopicons" xmlns="http://www.w3.org/2000/svg" x="0" y="0" viewBox="0 0 48 48" xml:space="preserve"><style>.st1{fill:#fff}.st2,.st3{fill:none;stroke:#666;stroke-width:4;stroke-miterlimit:10}.st3{stroke-width:6}</style><g id="twitter_00000030472991917092412760000014310866260251562630_"><path d="M0-.006h48v48H0v-48z" fill="none"/><path d="M32.479 8a8.492 8.492 0 0 0-8.492 8.492c0 .221-.41.35-1.127.35-2.742 0-9.967-1.89-15.857-7.781-2.123 4.246-3.185 14.862 10.616 22.293-4.781 4.332-10.139 5.703-13.075 5.704.114.166.211.34.334.501 2.517 3.287 7.386 4.932 12.669 4.932 5.191 0 10.781-1.588 14.934-4.768 6.322-4.84 8.492-12.739 8.492-21.231V15.43l2.921-6.406-6.234.748A8.461 8.461 0 0 0 32.479 8z"/></g></svg>