<?xml version="1.0" encoding="utf-8"?><svg xmlns="http://www.w3.org/2000/svg"  height="48" viewBox="0 0 48 48" width="48"><path d="M0 0h48v48H0z" fill="none"/>
<g id="Shopicon">
	<path d="M41.599,25.199c-1.713-1.284-3.895-1.504-5.758-0.79C35.103,20.753,31.873,18,28,18c-0.814,0-1.598,0.123-2.338,0.349
		C24.214,16.898,22.212,16,20,16c-4.418,0-8,3.582-8,8c0,0.242,0.015,0.481,0.036,0.718C7.208,25.952,4,28.674,4,32v12h20
		c10.869,0,18.481-9.975,18.801-10.399C44.785,30.953,44.247,27.185,41.599,25.199z M24,40H10H8v-8c0-1.631,3.896-4,10-4
		c4.975,0,8.482,1.573,9.61,3.038C26.46,31.615,25.229,32,24,32h-8v4h8c6.974,0,12.353-7.136,12.399-7.199
		c0.661-0.881,1.919-1.062,2.801-0.401c0.882,0.662,1.062,1.919,0.4,2.801C39.331,31.559,32.893,40,24,40z"/>
	<circle cx="9.182" cy="14" r="2"/>
	<circle cx="15.182" cy="10" r="2"/>
	<circle cx="36.182" cy="16" r="2"/>
</g>
</svg>
