<?xml version="1.0" encoding="utf-8"?><svg xmlns="http://www.w3.org/2000/svg"  height="48" viewBox="0 0 48 48" width="48"><path d="M0 0h48v48H0z" fill="none"/>
<g id="Shopicon">
	<path d="M19.827,21.692h0.346C21.654,24.316,24.459,26,27.538,26C32.204,26,36,22.204,36,17.538c0-4.665-3.796-8.461-8.462-8.461
		H12.462C7.796,9.077,4,12.873,4,17.538C4,22.204,7.796,26,12.462,26C15.541,26,18.346,24.316,19.827,21.692z"/>
	<path d="M38,32c0,4.411-3.589,8-8,8h-2c-3.38,0-4.878-2.18-5.526-4.403C23.38,35.08,24,34.116,24,33c0-1.654-1.346-3-3-3h-2
		c-1.654,0-3,1.346-3,3c0,1.461,1.051,2.678,2.437,2.943C19.613,40.941,23.107,44,28,44h2c6.448,0,11.71-5.116,11.975-11.5H42V4h-4
		V32z"/>
</g>
</svg>
