<?xml version="1.0" encoding="utf-8"?><svg version="1.1" id="Shopicons" xmlns="http://www.w3.org/2000/svg" x="0" y="0" viewBox="0 0 48 48" xml:space="preserve"><style>.st1{fill:#fff}.st2,.st3{fill:none;stroke:#666;stroke-width:4;stroke-miterlimit:10}.st3{stroke-width:6}</style><g id="github_00000178918564504449926280000008731996709616696990_"><path d="M0 .011h48v48H0v-48z" fill="none"/><path d="M30 44.004v-10c0-.884-.197-1.722-.542-2.479.825-.167 1.65-.358 2.472-.601 2.527-.746 6.154-3.839 7.226-6.863 1.188-3.356 1.188-6.76 0-10.116l-.001-.001c-.213-.603-.537-1.211-.998-1.868.848-3.154.253-5.792.225-5.915l-.365-1.564-1.606.019c-.15.002-3.48.063-6.724 1.955a29.635 29.635 0 0 0-11.371 0c-3.243-1.892-6.573-1.953-6.724-1.955l-1.608-.019-.365 1.564c-.028.123-.623 2.761.225 5.915-.461.657-.785 1.266-.999 1.869-1.187 3.356-1.187 6.76.001 10.117 1.07 3.023 4.697 6.116 7.225 6.862.822.243 1.647.434 2.472.601A5.946 5.946 0 0 0 18 34.004v1.281c-.062.036-.127.065-.187.108-.289.211-2.869 1.967-5.505.09-.93-.946-1.386-1.639-1.826-2.309-.988-1.5-1.841-2.586-4.588-3.96a2 2 0 1 0-1.789 3.579c1.991.995 2.341 1.525 3.035 2.581.515.781 1.155 1.754 2.445 3.044l.215.186c1.692 1.27 3.447 1.723 5.053 1.723A9.286 9.286 0 0 0 18 39.76v4.253l12-.009z"/></g></svg>