<?xml version="1.0" encoding="utf-8"?><svg xmlns="http://www.w3.org/2000/svg"  height="48" viewBox="0 0 48 48" width="48"><path d="M0 0h48v48H0z" fill="none"/>
<g id="Shopicon">
	<path d="M40,10h-4.349C35.873,9.374,36,8.702,36,8c0-3.314-2.686-6-6-6s-6,2.686-6,6c0,0.455,0.055,0.897,0.151,1.323L24,9.172
		l-0.151,0.151C23.945,8.897,24,8.455,24,8c0-3.314-2.686-6-6-6s-6,2.686-6,6c0,0.702,0.127,1.374,0.349,2H8c-2.2,0-4,1.8-4,4v11v4
		v9c0,2.2,1.8,4,4,4h14h4h14c2.2,0,4-1.8,4-4V14C44,11.8,42.2,10,40,10z M18,6c1.103,0,2,0.897,2,2s-0.897,2-2,2
		c-1.103,0-2-0.897-2-2S16.897,6,18,6z M22,38H8v-9h14V38z M22,25H8V14h11.172l-6,6L16,22.828l6-6V25z M30,6c1.103,0,2,0.897,2,2
		s-0.897,2-2,2c-1.103,0-2-0.897-2-2S28.897,6,30,6z M40,38H26v-9h14V38z M40,25H26v-8.172l6,6L34.828,20l-6-6H40V25z"/>
</g>
</svg>
