<?xml version="1.0" encoding="utf-8"?><svg xmlns="http://www.w3.org/2000/svg"  height="48" viewBox="0 0 48 48" width="48"><path d="M0 0h48v48H0z" fill="none"/>
<g id="Shopicon">
	<polygon points="14.857,28.896 9.923,40 20,40 32,40 40,40 40,36 16.078,36 18.3,31 38.441,31 44.53,12.735 40.735,11.47 
		35.559,27 18.441,27 11.441,6 4,6 4,10 8.559,10 	"/>
	<circle cx="20" cy="42" r="2"/>
	<circle cx="32" cy="42" r="2"/>
	<polygon points="29,20 29,14 35,14 35,10 29,10 29,4 25,4 25,10 19,10 19,14 25,14 25,20 	"/>
</g>
</svg>
