<?xml version="1.0" encoding="utf-8"?><svg xmlns="http://www.w3.org/2000/svg"  height="48" viewBox="0 0 48 48" width="48"><path d="M0 0h48v48H0z" fill="none"/>
<g id="Shopicon">
	<path d="M8.162,33.393C6.842,34.495,6,36.15,6,38c0,3.309,2.691,6,6,6s6-2.691,6-6c0-1.538-0.586-2.937-1.54-4h3.081
		C18.586,35.063,18,36.462,18,38c0,3.309,2.691,6,6,6s6-2.691,6-6c0-1.538-0.586-2.937-1.54-4h3.081C30.586,35.063,30,36.462,30,38
		c0,3.309,2.691,6,6,6s6-2.691,6-6c0-1.85-0.842-3.505-2.162-4.607C42.286,32.302,44,29.849,44,27c0-3.859-3.14-7-7-7
		C25.646,20,20.954,5.547,20.909,5.403L20.47,4H4v23C4,29.849,5.714,32.302,8.162,33.393z M24,40c-1.103,0-2-0.897-2-2s0.897-2,2-2
		s2,0.897,2,2S25.103,40,24,40z M17.085,21.086l-2.828-2.828l4.5-4.5l2.828,2.828L17.085,21.086z M24.415,19.414l2.828,2.828
		l-4.5,4.5l-2.828-2.828L24.415,19.414z M12,40c-1.103,0-2-0.897-2-2s0.897-2,2-2s2,0.897,2,2S13.103,40,12,40z M36,40
		c-1.103,0-2-0.897-2-2s0.897-2,2-2s2,0.897,2,2S37.103,40,36,40z"/>
</g>
</svg>
