<?xml version="1.0" encoding="utf-8"?><svg xmlns="http://www.w3.org/2000/svg"  height="48" viewBox="0 0 48 48" width="48"><path d="M0 0h48v48H0z" fill="none"/>
<g id="Shopicon">
	<rect x="21.757" y="26.757" transform="matrix(0.7071 -0.7071 0.7071 0.7071 -13.4766 25.4645)" width="4.486" height="4.486"/>
	<path d="M36,28c0-0.693-0.05-1.375-0.121-2.051c-0.17-1.608-0.535-3.152-1.06-4.596c-0.557-1.53-1.291-2.939-2.166-4.177
		c-0.804-1.138-1.723-2.126-2.729-2.927c-0.179-0.143-0.359-0.281-0.544-0.411C29.743,13.332,30.332,13,31,13c1.103,0,2,0.897,2,2h4
		c0-3.309-2.691-6-6-6c-0.787,0-1.537,0.156-2.226,0.433C29.95,8.538,31.412,8,33,8V4c-3.72,0-7.008,1.861-9,4.695
		C22.008,5.861,18.72,4,15,4v4c1.588,0,3.05,0.538,4.226,1.433C18.537,9.156,17.787,9,17,9c-3.309,0-6,2.691-6,6h4
		c0-1.103,0.897-2,2-2c0.668,0,1.257,0.333,1.621,0.837c-0.184,0.13-0.365,0.269-0.544,0.411c-1.006,0.802-1.925,1.79-2.729,2.927
		c-0.876,1.238-1.609,2.647-2.166,4.177c-0.526,1.444-0.89,2.988-1.06,4.596C12.05,26.625,12,27.307,12,28
		c0,1.353,0.001,2.738,0.072,4.1c0.089,1.713,0.288,3.389,0.739,4.917c0.455,1.543,1.172,2.932,2.283,4.06
		c0.89,0.903,2.036,1.637,3.513,2.143C20.062,43.719,21.833,44,24,44s3.938-0.281,5.393-0.779c1.477-0.506,2.623-1.24,3.513-2.143
		c1.112-1.128,1.828-2.518,2.284-4.061c0.451-1.528,0.65-3.204,0.739-4.917C35.999,30.738,36,29.353,36,28z M30.09,38.262
		c-0.877,0.888-2.164,1.416-4.032,1.624L24,37.828l-2.058,2.058c-1.868-0.208-3.156-0.736-4.032-1.624L21.172,35L18,31.828
		l-1.811,1.811C16.024,32.08,16,30.214,16,28c0-1.203,0.142-2.355,0.387-3.441L18,26.172L21.172,23l-2.945-2.945
		c0.786-1.243,1.719-2.248,2.709-2.947L24,20.172l3.063-3.063c0.99,0.699,1.924,1.704,2.709,2.947L26.828,23L30,26.172l1.613-1.613
		C31.858,25.645,32,26.797,32,28c0,2.214-0.024,4.08-0.189,5.639L30,31.828L26.828,35L30.09,38.262z"/>
</g>
</svg>
