<?xml version="1.0" encoding="utf-8"?><svg xmlns="http://www.w3.org/2000/svg"  height="48" viewBox="0 0 48 48" width="48"><path d="M0 0h48v48H0z" fill="none"/>
<g id="Shopicon">
	<path d="M38.965,12c-2.737-4.087-7.108-6.972-12.175-7.762c-0.239-0.041-0.478-0.08-0.721-0.11
		c-0.15-0.017-0.301-0.033-0.452-0.046C25.112,4.033,24.602,4,24.083,4c-0.014,0-0.028,0.002-0.042,0.002
		C24.028,4.002,24.014,4,24,4c-4.76,0-9.076,1.861-12.295,4.878l-3.12-3.12L5.757,8.586l3.331,3.331C7.139,14.794,6,18.264,6,22
		c0,3.327,0.918,6.432,2.492,9.106l-1.718,1.718c-1.556,1.556-1.556,4.101,0,5.657l2.828,2.828c0.778,0.778,1.803,1.167,2.828,1.167
		c1.025,0,2.051-0.389,2.828-1.167l2.458-2.458C19.676,39.581,21.787,40,24,40c2.259,0,4.412-0.434,6.404-1.194l2.503,2.503
		c0.778,0.778,1.803,1.167,2.828,1.167c1.025,0,2.051-0.389,2.828-1.167l2.828-2.828c1.556-1.556,1.556-4.101,0-5.657l-1.821-1.821
		c0.571-0.985,1.047-2.027,1.425-3.118c1.762-0.417,3.087-1.999,3.087-3.884c0,0-0.083-8,0-8C41,16,38.965,12,38.965,12z M32,20
		c0-1.105,0.895-2,2-2s2,0.895,2,2c0,1.105-0.895,2-2,2S32,21.105,32,20z M27.198,12.67c-2.033-0.889-4.363-0.889-6.396,0
		l-1.604-3.664c3.051-1.336,6.553-1.336,9.604,0L27.198,12.67z"/>
</g>
</svg>
