<?xml version="1.0" encoding="utf-8"?><svg xmlns="http://www.w3.org/2000/svg"  height="48" viewBox="0 0 48 48" width="48"><path d="M0 0h48v48H0z" fill="none"/>
<g id="Shopicon">
	<path d="M4.582,39.293C5.637,41.545,8.016,43,10.642,43h13.963c2.549,0,4.836-1.613,5.691-4.015
		c0.635-1.781,1.493-3.387,2.55-4.771c1.636-2.142,3.267-3.149,4.845-4.123c0.437-0.27,0.878-0.544,1.31-0.839V43h4V21.794
		c0-0.037,0-0.074,0-0.112V21h-0.031c-0.215-3.277-1.725-7.255-4.561-12.022l-2.441-4.104l-1.212,4.619
		c-1.093,4.169-3.555,10.155-9.076,15.006c-3.084,2.711-5.521,4.852-9.269,5.534c-1.271,0.232-2.605,0.299-3.896,0.363
		c-2.932,0.147-5.701,0.286-7.3,2.396c-1.329,1.754-1.26,3.802-1.207,4.385C4.072,37.905,4.266,38.617,4.582,39.293z"/>
</g>
</svg>
