<?xml version="1.0" encoding="utf-8"?><svg xmlns="http://www.w3.org/2000/svg"  height="48" viewBox="0 0 48 48" width="48"><path d="M0 0h48v48H0z" fill="none"/>
<g id="Shopicon">
	<ellipse cx="24" cy="24" rx="6" ry="4"/>
	<path d="M37.5,38H40c2.2,0,4-1.8,4-4v-2.5C40.416,31.5,37.5,34.416,37.5,38z"/>
	<path d="M10.5,10H8c-2.2,0-4,1.8-4,4v2.5C7.584,16.5,10.5,13.584,10.5,10z"/>
	<path d="M44,16.5V14c0-2.2-1.8-4-4-4h-2.5C37.5,13.584,40.416,16.5,44,16.5z"/>
	<path d="M34.5,10h-21c0,5.238-4.262,9.5-9.5,9.5v9c5.238,0,9.5,4.262,9.5,9.5h21c0-5.238,4.262-9.5,9.5-9.5v-9
		C38.762,19.5,34.5,15.238,34.5,10z M34,24c0,4.411-4.486,8-10,8s-10-3.589-10-8s4.486-8,10-8S34,19.589,34,24z"/>
	<path d="M4,31.5V34c0,2.2,1.8,4,4,4h2.5C10.5,34.416,7.584,31.5,4,31.5z"/>
</g>
</svg>
