<?xml version="1.0" encoding="utf-8"?><svg xmlns="http://www.w3.org/2000/svg"  height="48" viewBox="0 0 48 48" width="48"><path d="M0 0h48v48H0z" fill="none"/>
<g id="Shopicon">
	<path d="M40,12h-4.349C35.873,11.374,36,10.702,36,10c0-3.314-2.686-6-6-6s-6,2.686-6,6c0,0.455,0.055,0.897,0.151,1.323L26.829,14
		l0,0l8,8L32,24.828l-8-8l-8,8L13.171,22l8-8l0,0l2.677-2.677C23.945,10.897,24,10.455,24,10c0-3.314-2.686-6-6-6s-6,2.686-6,6
		c0,0.702,0.127,1.374,0.349,2H8c-2.2,0-4,1.8-4,4v13h40V16C44,13.8,42.2,12,40,12z M16,10c0-1.103,0.897-2,2-2s2,0.897,2,2
		s-0.897,2-2,2S16,11.103,16,10z M28,10c0-1.103,0.897-2,2-2s2,0.897,2,2s-0.897,2-2,2S28,11.103,28,10z"/>
	<path d="M4,35v5c0,2.2,1.8,4,4,4h32c2.2,0,4-1.8,4-4v-5H4z"/>
</g>
</svg>
