<?xml version="1.0" encoding="utf-8"?><svg xmlns="http://www.w3.org/2000/svg"  height="48" viewBox="0 0 48 48" width="48"><path d="M0 0h48v48H0z" fill="none"/>
<g id="Shopicon">
	<path d="M24,42c9.941,0,18-8.059,18-18S33.941,6,24,6S6,14.059,6,24S14.059,42,24,42z M26.211,17.105
		c0.494-0.987,1.692-1.389,2.684-0.895l2,1c0.988,0.494,1.389,1.695,0.895,2.684C31.438,20.596,30.732,21,29.998,21
		c-0.3,0-0.605-0.067-0.893-0.211l-2-1C26.117,19.295,25.717,18.094,26.211,17.105z M17.105,17.211l2-1
		c0.986-0.495,2.189-0.095,2.684,0.895c0.494,0.988,0.093,2.189-0.895,2.684l-2,1C18.607,20.933,18.302,21,18.001,21
		c-0.733,0-1.44-0.404-1.791-1.105C15.717,18.906,16.118,17.705,17.105,17.211z M24,24c4.411,0,8,3.589,8,8h-4c0-2.206-1.794-4-4-4
		c-2.206,0-4,1.794-4,4h-4C16,27.589,19.589,24,24,24z"/>
</g>
</svg>
