<?xml version="1.0" encoding="utf-8"?><svg xmlns="http://www.w3.org/2000/svg"  height="48" viewBox="0 0 48 48" width="48"><path d="M0 0h48v48H0z" fill="none"/>
<g id="Shopicon">
	<path d="M36.23,20.781C38.491,19.368,40,16.863,40,14c0-4.418-3.582-8-8-8s-8,3.582-8,8c0,2.863,1.509,5.368,3.77,6.781
		c-0.956,0.361-1.855,0.835-2.677,1.415L7.423,4.526L4.595,7.354l10.682,10.682C11.198,18.402,8,21.826,8,26
		c0,2.863,1.509,5.368,3.77,6.781C7.232,34.492,4,38.862,4,44h24c0-5.138-3.232-9.508-7.77-11.219
		c0.371-0.232,0.722-0.493,1.049-0.781h7.961l11.183,11.183l2.829-2.828L34.897,32H44C44,26.862,40.768,22.492,36.23,20.781z M32,22
		c1.091,0,2.129-0.22,3.077-0.615L32,26l-3.077-4.615C29.871,21.78,30.909,22,32,22z M16,38l-3.077-4.615
		C13.871,33.78,14.909,34,16,34s2.129-0.22,3.077-0.615L16,38z"/>
</g>
</svg>
