<?xml version="1.0" encoding="utf-8"?><svg xmlns="http://www.w3.org/2000/svg"  height="48" viewBox="0 0 48 48" width="48"><path d="M0 0h48v48H0z" fill="none"/>
<g id="Shopicon">
	<path d="M14.587,35.935C16.958,38.433,20.298,40,24.005,40c3.707,0,7.049-1.568,9.419-4.066C36.197,35.267,44,28.865,44,24
		c0-1.761-0.855-5.791-8.452-5.982l-11.544-6.296l-11.543,6.296C4.855,18.205,3.999,22.238,3.999,24
		C3.999,28.873,11.827,35.286,14.587,35.935z M17.048,28v-2H31v2H17.048z M29,30v2H19v-2H29z M17.048,24v-2H31v2H17.048z M40,24
		c0,1.217-1.464,3.072-3.12,4.702c0.074-0.558,0.125-1.124,0.125-1.702v-4.868C38.439,22.329,40,22.815,40,24z M11.005,22.13V27
		c0,0.583,0.052,1.153,0.127,1.715C9.47,27.082,7.999,25.22,7.999,24C7.999,22.812,9.568,22.327,11.005,22.13z"/>
</g>
</svg>
