<?xml version="1.0" encoding="utf-8"?><svg xmlns="http://www.w3.org/2000/svg"  height="48" viewBox="0 0 48 48" width="48"><path d="M0 0h48v48H0z" fill="none"/>
<g id="Shopicon">
	<path d="M40.661,14.618c-1.706-2.953-4.825-4.834-8.218-4.984C30.66,6.815,27.525,5,24.001,5c-3.525,0-6.659,1.816-8.442,4.634
		c-3.393,0.151-6.513,2.031-8.218,4.984c-1.761,3.049-1.757,6.667-0.213,9.619c-1.545,2.952-1.548,6.57,0.213,9.619
		c1.708,2.956,4.829,4.839,8.222,4.991c1.784,2.815,4.916,4.627,8.438,4.627c3.522,0,6.654-1.812,8.438-4.627
		c3.394-0.152,6.515-2.035,8.222-4.991c1.761-3.049,1.757-6.667,0.213-9.619C42.418,21.285,42.422,17.667,40.661,14.618z
		 M36.33,31.356c-0.371,0.642-1.042,1-1.734,1c-0.339,0-0.683-0.086-0.998-0.268l-3.189-1.842c0.914-0.974,1.612-2.15,2.01-3.459
		l3.179,1.836C36.555,29.177,36.882,30.4,36.33,31.356z M24,38.475c-1.104,0-2-0.896-2-2v-3.677c0.644,0.15,1.311,0.238,2,0.238
		s1.356-0.088,2-0.238v3.677C26,37.579,25.105,38.475,24,38.475z M12.403,28.623l3.179-1.835c0.397,1.309,1.096,2.485,2.01,3.459
		l-3.189,1.841c-0.315,0.182-0.659,0.268-0.998,0.268c-0.691,0-1.364-0.358-1.734-1C11.119,30.398,11.446,29.176,12.403,28.623z
		 M11.671,17.118c0.553-0.957,1.775-1.284,2.732-0.732l3.189,1.842c-0.914,0.974-1.612,2.15-2.01,3.459l-3.179-1.836
		C11.446,19.298,11.119,18.074,11.671,17.118z M26,12v3.677c-0.644-0.15-1.311-0.238-2-0.238s-1.356,0.088-2,0.238V12
		c0-1.104,0.896-2,2-2S26,10.896,26,12z M35.598,19.852l-3.179,1.835c-0.397-1.309-1.096-2.485-2.01-3.459l3.189-1.841
		c0.957-0.551,2.181-0.224,2.732,0.732C36.882,18.076,36.555,19.299,35.598,19.852z M28.799,24.237c0,2.646-2.152,4.799-4.798,4.799
		s-4.798-2.152-4.798-4.799s2.152-4.799,4.798-4.799S28.799,21.591,28.799,24.237z"/>
</g>
</svg>
