<?xml version="1.0" encoding="utf-8"?><svg xmlns="http://www.w3.org/2000/svg"  height="48" viewBox="0 0 48 48" width="48"><path d="M0 0h48v48H0z" fill="none"/>
<g id="Shopicon">
	<path d="M42,12h-0.349C41.873,11.374,42,10.702,42,10c0-3.314-2.686-6-6-6s-6,2.686-6,6c0,0.455,0.055,0.897,0.151,1.323L32.829,14
		l0,0l6,6L36,22.828l-6-6l-6,6L21.171,20l6-6l0,0l2.677-2.677C29.945,10.897,30,10.455,30,10c0-3.314-2.686-6-6-6s-6,2.686-6,6
		c0,0.702,0.127,1.374,0.349,2H18c-1.469,0-2.746,0.812-3.441,2H14C7.4,14,2,19.4,2,26v12h4c0,3.314,2.686,6,6,6s6-2.686,6-6h8
		c0,3.314,2.686,6,6,6s6-2.686,6-6h4c2.2,0,4-1.8,4-4V16C46,13.8,44.2,12,42,12z M36,8c1.103,0,2,0.897,2,2s-0.897,2-2,2
		s-2-0.897-2-2S34.897,8,36,8z M24,8c1.103,0,2,0.897,2,2s-0.897,2-2,2s-2-0.897-2-2S22.897,8,24,8z M34,38c0,1.103-0.897,2-2,2
		c-1.103,0-2-0.897-2-2s0.897-2,2-2C33.103,36,34,36.897,34,38z M14,38c0,1.103-0.897,2-2,2s-2-0.897-2-2s0.897-2,2-2
		S14,36.897,14,38z M14,17v4.045c-1.867,0.186-3.38,1.374-3.841,2.955H5.232C6.145,19.998,9.726,17,14,17z"/>
</g>
</svg>
